# vtk DataFile Version 4.0
[MyVLM domain - lattices] 
ASCII
DATASET UNSTRUCTURED_GRID
POINTS 302 float
1.2444999999999997 -1.2445 0.0
1.2399745454545452 -1.2399745454545454 0.0
1.2346178849721705 -1.2346178849721707 0.0
1.2284300185528754 -1.2284300185528756 0.0
1.2214109461966602 -1.2214109461966605 0.0
1.2135606679035247 -1.213560667903525 0.0
1.2048791836734691 -1.2048791836734694 0.0
1.1953664935064932 -1.1953664935064934 0.0
1.1850225974025972 -1.1850225974025974 0.0
1.1738474953617808 -1.173847495361781 0.0
1.1618411873840442 -1.1618411873840444 0.0
1.1490036734693874 -1.1490036734693876 0.0
1.1353349536178106 -1.1353349536178108 0.0
1.1208350278293133 -1.1208350278293135 0.0
1.1055038961038959 -1.105503896103896 0.0
1.0893415584415582 -1.0893415584415584 0.0
1.0723480148423004 -1.0723480148423006 0.0
1.054523265306122 -1.0545232653061223 0.0
1.0358673098330238 -1.035867309833024 0.0
1.0163801484230053 -1.0163801484230055 0.0
0.9960617810760664 -0.9960617810760668 0.0
0.9749122077922076 -0.9749122077922077 0.0
0.9529314285714284 -0.9529314285714284 0.0
0.9301194434137288 -0.930119443413729 0.0
0.9064762523191091 -0.9064762523191096 0.0
0.8820018552875695 -0.8820018552875695 0.0
0.8566962523191093 -0.8566962523191094 0.0
0.8305594434137288 -0.8305594434137291 0.0
0.8035914285714284 -0.8035914285714285 0.0
0.7757922077922076 -0.7757922077922077 0.0
0.7471617810760666 -0.7471617810760667 0.0
0.7177001484230053 -0.7177001484230054 0.0
0.6874073098330239 -0.687407309833024 0.0
0.6562832653061222 -0.6562832653061225 0.0
0.6243280148423004 -0.6243280148423005 0.0
0.5915415584415582 -0.5915415584415583 0.0
0.5579238961038958 -0.5579238961038959 0.0
0.5234750278293133 -0.5234750278293134 0.0
0.48819495361781057 -0.48819495361781057 0.0
0.4520836734693877 -0.4520836734693877 0.0
0.4151411873840445 -0.4151411873840446 0.0
0.37736749536178105 -0.37736749536178116 0.0
0.3387625974025974 -0.3387625974025974 0.0
0.2993264935064933 -0.29932649350649343 0.0
0.25905918367346925 -0.25905918367346925 0.0
0.21796066790352486 -0.21796066790352486 0.0
0.17603094619666027 -0.1760309461966605 0.0
0.13327001855287546 -0.13327001855287568 0.0
0.08967788497217066 -0.08967788497217066 0.0
0.045254545454545436 -0.045254545454545436 0.0
0.0 0.0 0.0
0.04525454545454545 0.04525454545454546 0.0
0.08967788497217066 0.08967788497217068 0.0
0.13327001855287568 0.1332700185528757 0.0
0.17603094619666046 0.1760309461966605 0.0
0.21796066790352497 0.21796066790352508 0.0
0.2590591836734693 0.25905918367346936 0.0
0.29932649350649343 0.2993264935064935 0.0
0.3387625974025973 0.33876259740259734 0.0
0.37736749536178094 0.377367495361781 0.0
0.41514118738404443 0.4151411873840445 0.0
0.45208367346938766 0.4520836734693878 0.0
0.48819495361781057 0.4881949536178107 0.0
0.5234750278293133 0.5234750278293134 0.0
0.5579238961038959 0.557923896103896 0.0
0.5915415584415582 0.5915415584415583 0.0
0.6243280148423003 0.6243280148423004 0.0
0.6562832653061222 0.6562832653061225 0.0
0.687407309833024 0.6874073098330241 0.0
0.7177001484230054 0.7177001484230056 0.0
0.7471617810760667 0.7471617810760669 0.0
0.7757922077922076 0.7757922077922077 0.0
0.8035914285714284 0.8035914285714285 0.0
0.8305594434137288 0.830559443413729 0.0
0.8566962523191093 0.8566962523191094 0.0
0.8820018552875692 0.8820018552875695 0.0
0.9064762523191091 0.9064762523191093 0.0
0.9301194434137288 0.9301194434137292 0.0
0.9529314285714284 0.9529314285714284 0.0
0.9749122077922076 0.9749122077922077 0.0
0.9960617810760666 0.9960617810760668 0.0
1.0163801484230053 1.0163801484230055 0.0
1.0358673098330238 1.035867309833024 0.0
1.054523265306122 1.0545232653061223 0.0
1.0723480148423001 1.0723480148423004 0.0
1.0893415584415582 1.0893415584415584 0.0
1.1055038961038959 1.105503896103896 0.0
1.120835027829313 1.1208350278293133 0.0
1.1353349536178106 1.1353349536178106 0.0
1.1490036734693874 1.1490036734693876 0.0
1.1618411873840444 1.1618411873840446 0.0
1.1738474953617808 1.173847495361781 0.0
1.1850225974025972 1.1850225974025972 0.0
1.1953664935064932 1.1953664935064934 0.0
1.2048791836734691 1.2048791836734694 0.0
1.2135606679035245 1.2135606679035247 0.0
1.22141094619666 1.2214109461966602 0.0
1.2284300185528754 1.2284300185528756 0.0
1.2346178849721703 1.2346178849721705 0.0
1.2399745454545452 1.2399745454545454 0.0
1.2444999999999997 1.2445 0.0
1.7422999999999997 -1.2445 0.0
1.7377745454545452 -1.2399745454545454 0.0
1.7324178849721703 -1.2346178849721707 0.0
1.7262300185528754 -1.2284300185528756 0.0
1.7192109461966603 -1.2214109461966605 0.0
1.7113606679035245 -1.213560667903525 0.0
1.7026791836734692 -1.2048791836734694 0.0
1.6931664935064934 -1.1953664935064934 0.0
1.6828225974025972 -1.1850225974025974 0.0
1.6716474953617806 -1.173847495361781 0.0
1.6596411873840444 -1.1618411873840444 0.0
1.6468036734693878 -1.1490036734693876 0.0
1.6331349536178106 -1.1353349536178108 0.0
1.6186350278293133 -1.1208350278293135 0.0
1.603303896103896 -1.105503896103896 0.0
1.5871415584415582 -1.0893415584415584 0.0
1.5701480148423004 -1.0723480148423006 0.0
1.552323265306122 -1.0545232653061223 0.0
1.5336673098330238 -1.035867309833024 0.0
1.5141801484230053 -1.0163801484230055 0.0
1.4938617810760666 -0.9960617810760668 0.0
1.4727122077922075 -0.9749122077922077 0.0
1.4507314285714283 -0.9529314285714284 0.0
1.4279194434137288 -0.930119443413729 0.0
1.4042762523191092 -0.9064762523191096 0.0
1.3798018552875693 -0.8820018552875695 0.0
1.3544962523191093 -0.8566962523191094 0.0
1.328359443413729 -0.8305594434137291 0.0
1.3013914285714283 -0.8035914285714285 0.0
1.2735922077922077 -0.7757922077922077 0.0
1.2449617810760665 -0.7471617810760667 0.0
1.2155001484230055 -0.7177001484230054 0.0
1.1852073098330238 -0.687407309833024 0.0
1.1540832653061224 -0.6562832653061225 0.0
1.1221280148423003 -0.6243280148423005 0.0
1.0893415584415582 -0.5915415584415583 0.0
1.055723896103896 -0.5579238961038959 0.0
1.0212750278293132 -0.5234750278293134 0.0
0.9859949536178108 -0.48819495361781057 0.0
0.9498836734693876 -0.4520836734693877 0.0
0.9129411873840445 -0.4151411873840446 0.0
0.875167495361781 -0.37736749536178116 0.0
0.8365625974025973 -0.3387625974025974 0.0
0.7971264935064933 -0.29932649350649343 0.0
0.7568591836734693 -0.25905918367346925 0.0
0.7157606679035249 -0.21796066790352486 0.0
0.6738309461966603 -0.1760309461966605 0.0
0.6310700185528755 -0.13327001855287568 0.0
0.5874778849721707 -0.08967788497217066 0.0
0.5430545454545455 -0.045254545454545436 0.0
0.4978 0.0 0.0
0.5430545454545455 0.04525454545454546 0.0
0.5874778849721707 0.08967788497217068 0.0
0.6310700185528757 0.1332700185528757 0.0
0.6738309461966605 0.1760309461966605 0.0
0.715760667903525 0.21796066790352508 0.0
0.7568591836734693 0.25905918367346936 0.0
0.7971264935064934 0.2993264935064935 0.0
0.8365625974025973 0.33876259740259734 0.0
0.875167495361781 0.377367495361781 0.0
0.9129411873840445 0.4151411873840445 0.0
0.9498836734693876 0.4520836734693878 0.0
0.9859949536178105 0.4881949536178107 0.0
1.0212750278293132 0.5234750278293134 0.0
1.055723896103896 0.557923896103896 0.0
1.0893415584415582 0.5915415584415583 0.0
1.1221280148423003 0.6243280148423004 0.0
1.1540832653061224 0.6562832653061225 0.0
1.185207309833024 0.6874073098330241 0.0
1.2155001484230055 0.7177001484230056 0.0
1.2449617810760667 0.7471617810760669 0.0
1.2735922077922077 0.7757922077922077 0.0
1.3013914285714283 0.8035914285714285 0.0
1.3283594434137287 0.830559443413729 0.0
1.3544962523191093 0.8566962523191094 0.0
1.3798018552875693 0.8820018552875695 0.0
1.4042762523191092 0.9064762523191093 0.0
1.427919443413729 0.9301194434137292 0.0
1.4507314285714283 0.9529314285714284 0.0
1.4727122077922075 0.9749122077922077 0.0
1.4938617810760666 0.9960617810760668 0.0
1.5141801484230053 1.0163801484230055 0.0
1.5336673098330238 1.035867309833024 0.0
1.552323265306122 1.0545232653061223 0.0
1.5701480148423002 1.0723480148423004 0.0
1.5871415584415582 1.0893415584415584 0.0
1.603303896103896 1.105503896103896 0.0
1.6186350278293131 1.1208350278293133 0.0
1.6331349536178106 1.1353349536178106 0.0
1.6468036734693874 1.1490036734693876 0.0
1.6596411873840444 1.1618411873840446 0.0
1.6716474953617806 1.173847495361781 0.0
1.6828225974025972 1.1850225974025972 0.0
1.6931664935064934 1.1953664935064934 0.0
1.7026791836734692 1.2048791836734694 0.0
1.7113606679035245 1.2135606679035247 0.0
1.71921094619666 1.2214109461966602 0.0
1.7262300185528754 1.2284300185528756 0.0
1.7324178849721703 1.2346178849721705 0.0
1.7377745454545452 1.2399745454545454 0.0
1.7422999999999997 1.2445 0.0
1.6155872727272724 -1.2422372727272726 0.0
1.6106462152133578 -1.237296215213358 0.0
1.604873951762523 -1.2315239517625232 0.0
1.598270482374768 -1.224920482374768 0.0
1.5908358070500925 -1.2174858070500927 0.0
1.582569925788497 -1.2092199257884972 0.0
1.5734728385899812 -1.2001228385899814 0.0
1.5635445454545454 -1.1901945454545453 0.0
1.552785046382189 -1.1794350463821892 0.0
1.5411943413729126 -1.1678443413729127 0.0
1.5287724304267158 -1.155422430426716 0.0
1.5155193135435991 -1.142169313543599 0.0
1.501434990723562 -1.1280849907235622 0.0
1.4865194619666047 -1.1131694619666048 0.0
1.4707727272727271 -1.0974227272727273 0.0
1.4541947866419294 -1.0808447866419293 0.0
1.4367856400742112 -1.0634356400742113 0.0
1.418545287569573 -1.0451952875695731 0.0
1.3994737291280146 -1.0261237291280147 0.0
1.379570964749536 -1.0062209647495362 0.0
1.358836994434137 -0.9854869944341371 0.0
1.337271818181818 -0.9639218181818181 0.0
1.3148754359925787 -0.9415254359925787 0.0
1.291647847866419 -0.9182978478664192 0.0
1.2675890538033394 -0.8942390538033393 0.0
1.2426990538033393 -0.8693490538033395 0.0
1.2169778478664193 -0.8436278478664192 0.0
1.1904254359925788 -0.8170754359925788 0.0
1.163041818181818 -0.7896918181818181 0.0
1.1348269944341371 -0.7614769944341371 0.0
1.105780964749536 -0.7324309647495362 0.0
1.0759037291280147 -0.7025537291280148 0.0
1.0451952875695731 -0.6718452875695733 0.0
1.0136556400742114 -0.6403056400742114 0.0
0.9812847866419293 -0.6079347866419293 0.0
0.9480827272727271 -0.5747327272727272 0.0
0.9140494619666047 -0.5406994619666048 0.0
0.8791849907235622 -0.5058349907235622 0.0
0.8434893135435992 -0.47013931354359917 0.0
0.8069624304267162 -0.43361243042671627 0.0
0.7696043413729128 -0.3962543413729128 0.0
0.7314150463821893 -0.3580650463821894 0.0
0.6923945454545455 -0.3190445454545454 0.0
0.6525428385899814 -0.27919283858998134 0.0
0.6118599257884971 -0.23850992578849706 0.0
0.5703458070500929 -0.19699580705009279 0.0
0.5280004823747682 -0.15465048237476808 0.0
0.4848239517625232 -0.11147395176252317 0.0
0.4408162152133581 -0.06746621521335805 0.0
0.39597727272727273 -0.022627272727272718 0.0
0.39597727272727273 0.02262727272727273 0.0
0.4408162152133581 0.06746621521335806 0.0
0.4848239517625232 0.11147395176252319 0.0
0.528000482374768 0.15465048237476808 0.0
0.5703458070500929 0.19699580705009276 0.0
0.6118599257884971 0.23850992578849717 0.0
0.6525428385899814 0.2791928385899814 0.0
0.6923945454545455 0.3190445454545454 0.0
0.7314150463821891 0.3580650463821891 0.0
0.7696043413729128 0.39625434137291277 0.0
0.8069624304267162 0.43361243042671616 0.0
0.8434893135435992 0.4701393135435992 0.0
0.8791849907235619 0.5058349907235621 0.0
0.9140494619666046 0.5406994619666047 0.0
0.9480827272727271 0.5747327272727272 0.0
0.9812847866419294 0.6079347866419295 0.0
1.0136556400742114 0.6403056400742114 0.0
1.0451952875695731 0.6718452875695732 0.0
1.0759037291280147 0.7025537291280147 0.0
1.105780964749536 0.7324309647495362 0.0
1.1348269944341371 0.7614769944341373 0.0
1.163041818181818 0.789691818181818 0.0
1.1904254359925786 0.8170754359925786 0.0
1.216977847866419 0.843627847866419 0.0
1.2426990538033393 0.8693490538033394 0.0
1.2675890538033392 0.8942390538033393 0.0
1.291647847866419 0.9182978478664192 0.0
1.3148754359925787 0.9415254359925787 0.0
1.3372718181818182 0.9639218181818181 0.0
1.3588369944341372 0.9854869944341373 0.0
1.379570964749536 1.0062209647495362 0.0
1.3994737291280148 1.0261237291280147 0.0
1.418545287569573 1.0451952875695731 0.0
1.4367856400742112 1.0634356400742113 0.0
1.4541947866419291 1.0808447866419293 0.0
1.470772727272727 1.097422727272727 0.0
1.4865194619666047 1.1131694619666048 0.0
1.501434990723562 1.128084990723562 0.0
1.5155193135435991 1.1421693135435993 0.0
1.528772430426716 1.1554224304267162 0.0
1.5411943413729128 1.1678443413729127 0.0
1.5527850463821888 1.179435046382189 0.0
1.5635445454545451 1.1901945454545453 0.0
1.573472838589981 1.2001228385899811 0.0
1.5825699257884969 1.209219925788497 0.0
1.5908358070500925 1.2174858070500927 0.0
1.5982704823747678 1.224920482374768 0.0
1.604873951762523 1.2315239517625232 0.0
1.6106462152133578 1.237296215213358 0.0
1.6155872727272724 1.2422372727272726 0.0

CELLS 200 700
4 0 101 102 1
4 1 102 103 2
4 2 103 104 3
4 3 104 105 4
4 4 105 106 5
4 5 106 107 6
4 6 107 108 7
4 7 108 109 8
4 8 109 110 9
4 9 110 111 10
4 10 111 112 11
4 11 112 113 12
4 12 113 114 13
4 13 114 115 14
4 14 115 116 15
4 15 116 117 16
4 16 117 118 17
4 17 118 119 18
4 18 119 120 19
4 19 120 121 20
4 20 121 122 21
4 21 122 123 22
4 22 123 124 23
4 23 124 125 24
4 24 125 126 25
4 25 126 127 26
4 26 127 128 27
4 27 128 129 28
4 28 129 130 29
4 29 130 131 30
4 30 131 132 31
4 31 132 133 32
4 32 133 134 33
4 33 134 135 34
4 34 135 136 35
4 35 136 137 36
4 36 137 138 37
4 37 138 139 38
4 38 139 140 39
4 39 140 141 40
4 40 141 142 41
4 41 142 143 42
4 42 143 144 43
4 43 144 145 44
4 44 145 146 45
4 45 146 147 46
4 46 147 148 47
4 47 148 149 48
4 48 149 150 49
4 49 150 151 50
4 50 151 152 51
4 51 152 153 52
4 52 153 154 53
4 53 154 155 54
4 54 155 156 55
4 55 156 157 56
4 56 157 158 57
4 57 158 159 58
4 58 159 160 59
4 59 160 161 60
4 60 161 162 61
4 61 162 163 62
4 62 163 164 63
4 63 164 165 64
4 64 165 166 65
4 65 166 167 66
4 66 167 168 67
4 67 168 169 68
4 68 169 170 69
4 69 170 171 70
4 70 171 172 71
4 71 172 173 72
4 72 173 174 73
4 73 174 175 74
4 74 175 176 75
4 75 176 177 76
4 76 177 178 77
4 77 178 179 78
4 78 179 180 79
4 79 180 181 80
4 80 181 182 81
4 81 182 183 82
4 82 183 184 83
4 83 184 185 84
4 84 185 186 85
4 85 186 187 86
4 86 187 188 87
4 87 188 189 88
4 88 189 190 89
4 89 190 191 90
4 90 191 192 91
4 91 192 193 92
4 92 193 194 93
4 93 194 195 94
4 94 195 196 95
4 95 196 197 96
4 96 197 198 97
4 97 198 199 98
4 98 199 200 99
4 99 200 201 100
1 202
1 203
1 204
1 205
1 206
1 207
1 208
1 209
1 210
1 211
1 212
1 213
1 214
1 215
1 216
1 217
1 218
1 219
1 220
1 221
1 222
1 223
1 224
1 225
1 226
1 227
1 228
1 229
1 230
1 231
1 232
1 233
1 234
1 235
1 236
1 237
1 238
1 239
1 240
1 241
1 242
1 243
1 244
1 245
1 246
1 247
1 248
1 249
1 250
1 251
1 252
1 253
1 254
1 255
1 256
1 257
1 258
1 259
1 260
1 261
1 262
1 263
1 264
1 265
1 266
1 267
1 268
1 269
1 270
1 271
1 272
1 273
1 274
1 275
1 276
1 277
1 278
1 279
1 280
1 281
1 282
1 283
1 284
1 285
1 286
1 287
1 288
1 289
1 290
1 291
1 292
1 293
1 294
1 295
1 296
1 297
1 298
1 299
1 300
1 301

CELL_TYPES 200
9
9
9
9
9
9
9
9
9
9
9
9
9
9
9
9
9
9
9
9
9
9
9
9
9
9
9
9
9
9
9
9
9
9
9
9
9
9
9
9
9
9
9
9
9
9
9
9
9
9
9
9
9
9
9
9
9
9
9
9
9
9
9
9
9
9
9
9
9
9
9
9
9
9
9
9
9
9
9
9
9
9
9
9
9
9
9
9
9
9
9
9
9
9
9
9
9
9
9
9
1
1
1
1
1
1
1
1
1
1
1
1
1
1
1
1
1
1
1
1
1
1
1
1
1
1
1
1
1
1
1
1
1
1
1
1
1
1
1
1
1
1
1
1
1
1
1
1
1
1
1
1
1
1
1
1
1
1
1
1
1
1
1
1
1
1
1
1
1
1
1
1
1
1
1
1
1
1
1
1
1
1
1
1
1
1
1
1
1
1
1
1
1
1
1
1
1
1
1
1

CELL_DATA 200

VECTORS Vvpm float
-0.2563253343105316 0.8629985451698303 -0.056559443473815925
-0.2539101541042328 0.8782424926757812 -0.033702075481414795
-0.2554601728916168 0.8680825829505919 -0.04900228977203369
-0.2542056143283844 0.8762832283973694 -0.036637336015701294
-0.25632908940315247 0.8631865978240967 -0.05620962381362915
-0.25449225306510925 0.8744724392890929 -0.039325445890426636
-0.2597093880176544 0.8463944792747496 -0.08049464225769043
-0.26304593682289124 0.8321256041526794 -0.10052907466888428
-0.2653858959674835 0.8229668736457824 -0.113075852394104
-0.270917147397995 0.8028181791305542 -0.13997259736061096
-0.2767806947231293 0.7828717827796936 -0.1656254529953003
-0.282063752412796 0.7654735445976257 -0.1872761845588684
-0.2792663872241974 0.7746337652206421 -0.17595717310905457
-0.27422717213630676 0.7914368510246277 -0.15472063422203064
-0.27347907423973083 0.7939766645431519 -0.1514611840248108
-0.2733316719532013 0.7944571375846863 -0.15084916353225708
-0.2772507965564728 0.7813153862953186 -0.16756761074066162
-0.2767580449581146 0.7829278707504272 -0.16554200649261475
-0.27801409363746643 0.7787278294563293 -0.1708413064479828
-0.27096834778785706 0.8026132583618164 -0.14023542404174805
-0.26948580145835876 0.8078294396400452 -0.13337984681129456
-0.2705134451389313 0.8041718006134033 -0.13820716738700867
-0.27354058623313904 0.7937138676643372 -0.1517990231513977
-0.27455565333366394 0.790249764919281 -0.1562550663948059
-0.27012524008750916 0.8055093288421631 -0.13645663857460022
-0.2709532678127289 0.8025878667831421 -0.14029750227928162
-0.2717715799808502 0.7997242212295532 -0.14404267072677612
-0.274335652589798 0.7909520268440247 -0.15537452697753906
-0.2773214280605316 0.7809535264968872 -0.1680714190006256
-0.2710537016391754 0.8022781610488892 -0.14067324995994568
-0.2718791663646698 0.7993898391723633 -0.14444953203201294
-0.2665778696537018 0.8183217644691466 -0.11939129233360292
-0.26346567273139954 0.8303360939025879 -0.10299283266067505
-0.2640334665775299 0.8280599117279053 -0.10613608360290527
-0.2646028697490692 0.8258132934570311 -0.10922345519065858
-0.26517316699028015 0.8235987424850463 -0.11225256323814392
-0.26574280858039856 0.8214163780212402 -0.1152239143848419
-0.2715970575809479 0.8003197908401489 -0.14324429631233215
-0.2722051441669464 0.7982089519500732 -0.14599424600601196
-0.2728085219860077 0.7961317896842957 -0.14868906140327454
-0.2734048664569855 0.7940881252288818 -0.1513301432132721
-0.2766083776950836 0.783316969871521 -0.1650744080543518
-0.2824755609035492 0.7640295624732971 -0.18903277814388275
-0.2831031382083893 0.7619681358337402 -0.19155700504779816
-0.27668192982673645 0.7830653786659241 -0.16536882519721985
-0.28104159235954285 0.7686958909034729 -0.18329975008964539
-0.28157839179039 0.766922652721405 -0.18548938632011414
-0.2821107804775238 0.7651751041412354 -0.1876385509967804
-0.2816978991031647 0.7665532231330872 -0.1859373152256012
-0.2975310981273651 0.7143259644508362 -0.2477488070726395
-0.2975127398967743 0.7143881916999817 -0.2476767897605896
-0.2816425859928131 0.7667263150215149 -0.18572059273719788
-0.2820570170879364 0.7653436660766602 -0.18742769956588745
-0.28152576088905334 0.7670876383781433 -0.18528228998184204
-0.280990332365036 0.7688573002815247 -0.1830967664718628
-0.2766358554363251 0.7832075953483582 -0.1651843786239624
-0.2830589711666107 0.7621074914932251 -0.19138482213020325
-0.27719607949256897 0.7813506126403809 -0.16755753755569458
-0.27657797932624817 0.7834141254425049 -0.1649497151374817
-0.27337726950645447 0.7941752672195435 -0.15121418237686157
-0.2727821171283722 0.7962167859077454 -0.14857497811317444
-0.27218005061149597 0.7982920408248901 -0.14588230848312378
-0.27157309651374817 0.8004007935523987 -0.14313441514968872
-0.26800641417503357 0.8130311369895935 -0.12649127840995789
-0.26740673184394836 0.8152317404747009 -0.12354347109794615
-0.26455721259117126 0.8259854912757875 -0.1089819073677063
-0.26398965716362 0.828226625919342 -0.10590076446533202
-0.26342347264289856 0.8304973244667053 -0.10276469588279724
-0.2665341794490814 0.8184802532196045 -0.11917340755462646
-0.2718338668346405 0.7995461225509644 -0.14424452185630798
-0.2710104286670685 0.8024289011955261 -0.14047375321388245
-0.27728161215782166 0.781082272529602 -0.16790640354156494
-0.27429965138435364 0.7910691499710083 -0.15522092580795288
-0.27173903584480286 0.7998310327529907 -0.143898606300354
-0.2709220349788666 0.8026909232139587 -0.14015811681747437
-0.2700956165790558 0.8056086301803589 -0.13632166385650635
-0.2764163315296173 0.7840237617492676 -0.16416874527931213
-0.2734890878200531 0.7938866019248962 -0.1515733301639557
-0.2704680263996124 0.8043289184570312 -0.13799774646759033
-0.2694425880908966 0.8079798221588135 -0.13317790627479553
-0.27092626690864563 0.8027556538581848 -0.1400451958179474
-0.27797552943229675 0.7788512706756592 -0.1706828474998474
-0.27672120928764343 0.7830453515052795 -0.1653899848461151
-0.2787666618824005 0.776312530040741 -0.17383632063865662
-0.2732860743999481 0.7946103811264038 -0.15064960718154907
-0.27343782782554626 0.7941167950630188 -0.1512790024280548
-0.27418896555900574 0.7915645241737366 -0.1545548439025879
-0.2792310416698456 0.7747485041618347 -0.17581191658973694
-0.28136083483695984 0.7677668333053589 -0.18446433544158936
-0.2767414152622223 0.7830033898353577 -0.16545909643173218
-0.270883709192276 0.8029323816299438 -0.13982021808624268
-0.26535776257514954 0.8230678439140319 -0.11293387413024902
-0.26301220059394836 0.8322512507438659 -0.10034933686256409
-0.25968286395072937 0.8465008735656737 -0.08033615350723267
-0.254836767911911 0.8721869587898254 -0.042760223150253296
-0.25630685687065125 0.8632859587669374 -0.05605277419090271
-0.2536928355693817 0.8799446821212769 -0.03106674551963806
-0.2554377019405365 0.8681871891021729 -0.04883408546447754
-0.25421759486198425 0.8760255575180054 -0.037053316831588745
-0.25629720091819763 0.8631209135055542 -0.0563650131225586
-0.2563253343105316 0.8629985451698303 -0.056559443473815925
-0.2539101541042328 0.8782424926757812 -0.033702075481414795
-0.2554601728916168 0.8680825829505919 -0.04900228977203369
-0.2542056143283844 0.8762832283973694 -0.036637336015701294
-0.25632908940315247 0.8631865978240967 -0.05620962381362915
-0.25449225306510925 0.8744724392890929 -0.039325445890426636
-0.2597093880176544 0.8463944792747496 -0.08049464225769043
-0.26304593682289124 0.8321256041526794 -0.10052907466888428
-0.2653858959674835 0.8229668736457824 -0.113075852394104
-0.270917147397995 0.8028181791305542 -0.13997259736061096
-0.2767806947231293 0.7828717827796936 -0.1656254529953003
-0.282063752412796 0.7654735445976257 -0.1872761845588684
-0.2792663872241974 0.7746337652206421 -0.17595717310905457
-0.27422717213630676 0.7914368510246277 -0.15472063422203064
-0.27347907423973083 0.7939766645431519 -0.1514611840248108
-0.2733316719532013 0.7944571375846863 -0.15084916353225708
-0.2772507965564728 0.7813153862953186 -0.16756761074066162
-0.2767580449581146 0.7829278707504272 -0.16554200649261475
-0.27801409363746643 0.7787278294563293 -0.1708413064479828
-0.27096834778785706 0.8026132583618164 -0.14023542404174805
-0.26948580145835876 0.8078294396400452 -0.13337984681129456
-0.2705134451389313 0.8041718006134033 -0.13820716738700867
-0.27354058623313904 0.7937138676643372 -0.1517990231513977
-0.27455565333366394 0.790249764919281 -0.1562550663948059
-0.27012524008750916 0.8055093288421631 -0.13645663857460022
-0.2709532678127289 0.8025878667831421 -0.14029750227928162
-0.2717715799808502 0.7997242212295532 -0.14404267072677612
-0.274335652589798 0.7909520268440247 -0.15537452697753906
-0.2773214280605316 0.7809535264968872 -0.1680714190006256
-0.2710537016391754 0.8022781610488892 -0.14067324995994568
-0.2718791663646698 0.7993898391723633 -0.14444953203201294
-0.2665778696537018 0.8183217644691466 -0.11939129233360292
-0.26346567273139954 0.8303360939025879 -0.10299283266067505
-0.2640334665775299 0.8280599117279053 -0.10613608360290527
-0.2646028697490692 0.8258132934570311 -0.10922345519065858
-0.26517316699028015 0.8235987424850463 -0.11225256323814392
-0.26574280858039856 0.8214163780212402 -0.1152239143848419
-0.2715970575809479 0.8003197908401489 -0.14324429631233215
-0.2722051441669464 0.7982089519500732 -0.14599424600601196
-0.2728085219860077 0.7961317896842957 -0.14868906140327454
-0.2734048664569855 0.7940881252288818 -0.1513301432132721
-0.2766083776950836 0.783316969871521 -0.1650744080543518
-0.2824755609035492 0.7640295624732971 -0.18903277814388275
-0.2831031382083893 0.7619681358337402 -0.19155700504779816
-0.27668192982673645 0.7830653786659241 -0.16536882519721985
-0.28104159235954285 0.7686958909034729 -0.18329975008964539
-0.28157839179039 0.766922652721405 -0.18548938632011414
-0.2821107804775238 0.7651751041412354 -0.1876385509967804
-0.2816978991031647 0.7665532231330872 -0.1859373152256012
-0.2975310981273651 0.7143259644508362 -0.2477488070726395
-0.2975127398967743 0.7143881916999817 -0.2476767897605896
-0.2816425859928131 0.7667263150215149 -0.18572059273719788
-0.2820570170879364 0.7653436660766602 -0.18742769956588745
-0.28152576088905334 0.7670876383781433 -0.18528228998184204
-0.280990332365036 0.7688573002815247 -0.1830967664718628
-0.2766358554363251 0.7832075953483582 -0.1651843786239624
-0.2830589711666107 0.7621074914932251 -0.19138482213020325
-0.27719607949256897 0.7813506126403809 -0.16755753755569458
-0.27657797932624817 0.7834141254425049 -0.1649497151374817
-0.27337726950645447 0.7941752672195435 -0.15121418237686157
-0.2727821171283722 0.7962167859077454 -0.14857497811317444
-0.27218005061149597 0.7982920408248901 -0.14588230848312378
-0.27157309651374817 0.8004007935523987 -0.14313441514968872
-0.26800641417503357 0.8130311369895935 -0.12649127840995789
-0.26740673184394836 0.8152317404747009 -0.12354347109794615
-0.26455721259117126 0.8259854912757875 -0.1089819073677063
-0.26398965716362 0.828226625919342 -0.10590076446533202
-0.26342347264289856 0.8304973244667053 -0.10276469588279724
-0.2665341794490814 0.8184802532196045 -0.11917340755462646
-0.2718338668346405 0.7995461225509644 -0.14424452185630798
-0.2710104286670685 0.8024289011955261 -0.14047375321388245
-0.27728161215782166 0.781082272529602 -0.16790640354156494
-0.27429965138435364 0.7910691499710083 -0.15522092580795288
-0.27173903584480286 0.7998310327529907 -0.143898606300354
-0.2709220349788666 0.8026909232139587 -0.14015811681747437
-0.2700956165790558 0.8056086301803589 -0.13632166385650635
-0.2764163315296173 0.7840237617492676 -0.16416874527931213
-0.2734890878200531 0.7938866019248962 -0.1515733301639557
-0.2704680263996124 0.8043289184570312 -0.13799774646759033
-0.2694425880908966 0.8079798221588135 -0.13317790627479553
-0.27092626690864563 0.8027556538581848 -0.1400451958179474
-0.27797552943229675 0.7788512706756592 -0.1706828474998474
-0.27672120928764343 0.7830453515052795 -0.1653899848461151
-0.2787666618824005 0.776312530040741 -0.17383632063865662
-0.2732860743999481 0.7946103811264038 -0.15064960718154907
-0.27343782782554626 0.7941167950630188 -0.1512790024280548
-0.27418896555900574 0.7915645241737366 -0.1545548439025879
-0.2792310416698456 0.7747485041618347 -0.17581191658973694
-0.28136083483695984 0.7677668333053589 -0.18446433544158936
-0.2767414152622223 0.7830033898353577 -0.16545909643173218
-0.270883709192276 0.8029323816299438 -0.13982021808624268
-0.26535776257514954 0.8230678439140319 -0.11293387413024902
-0.26301220059394836 0.8322512507438659 -0.10034933686256409
-0.25968286395072937 0.8465008735656737 -0.08033615350723267
-0.254836767911911 0.8721869587898254 -0.042760223150253296
-0.25630685687065125 0.8632859587669374 -0.05605277419090271
-0.2536928355693817 0.8799446821212769 -0.03106674551963806
-0.2554377019405365 0.8681871891021729 -0.04883408546447754
-0.25421759486198425 0.8760255575180054 -0.037053316831588745
-0.25629720091819763 0.8631209135055542 -0.0563650131225586

VECTORS Vvpm_BBp float
-0.3006739318370819 0.7034848928451538 -0.26012277603149414
-0.3044642508029938 0.689704954624176 -0.27568426728248596
-0.3081722557544708 0.675675630569458 -0.2913326919078827
-0.31161871552467346 0.6617058515548706 -0.3067971169948578
-0.3137301504611969 0.6529325246810913 -0.3164205253124237
-0.31630322337150574 0.6412791013717651 -0.3291895091533661
-0.31753161549568176 0.6354077458381653 -0.3356066048145294
-0.3208044469356537 0.6188802123069763 -0.3535834550857544
-0.3221171200275421 0.61150062084198 -0.3616061210632324
-0.32277920842170715 0.6076171398162842 -0.36582157015800476
-0.3218890130519867 0.6126514673233032 -0.36036255955696106
-0.32284125685691833 0.6073961853981018 -0.3660440742969513
-0.3224227726459503 0.6097319722175598 -0.36351433396339417
-0.32163259387016296 0.6141411662101746 -0.358726441860199
-0.3209078013896942 0.6180418729782104 -0.35449910163879395
-0.3212020695209503 0.616349995136261 -0.3563430905342102
-0.32261666655540466 0.6086260676383972 -0.36470305919647217
-0.32245340943336487 0.6095379590988159 -0.3637129068374634
-0.3226672112941742 0.6082100868225098 -0.3651593327522278
-0.3218919336795807 0.6125572919845581 -0.36044251918792725
-0.32077720761299133 0.6186285018920898 -0.3538573980331421
-0.3210068643093109 0.6173202991485596 -0.3552834093570709
-0.32063499093055725 0.6193259358406067 -0.35310038924217224
-0.3208586871623993 0.6180646419525146 -0.35447439551353455
-0.32248905301094055 0.609514594078064 -0.3637063503265381
-0.3226526081562042 0.6084988713264465 -0.364812970161438
-0.32231470942497253 0.6103895306587219 -0.36276617646217346
-0.3220444619655609 0.611854076385498 -0.36117878556251526
-0.32221582531929016 0.6108130216598511 -0.3623139262199402
-0.3211890161037445 0.6164746880531311 -0.3561724126338959
-0.32136300206184387 0.61545330286026 -0.3572872281074524
-0.3206930458545685 0.6191219091415405 -0.3532930612564087
-0.3190673887729645 0.6275443434715271 -0.3441261351108551
-0.3192571699619293 0.6265387535095215 -0.34522414207458496
-0.3194436728954315 0.6255557537078857 -0.3462962508201599
-0.3196248710155487 0.6245939135551453 -0.347344309091568
-0.31980088353157043 0.6236527562141418 -0.3483699858188629
-0.31997188925743103 0.6227321624755859 -0.34937310218811035
-0.3191215693950653 0.6270968317985535 -0.34462639689445496
-0.31931665539741516 0.626079797744751 -0.3457341194152832
-0.3245842754840851 0.596977710723877 -0.37725797295570374
-0.3242282569408417 0.5991718769073486 -0.374875009059906
-0.32431456446647644 0.5985944867134094 -0.37550288438796997
-0.32439669966697693 0.5980283617973328 -0.37611982226371765
-0.32447585463523865 0.5974741578102112 -0.3767243027687073
-0.32455262541770935 0.5969315767288208 -0.37731656432151794
-0.3246285617351532 0.5964011549949646 -0.37789401412010193
-0.3235314190387726 0.603169322013855 -0.37055081129074097
-0.3245605528354645 0.5970196723937988 -0.3772183954715729
-0.3295711576938629 0.5600969195365906 -0.417214959859848
-0.3245600759983063 0.5970209240913391 -0.37721675634384155
-0.3235308825969696 0.6031755208969116 -0.37054482102394104
-0.32462796568870544 0.5964024066925049 -0.3778924345970154
-0.32455208897590637 0.5969322323799133 -0.3773149847984314
-0.3244754374027252 0.5974752306938171 -0.37672269344329834
-0.3243955671787262 0.5980289578437805 -0.37611961364746094
-0.3243131935596466 0.5985947251319885 -0.3755027651786804
-0.3242269456386566 0.5991722345352173 -0.3748748302459717
-0.3245829641819 0.5969756841659546 -0.37725967168807983
-0.3193148672580719 0.6260766983032227 -0.3457355499267578
-0.3191206753253937 0.6270942687988281 -0.34462660551071167
-0.3199714124202728 0.6227323412895203 -0.34937137365341187
-0.31980106234550476 0.6236531138420105 -0.3483676314353943
-0.31962475180625916 0.6245942115783691 -0.34734195470809937
-0.3194434940814972 0.6255563497543335 -0.34629368782043457
-0.3192572295665741 0.6265392303466797 -0.34522169828414917
-0.31906697154045105 0.6275443434715271 -0.34412437677383423
-0.3206922113895416 0.6191248893737793 -0.35328948497772217
-0.32136234641075134 0.6154571771621704 -0.35728293657302856
-0.321188360452652 0.6164789199829102 -0.35616815090179443
-0.32221511006355286 0.6108136773109436 -0.3623124659061432
-0.3220440447330475 0.6118548512458801 -0.36117738485336304
-0.32231405377388 0.6103885173797607 -0.3627663254737854
-0.3226526081562042 0.6084995865821838 -0.364811509847641
-0.32248857617378235 0.6095151305198669 -0.363705039024353
-0.3208581507205963 0.6180663704872131 -0.3544715344905853
-0.3206343948841095 0.6193274855613708 -0.3530976474285126
-0.32100608944892883 0.6173227429389954 -0.3552801311016083
-0.32077673077583313 0.6186311841011047 -0.3538541793823242
-0.32189151644706726 0.6125582456588745 -0.36044034361839294
-0.32266685366630554 0.6082115769386292 -0.36515676975250244
-0.322453111410141 0.6095396876335144 -0.3637106120586395
-0.32261648774147034 0.6086283922195435 -0.3647005558013916
-0.321201354265213 0.6163538098335266 -0.3563389778137207
-0.32090726494789124 0.6180453896522522 -0.35449525713920593
-0.32163211703300476 0.614143431186676 -0.35872364044189453
-0.32242217659950256 0.609734833240509 -0.3635109066963196
-0.3228408396244049 0.6074008941650391 -0.3660396933555603
-0.3218884766101837 0.6126568913459778 -0.3603571653366089
-0.3227787911891937 0.6076211929321289 -0.3658173680305481
-0.32211652398109436 0.611503541469574 -0.36160287261009216
-0.3208036720752716 0.6188809275627136 -0.3535817265510559
-0.31753066182136536 0.6354057192802429 -0.33560699224472046
-0.3163023293018341 0.6412741541862488 -0.32919228076934814
-0.3137287199497223 0.6529255509376526 -0.3164244294166565
-0.3116176426410675 0.6616959571838379 -0.30680322647094727
-0.30817046761512756 0.6756649613380432 -0.29133936762809753
-0.30446240305900574 0.6896918416023254 -0.27569231390953064
-0.3006719648838043 0.7034710049629211 -0.26013150811195374
-0.29488232731819153 0.7235742211341858 -0.23708234727382657
-0.3006739318370819 0.7034848928451538 -0.26012277603149414
-0.3044642508029938 0.689704954624176 -0.27568426728248596
-0.3081722557544708 0.675675630569458 -0.2913326919078827
-0.31161871552467346 0.6617058515548706 -0.3067971169948578
-0.3137301504611969 0.6529325246810913 -0.3164205253124237
-0.31630322337150574 0.6412791013717651 -0.3291895091533661
-0.31753161549568176 0.6354077458381653 -0.3356066048145294
-0.3208044469356537 0.6188802123069763 -0.3535834550857544
-0.3221171200275421 0.61150062084198 -0.3616061210632324
-0.32277920842170715 0.6076171398162842 -0.36582157015800476
-0.3218890130519867 0.6126514673233032 -0.36036255955696106
-0.32284125685691833 0.6073961853981018 -0.3660440742969513
-0.3224227726459503 0.6097319722175598 -0.36351433396339417
-0.32163259387016296 0.6141411662101746 -0.358726441860199
-0.3209078013896942 0.6180418729782104 -0.35449910163879395
-0.3212020695209503 0.616349995136261 -0.3563430905342102
-0.32261666655540466 0.6086260676383972 -0.36470305919647217
-0.32245340943336487 0.6095379590988159 -0.3637129068374634
-0.3226672112941742 0.6082100868225098 -0.3651593327522278
-0.3218919336795807 0.6125572919845581 -0.36044251918792725
-0.32077720761299133 0.6186285018920898 -0.3538573980331421
-0.3210068643093109 0.6173202991485596 -0.3552834093570709
-0.32063499093055725 0.6193259358406067 -0.35310038924217224
-0.3208586871623993 0.6180646419525146 -0.35447439551353455
-0.32248905301094055 0.609514594078064 -0.3637063503265381
-0.3226526081562042 0.6084988713264465 -0.364812970161438
-0.32231470942497253 0.6103895306587219 -0.36276617646217346
-0.3220444619655609 0.611854076385498 -0.36117878556251526
-0.32221582531929016 0.6108130216598511 -0.3623139262199402
-0.3211890161037445 0.6164746880531311 -0.3561724126338959
-0.32136300206184387 0.61545330286026 -0.3572872281074524
-0.3206930458545685 0.6191219091415405 -0.3532930612564087
-0.3190673887729645 0.6275443434715271 -0.3441261351108551
-0.3192571699619293 0.6265387535095215 -0.34522414207458496
-0.3194436728954315 0.6255557537078857 -0.3462962508201599
-0.3196248710155487 0.6245939135551453 -0.347344309091568
-0.31980088353157043 0.6236527562141418 -0.3483699858188629
-0.31997188925743103 0.6227321624755859 -0.34937310218811035
-0.3191215693950653 0.6270968317985535 -0.34462639689445496
-0.31931665539741516 0.626079797744751 -0.3457341194152832
-0.3245842754840851 0.596977710723877 -0.37725797295570374
-0.3242282569408417 0.5991718769073486 -0.374875009059906
-0.32431456446647644 0.5985944867134094 -0.37550288438796997
-0.32439669966697693 0.5980283617973328 -0.37611982226371765
-0.32447585463523865 0.5974741578102112 -0.3767243027687073
-0.32455262541770935 0.5969315767288208 -0.37731656432151794
-0.3246285617351532 0.5964011549949646 -0.37789401412010193
-0.3235314190387726 0.603169322013855 -0.37055081129074097
-0.3245605528354645 0.5970196723937988 -0.3772183954715729
-0.3295711576938629 0.5600969195365906 -0.417214959859848
-0.3245600759983063 0.5970209240913391 -0.37721675634384155
-0.3235308825969696 0.6031755208969116 -0.37054482102394104
-0.32462796568870544 0.5964024066925049 -0.3778924345970154
-0.32455208897590637 0.5969322323799133 -0.3773149847984314
-0.3244754374027252 0.5974752306938171 -0.37672269344329834
-0.3243955671787262 0.5980289578437805 -0.37611961364746094
-0.3243131935596466 0.5985947251319885 -0.3755027651786804
-0.3242269456386566 0.5991722345352173 -0.3748748302459717
-0.3245829641819 0.5969756841659546 -0.37725967168807983
-0.3193148672580719 0.6260766983032227 -0.3457355499267578
-0.3191206753253937 0.6270942687988281 -0.34462660551071167
-0.3199714124202728 0.6227323412895203 -0.34937137365341187
-0.31980106234550476 0.6236531138420105 -0.3483676314353943
-0.31962475180625916 0.6245942115783691 -0.34734195470809937
-0.3194434940814972 0.6255563497543335 -0.34629368782043457
-0.3192572295665741 0.6265392303466797 -0.34522169828414917
-0.31906697154045105 0.6275443434715271 -0.34412437677383423
-0.3206922113895416 0.6191248893737793 -0.35328948497772217
-0.32136234641075134 0.6154571771621704 -0.35728293657302856
-0.321188360452652 0.6164789199829102 -0.35616815090179443
-0.32221511006355286 0.6108136773109436 -0.3623124659061432
-0.3220440447330475 0.6118548512458801 -0.36117738485336304
-0.32231405377388 0.6103885173797607 -0.3627663254737854
-0.3226526081562042 0.6084995865821838 -0.364811509847641
-0.32248857617378235 0.6095151305198669 -0.363705039024353
-0.3208581507205963 0.6180663704872131 -0.3544715344905853
-0.3206343948841095 0.6193274855613708 -0.3530976474285126
-0.32100608944892883 0.6173227429389954 -0.3552801311016083
-0.32077673077583313 0.6186311841011047 -0.3538541793823242
-0.32189151644706726 0.6125582456588745 -0.36044034361839294
-0.32266685366630554 0.6082115769386292 -0.36515676975250244
-0.322453111410141 0.6095396876335144 -0.3637106120586395
-0.32261648774147034 0.6086283922195435 -0.3647005558013916
-0.321201354265213 0.6163538098335266 -0.3563389778137207
-0.32090726494789124 0.6180453896522522 -0.35449525713920593
-0.32163211703300476 0.614143431186676 -0.35872364044189453
-0.32242217659950256 0.609734833240509 -0.3635109066963196
-0.3228408396244049 0.6074008941650391 -0.3660396933555603
-0.3218884766101837 0.6126568913459778 -0.3603571653366089
-0.3227787911891937 0.6076211929321289 -0.3658173680305481
-0.32211652398109436 0.611503541469574 -0.36160287261009216
-0.3208036720752716 0.6188809275627136 -0.3535817265510559
-0.31753066182136536 0.6354057192802429 -0.33560699224472046
-0.3163023293018341 0.6412741541862488 -0.32919228076934814
-0.3137287199497223 0.6529255509376526 -0.3164244294166565
-0.3116176426410675 0.6616959571838379 -0.30680322647094727
-0.30817046761512756 0.6756649613380432 -0.29133936762809753
-0.30446240305900574 0.6896918416023254 -0.27569231390953064
-0.3006719648838043 0.7034710049629211 -0.26013150811195374
-0.29488232731819153 0.7235742211341858 -0.23708234727382657

SCALARS Gamma float
LOOKUP_TABLE default
0.45418250290154394
0.6991018774213426
0.900237190054798
1.0821511037074845
1.2526966020272825
1.4158300494345062
1.572627295037102
1.7245769843613048
1.872194785174142
2.0154543807052785
2.1545303097912165
2.2895080358454227
2.420655154648513
2.5472884812708716
2.668458792560858
2.783998940431386
2.8934216426000834
2.9972629728452187
3.0950485413746414
3.187307342942449
3.272750172964215
3.3513479407375137
3.423336773620656
3.4893310488512594
3.5498177607354244
3.6036614085235588
3.6514322419406424
3.693225935745959
3.7297962178146418
3.7621489908714247
3.7888731878527953
3.8112359580635076
3.8280582992900736
3.83874928728335
3.8438859187065715
3.843598704424172
3.8378639929631424
3.8261693554252236
3.810022873130346
3.7887872453168554
3.7621547648405267
3.7294880938081785
3.6913570395635915
3.6487899612508694
3.6018388450934893
3.547654949145132
3.4886130580740944
3.42573870675769
3.361972864279824
3.3032677296786814
3.303314369161971
3.3621176850368757
3.4259838524847632
3.4889687541918266
3.5481396850846316
3.6024881941774076
3.6496943192062203
3.6930038739875535
3.730352214872454
3.7626878236489087
3.7890398862103822
3.8099955050008236
3.8258179731216164
3.8369263378971064
3.8425620051826215
3.843227305095166
3.8382168687501714
3.8276038490465476
3.8108358426525233
3.788510043809111
3.761808953425233
3.7294667660169334
3.692896817697958
3.651092423374516
3.603296726635735
3.549401933375017
3.4887471635257192
3.4229232156062532
3.350988884640576
3.2724211250845125
3.186995789977081
3.0947431840252113
2.9969471008044763
2.8930240232338145
2.7837224825286704
2.668234721487662
2.547103551359184
2.42050684891476
2.2894146583417228
2.1544241410569263
2.015353707854533
1.87210156132711
1.7244907976936292
1.5725444248472886
1.415732643519758
1.2526438535711728
1.0821473057807518
0.9002087633523428
0.6990574578532005
0.45416069949962595
0.45418250290154394
0.6991018774213426
0.900237190054798
1.0821511037074845
1.2526966020272825
1.4158300494345062
1.572627295037102
1.7245769843613048
1.872194785174142
2.0154543807052785
2.1545303097912165
2.2895080358454227
2.420655154648513
2.5472884812708716
2.668458792560858
2.783998940431386
2.8934216426000834
2.9972629728452187
3.0950485413746414
3.187307342942449
3.272750172964215
3.3513479407375137
3.423336773620656
3.4893310488512594
3.5498177607354244
3.6036614085235588
3.6514322419406424
3.693225935745959
3.7297962178146418
3.7621489908714247
3.7888731878527953
3.8112359580635076
3.8280582992900736
3.83874928728335
3.8438859187065715
3.843598704424172
3.8378639929631424
3.8261693554252236
3.810022873130346
3.7887872453168554
3.7621547648405267
3.7294880938081785
3.6913570395635915
3.6487899612508694
3.6018388450934893
3.547654949145132
3.4886130580740944
3.42573870675769
3.361972864279824
3.3032677296786814
3.303314369161971
3.3621176850368757
3.4259838524847632
3.4889687541918266
3.5481396850846316
3.6024881941774076
3.6496943192062203
3.6930038739875535
3.730352214872454
3.7626878236489087
3.7890398862103822
3.8099955050008236
3.8258179731216164
3.8369263378971064
3.8425620051826215
3.843227305095166
3.8382168687501714
3.8276038490465476
3.8108358426525233
3.788510043809111
3.761808953425233
3.7294667660169334
3.692896817697958
3.651092423374516
3.603296726635735
3.549401933375017
3.4887471635257192
3.4229232156062532
3.350988884640576
3.2724211250845125
3.186995789977081
3.0947431840252113
2.9969471008044763
2.8930240232338145
2.7837224825286704
2.668234721487662
2.547103551359184
2.42050684891476
2.2894146583417228
2.1544241410569263
2.015353707854533
1.87210156132711
1.7244907976936292
1.5725444248472886
1.415732643519758
1.2526438535711728
1.0821473057807518
0.9002087633523428
0.6990574578532005
0.45416069949962595

VECTORS Vvpm_ApA float
-0.29488465189933777 0.723589301109314 -0.23707340657711032
-0.3006739318370819 0.7034848928451538 -0.26012277603149414
-0.3044642508029938 0.689704954624176 -0.27568426728248596
-0.3081722557544708 0.675675630569458 -0.2913326919078827
-0.31161871552467346 0.6617058515548706 -0.3067971169948578
-0.3137301504611969 0.6529325246810913 -0.3164205253124237
-0.31630322337150574 0.6412791013717651 -0.3291895091533661
-0.31753161549568176 0.6354077458381653 -0.3356066048145294
-0.3208044469356537 0.6188802123069763 -0.3535834550857544
-0.3221171200275421 0.61150062084198 -0.3616061210632324
-0.32277920842170715 0.6076171398162842 -0.36582157015800476
-0.3218890130519867 0.6126514673233032 -0.36036255955696106
-0.32284125685691833 0.6073961853981018 -0.3660440742969513
-0.3224227726459503 0.6097319722175598 -0.36351433396339417
-0.32163259387016296 0.6141411662101746 -0.358726441860199
-0.3209078013896942 0.6180418729782104 -0.35449910163879395
-0.3212020695209503 0.616349995136261 -0.3563430905342102
-0.32261666655540466 0.6086260676383972 -0.36470305919647217
-0.32245340943336487 0.6095379590988159 -0.3637129068374634
-0.3226672112941742 0.6082100868225098 -0.3651593327522278
-0.3218919336795807 0.6125572919845581 -0.36044251918792725
-0.32077720761299133 0.6186285018920898 -0.3538573980331421
-0.3210068643093109 0.6173202991485596 -0.3552834093570709
-0.32063499093055725 0.6193259358406067 -0.35310038924217224
-0.3208586871623993 0.6180646419525146 -0.35447439551353455
-0.32248905301094055 0.609514594078064 -0.3637063503265381
-0.3226526081562042 0.6084988713264465 -0.364812970161438
-0.32231470942497253 0.6103895306587219 -0.36276617646217346
-0.3220444619655609 0.611854076385498 -0.36117878556251526
-0.32221582531929016 0.6108130216598511 -0.3623139262199402
-0.3211890161037445 0.6164746880531311 -0.3561724126338959
-0.32136300206184387 0.61545330286026 -0.3572872281074524
-0.3206929862499237 0.6191219687461853 -0.3532930016517639
-0.3190673887729645 0.6275443434715271 -0.3441261351108551
-0.3192571699619293 0.6265387535095215 -0.34522414207458496
-0.3194436728954315 0.6255557537078857 -0.3462962508201599
-0.3196248710155487 0.6245939135551453 -0.347344309091568
-0.31980088353157043 0.6236527562141418 -0.3483699858188629
-0.31997188925743103 0.6227321624755859 -0.34937310218811035
-0.3191215693950653 0.6270968317985535 -0.34462639689445496
-0.31931665539741516 0.626079797744751 -0.3457341194152832
-0.3245842754840851 0.596977710723877 -0.37725797295570374
-0.3242282569408417 0.5991718769073486 -0.374875009059906
-0.32431456446647644 0.5985944867134094 -0.37550288438796997
-0.32439669966697693 0.5980283617973328 -0.37611982226371765
-0.32447585463523865 0.5974741578102112 -0.3767243027687073
-0.32455262541770935 0.5969315767288208 -0.37731656432151794
-0.3246285617351532 0.5964011549949646 -0.37789401412010193
-0.3235314190387726 0.603169322013855 -0.37055081129074097
-0.3245605528354645 0.5970196723937988 -0.3772183954715729
-0.3295711576938629 0.5600969195365906 -0.417214959859848
-0.3245600759983063 0.5970209240913391 -0.37721675634384155
-0.3235308825969696 0.6031755208969116 -0.37054482102394104
-0.32462796568870544 0.5964024066925049 -0.3778924345970154
-0.32455208897590637 0.5969322323799133 -0.3773149847984314
-0.3244754374027252 0.5974752306938171 -0.37672269344329834
-0.3243955671787262 0.5980289578437805 -0.37611961364746094
-0.3243131935596466 0.5985947251319885 -0.3755027651786804
-0.3242269456386566 0.5991722345352173 -0.3748748302459717
-0.3245829641819 0.5969756841659546 -0.37725967168807983
-0.3193148672580719 0.6260766983032227 -0.3457355499267578
-0.3191206753253937 0.6270942687988281 -0.34462660551071167
-0.3199714124202728 0.6227323412895203 -0.34937137365341187
-0.31980106234550476 0.6236531138420105 -0.3483676314353943
-0.31962475180625916 0.6245942115783691 -0.34734195470809937
-0.3194434940814972 0.6255563497543335 -0.34629368782043457
-0.3192572295665741 0.6265392303466797 -0.34522169828414917
-0.31906697154045105 0.6275443434715271 -0.34412437677383423
-0.3206922113895416 0.6191248893737793 -0.35328948497772217
-0.32136234641075134 0.6154571771621704 -0.35728293657302856
-0.321188360452652 0.6164789199829102 -0.35616815090179443
-0.32221511006355286 0.6108136773109436 -0.3623124659061432
-0.3220440447330475 0.6118548512458801 -0.36117738485336304
-0.32231405377388 0.6103885173797607 -0.3627663254737854
-0.3226526081562042 0.6084995865821838 -0.364811509847641
-0.32248857617378235 0.6095151305198669 -0.363705039024353
-0.3208581507205963 0.6180663704872131 -0.3544715344905853
-0.3206343948841095 0.6193274855613708 -0.3530976474285126
-0.32100608944892883 0.6173227429389954 -0.3552801311016083
-0.32077673077583313 0.6186311841011047 -0.3538541793823242
-0.32189151644706726 0.6125582456588745 -0.36044034361839294
-0.32266685366630554 0.6082115769386292 -0.36515676975250244
-0.322453111410141 0.6095396876335144 -0.3637106120586395
-0.32261648774147034 0.6086283922195435 -0.3647005558013916
-0.321201354265213 0.6163538098335266 -0.3563389778137207
-0.32090726494789124 0.6180453896522522 -0.35449525713920593
-0.32163211703300476 0.614143431186676 -0.35872364044189453
-0.32242217659950256 0.609734833240509 -0.3635109066963196
-0.3228408396244049 0.6074008941650391 -0.3660396933555603
-0.3218884766101837 0.6126568913459778 -0.3603571653366089
-0.3227787911891937 0.6076211929321289 -0.3658173680305481
-0.32211652398109436 0.611503541469574 -0.36160287261009216
-0.3208036720752716 0.6188809275627136 -0.3535817265510559
-0.31753066182136536 0.6354057192802429 -0.33560699224472046
-0.3163023293018341 0.6412741541862488 -0.32919228076934814
-0.3137287199497223 0.6529255509376526 -0.3164244294166565
-0.3116176426410675 0.6616959571838379 -0.30680322647094727
-0.30817046761512756 0.6756649613380432 -0.29133936762809753
-0.30446240305900574 0.6896918416023254 -0.27569231390953064
-0.3006719648838043 0.7034710049629211 -0.26013150811195374
-0.29488465189933777 0.723589301109314 -0.23707340657711032
-0.3006739318370819 0.7034848928451538 -0.26012277603149414
-0.3044642508029938 0.689704954624176 -0.27568426728248596
-0.3081722557544708 0.675675630569458 -0.2913326919078827
-0.31161871552467346 0.6617058515548706 -0.3067971169948578
-0.3137301504611969 0.6529325246810913 -0.3164205253124237
-0.31630322337150574 0.6412791013717651 -0.3291895091533661
-0.31753161549568176 0.6354077458381653 -0.3356066048145294
-0.3208044469356537 0.6188802123069763 -0.3535834550857544
-0.3221171200275421 0.61150062084198 -0.3616061210632324
-0.32277920842170715 0.6076171398162842 -0.36582157015800476
-0.3218890130519867 0.6126514673233032 -0.36036255955696106
-0.32284125685691833 0.6073961853981018 -0.3660440742969513
-0.3224227726459503 0.6097319722175598 -0.36351433396339417
-0.32163259387016296 0.6141411662101746 -0.358726441860199
-0.3209078013896942 0.6180418729782104 -0.35449910163879395
-0.3212020695209503 0.616349995136261 -0.3563430905342102
-0.32261666655540466 0.6086260676383972 -0.36470305919647217
-0.32245340943336487 0.6095379590988159 -0.3637129068374634
-0.3226672112941742 0.6082100868225098 -0.3651593327522278
-0.3218919336795807 0.6125572919845581 -0.36044251918792725
-0.32077720761299133 0.6186285018920898 -0.3538573980331421
-0.3210068643093109 0.6173202991485596 -0.3552834093570709
-0.32063499093055725 0.6193259358406067 -0.35310038924217224
-0.3208586871623993 0.6180646419525146 -0.35447439551353455
-0.32248905301094055 0.609514594078064 -0.3637063503265381
-0.3226526081562042 0.6084988713264465 -0.364812970161438
-0.32231470942497253 0.6103895306587219 -0.36276617646217346
-0.3220444619655609 0.611854076385498 -0.36117878556251526
-0.32221582531929016 0.6108130216598511 -0.3623139262199402
-0.3211890161037445 0.6164746880531311 -0.3561724126338959
-0.32136300206184387 0.61545330286026 -0.3572872281074524
-0.3206929862499237 0.6191219687461853 -0.3532930016517639
-0.3190673887729645 0.6275443434715271 -0.3441261351108551
-0.3192571699619293 0.6265387535095215 -0.34522414207458496
-0.3194436728954315 0.6255557537078857 -0.3462962508201599
-0.3196248710155487 0.6245939135551453 -0.347344309091568
-0.31980088353157043 0.6236527562141418 -0.3483699858188629
-0.31997188925743103 0.6227321624755859 -0.34937310218811035
-0.3191215693950653 0.6270968317985535 -0.34462639689445496
-0.31931665539741516 0.626079797744751 -0.3457341194152832
-0.3245842754840851 0.596977710723877 -0.37725797295570374
-0.3242282569408417 0.5991718769073486 -0.374875009059906
-0.32431456446647644 0.5985944867134094 -0.37550288438796997
-0.32439669966697693 0.5980283617973328 -0.37611982226371765
-0.32447585463523865 0.5974741578102112 -0.3767243027687073
-0.32455262541770935 0.5969315767288208 -0.37731656432151794
-0.3246285617351532 0.5964011549949646 -0.37789401412010193
-0.3235314190387726 0.603169322013855 -0.37055081129074097
-0.3245605528354645 0.5970196723937988 -0.3772183954715729
-0.3295711576938629 0.5600969195365906 -0.417214959859848
-0.3245600759983063 0.5970209240913391 -0.37721675634384155
-0.3235308825969696 0.6031755208969116 -0.37054482102394104
-0.32462796568870544 0.5964024066925049 -0.3778924345970154
-0.32455208897590637 0.5969322323799133 -0.3773149847984314
-0.3244754374027252 0.5974752306938171 -0.37672269344329834
-0.3243955671787262 0.5980289578437805 -0.37611961364746094
-0.3243131935596466 0.5985947251319885 -0.3755027651786804
-0.3242269456386566 0.5991722345352173 -0.3748748302459717
-0.3245829641819 0.5969756841659546 -0.37725967168807983
-0.3193148672580719 0.6260766983032227 -0.3457355499267578
-0.3191206753253937 0.6270942687988281 -0.34462660551071167
-0.3199714124202728 0.6227323412895203 -0.34937137365341187
-0.31980106234550476 0.6236531138420105 -0.3483676314353943
-0.31962475180625916 0.6245942115783691 -0.34734195470809937
-0.3194434940814972 0.6255563497543335 -0.34629368782043457
-0.3192572295665741 0.6265392303466797 -0.34522169828414917
-0.31906697154045105 0.6275443434715271 -0.34412437677383423
-0.3206922113895416 0.6191248893737793 -0.35328948497772217
-0.32136234641075134 0.6154571771621704 -0.35728293657302856
-0.321188360452652 0.6164789199829102 -0.35616815090179443
-0.32221511006355286 0.6108136773109436 -0.3623124659061432
-0.3220440447330475 0.6118548512458801 -0.36117738485336304
-0.32231405377388 0.6103885173797607 -0.3627663254737854
-0.3226526081562042 0.6084995865821838 -0.364811509847641
-0.32248857617378235 0.6095151305198669 -0.363705039024353
-0.3208581507205963 0.6180663704872131 -0.3544715344905853
-0.3206343948841095 0.6193274855613708 -0.3530976474285126
-0.32100608944892883 0.6173227429389954 -0.3552801311016083
-0.32077673077583313 0.6186311841011047 -0.3538541793823242
-0.32189151644706726 0.6125582456588745 -0.36044034361839294
-0.32266685366630554 0.6082115769386292 -0.36515676975250244
-0.322453111410141 0.6095396876335144 -0.3637106120586395
-0.32261648774147034 0.6086283922195435 -0.3647005558013916
-0.321201354265213 0.6163538098335266 -0.3563389778137207
-0.32090726494789124 0.6180453896522522 -0.35449525713920593
-0.32163211703300476 0.614143431186676 -0.35872364044189453
-0.32242217659950256 0.609734833240509 -0.3635109066963196
-0.3228408396244049 0.6074008941650391 -0.3660396933555603
-0.3218884766101837 0.6126568913459778 -0.3603571653366089
-0.3227787911891937 0.6076211929321289 -0.3658173680305481
-0.32211652398109436 0.611503541469574 -0.36160287261009216
-0.3208036720752716 0.6188809275627136 -0.3535817265510559
-0.31753066182136536 0.6354057192802429 -0.33560699224472046
-0.3163023293018341 0.6412741541862488 -0.32919228076934814
-0.3137287199497223 0.6529255509376526 -0.3164244294166565
-0.3116176426410675 0.6616959571838379 -0.30680322647094727
-0.30817046761512756 0.6756649613380432 -0.29133936762809753
-0.30446240305900574 0.6896918416023254 -0.27569231390953064
-0.3006719648838043 0.7034710049629211 -0.26013150811195374

VECTORS Vkin float
-0.0 -0.0 -0.0
-0.0 -0.0 -0.0
-0.0 -0.0 -0.0
-0.0 -0.0 -0.0
-0.0 -0.0 -0.0
-0.0 -0.0 -0.0
-0.0 -0.0 -0.0
-0.0 -0.0 -0.0
-0.0 -0.0 -0.0
-0.0 -0.0 -0.0
-0.0 -0.0 -0.0
-0.0 -0.0 -0.0
-0.0 -0.0 -0.0
-0.0 -0.0 -0.0
-0.0 -0.0 -0.0
-0.0 -0.0 -0.0
-0.0 -0.0 -0.0
-0.0 -0.0 -0.0
-0.0 -0.0 -0.0
-0.0 -0.0 -0.0
-0.0 -0.0 -0.0
-0.0 -0.0 -0.0
-0.0 -0.0 -0.0
-0.0 -0.0 -0.0
-0.0 -0.0 -0.0
-0.0 -0.0 -0.0
-0.0 -0.0 -0.0
-0.0 -0.0 -0.0
-0.0 -0.0 -0.0
-0.0 -0.0 -0.0
-0.0 -0.0 -0.0
-0.0 -0.0 -0.0
-0.0 -0.0 -0.0
-0.0 -0.0 -0.0
-0.0 -0.0 -0.0
-0.0 -0.0 -0.0
-0.0 -0.0 -0.0
-0.0 -0.0 -0.0
-0.0 -0.0 -0.0
-0.0 -0.0 -0.0
-0.0 -0.0 -0.0
-0.0 -0.0 -0.0
-0.0 -0.0 -0.0
-0.0 -0.0 -0.0
-0.0 -0.0 -0.0
-0.0 -0.0 -0.0
-0.0 -0.0 -0.0
-0.0 -0.0 -0.0
-0.0 -0.0 -0.0
-0.0 -0.0 -0.0
-0.0 -0.0 -0.0
-0.0 -0.0 -0.0
-0.0 -0.0 -0.0
-0.0 -0.0 -0.0
-0.0 -0.0 -0.0
-0.0 -0.0 -0.0
-0.0 -0.0 -0.0
-0.0 -0.0 -0.0
-0.0 -0.0 -0.0
-0.0 -0.0 -0.0
-0.0 -0.0 -0.0
-0.0 -0.0 -0.0
-0.0 -0.0 -0.0
-0.0 -0.0 -0.0
-0.0 -0.0 -0.0
-0.0 -0.0 -0.0
-0.0 -0.0 -0.0
-0.0 -0.0 -0.0
-0.0 -0.0 -0.0
-0.0 -0.0 -0.0
-0.0 -0.0 -0.0
-0.0 -0.0 -0.0
-0.0 -0.0 -0.0
-0.0 -0.0 -0.0
-0.0 -0.0 -0.0
-0.0 -0.0 -0.0
-0.0 -0.0 -0.0
-0.0 -0.0 -0.0
-0.0 -0.0 -0.0
-0.0 -0.0 -0.0
-0.0 -0.0 -0.0
-0.0 -0.0 -0.0
-0.0 -0.0 -0.0
-0.0 -0.0 -0.0
-0.0 -0.0 -0.0
-0.0 -0.0 -0.0
-0.0 -0.0 -0.0
-0.0 -0.0 -0.0
-0.0 -0.0 -0.0
-0.0 -0.0 -0.0
-0.0 -0.0 -0.0
-0.0 -0.0 -0.0
-0.0 -0.0 -0.0
-0.0 -0.0 -0.0
-0.0 -0.0 -0.0
-0.0 -0.0 -0.0
-0.0 -0.0 -0.0
-0.0 -0.0 -0.0
-0.0 -0.0 -0.0
-0.0 -0.0 -0.0
-0.0 -0.0 -0.0
-0.0 -0.0 -0.0
-0.0 -0.0 -0.0
-0.0 -0.0 -0.0
-0.0 -0.0 -0.0
-0.0 -0.0 -0.0
-0.0 -0.0 -0.0
-0.0 -0.0 -0.0
-0.0 -0.0 -0.0
-0.0 -0.0 -0.0
-0.0 -0.0 -0.0
-0.0 -0.0 -0.0
-0.0 -0.0 -0.0
-0.0 -0.0 -0.0
-0.0 -0.0 -0.0
-0.0 -0.0 -0.0
-0.0 -0.0 -0.0
-0.0 -0.0 -0.0
-0.0 -0.0 -0.0
-0.0 -0.0 -0.0
-0.0 -0.0 -0.0
-0.0 -0.0 -0.0
-0.0 -0.0 -0.0
-0.0 -0.0 -0.0
-0.0 -0.0 -0.0
-0.0 -0.0 -0.0
-0.0 -0.0 -0.0
-0.0 -0.0 -0.0
-0.0 -0.0 -0.0
-0.0 -0.0 -0.0
-0.0 -0.0 -0.0
-0.0 -0.0 -0.0
-0.0 -0.0 -0.0
-0.0 -0.0 -0.0
-0.0 -0.0 -0.0
-0.0 -0.0 -0.0
-0.0 -0.0 -0.0
-0.0 -0.0 -0.0
-0.0 -0.0 -0.0
-0.0 -0.0 -0.0
-0.0 -0.0 -0.0
-0.0 -0.0 -0.0
-0.0 -0.0 -0.0
-0.0 -0.0 -0.0
-0.0 -0.0 -0.0
-0.0 -0.0 -0.0
-0.0 -0.0 -0.0
-0.0 -0.0 -0.0
-0.0 -0.0 -0.0
-0.0 -0.0 -0.0
-0.0 -0.0 -0.0
-0.0 -0.0 -0.0
-0.0 -0.0 -0.0
-0.0 -0.0 -0.0
-0.0 -0.0 -0.0
-0.0 -0.0 -0.0
-0.0 -0.0 -0.0
-0.0 -0.0 -0.0
-0.0 -0.0 -0.0
-0.0 -0.0 -0.0
-0.0 -0.0 -0.0
-0.0 -0.0 -0.0
-0.0 -0.0 -0.0
-0.0 -0.0 -0.0
-0.0 -0.0 -0.0
-0.0 -0.0 -0.0
-0.0 -0.0 -0.0
-0.0 -0.0 -0.0
-0.0 -0.0 -0.0
-0.0 -0.0 -0.0
-0.0 -0.0 -0.0
-0.0 -0.0 -0.0
-0.0 -0.0 -0.0
-0.0 -0.0 -0.0
-0.0 -0.0 -0.0
-0.0 -0.0 -0.0
-0.0 -0.0 -0.0
-0.0 -0.0 -0.0
-0.0 -0.0 -0.0
-0.0 -0.0 -0.0
-0.0 -0.0 -0.0
-0.0 -0.0 -0.0
-0.0 -0.0 -0.0
-0.0 -0.0 -0.0
-0.0 -0.0 -0.0
-0.0 -0.0 -0.0
-0.0 -0.0 -0.0
-0.0 -0.0 -0.0
-0.0 -0.0 -0.0
-0.0 -0.0 -0.0
-0.0 -0.0 -0.0
-0.0 -0.0 -0.0
-0.0 -0.0 -0.0
-0.0 -0.0 -0.0
-0.0 -0.0 -0.0
-0.0 -0.0 -0.0
-0.0 -0.0 -0.0
-0.0 -0.0 -0.0
-0.0 -0.0 -0.0
-0.0 -0.0 -0.0

VECTORS Vinf float
8.806752536055967 0.8629985451698303 4.169623173933179
8.809167716262266 0.8782424926757812 4.19248054192558
8.807617697474882 0.8680825829505919 4.177180327634961
8.808872256038114 0.8762832283973694 4.189545281391293
8.806748780963346 0.8631865978240967 4.169972993593365
8.80858561730139 0.8744724392890929 4.186857171516568
8.803368482348844 0.8463944792747496 4.145687975149304
8.800031933543607 0.8321256041526794 4.12565354273811
8.797691974399015 0.8229668736457824 4.1131067650128905
8.792160722968504 0.8028181791305542 4.086210020046384
8.78629717564337 0.7828717827796936 4.060557164411694
8.781014117953703 0.7654735445976257 4.038906432848126
8.783811483142301 0.7746337652206421 4.05022544429794
8.788850698230192 0.7914368510246277 4.071461983184964
8.789598796126768 0.7939766645431519 4.074721433382184
8.789746198413297 0.7944571375846863 4.075333453874737
8.785827073810026 0.7813153862953186 4.058615006666333
8.786319825408384 0.7829278707504272 4.06064061091438
8.785063776729032 0.7787278294563293 4.055341310959012
8.792109522578642 0.8026132583618164 4.0859471933652465
8.79359206890814 0.8078294396400452 4.0928027705957
8.792564425227567 0.8041718006134033 4.087975450019986
8.78953728413336 0.7937138676643372 4.074383594255597
8.788522217032835 0.790249764919281 4.069927551012189
8.79295263027899 0.8055093288421631 4.089725978832394
8.79212460255377 0.8025878667831421 4.085885115127713
8.791306290385648 0.7997242212295532 4.082139946680218
8.7887422177767 0.7909520268440247 4.0708080904294555
8.785756442305967 0.7809535264968872 4.058111198406369
8.792024168727323 0.8022781610488892 4.085509367447049
8.791198704001829 0.7993898391723633 4.081733085374982
8.796500000712797 0.8183217644691466 4.106791325073392
8.7996121976351 0.8303360939025879 4.1231897847463195
8.799044403788969 0.8280599117279053 4.120046533804089
8.79847500061743 0.8258132934570311 4.116959162216336
8.797904703376219 0.8235987424850463 4.113930054168851
8.7973350617861 0.8214163780212402 4.110958703022153
8.79148081278555 0.8003197908401489 4.082938321094662
8.790872726199552 0.7982089519500732 4.080188371400983
8.790269348380491 0.7961317896842957 4.07749355600372
8.789673003909513 0.7940881252288818 4.074852474193722
8.786469492671415 0.783316969871521 4.061108209352643
8.78060230946295 0.7640295624732971 4.037149839263112
8.77997473215811 0.7619681358337402 4.034625612359196
8.786395940539762 0.7830653786659241 4.060813792209775
8.782036278006956 0.7686958909034729 4.042882867317349
8.781499478576109 0.766922652721405 4.04069323108688
8.780967089888975 0.7651751041412354 4.038544066410214
8.781379971263334 0.7665532231330872 4.040245302181393
8.765546772239134 0.7143259644508362 3.978433810334355
8.765565130469724 0.7143881916999817 3.9785058276464054
8.781435284373686 0.7667263150215149 4.040462024669797
8.781020853278562 0.7653436660766602 4.038754917841107
8.781552109477445 0.7670876383781433 4.0409003274251525
8.782087538001463 0.7688573002815247 4.043085850935132
8.786442014930174 0.7832075953483582 4.060998238783032
8.780018899199888 0.7621074914932251 4.034797795276791
8.78588179087393 0.7813506126403809 4.0586250798513
8.78649989104025 0.7834141254425049 4.061232902269513
8.789700600860044 0.7941752672195435 4.074968435030133
8.790295753238127 0.7962167859077454 4.07760763929382
8.790897819755003 0.7982920408248901 4.080300308923871
8.79150477385275 0.8004007935523987 4.083048202257306
8.795071456191465 0.8130311369895935 4.099691338997037
8.79567113852255 0.8152317404747009 4.102639146309048
8.798520657775327 0.8259854912757875 4.117200710039288
8.799088213202879 0.828226625919342 4.1202818529416625
8.7996543977236 0.8304973244667053 4.123417921524197
8.796543690917417 0.8184802532196045 4.107009209852368
8.791244003531858 0.7995461225509644 4.0819380955506865
8.79206744169943 0.8024289011955261 4.085708864193112
8.785796258208677 0.781082272529602 4.05827621386543
8.788778218982145 0.7910691499710083 4.070961691599042
8.791338834521696 0.7998310327529907 4.0822840111066405
8.792155835387632 0.8026909232139587 4.08602450058952
8.792982253787443 0.8056086301803589 4.089860953550488
8.786661538836881 0.7840237617492676 4.062013872127682
8.789588782546446 0.7938866019248962 4.074609287243039
8.792609843966886 0.8043289184570312 4.088184870939404
8.793635282275602 0.8079798221588135 4.093004711132199
8.792151603457853 0.8027556538581848 4.086137421589047
8.785102340934202 0.7788512706756592 4.055499769907147
8.786356661078855 0.7830453515052795 4.060792632560879
8.784311208484098 0.776312530040741 4.052346296768338
8.78979179596655 0.7946103811264038 4.0755330102254455
8.789640042540952 0.7941167950630188 4.07490361497894
8.788888904807493 0.7915645241737366 4.071627773504407
8.783846828696653 0.7747485041618347 4.050370700817258
8.781717035529539 0.7677668333053589 4.041718281965405
8.786336455104276 0.7830033898353577 4.060723520975262
8.792194161174223 0.8029323816299438 4.086362399320752
8.79772010779135 0.8230678439140319 4.1132487432767455
8.80006566977255 0.8322512507438659 4.12583328054443
8.80339500641577 0.8465008735656737 4.145846463899762
8.808241102454588 0.8721869587898254 4.183422394256741
8.806771013495847 0.8632859587669374 4.170129843216092
8.809385034797117 0.8799446821212769 4.1951158718873565
8.807640168425962 0.8681871891021729 4.177348531942517
8.808860275504514 0.8760255575180054 4.189129300575406
8.806780669448301 0.8631209135055542 4.169817604284436
8.806752536055967 0.8629985451698303 4.169623173933179
8.809167716262266 0.8782424926757812 4.19248054192558
8.807617697474882 0.8680825829505919 4.177180327634961
8.808872256038114 0.8762832283973694 4.189545281391293
8.806748780963346 0.8631865978240967 4.169972993593365
8.80858561730139 0.8744724392890929 4.186857171516568
8.803368482348844 0.8463944792747496 4.145687975149304
8.800031933543607 0.8321256041526794 4.12565354273811
8.797691974399015 0.8229668736457824 4.1131067650128905
8.792160722968504 0.8028181791305542 4.086210020046384
8.78629717564337 0.7828717827796936 4.060557164411694
8.781014117953703 0.7654735445976257 4.038906432848126
8.783811483142301 0.7746337652206421 4.05022544429794
8.788850698230192 0.7914368510246277 4.071461983184964
8.789598796126768 0.7939766645431519 4.074721433382184
8.789746198413297 0.7944571375846863 4.075333453874737
8.785827073810026 0.7813153862953186 4.058615006666333
8.786319825408384 0.7829278707504272 4.06064061091438
8.785063776729032 0.7787278294563293 4.055341310959012
8.792109522578642 0.8026132583618164 4.0859471933652465
8.79359206890814 0.8078294396400452 4.0928027705957
8.792564425227567 0.8041718006134033 4.087975450019986
8.78953728413336 0.7937138676643372 4.074383594255597
8.788522217032835 0.790249764919281 4.069927551012189
8.79295263027899 0.8055093288421631 4.089725978832394
8.79212460255377 0.8025878667831421 4.085885115127713
8.791306290385648 0.7997242212295532 4.082139946680218
8.7887422177767 0.7909520268440247 4.0708080904294555
8.785756442305967 0.7809535264968872 4.058111198406369
8.792024168727323 0.8022781610488892 4.085509367447049
8.791198704001829 0.7993898391723633 4.081733085374982
8.796500000712797 0.8183217644691466 4.106791325073392
8.7996121976351 0.8303360939025879 4.1231897847463195
8.799044403788969 0.8280599117279053 4.120046533804089
8.79847500061743 0.8258132934570311 4.116959162216336
8.797904703376219 0.8235987424850463 4.113930054168851
8.7973350617861 0.8214163780212402 4.110958703022153
8.79148081278555 0.8003197908401489 4.082938321094662
8.790872726199552 0.7982089519500732 4.080188371400983
8.790269348380491 0.7961317896842957 4.07749355600372
8.789673003909513 0.7940881252288818 4.074852474193722
8.786469492671415 0.783316969871521 4.061108209352643
8.78060230946295 0.7640295624732971 4.037149839263112
8.77997473215811 0.7619681358337402 4.034625612359196
8.786395940539762 0.7830653786659241 4.060813792209775
8.782036278006956 0.7686958909034729 4.042882867317349
8.781499478576109 0.766922652721405 4.04069323108688
8.780967089888975 0.7651751041412354 4.038544066410214
8.781379971263334 0.7665532231330872 4.040245302181393
8.765546772239134 0.7143259644508362 3.978433810334355
8.765565130469724 0.7143881916999817 3.9785058276464054
8.781435284373686 0.7667263150215149 4.040462024669797
8.781020853278562 0.7653436660766602 4.038754917841107
8.781552109477445 0.7670876383781433 4.0409003274251525
8.782087538001463 0.7688573002815247 4.043085850935132
8.786442014930174 0.7832075953483582 4.060998238783032
8.780018899199888 0.7621074914932251 4.034797795276791
8.78588179087393 0.7813506126403809 4.0586250798513
8.78649989104025 0.7834141254425049 4.061232902269513
8.789700600860044 0.7941752672195435 4.074968435030133
8.790295753238127 0.7962167859077454 4.07760763929382
8.790897819755003 0.7982920408248901 4.080300308923871
8.79150477385275 0.8004007935523987 4.083048202257306
8.795071456191465 0.8130311369895935 4.099691338997037
8.79567113852255 0.8152317404747009 4.102639146309048
8.798520657775327 0.8259854912757875 4.117200710039288
8.799088213202879 0.828226625919342 4.1202818529416625
8.7996543977236 0.8304973244667053 4.123417921524197
8.796543690917417 0.8184802532196045 4.107009209852368
8.791244003531858 0.7995461225509644 4.0819380955506865
8.79206744169943 0.8024289011955261 4.085708864193112
8.785796258208677 0.781082272529602 4.05827621386543
8.788778218982145 0.7910691499710083 4.070961691599042
8.791338834521696 0.7998310327529907 4.0822840111066405
8.792155835387632 0.8026909232139587 4.08602450058952
8.792982253787443 0.8056086301803589 4.089860953550488
8.786661538836881 0.7840237617492676 4.062013872127682
8.789588782546446 0.7938866019248962 4.074609287243039
8.792609843966886 0.8043289184570312 4.088184870939404
8.793635282275602 0.8079798221588135 4.093004711132199
8.792151603457853 0.8027556538581848 4.086137421589047
8.785102340934202 0.7788512706756592 4.055499769907147
8.786356661078855 0.7830453515052795 4.060792632560879
8.784311208484098 0.776312530040741 4.052346296768338
8.78979179596655 0.7946103811264038 4.0755330102254455
8.789640042540952 0.7941167950630188 4.07490361497894
8.788888904807493 0.7915645241737366 4.071627773504407
8.783846828696653 0.7747485041618347 4.050370700817258
8.781717035529539 0.7677668333053589 4.041718281965405
8.786336455104276 0.7830033898353577 4.060723520975262
8.792194161174223 0.8029323816299438 4.086362399320752
8.79772010779135 0.8230678439140319 4.1132487432767455
8.80006566977255 0.8322512507438659 4.12583328054443
8.80339500641577 0.8465008735656737 4.145846463899762
8.808241102454588 0.8721869587898254 4.183422394256741
8.806771013495847 0.8632859587669374 4.170129843216092
8.809385034797117 0.8799446821212769 4.1951158718873565
8.807640168425962 0.8681871891021729 4.177348531942517
8.808860275504514 0.8760255575180054 4.189129300575406
8.806780669448301 0.8631209135055542 4.169817604284436

VECTORS Vvpm_AB float
-0.32946375012397766 0.5600872039794922 -0.4173797070980072
-0.3294612467288971 0.5600853562355042 -0.41738450527191157
-0.3294684588909149 0.560088574886322 -0.417378306388855
-0.3294925391674042 0.5600921511650085 -0.41736662387847906
-0.3295094072818756 0.5600968599319458 -0.41735461354255676
-0.32953158020973206 0.5600997805595398 -0.41734474897384644
-0.32958850264549255 0.5601116418838501 -0.4173103570938111
-0.3295954763889313 0.5601118206977844 -0.41730979084968567
-0.3296046555042267 0.5601136088371277 -0.4173021614551544
-0.32959064841270447 0.5601122379302979 -0.41730752587318426
-0.3295741379261017 0.560107946395874 -0.417319118976593
-0.32957038283348083 0.5601072907447815 -0.4173173010349274
-0.3295576870441437 0.5601060390472412 -0.4173208475112915
-0.32954713702201843 0.5601051449775696 -0.417323499917984
-0.32954129576683044 0.5601023435592651 -0.4173295199871063
-0.32953134179115295 0.5601014494895935 -0.41733270883560186
-0.32953545451164246 0.5601018667221069 -0.41732570528984075
-0.32952579855918884 0.560100793838501 -0.4173291027545929
-0.3295164406299591 0.5600996613502502 -0.41733273863792425
-0.32950887084007263 0.5600987672805786 -0.41733413934707647
-0.3295036256313324 0.5600947737693787 -0.4173426032066346
-0.3294982612133026 0.5600944757461548 -0.4173443913459778
-0.3294924795627594 0.5600942373275757 -0.41734537482261663
-0.3294943869113922 0.5600939393043518 -0.41733944416046137
-0.3294889032840729 0.5600937604904175 -0.4173384606838227
-0.3295787274837494 0.5601091980934143 -0.41728061437606806
-0.3295714557170868 0.5601085424423218 -0.4172833561897277
-0.3295641243457794 0.560107409954071 -0.4172863066196442
-0.3295568525791168 0.560106635093689 -0.4172892272472382
-0.32955631613731384 0.5601010918617249 -0.4172977209091187
-0.32955029606819153 0.5601000785827637 -0.4173007011413574
-0.32954439520835876 0.5600989460945129 -0.41730383038520813
-0.32954415678977966 0.5600988864898682 -0.41729903221130377
-0.32954129576683044 0.5600988268852234 -0.41729938983917236
-0.3295380771160126 0.5600991249084473 -0.4172997772693634
-0.3295347988605499 0.560099184513092 -0.4173001945018768
-0.3295607268810272 0.5601009726524353 -0.4172710776329041
-0.3295554220676422 0.5601004958152771 -0.41727367043495184
-0.3295500576496124 0.5600998401641846 -0.41727596521377563
-0.3295481503009796 0.5601017475128174 -0.41727301478385925
-0.3295457065105438 0.560103714466095 -0.4172706007957458
-0.3295404613018036 0.5601028800010681 -0.41727277636528015
-0.3295358121395111 0.5601027607917786 -0.4172743260860443
-0.3295309245586395 0.5601022243499756 -0.417275995016098
-0.3295260965824127 0.5601021647453308 -0.41727772355079645
-0.32952097058296204 0.5601013898849487 -0.41727948188781744
-0.329515665769577 0.560100793838501 -0.4172822833061219
-0.32951048016548157 0.560100257396698 -0.41728419065475464
-0.3295353353023529 0.5601049065589905 -0.41727241873741155
-0.32960936427116394 0.5601089596748352 -0.4172205924987793
-0.3296094834804535 0.5601064562797546 -0.4172227084636688
-0.32953545451164246 0.5600983500480652 -0.4172779321670533
-0.3295104205608368 0.5600934624671936 -0.4172897934913635
-0.3295154273509979 0.5600940585136414 -0.4172875881195068
-0.32952138781547546 0.5600955486297607 -0.41728478670120234
-0.3295260965824127 0.5600957274436951 -0.4172830581665039
-0.3295309245586395 0.5600958466529846 -0.41728129982948303
-0.3295356333255768 0.560096263885498 -0.41727957129478455
-0.3295406997203827 0.5600969195365906 -0.41727775335311884
-0.3295459449291229 0.5600977540016174 -0.41727569699287415
-0.32954809069633484 0.5600959658622742 -0.4172779321670533
-0.3295499384403229 0.560093879699707 -0.4172808229923249
-0.32955560088157654 0.5600945949554443 -0.41727831959724426
-0.32956066727638245 0.5600956082344055 -0.41727572679519653
-0.3295349180698395 0.5600898265838623 -0.4173082113265991
-0.3295383155345917 0.5600898265838623 -0.41730755567550665
-0.32954153418540955 0.5600899457931519 -0.4173070192337036
-0.32954439520835876 0.5600900650024414 -0.4173065423965454
-0.32954439520835876 0.5600935816764832 -0.4173083007335663
-0.3295506536960602 0.5600948333740234 -0.41730526089668274
-0.3295566737651825 0.5600961446762085 -0.4173021614551544
-0.32955697178840637 0.5600998997688293 -0.41729494929313665
-0.3295641243457794 0.5601009130477905 -0.41729182004928583
-0.3295716345310211 0.5601018667221069 -0.41728872060775757
-0.3295789659023285 0.5601029396057129 -0.4172860980033874
-0.329489141702652 0.5600897073745728 -0.4173422753810882
-0.3294946253299713 0.5600916147232056 -0.4173414409160614
-0.32949283719062805 0.5600897073745728 -0.4173493683338165
-0.3294983208179474 0.5600898265838623 -0.4173482954502106
-0.32950398325920105 0.5600901246070862 -0.41734650731086725
-0.32950904965400696 0.5600934624671936 -0.41733890771865845
-0.3295166790485382 0.560096025466919 -0.4173360764980316
-0.32952603697776794 0.5600969791412354 -0.41733208298683167
-0.32953545451164246 0.5600982904434204 -0.41732877492904663
-0.32953163981437683 0.5600972175598145 -0.4173361361026764
-0.3295411765575409 0.5600981116294861 -0.4173328280448914
-0.32954737544059753 0.5601016283035278 -0.4173263907432556
-0.329557865858078 0.5601039528846741 -0.41732284426689154
-0.32957038283348083 0.5601063966751099 -0.41731810569763184
-0.3295745551586151 0.5601061582565308 -0.4173205494880676
-0.32959064841270447 0.5601083636283875 -0.4173106849193573
-0.32960471510887146 0.5601091980934143 -0.41730609536170965
-0.3295953571796417 0.56010502576828 -0.41731542348861694
-0.3295886814594269 0.5601040720939636 -0.41731691360473633
-0.32953158020973206 0.5600929856300354 -0.4173504412174225
-0.3295096457004547 0.5600887537002563 -0.41736164689064026
-0.3294928967952728 0.5600841641426086 -0.41737347841262823
-0.32946857810020447 0.5600795149803162 -0.4173859357833862
-0.3294614851474762 0.5600762963294983 -0.41739195585250854
-0.329463928937912 0.560076892375946 -0.417388379573822
-0.32946375012397766 0.5600872039794922 -0.4173797070980072
-0.3294612467288971 0.5600853562355042 -0.41738450527191157
-0.3294684588909149 0.560088574886322 -0.417378306388855
-0.3294925391674042 0.5600921511650085 -0.41736662387847906
-0.3295094072818756 0.5600968599319458 -0.41735461354255676
-0.32953158020973206 0.5600997805595398 -0.41734474897384644
-0.32958850264549255 0.5601116418838501 -0.4173103570938111
-0.3295954763889313 0.5601118206977844 -0.41730979084968567
-0.3296046555042267 0.5601136088371277 -0.4173021614551544
-0.32959064841270447 0.5601122379302979 -0.41730752587318426
-0.3295741379261017 0.560107946395874 -0.417319118976593
-0.32957038283348083 0.5601072907447815 -0.4173173010349274
-0.3295576870441437 0.5601060390472412 -0.4173208475112915
-0.32954713702201843 0.5601051449775696 -0.417323499917984
-0.32954129576683044 0.5601023435592651 -0.4173295199871063
-0.32953134179115295 0.5601014494895935 -0.41733270883560186
-0.32953545451164246 0.5601018667221069 -0.41732570528984075
-0.32952579855918884 0.560100793838501 -0.4173291027545929
-0.3295164406299591 0.5600996613502502 -0.41733273863792425
-0.32950887084007263 0.5600987672805786 -0.41733413934707647
-0.3295036256313324 0.5600947737693787 -0.4173426032066346
-0.3294982612133026 0.5600944757461548 -0.4173443913459778
-0.3294924795627594 0.5600942373275757 -0.41734537482261663
-0.3294943869113922 0.5600939393043518 -0.41733944416046137
-0.3294889032840729 0.5600937604904175 -0.4173384606838227
-0.3295787274837494 0.5601091980934143 -0.41728061437606806
-0.3295714557170868 0.5601085424423218 -0.4172833561897277
-0.3295641243457794 0.560107409954071 -0.4172863066196442
-0.3295568525791168 0.560106635093689 -0.4172892272472382
-0.32955631613731384 0.5601010918617249 -0.4172977209091187
-0.32955029606819153 0.5601000785827637 -0.4173007011413574
-0.32954439520835876 0.5600989460945129 -0.41730383038520813
-0.32954415678977966 0.5600988864898682 -0.41729903221130377
-0.32954129576683044 0.5600988268852234 -0.41729938983917236
-0.3295380771160126 0.5600991249084473 -0.4172997772693634
-0.3295347988605499 0.560099184513092 -0.4173001945018768
-0.3295607268810272 0.5601009726524353 -0.4172710776329041
-0.3295554220676422 0.5601004958152771 -0.41727367043495184
-0.3295500576496124 0.5600998401641846 -0.41727596521377563
-0.3295481503009796 0.5601017475128174 -0.41727301478385925
-0.3295457065105438 0.560103714466095 -0.4172706007957458
-0.3295404613018036 0.5601028800010681 -0.41727277636528015
-0.3295358121395111 0.5601027607917786 -0.4172743260860443
-0.3295309245586395 0.5601022243499756 -0.417275995016098
-0.3295260965824127 0.5601021647453308 -0.41727772355079645
-0.32952097058296204 0.5601013898849487 -0.41727948188781744
-0.329515665769577 0.560100793838501 -0.4172822833061219
-0.32951048016548157 0.560100257396698 -0.41728419065475464
-0.3295353353023529 0.5601049065589905 -0.41727241873741155
-0.32960936427116394 0.5601089596748352 -0.4172205924987793
-0.3296094834804535 0.5601064562797546 -0.4172227084636688
-0.32953545451164246 0.5600983500480652 -0.4172779321670533
-0.3295104205608368 0.5600934624671936 -0.4172897934913635
-0.3295154273509979 0.5600940585136414 -0.4172875881195068
-0.32952138781547546 0.5600955486297607 -0.41728478670120234
-0.3295260965824127 0.5600957274436951 -0.4172830581665039
-0.3295309245586395 0.5600958466529846 -0.41728129982948303
-0.3295356333255768 0.560096263885498 -0.41727957129478455
-0.3295406997203827 0.5600969195365906 -0.41727775335311884
-0.3295459449291229 0.5600977540016174 -0.41727569699287415
-0.32954809069633484 0.5600959658622742 -0.4172779321670533
-0.3295499384403229 0.560093879699707 -0.4172808229923249
-0.32955560088157654 0.5600945949554443 -0.41727831959724426
-0.32956066727638245 0.5600956082344055 -0.41727572679519653
-0.3295349180698395 0.5600898265838623 -0.4173082113265991
-0.3295383155345917 0.5600898265838623 -0.41730755567550665
-0.32954153418540955 0.5600899457931519 -0.4173070192337036
-0.32954439520835876 0.5600900650024414 -0.4173065423965454
-0.32954439520835876 0.5600935816764832 -0.4173083007335663
-0.3295506536960602 0.5600948333740234 -0.41730526089668274
-0.3295566737651825 0.5600961446762085 -0.4173021614551544
-0.32955697178840637 0.5600998997688293 -0.41729494929313665
-0.3295641243457794 0.5601009130477905 -0.41729182004928583
-0.3295716345310211 0.5601018667221069 -0.41728872060775757
-0.3295789659023285 0.5601029396057129 -0.4172860980033874
-0.329489141702652 0.5600897073745728 -0.4173422753810882
-0.3294946253299713 0.5600916147232056 -0.4173414409160614
-0.32949283719062805 0.5600897073745728 -0.4173493683338165
-0.3294983208179474 0.5600898265838623 -0.4173482954502106
-0.32950398325920105 0.5600901246070862 -0.41734650731086725
-0.32950904965400696 0.5600934624671936 -0.41733890771865845
-0.3295166790485382 0.560096025466919 -0.4173360764980316
-0.32952603697776794 0.5600969791412354 -0.41733208298683167
-0.32953545451164246 0.5600982904434204 -0.41732877492904663
-0.32953163981437683 0.5600972175598145 -0.4173361361026764
-0.3295411765575409 0.5600981116294861 -0.4173328280448914
-0.32954737544059753 0.5601016283035278 -0.4173263907432556
-0.329557865858078 0.5601039528846741 -0.41732284426689154
-0.32957038283348083 0.5601063966751099 -0.41731810569763184
-0.3295745551586151 0.5601061582565308 -0.4173205494880676
-0.32959064841270447 0.5601083636283875 -0.4173106849193573
-0.32960471510887146 0.5601091980934143 -0.41730609536170965
-0.3295953571796417 0.56010502576828 -0.41731542348861694
-0.3295886814594269 0.5601040720939636 -0.41731691360473633
-0.32953158020973206 0.5600929856300354 -0.4173504412174225
-0.3295096457004547 0.5600887537002563 -0.41736164689064026
-0.3294928967952728 0.5600841641426086 -0.41737347841262823
-0.32946857810020447 0.5600795149803162 -0.4173859357833862
-0.3294614851474762 0.5600762963294983 -0.41739195585250854
-0.329463928937912 0.560076892375946 -0.417388379573822