# vtk DataFile Version 4.0
[MyVLM domain - lattices] 
ASCII
DATASET UNSTRUCTURED_GRID
POINTS 302 float
1.2444999999999997 -1.2445 0.0
1.2399745454545452 -1.2399745454545454 0.0
1.2346178849721705 -1.2346178849721707 0.0
1.2284300185528754 -1.2284300185528756 0.0
1.2214109461966602 -1.2214109461966605 0.0
1.2135606679035247 -1.213560667903525 0.0
1.2048791836734691 -1.2048791836734694 0.0
1.1953664935064932 -1.1953664935064934 0.0
1.1850225974025972 -1.1850225974025974 0.0
1.1738474953617808 -1.173847495361781 0.0
1.1618411873840442 -1.1618411873840444 0.0
1.1490036734693874 -1.1490036734693876 0.0
1.1353349536178106 -1.1353349536178108 0.0
1.1208350278293133 -1.1208350278293135 0.0
1.1055038961038959 -1.105503896103896 0.0
1.0893415584415582 -1.0893415584415584 0.0
1.0723480148423004 -1.0723480148423006 0.0
1.054523265306122 -1.0545232653061223 0.0
1.0358673098330238 -1.035867309833024 0.0
1.0163801484230053 -1.0163801484230055 0.0
0.9960617810760664 -0.9960617810760668 0.0
0.9749122077922076 -0.9749122077922077 0.0
0.9529314285714284 -0.9529314285714284 0.0
0.9301194434137288 -0.930119443413729 0.0
0.9064762523191091 -0.9064762523191096 0.0
0.8820018552875695 -0.8820018552875695 0.0
0.8566962523191093 -0.8566962523191094 0.0
0.8305594434137288 -0.8305594434137291 0.0
0.8035914285714284 -0.8035914285714285 0.0
0.7757922077922076 -0.7757922077922077 0.0
0.7471617810760666 -0.7471617810760667 0.0
0.7177001484230053 -0.7177001484230054 0.0
0.6874073098330239 -0.687407309833024 0.0
0.6562832653061222 -0.6562832653061225 0.0
0.6243280148423004 -0.6243280148423005 0.0
0.5915415584415582 -0.5915415584415583 0.0
0.5579238961038958 -0.5579238961038959 0.0
0.5234750278293133 -0.5234750278293134 0.0
0.48819495361781057 -0.48819495361781057 0.0
0.4520836734693877 -0.4520836734693877 0.0
0.4151411873840445 -0.4151411873840446 0.0
0.37736749536178105 -0.37736749536178116 0.0
0.3387625974025974 -0.3387625974025974 0.0
0.2993264935064933 -0.29932649350649343 0.0
0.25905918367346925 -0.25905918367346925 0.0
0.21796066790352486 -0.21796066790352486 0.0
0.17603094619666027 -0.1760309461966605 0.0
0.13327001855287546 -0.13327001855287568 0.0
0.08967788497217066 -0.08967788497217066 0.0
0.045254545454545436 -0.045254545454545436 0.0
0.0 0.0 0.0
0.04525454545454545 0.04525454545454546 0.0
0.08967788497217066 0.08967788497217068 0.0
0.13327001855287568 0.1332700185528757 0.0
0.17603094619666046 0.1760309461966605 0.0
0.21796066790352497 0.21796066790352508 0.0
0.2590591836734693 0.25905918367346936 0.0
0.29932649350649343 0.2993264935064935 0.0
0.3387625974025973 0.33876259740259734 0.0
0.37736749536178094 0.377367495361781 0.0
0.41514118738404443 0.4151411873840445 0.0
0.45208367346938766 0.4520836734693878 0.0
0.48819495361781057 0.4881949536178107 0.0
0.5234750278293133 0.5234750278293134 0.0
0.5579238961038959 0.557923896103896 0.0
0.5915415584415582 0.5915415584415583 0.0
0.6243280148423003 0.6243280148423004 0.0
0.6562832653061222 0.6562832653061225 0.0
0.687407309833024 0.6874073098330241 0.0
0.7177001484230054 0.7177001484230056 0.0
0.7471617810760667 0.7471617810760669 0.0
0.7757922077922076 0.7757922077922077 0.0
0.8035914285714284 0.8035914285714285 0.0
0.8305594434137288 0.830559443413729 0.0
0.8566962523191093 0.8566962523191094 0.0
0.8820018552875692 0.8820018552875695 0.0
0.9064762523191091 0.9064762523191093 0.0
0.9301194434137288 0.9301194434137292 0.0
0.9529314285714284 0.9529314285714284 0.0
0.9749122077922076 0.9749122077922077 0.0
0.9960617810760666 0.9960617810760668 0.0
1.0163801484230053 1.0163801484230055 0.0
1.0358673098330238 1.035867309833024 0.0
1.054523265306122 1.0545232653061223 0.0
1.0723480148423001 1.0723480148423004 0.0
1.0893415584415582 1.0893415584415584 0.0
1.1055038961038959 1.105503896103896 0.0
1.120835027829313 1.1208350278293133 0.0
1.1353349536178106 1.1353349536178106 0.0
1.1490036734693874 1.1490036734693876 0.0
1.1618411873840444 1.1618411873840446 0.0
1.1738474953617808 1.173847495361781 0.0
1.1850225974025972 1.1850225974025972 0.0
1.1953664935064932 1.1953664935064934 0.0
1.2048791836734691 1.2048791836734694 0.0
1.2135606679035245 1.2135606679035247 0.0
1.22141094619666 1.2214109461966602 0.0
1.2284300185528754 1.2284300185528756 0.0
1.2346178849721703 1.2346178849721705 0.0
1.2399745454545452 1.2399745454545454 0.0
1.2444999999999997 1.2445 0.0
1.7422999999999997 -1.2445 0.0
1.7377745454545452 -1.2399745454545454 0.0
1.7324178849721703 -1.2346178849721707 0.0
1.7262300185528754 -1.2284300185528756 0.0
1.7192109461966603 -1.2214109461966605 0.0
1.7113606679035245 -1.213560667903525 0.0
1.7026791836734692 -1.2048791836734694 0.0
1.6931664935064934 -1.1953664935064934 0.0
1.6828225974025972 -1.1850225974025974 0.0
1.6716474953617806 -1.173847495361781 0.0
1.6596411873840444 -1.1618411873840444 0.0
1.6468036734693878 -1.1490036734693876 0.0
1.6331349536178106 -1.1353349536178108 0.0
1.6186350278293133 -1.1208350278293135 0.0
1.603303896103896 -1.105503896103896 0.0
1.5871415584415582 -1.0893415584415584 0.0
1.5701480148423004 -1.0723480148423006 0.0
1.552323265306122 -1.0545232653061223 0.0
1.5336673098330238 -1.035867309833024 0.0
1.5141801484230053 -1.0163801484230055 0.0
1.4938617810760666 -0.9960617810760668 0.0
1.4727122077922075 -0.9749122077922077 0.0
1.4507314285714283 -0.9529314285714284 0.0
1.4279194434137288 -0.930119443413729 0.0
1.4042762523191092 -0.9064762523191096 0.0
1.3798018552875693 -0.8820018552875695 0.0
1.3544962523191093 -0.8566962523191094 0.0
1.328359443413729 -0.8305594434137291 0.0
1.3013914285714283 -0.8035914285714285 0.0
1.2735922077922077 -0.7757922077922077 0.0
1.2449617810760665 -0.7471617810760667 0.0
1.2155001484230055 -0.7177001484230054 0.0
1.1852073098330238 -0.687407309833024 0.0
1.1540832653061224 -0.6562832653061225 0.0
1.1221280148423003 -0.6243280148423005 0.0
1.0893415584415582 -0.5915415584415583 0.0
1.055723896103896 -0.5579238961038959 0.0
1.0212750278293132 -0.5234750278293134 0.0
0.9859949536178108 -0.48819495361781057 0.0
0.9498836734693876 -0.4520836734693877 0.0
0.9129411873840445 -0.4151411873840446 0.0
0.875167495361781 -0.37736749536178116 0.0
0.8365625974025973 -0.3387625974025974 0.0
0.7971264935064933 -0.29932649350649343 0.0
0.7568591836734693 -0.25905918367346925 0.0
0.7157606679035249 -0.21796066790352486 0.0
0.6738309461966603 -0.1760309461966605 0.0
0.6310700185528755 -0.13327001855287568 0.0
0.5874778849721707 -0.08967788497217066 0.0
0.5430545454545455 -0.045254545454545436 0.0
0.4978 0.0 0.0
0.5430545454545455 0.04525454545454546 0.0
0.5874778849721707 0.08967788497217068 0.0
0.6310700185528757 0.1332700185528757 0.0
0.6738309461966605 0.1760309461966605 0.0
0.715760667903525 0.21796066790352508 0.0
0.7568591836734693 0.25905918367346936 0.0
0.7971264935064934 0.2993264935064935 0.0
0.8365625974025973 0.33876259740259734 0.0
0.875167495361781 0.377367495361781 0.0
0.9129411873840445 0.4151411873840445 0.0
0.9498836734693876 0.4520836734693878 0.0
0.9859949536178105 0.4881949536178107 0.0
1.0212750278293132 0.5234750278293134 0.0
1.055723896103896 0.557923896103896 0.0
1.0893415584415582 0.5915415584415583 0.0
1.1221280148423003 0.6243280148423004 0.0
1.1540832653061224 0.6562832653061225 0.0
1.185207309833024 0.6874073098330241 0.0
1.2155001484230055 0.7177001484230056 0.0
1.2449617810760667 0.7471617810760669 0.0
1.2735922077922077 0.7757922077922077 0.0
1.3013914285714283 0.8035914285714285 0.0
1.3283594434137287 0.830559443413729 0.0
1.3544962523191093 0.8566962523191094 0.0
1.3798018552875693 0.8820018552875695 0.0
1.4042762523191092 0.9064762523191093 0.0
1.427919443413729 0.9301194434137292 0.0
1.4507314285714283 0.9529314285714284 0.0
1.4727122077922075 0.9749122077922077 0.0
1.4938617810760666 0.9960617810760668 0.0
1.5141801484230053 1.0163801484230055 0.0
1.5336673098330238 1.035867309833024 0.0
1.552323265306122 1.0545232653061223 0.0
1.5701480148423002 1.0723480148423004 0.0
1.5871415584415582 1.0893415584415584 0.0
1.603303896103896 1.105503896103896 0.0
1.6186350278293131 1.1208350278293133 0.0
1.6331349536178106 1.1353349536178106 0.0
1.6468036734693874 1.1490036734693876 0.0
1.6596411873840444 1.1618411873840446 0.0
1.6716474953617806 1.173847495361781 0.0
1.6828225974025972 1.1850225974025972 0.0
1.6931664935064934 1.1953664935064934 0.0
1.7026791836734692 1.2048791836734694 0.0
1.7113606679035245 1.2135606679035247 0.0
1.71921094619666 1.2214109461966602 0.0
1.7262300185528754 1.2284300185528756 0.0
1.7324178849721703 1.2346178849721705 0.0
1.7377745454545452 1.2399745454545454 0.0
1.7422999999999997 1.2445 0.0
1.6155872727272724 -1.2422372727272726 0.0
1.6106462152133578 -1.237296215213358 0.0
1.604873951762523 -1.2315239517625232 0.0
1.598270482374768 -1.224920482374768 0.0
1.5908358070500925 -1.2174858070500927 0.0
1.582569925788497 -1.2092199257884972 0.0
1.5734728385899812 -1.2001228385899814 0.0
1.5635445454545454 -1.1901945454545453 0.0
1.552785046382189 -1.1794350463821892 0.0
1.5411943413729126 -1.1678443413729127 0.0
1.5287724304267158 -1.155422430426716 0.0
1.5155193135435991 -1.142169313543599 0.0
1.501434990723562 -1.1280849907235622 0.0
1.4865194619666047 -1.1131694619666048 0.0
1.4707727272727271 -1.0974227272727273 0.0
1.4541947866419294 -1.0808447866419293 0.0
1.4367856400742112 -1.0634356400742113 0.0
1.418545287569573 -1.0451952875695731 0.0
1.3994737291280146 -1.0261237291280147 0.0
1.379570964749536 -1.0062209647495362 0.0
1.358836994434137 -0.9854869944341371 0.0
1.337271818181818 -0.9639218181818181 0.0
1.3148754359925787 -0.9415254359925787 0.0
1.291647847866419 -0.9182978478664192 0.0
1.2675890538033394 -0.8942390538033393 0.0
1.2426990538033393 -0.8693490538033395 0.0
1.2169778478664193 -0.8436278478664192 0.0
1.1904254359925788 -0.8170754359925788 0.0
1.163041818181818 -0.7896918181818181 0.0
1.1348269944341371 -0.7614769944341371 0.0
1.105780964749536 -0.7324309647495362 0.0
1.0759037291280147 -0.7025537291280148 0.0
1.0451952875695731 -0.6718452875695733 0.0
1.0136556400742114 -0.6403056400742114 0.0
0.9812847866419293 -0.6079347866419293 0.0
0.9480827272727271 -0.5747327272727272 0.0
0.9140494619666047 -0.5406994619666048 0.0
0.8791849907235622 -0.5058349907235622 0.0
0.8434893135435992 -0.47013931354359917 0.0
0.8069624304267162 -0.43361243042671627 0.0
0.7696043413729128 -0.3962543413729128 0.0
0.7314150463821893 -0.3580650463821894 0.0
0.6923945454545455 -0.3190445454545454 0.0
0.6525428385899814 -0.27919283858998134 0.0
0.6118599257884971 -0.23850992578849706 0.0
0.5703458070500929 -0.19699580705009279 0.0
0.5280004823747682 -0.15465048237476808 0.0
0.4848239517625232 -0.11147395176252317 0.0
0.4408162152133581 -0.06746621521335805 0.0
0.39597727272727273 -0.022627272727272718 0.0
0.39597727272727273 0.02262727272727273 0.0
0.4408162152133581 0.06746621521335806 0.0
0.4848239517625232 0.11147395176252319 0.0
0.528000482374768 0.15465048237476808 0.0
0.5703458070500929 0.19699580705009276 0.0
0.6118599257884971 0.23850992578849717 0.0
0.6525428385899814 0.2791928385899814 0.0
0.6923945454545455 0.3190445454545454 0.0
0.7314150463821891 0.3580650463821891 0.0
0.7696043413729128 0.39625434137291277 0.0
0.8069624304267162 0.43361243042671616 0.0
0.8434893135435992 0.4701393135435992 0.0
0.8791849907235619 0.5058349907235621 0.0
0.9140494619666046 0.5406994619666047 0.0
0.9480827272727271 0.5747327272727272 0.0
0.9812847866419294 0.6079347866419295 0.0
1.0136556400742114 0.6403056400742114 0.0
1.0451952875695731 0.6718452875695732 0.0
1.0759037291280147 0.7025537291280147 0.0
1.105780964749536 0.7324309647495362 0.0
1.1348269944341371 0.7614769944341373 0.0
1.163041818181818 0.789691818181818 0.0
1.1904254359925786 0.8170754359925786 0.0
1.216977847866419 0.843627847866419 0.0
1.2426990538033393 0.8693490538033394 0.0
1.2675890538033392 0.8942390538033393 0.0
1.291647847866419 0.9182978478664192 0.0
1.3148754359925787 0.9415254359925787 0.0
1.3372718181818182 0.9639218181818181 0.0
1.3588369944341372 0.9854869944341373 0.0
1.379570964749536 1.0062209647495362 0.0
1.3994737291280148 1.0261237291280147 0.0
1.418545287569573 1.0451952875695731 0.0
1.4367856400742112 1.0634356400742113 0.0
1.4541947866419291 1.0808447866419293 0.0
1.470772727272727 1.097422727272727 0.0
1.4865194619666047 1.1131694619666048 0.0
1.501434990723562 1.128084990723562 0.0
1.5155193135435991 1.1421693135435993 0.0
1.528772430426716 1.1554224304267162 0.0
1.5411943413729128 1.1678443413729127 0.0
1.5527850463821888 1.179435046382189 0.0
1.5635445454545451 1.1901945454545453 0.0
1.573472838589981 1.2001228385899811 0.0
1.5825699257884969 1.209219925788497 0.0
1.5908358070500925 1.2174858070500927 0.0
1.5982704823747678 1.224920482374768 0.0
1.604873951762523 1.2315239517625232 0.0
1.6106462152133578 1.237296215213358 0.0
1.6155872727272724 1.2422372727272726 0.0

CELLS 200 700
4 0 101 102 1
4 1 102 103 2
4 2 103 104 3
4 3 104 105 4
4 4 105 106 5
4 5 106 107 6
4 6 107 108 7
4 7 108 109 8
4 8 109 110 9
4 9 110 111 10
4 10 111 112 11
4 11 112 113 12
4 12 113 114 13
4 13 114 115 14
4 14 115 116 15
4 15 116 117 16
4 16 117 118 17
4 17 118 119 18
4 18 119 120 19
4 19 120 121 20
4 20 121 122 21
4 21 122 123 22
4 22 123 124 23
4 23 124 125 24
4 24 125 126 25
4 25 126 127 26
4 26 127 128 27
4 27 128 129 28
4 28 129 130 29
4 29 130 131 30
4 30 131 132 31
4 31 132 133 32
4 32 133 134 33
4 33 134 135 34
4 34 135 136 35
4 35 136 137 36
4 36 137 138 37
4 37 138 139 38
4 38 139 140 39
4 39 140 141 40
4 40 141 142 41
4 41 142 143 42
4 42 143 144 43
4 43 144 145 44
4 44 145 146 45
4 45 146 147 46
4 46 147 148 47
4 47 148 149 48
4 48 149 150 49
4 49 150 151 50
4 50 151 152 51
4 51 152 153 52
4 52 153 154 53
4 53 154 155 54
4 54 155 156 55
4 55 156 157 56
4 56 157 158 57
4 57 158 159 58
4 58 159 160 59
4 59 160 161 60
4 60 161 162 61
4 61 162 163 62
4 62 163 164 63
4 63 164 165 64
4 64 165 166 65
4 65 166 167 66
4 66 167 168 67
4 67 168 169 68
4 68 169 170 69
4 69 170 171 70
4 70 171 172 71
4 71 172 173 72
4 72 173 174 73
4 73 174 175 74
4 74 175 176 75
4 75 176 177 76
4 76 177 178 77
4 77 178 179 78
4 78 179 180 79
4 79 180 181 80
4 80 181 182 81
4 81 182 183 82
4 82 183 184 83
4 83 184 185 84
4 84 185 186 85
4 85 186 187 86
4 86 187 188 87
4 87 188 189 88
4 88 189 190 89
4 89 190 191 90
4 90 191 192 91
4 91 192 193 92
4 92 193 194 93
4 93 194 195 94
4 94 195 196 95
4 95 196 197 96
4 96 197 198 97
4 97 198 199 98
4 98 199 200 99
4 99 200 201 100
1 202
1 203
1 204
1 205
1 206
1 207
1 208
1 209
1 210
1 211
1 212
1 213
1 214
1 215
1 216
1 217
1 218
1 219
1 220
1 221
1 222
1 223
1 224
1 225
1 226
1 227
1 228
1 229
1 230
1 231
1 232
1 233
1 234
1 235
1 236
1 237
1 238
1 239
1 240
1 241
1 242
1 243
1 244
1 245
1 246
1 247
1 248
1 249
1 250
1 251
1 252
1 253
1 254
1 255
1 256
1 257
1 258
1 259
1 260
1 261
1 262
1 263
1 264
1 265
1 266
1 267
1 268
1 269
1 270
1 271
1 272
1 273
1 274
1 275
1 276
1 277
1 278
1 279
1 280
1 281
1 282
1 283
1 284
1 285
1 286
1 287
1 288
1 289
1 290
1 291
1 292
1 293
1 294
1 295
1 296
1 297
1 298
1 299
1 300
1 301

CELL_TYPES 200
9
9
9
9
9
9
9
9
9
9
9
9
9
9
9
9
9
9
9
9
9
9
9
9
9
9
9
9
9
9
9
9
9
9
9
9
9
9
9
9
9
9
9
9
9
9
9
9
9
9
9
9
9
9
9
9
9
9
9
9
9
9
9
9
9
9
9
9
9
9
9
9
9
9
9
9
9
9
9
9
9
9
9
9
9
9
9
9
9
9
9
9
9
9
9
9
9
9
9
9
1
1
1
1
1
1
1
1
1
1
1
1
1
1
1
1
1
1
1
1
1
1
1
1
1
1
1
1
1
1
1
1
1
1
1
1
1
1
1
1
1
1
1
1
1
1
1
1
1
1
1
1
1
1
1
1
1
1
1
1
1
1
1
1
1
1
1
1
1
1
1
1
1
1
1
1
1
1
1
1
1
1
1
1
1
1
1
1
1
1
1
1
1
1
1
1
1
1
1
1

CELL_DATA 200

VECTORS Vvpm float
0.12059480021029191 0.3990353632800234 -1.6202919920485894
0.13262395236784186 0.4078812545025585 -1.6837849866679362
0.1461984696184002 0.4173421137864797 -1.7561222172885251
0.16105401788540422 0.4270738717004957 -1.8363326235539228
0.17705666061958897 0.43697145957011024 -1.9333240059121592
0.19356700553725642 0.44628420314056566 -2.0253782988077274
0.2104000567819403 0.4549953407641954 -2.121632659691026
0.22725136996850068 0.4629379817370244 -2.220819135448461
0.24386079747532263 0.47002022062752535 -2.3217295239990214
0.2600250318731661 0.4762154034100789 -2.4232463371222996
0.2756010093994226 0.4815445477763969 -2.524353157436184
0.2905016149826662 0.48605681267497985 -2.6241295980486323
0.304686784582668 0.4898132610350033 -2.7217400782211865
0.31815303645949505 0.49287650631814894 -2.8164250327316394
0.33092323746134455 0.4953059040766662 -2.907499241663347
0.34303713185695084 0.4971562650701119 -2.9943573723397234
0.3545425803279813 0.498477975224392 -3.0764836207803508
0.3654875768089971 0.4993172348154528 -3.153461074953678
0.3759134832904595 0.4997160207778288 -3.224976689798084
0.3858501385434943 0.49971189985004777 -3.290819050427691
0.3953133995476559 0.49933796503898165 -3.3508680201007213
0.4043053078959155 0.4986230778283159 -3.405077466628661
0.4128165778220138 0.4975924121706144 -3.453453931679657
0.42116854198878073 0.4961295012500362 -3.4970408171244847
0.42873430116288586 0.49451554487385235 -3.536592670807985
0.4356669779318049 0.4926412604499036 -3.5674860929788665
0.44204971725751824 0.49052414558123636 -3.592700365654873
0.44787540111349633 0.48817578954335067 -3.612249777428818
0.45314353141630825 0.48560380275815057 -3.6261274851631735
0.45785963179347966 0.48281103741410347 -3.6343047262834354
0.46203399298010156 0.4797948855572719 -3.6367297902929074
0.4656796808407462 0.4765462941805495 -3.6333204282216025
0.46880924682862507 0.47304771742819385 -3.623939103159249
0.4714299717012374 0.46926972837257175 -3.6083488111710063
0.47427707111330514 0.46490680492669256 -3.5898870854028386
0.4759210587193368 0.460546467525992 -3.571048208554867
0.47692433351338265 0.4555768321669893 -3.5335280509938447
0.47733511597499295 0.45005322422047994 -3.4872987233904875
0.4771020590842106 0.44385871111885716 -3.431257690334865
0.47614509768984636 0.4368306409657816 -3.36398985531585
0.4743430814373951 0.42872262066055145 -3.283657870945812
0.47154012274206647 0.4191250524746354 -3.1878972270197377
0.467584960738644 0.4072651922931849 -3.0738829302431827
0.46240186159311564 0.39152578492573076 -2.939135082359275
0.45589509363316155 0.3685109639853334 -2.784093640076368
0.44663758134221504 0.33199572564726115 -2.61506725918113
0.42718328610641887 0.2740200635802431 -2.4340372105504207
0.38062651941382647 0.19318893925912228 -2.2034559907174818
0.2989300242127339 0.10728268181306239 -1.8665319311043613
0.20688871453307292 0.043916773605806744 -1.4699509736410037
0.21067304182522267 0.019770358523067907 -1.4122771331918273
0.3175050485756555 -0.015822372319440905 -1.599581161040727
0.41781154257747233 -0.10585282195183074 -1.6974567257545365
0.4710054123009425 -0.22691851563678236 -1.854267806396653
0.4816573503428815 -0.32641093593918785 -2.1451079102884276
0.4783711787217638 -0.3841145781611945 -2.4717159592468154
0.47656474791609116 -0.41264346986008876 -2.750839426506154
0.47792538903281795 -0.42761811838462205 -2.9682230964104632
0.48059022417373126 -0.4373557451948 -3.1357667989557014
0.4832019467685135 -0.4450684115699562 -3.26704029251962
0.4852151063940121 -0.4518147233833009 -3.371939719744236
0.4865023691055045 -0.45793199861899025 -3.4569845199036155
0.4870822397932149 -0.46354458804203147 -3.526440346495809
0.4870026472116349 -0.4687162494737183 -3.583177417022034
0.48630822566030907 -0.4734946996692257 -3.6292006869298414
0.4849531561285893 -0.47778819716219634 -3.65585694019692
0.4823870517153981 -0.4821553848393846 -3.6805661561353196
0.4800217533056192 -0.4860002891028626 -3.7014421292138793
0.47713515640209864 -0.48961190535414484 -3.715509375366571
0.4737217621417368 -0.4930090039404759 -3.723133542217247
0.4697702637159122 -0.49620132297901703 -3.7245444333463906
0.46526844287699665 -0.49919200787016943 -3.7198909397044346
0.4602066054861958 -0.5019790354169908 -3.709272937909757
0.4545797123303813 -0.5045557893761126 -3.692753748461661
0.44838875708789067 -0.5069114950096114 -3.6703645565476317
0.44164146303806784 -0.5090318219561512 -3.6421076264501164
0.43425123935707416 -0.5108991664036342 -3.605146219859246
0.4260965495946242 -0.5126249767581568 -3.563972536548601
0.41775470051016134 -0.5139087713372829 -3.517711822729512
0.408929901216695 -0.5148753399093544 -3.465448536334312
0.39963231727021103 -0.5154971896326712 -3.4071735764886504
0.3898604080458639 -0.5157428804293198 -3.342929025430802
0.37959824416360277 -0.5155763900320748 -3.272829917698991
0.36881519915032335 -0.5149568356726539 -3.1970818837902963
0.35746835021208906 -0.5138385760187312 -3.115991840770587
0.34550740989075385 -0.5121715176389025 -3.029970573477848
0.3328816241361331 -0.5099013452899914 -2.939528146047792
0.31954795988434 -0.5069695279074029 -2.8452650047456367
0.305480114790755 -0.503313469710675 -2.747862923614726
0.2906782570024431 -0.4988680673191702 -2.648080213084261
0.27517953057642075 -0.4935707647034592 -2.546754331215165
0.2590687884833853 -0.48737211075964393 -2.4448117877825677
0.2424877366471129 -0.4802521419701421 -2.343280559199104
0.22563944032264058 -0.47223998369171444 -2.2432962107129772
0.20878507092893678 -0.46343141143679684 -2.1460922608259
0.19223142123237497 -0.4539984670696217 -2.0529693275872267
0.17618021792798702 -0.4439797776483311 -1.9555123007719968
0.16124830368641016 -0.4341013069865222 -1.8741288371662892
0.14758937291339522 -0.42449157823367106 -1.8006297038686765
0.13547366350882714 -0.41550203696322674 -1.7360342040015397
0.12059480021029191 0.3990353632800234 -1.6202919920485894
0.13262395236784186 0.4078812545025585 -1.6837849866679362
0.1461984696184002 0.4173421137864797 -1.7561222172885251
0.16105401788540422 0.4270738717004957 -1.8363326235539228
0.17705666061958897 0.43697145957011024 -1.9333240059121592
0.19356700553725642 0.44628420314056566 -2.0253782988077274
0.2104000567819403 0.4549953407641954 -2.121632659691026
0.22725136996850068 0.4629379817370244 -2.220819135448461
0.24386079747532263 0.47002022062752535 -2.3217295239990214
0.2600250318731661 0.4762154034100789 -2.4232463371222996
0.2756010093994226 0.4815445477763969 -2.524353157436184
0.2905016149826662 0.48605681267497985 -2.6241295980486323
0.304686784582668 0.4898132610350033 -2.7217400782211865
0.31815303645949505 0.49287650631814894 -2.8164250327316394
0.33092323746134455 0.4953059040766662 -2.907499241663347
0.34303713185695084 0.4971562650701119 -2.9943573723397234
0.3545425803279813 0.498477975224392 -3.0764836207803508
0.3654875768089971 0.4993172348154528 -3.153461074953678
0.3759134832904595 0.4997160207778288 -3.224976689798084
0.3858501385434943 0.49971189985004777 -3.290819050427691
0.3953133995476559 0.49933796503898165 -3.3508680201007213
0.4043053078959155 0.4986230778283159 -3.405077466628661
0.4128165778220138 0.4975924121706144 -3.453453931679657
0.42116854198878073 0.4961295012500362 -3.4970408171244847
0.42873430116288586 0.49451554487385235 -3.536592670807985
0.4356669779318049 0.4926412604499036 -3.5674860929788665
0.44204971725751824 0.49052414558123636 -3.592700365654873
0.44787540111349633 0.48817578954335067 -3.612249777428818
0.45314353141630825 0.48560380275815057 -3.6261274851631735
0.45785963179347966 0.48281103741410347 -3.6343047262834354
0.46203399298010156 0.4797948855572719 -3.6367297902929074
0.4656796808407462 0.4765462941805495 -3.6333204282216025
0.46880924682862507 0.47304771742819385 -3.623939103159249
0.4714299717012374 0.46926972837257175 -3.6083488111710063
0.47427707111330514 0.46490680492669256 -3.5898870854028386
0.4759210587193368 0.460546467525992 -3.571048208554867
0.47692433351338265 0.4555768321669893 -3.5335280509938447
0.47733511597499295 0.45005322422047994 -3.4872987233904875
0.4771020590842106 0.44385871111885716 -3.431257690334865
0.47614509768984636 0.4368306409657816 -3.36398985531585
0.4743430814373951 0.42872262066055145 -3.283657870945812
0.47154012274206647 0.4191250524746354 -3.1878972270197377
0.467584960738644 0.4072651922931849 -3.0738829302431827
0.46240186159311564 0.39152578492573076 -2.939135082359275
0.45589509363316155 0.3685109639853334 -2.784093640076368
0.44663758134221504 0.33199572564726115 -2.61506725918113
0.42718328610641887 0.2740200635802431 -2.4340372105504207
0.38062651941382647 0.19318893925912228 -2.2034559907174818
0.2989300242127339 0.10728268181306239 -1.8665319311043613
0.20688871453307292 0.043916773605806744 -1.4699509736410037
0.21067304182522267 0.019770358523067907 -1.4122771331918273
0.3175050485756555 -0.015822372319440905 -1.599581161040727
0.41781154257747233 -0.10585282195183074 -1.6974567257545365
0.4710054123009425 -0.22691851563678236 -1.854267806396653
0.4816573503428815 -0.32641093593918785 -2.1451079102884276
0.4783711787217638 -0.3841145781611945 -2.4717159592468154
0.47656474791609116 -0.41264346986008876 -2.750839426506154
0.47792538903281795 -0.42761811838462205 -2.9682230964104632
0.48059022417373126 -0.4373557451948 -3.1357667989557014
0.4832019467685135 -0.4450684115699562 -3.26704029251962
0.4852151063940121 -0.4518147233833009 -3.371939719744236
0.4865023691055045 -0.45793199861899025 -3.4569845199036155
0.4870822397932149 -0.46354458804203147 -3.526440346495809
0.4870026472116349 -0.4687162494737183 -3.583177417022034
0.48630822566030907 -0.4734946996692257 -3.6292006869298414
0.4849531561285893 -0.47778819716219634 -3.65585694019692
0.4823870517153981 -0.4821553848393846 -3.6805661561353196
0.4800217533056192 -0.4860002891028626 -3.7014421292138793
0.47713515640209864 -0.48961190535414484 -3.715509375366571
0.4737217621417368 -0.4930090039404759 -3.723133542217247
0.4697702637159122 -0.49620132297901703 -3.7245444333463906
0.46526844287699665 -0.49919200787016943 -3.7198909397044346
0.4602066054861958 -0.5019790354169908 -3.709272937909757
0.4545797123303813 -0.5045557893761126 -3.692753748461661
0.44838875708789067 -0.5069114950096114 -3.6703645565476317
0.44164146303806784 -0.5090318219561512 -3.6421076264501164
0.43425123935707416 -0.5108991664036342 -3.605146219859246
0.4260965495946242 -0.5126249767581568 -3.563972536548601
0.41775470051016134 -0.5139087713372829 -3.517711822729512
0.408929901216695 -0.5148753399093544 -3.465448536334312
0.39963231727021103 -0.5154971896326712 -3.4071735764886504
0.3898604080458639 -0.5157428804293198 -3.342929025430802
0.37959824416360277 -0.5155763900320748 -3.272829917698991
0.36881519915032335 -0.5149568356726539 -3.1970818837902963
0.35746835021208906 -0.5138385760187312 -3.115991840770587
0.34550740989075385 -0.5121715176389025 -3.029970573477848
0.3328816241361331 -0.5099013452899914 -2.939528146047792
0.31954795988434 -0.5069695279074029 -2.8452650047456367
0.305480114790755 -0.503313469710675 -2.747862923614726
0.2906782570024431 -0.4988680673191702 -2.648080213084261
0.27517953057642075 -0.4935707647034592 -2.546754331215165
0.2590687884833853 -0.48737211075964393 -2.4448117877825677
0.2424877366471129 -0.4802521419701421 -2.343280559199104
0.22563944032264058 -0.47223998369171444 -2.2432962107129772
0.20878507092893678 -0.46343141143679684 -2.1460922608259
0.19223142123237497 -0.4539984670696217 -2.0529693275872267
0.17618021792798702 -0.4439797776483311 -1.9555123007719968
0.16124830368641016 -0.4341013069865222 -1.8741288371662892
0.14758937291339522 -0.42449157823367106 -1.8006297038686765
0.13547366350882714 -0.41550203696322674 -1.7360342040015397

VECTORS Vvpm_BBp float
0.08239148505891661 0.3166761082381022 -1.657650577490938
0.08958922949598921 0.32006203416724366 -1.703938678321917
0.09760315740491284 0.3235706531667088 -1.7559759667761723
0.10630339710730968 0.32707660647561626 -1.8131386727675731
0.11555011713189947 0.3304660121895173 -1.8747369296715626
0.12519989128671535 0.33364207002431995 -1.9400316246745017
0.13511251507811015 0.3365282503729155 -2.0082530714565188
0.14515731653357747 0.33906890906882126 -2.078619372726556
0.1552181615764917 0.34122774722550253 -2.1503528319150504
0.16519669309685564 0.34298493143499986 -2.2226936810985496
0.17501371249214412 0.34433376024927814 -2.294911298724737
0.18460888267306527 0.3452775378727345 -2.3663136305743615
0.19393906284408835 0.34582696612881114 -2.436255566248267
0.20297562384959894 0.3459980775618905 -2.504146669637677
0.2117011068515549 0.3458105958409501 -2.5694581422576843
0.22010561041196064 0.3452866016447372 -2.631728429313389
0.22818330945767748 0.34444943085144714 -2.6905666135523445
0.2359294930530575 0.3433227797752801 -2.745652770076887
0.24333843369517247 0.3419300151824488 -2.7967347900933914
0.2504022667093006 0.34029368199800186 -2.843621740757085
0.25711088391604603 0.3384351762833431 -2.8861744408002803
0.26360872481808245 0.33631082762619446 -2.9256127175309286
0.2698435690442698 0.3339780729805779 -2.9616353744386954
0.27538865719432704 0.33154933010655535 -2.9904742081449975
0.2805336654254132 0.3289669659487834 -3.014707942335799
0.2852733575674868 0.3262425888502991 -3.034297080657077
0.2896060793544407 0.32338451789510136 -3.0491985947456586
0.2935335780968384 0.32039719849493176 -3.059361544930847
0.2970603723768964 0.31728063043017407 -3.0647230812693396
0.3001926750060438 0.31402973722760547 -3.0652024627639958
0.3029367388416577 0.31063346362606264 -3.0606887090235824
0.30529649037064227 0.30707340919016796 -3.051018556840424
0.30762695134684703 0.3032168981344744 -3.038483269888147
0.30923530337576854 0.2992223885400818 -3.0184162278989306
0.31081680767009034 0.2949369074293075 -3.0023938170321043
0.31151667376819103 0.29032551034731907 -2.9682662181969772
0.3117301113498052 0.28530719404473004 -2.9266985902425415
0.31139546396757944 0.2797912904954801 -2.8768545602602993
0.3104227795138199 0.27365555456314433 -2.817709064190311
0.30868770297511294 0.26672197804985703 -2.748020046380937
0.306033782784487 0.258701666313005 -2.6663458906884134
0.30228283398633826 0.2490637107172502 -2.5712029778339516
0.2972201842454363 0.23675740943091303 -2.4614793691649464
0.29038256310915345 0.21977254527805024 -2.3367022693578607
0.2801874863159818 0.19488687153770567 -2.1944674159025994
0.2622891990184617 0.15886855133089048 -2.0211283641136486
0.23048947256425686 0.11281998890134735 -1.7898795493558974
0.18499993370000564 0.066317393861772 -1.5001135640231458
0.13715413180612473 0.03131853760445563 -1.2082892996914436
0.09838154671848981 0.011178118724857416 -0.983732492973277
0.1411303180549462 0.004500608816853369 -1.1421302259117458
0.1970534492049716 -0.017530646740749323 -1.3089393735521526
0.25217722396818903 -0.06411410842586335 -1.456255118016291
0.28819162500829093 -0.12783447817364335 -1.6208963224985902
0.3022422280334678 -0.18635178252526158 -1.8341611584660018
0.30532370418487653 -0.22593095023886495 -2.0667915744769343
0.3065177734741816 -0.24871849411627925 -2.2788676058624873
0.3084890788388201 -0.26195495197077273 -2.455529896679347
0.31096483136983427 -0.27079235090169984 -2.59845183754699
0.313303192102446 -0.27771312275997584 -2.7138984669737938
0.31514914288833107 -0.2837129053592693 -2.807860428519323
0.31639272969236415 -0.28916391689557747 -2.8849323948016963
0.31704020055923576 -0.29421280046793685 -2.9484191540703413
0.31713422366492844 -0.29893041158298705 -3.000678281875179
0.3167203504987975 -0.30336279122271903 -3.0434155209829075
0.31540098528269683 -0.3075665928725873 -3.067212959501157
0.3140314195237453 -0.3115349922178525 -3.0933426001045006
0.31192856901198074 -0.31541172796139066 -3.111271218258019
0.3097680988181462 -0.3190283805183945 -3.1254763757752935
0.30720775340046735 -0.3225079770527504 -3.1340138421840873
0.3042455896576197 -0.3258625542343747 -3.137146755003255
0.30087692350266426 -0.3290983520258712 -3.135059258593921
0.2970967803676008 -0.3322166816343512 -3.127885947427218
0.29290164508158834 -0.33521449106564766 -3.115729318332554
0.2882906290656733 -0.33808476935948883 -3.0986693456295566
0.28326617593222997 -0.34081696725102184 -3.0767700659226183
0.2778342959398796 -0.34339747997147213 -3.050085861060858
0.2717084069390268 -0.3458889669084283 -3.0161636440650734
0.26532661881998637 -0.34816681177201864 -2.978685111722181
0.25871196495291465 -0.3501711879818989 -2.937794786095175
0.2517379970300687 -0.3519485867431114 -2.8924135574590797
0.2444153617431409 -0.3534759936828784 -2.8426810325968774
0.23675224954474464 -0.3547292377518282 -2.788787668870398
0.22875444405286405 -0.3556833212087004 -2.730984634209511
0.2204264134270899 -0.35631293797989716 -2.6695908535833945
0.21177344756239164 -0.35659321439922154 -2.604996584388611
0.20280466393389576 -0.3565006766607822 -2.5376634687876827
0.1935365644687716 -0.35601444033729823 -2.4681215617574974
0.18399674710042765 -0.35511763739866914 -2.396964159203849
0.17422735709715437 -0.3537991429719464 -2.324841269003289
0.16428788187016716 -0.3520557133540617 -2.252452292768511
0.1542569167715985 -0.34989464069188037 -2.1805380061621458
0.1442325451509947 -0.34733689561602393 -2.1098713955073127
0.13433101591552973 -0.34442044372899266 -2.041246547639187
0.12468353440751438 -0.3412030748493984 -1.9754648296891486
0.11543125412129306 -0.3377638617458166 -1.913318147814901
0.10671892863279936 -0.3342024383692595 -1.8555700049769503
0.09868802519185772 -0.3306356856736109 -1.8029360183765681
0.09147026204731687 -0.32719199242179375 -1.7560660820413558
0.08518242882872375 -0.3240037884457155 -1.715530219135984
0.08239148505891661 0.3166761082381022 -1.657650577490938
0.08958922949598921 0.32006203416724366 -1.703938678321917
0.09760315740491284 0.3235706531667088 -1.7559759667761723
0.10630339710730968 0.32707660647561626 -1.8131386727675731
0.11555011713189947 0.3304660121895173 -1.8747369296715626
0.12519989128671535 0.33364207002431995 -1.9400316246745017
0.13511251507811015 0.3365282503729155 -2.0082530714565188
0.14515731653357747 0.33906890906882126 -2.078619372726556
0.1552181615764917 0.34122774722550253 -2.1503528319150504
0.16519669309685564 0.34298493143499986 -2.2226936810985496
0.17501371249214412 0.34433376024927814 -2.294911298724737
0.18460888267306527 0.3452775378727345 -2.3663136305743615
0.19393906284408835 0.34582696612881114 -2.436255566248267
0.20297562384959894 0.3459980775618905 -2.504146669637677
0.2117011068515549 0.3458105958409501 -2.5694581422576843
0.22010561041196064 0.3452866016447372 -2.631728429313389
0.22818330945767748 0.34444943085144714 -2.6905666135523445
0.2359294930530575 0.3433227797752801 -2.745652770076887
0.24333843369517247 0.3419300151824488 -2.7967347900933914
0.2504022667093006 0.34029368199800186 -2.843621740757085
0.25711088391604603 0.3384351762833431 -2.8861744408002803
0.26360872481808245 0.33631082762619446 -2.9256127175309286
0.2698435690442698 0.3339780729805779 -2.9616353744386954
0.27538865719432704 0.33154933010655535 -2.9904742081449975
0.2805336654254132 0.3289669659487834 -3.014707942335799
0.2852733575674868 0.3262425888502991 -3.034297080657077
0.2896060793544407 0.32338451789510136 -3.0491985947456586
0.2935335780968384 0.32039719849493176 -3.059361544930847
0.2970603723768964 0.31728063043017407 -3.0647230812693396
0.3001926750060438 0.31402973722760547 -3.0652024627639958
0.3029367388416577 0.31063346362606264 -3.0606887090235824
0.30529649037064227 0.30707340919016796 -3.051018556840424
0.30762695134684703 0.3032168981344744 -3.038483269888147
0.30923530337576854 0.2992223885400818 -3.0184162278989306
0.31081680767009034 0.2949369074293075 -3.0023938170321043
0.31151667376819103 0.29032551034731907 -2.9682662181969772
0.3117301113498052 0.28530719404473004 -2.9266985902425415
0.31139546396757944 0.2797912904954801 -2.8768545602602993
0.3104227795138199 0.27365555456314433 -2.817709064190311
0.30868770297511294 0.26672197804985703 -2.748020046380937
0.306033782784487 0.258701666313005 -2.6663458906884134
0.30228283398633826 0.2490637107172502 -2.5712029778339516
0.2972201842454363 0.23675740943091303 -2.4614793691649464
0.29038256310915345 0.21977254527805024 -2.3367022693578607
0.2801874863159818 0.19488687153770567 -2.1944674159025994
0.2622891990184617 0.15886855133089048 -2.0211283641136486
0.23048947256425686 0.11281998890134735 -1.7898795493558974
0.18499993370000564 0.066317393861772 -1.5001135640231458
0.13715413180612473 0.03131853760445563 -1.2082892996914436
0.09838154671848981 0.011178118724857416 -0.983732492973277
0.1411303180549462 0.004500608816853369 -1.1421302259117458
0.1970534492049716 -0.017530646740749323 -1.3089393735521526
0.25217722396818903 -0.06411410842586335 -1.456255118016291
0.28819162500829093 -0.12783447817364335 -1.6208963224985902
0.3022422280334678 -0.18635178252526158 -1.8341611584660018
0.30532370418487653 -0.22593095023886495 -2.0667915744769343
0.3065177734741816 -0.24871849411627925 -2.2788676058624873
0.3084890788388201 -0.26195495197077273 -2.455529896679347
0.31096483136983427 -0.27079235090169984 -2.59845183754699
0.313303192102446 -0.27771312275997584 -2.7138984669737938
0.31514914288833107 -0.2837129053592693 -2.807860428519323
0.31639272969236415 -0.28916391689557747 -2.8849323948016963
0.31704020055923576 -0.29421280046793685 -2.9484191540703413
0.31713422366492844 -0.29893041158298705 -3.000678281875179
0.3167203504987975 -0.30336279122271903 -3.0434155209829075
0.31540098528269683 -0.3075665928725873 -3.067212959501157
0.3140314195237453 -0.3115349922178525 -3.0933426001045006
0.31192856901198074 -0.31541172796139066 -3.111271218258019
0.3097680988181462 -0.3190283805183945 -3.1254763757752935
0.30720775340046735 -0.3225079770527504 -3.1340138421840873
0.3042455896576197 -0.3258625542343747 -3.137146755003255
0.30087692350266426 -0.3290983520258712 -3.135059258593921
0.2970967803676008 -0.3322166816343512 -3.127885947427218
0.29290164508158834 -0.33521449106564766 -3.115729318332554
0.2882906290656733 -0.33808476935948883 -3.0986693456295566
0.28326617593222997 -0.34081696725102184 -3.0767700659226183
0.2778342959398796 -0.34339747997147213 -3.050085861060858
0.2717084069390268 -0.3458889669084283 -3.0161636440650734
0.26532661881998637 -0.34816681177201864 -2.978685111722181
0.25871196495291465 -0.3501711879818989 -2.937794786095175
0.2517379970300687 -0.3519485867431114 -2.8924135574590797
0.2444153617431409 -0.3534759936828784 -2.8426810325968774
0.23675224954474464 -0.3547292377518282 -2.788787668870398
0.22875444405286405 -0.3556833212087004 -2.730984634209511
0.2204264134270899 -0.35631293797989716 -2.6695908535833945
0.21177344756239164 -0.35659321439922154 -2.604996584388611
0.20280466393389576 -0.3565006766607822 -2.5376634687876827
0.1935365644687716 -0.35601444033729823 -2.4681215617574974
0.18399674710042765 -0.35511763739866914 -2.396964159203849
0.17422735709715437 -0.3537991429719464 -2.324841269003289
0.16428788187016716 -0.3520557133540617 -2.252452292768511
0.1542569167715985 -0.34989464069188037 -2.1805380061621458
0.1442325451509947 -0.34733689561602393 -2.1098713955073127
0.13433101591552973 -0.34442044372899266 -2.041246547639187
0.12468353440751438 -0.3412030748493984 -1.9754648296891486
0.11543125412129306 -0.3377638617458166 -1.913318147814901
0.10671892863279936 -0.3342024383692595 -1.8555700049769503
0.09868802519185772 -0.3306356856736109 -1.8029360183765681
0.09147026204731687 -0.32719199242179375 -1.7560660820413558
0.08518242882872375 -0.3240037884457155 -1.715530219135984

SCALARS Gamma float
LOOKUP_TABLE default
0.26256954910198815
0.4016166840019589
0.5135764814325323
0.6124654314577493
0.7029073616259262
0.7870779348136557
0.865947578683952
0.9400466430442603
1.0096663966262933
1.074967800355584
1.1360409795171036
1.1929409025489601
1.2457111421146183
1.294401353775673
1.3390809329760287
1.3798494910036108
1.4168438258371308
1.4502409138346604
1.48025697115441
1.5071433644366516
1.5311805526762807
1.5526710038740568
1.5719308271850188
1.5892710619645287
1.6050328670022995
1.61966254332996
1.6334490227580938
1.6467093813074412
1.6597557656375674
1.6728891713079057
1.6863961311412385
1.7005465063216654
1.7155916549288195
1.7317573555798196
1.7491773444807437
1.768087402158704
1.7892478673306527
1.8125952140276511
1.8381994763239757
1.86609678917379
1.8962479276072157
1.928495758878592
1.9625018129742395
1.997645922510288
2.0328957700264265
2.066795756883028
2.098035871450142
2.1264972061688496
2.1516745782961397
2.1689161680691758
2.187452546074221
2.2103478820256632
2.221609061719116
2.2132313669852017
2.1831597660552724
2.138815987884834
2.0886379418461116
2.0377709176906613
1.988756798139033
1.9427476229346705
1.9002052339257927
1.8612448978395746
1.8258019066370414
1.7937181884791016
1.7648017777458676
1.7389919850907556
1.7154716742643132
1.693918416991968
1.6741212414128832
1.6557921352877631
1.6386277080877056
1.6223145624123476
1.6065298013408384
1.5909420451902916
1.575213642656274
1.5590057808555473
1.5420093111188695
1.5237662952648596
1.5039251115041474
1.482159899503389
1.4581420574367214
1.4315570924068934
1.4021124081766465
1.3695440278295927
1.3336224231783889
1.2941565067486793
1.250994621156249
1.204021752284715
1.1531529027836391
1.098323073913819
1.0394741652202188
0.9765381733463329
0.9094143111936095
0.8379345887633975
0.7618063326183827
0.6805068446401914
0.5930876992049656
0.49744075062235993
0.38908068361975917
0.25442195724493244
0.26256954910198815
0.4016166840019589
0.5135764814325323
0.6124654314577493
0.7029073616259262
0.7870779348136557
0.865947578683952
0.9400466430442603
1.0096663966262933
1.074967800355584
1.1360409795171036
1.1929409025489601
1.2457111421146183
1.294401353775673
1.3390809329760287
1.3798494910036108
1.4168438258371308
1.4502409138346604
1.48025697115441
1.5071433644366516
1.5311805526762807
1.5526710038740568
1.5719308271850188
1.5892710619645287
1.6050328670022995
1.61966254332996
1.6334490227580938
1.6467093813074412
1.6597557656375674
1.6728891713079057
1.6863961311412385
1.7005465063216654
1.7155916549288195
1.7317573555798196
1.7491773444807437
1.768087402158704
1.7892478673306527
1.8125952140276511
1.8381994763239757
1.86609678917379
1.8962479276072157
1.928495758878592
1.9625018129742395
1.997645922510288
2.0328957700264265
2.066795756883028
2.098035871450142
2.1264972061688496
2.1516745782961397
2.1689161680691758
2.187452546074221
2.2103478820256632
2.221609061719116
2.2132313669852017
2.1831597660552724
2.138815987884834
2.0886379418461116
2.0377709176906613
1.988756798139033
1.9427476229346705
1.9002052339257927
1.8612448978395746
1.8258019066370414
1.7937181884791016
1.7648017777458676
1.7389919850907556
1.7154716742643132
1.693918416991968
1.6741212414128832
1.6557921352877631
1.6386277080877056
1.6223145624123476
1.6065298013408384
1.5909420451902916
1.575213642656274
1.5590057808555473
1.5420093111188695
1.5237662952648596
1.5039251115041474
1.482159899503389
1.4581420574367214
1.4315570924068934
1.4021124081766465
1.3695440278295927
1.3336224231783889
1.2941565067486793
1.250994621156249
1.204021752284715
1.1531529027836391
1.098323073913819
1.0394741652202188
0.9765381733463329
0.9094143111936095
0.8379345887633975
0.7618063326183827
0.6805068446401914
0.5930876992049656
0.49744075062235993
0.38908068361975917
0.25442195724493244

VECTORS Vvpm_ApA float
0.07612477326946455 0.31354237889813497 -1.61765627670538
0.08239148505891661 0.3166761082381022 -1.657650577490938
0.08958922949598921 0.32006203416724366 -1.703938678321917
0.09760315740491284 0.3235706531667088 -1.7559759667761723
0.10630339710730968 0.32707660647561626 -1.8131386727675731
0.11555011713189947 0.3304660121895173 -1.8747369296715626
0.12519989128671535 0.33364207002431995 -1.9400316246745017
0.13511251507811015 0.3365282503729155 -2.0082530714565188
0.14515731653357747 0.33906890906882126 -2.078619372726556
0.1552181615764917 0.34122774722550253 -2.1503528319150504
0.16519669309685564 0.34298493143499986 -2.2226936810985496
0.17501371249214412 0.34433376024927814 -2.294911298724737
0.18460888267306527 0.3452775378727345 -2.3663136305743615
0.19393906284408835 0.34582696612881114 -2.436255566248267
0.20297562384959894 0.3459980775618905 -2.504146669637677
0.2117011068515549 0.3458105958409501 -2.5694581422576843
0.22010561041196064 0.3452866016447372 -2.631728429313389
0.22818330945767748 0.34444943085144714 -2.6905666135523445
0.2359294930530575 0.3433227797752801 -2.745652770076887
0.24333843369517247 0.3419300151824488 -2.7967347900933914
0.2504022667093006 0.34029368199800186 -2.843621740757085
0.25711088391604603 0.3384351762833431 -2.8861744408002803
0.26360872481808245 0.33631082762619446 -2.9256127175309286
0.2698435690442698 0.3339780729805779 -2.9616353744386954
0.27538865719432704 0.33154933010655535 -2.9904742081449975
0.2805336654254132 0.3289669659487834 -3.014707942335799
0.2852733575674868 0.3262425888502991 -3.034297080657077
0.2896060793544407 0.32338451789510136 -3.0491985947456586
0.2935335780968384 0.32039719849493176 -3.059361544930847
0.2970603723768964 0.31728063043017407 -3.0647230812693396
0.3001926750060438 0.31402973722760547 -3.0652024627639958
0.3029367388416577 0.31063346362606264 -3.0606887090235824
0.30529649037064227 0.30707340919016796 -3.051018556840424
0.30762695134684703 0.3032168981344744 -3.038483269888147
0.30923530337576854 0.2992223885400818 -3.0184162278989306
0.31081680767009034 0.2949369074293075 -3.0023938170321043
0.31151667376819103 0.29032551034731907 -2.9682662181969772
0.3117301113498052 0.28530719404473004 -2.9266985902425415
0.31139546396757944 0.2797912904954801 -2.8768545602602993
0.3104227795138199 0.27365555456314433 -2.817709064190311
0.30868770297511294 0.26672197804985703 -2.748020046380937
0.306033782784487 0.258701666313005 -2.6663458906884134
0.30228283398633826 0.2490637107172502 -2.5712029778339516
0.2972201842454363 0.23675740943091303 -2.4614793691649464
0.29038256310915345 0.21977254527805024 -2.3367022693578607
0.2801874863159818 0.19488687153770567 -2.1944674159025994
0.2622891990184617 0.15886855133089048 -2.0211283641136486
0.23048947256425686 0.11281998890134735 -1.7898795493558974
0.18499993370000564 0.066317393861772 -1.5001135640231458
0.13715413180612473 0.03131853760445563 -1.2082892996914436
0.09838154671848981 0.011178118724857416 -0.983732492973277
0.1411303180549462 0.004500608816853369 -1.1421302259117458
0.1970534492049716 -0.017530646740749323 -1.3089393735521526
0.25217722396818903 -0.06411410842586335 -1.456255118016291
0.28819162500829093 -0.12783447817364335 -1.6208963224985902
0.3022422280334678 -0.18635178252526158 -1.8341611584660018
0.30532370418487653 -0.22593095023886495 -2.0667915744769343
0.3065177734741816 -0.24871849411627925 -2.2788676058624873
0.3084890788388201 -0.26195495197077273 -2.455529896679347
0.31096483136983427 -0.27079235090169984 -2.59845183754699
0.313303192102446 -0.27771312275997584 -2.7138984669737938
0.31514914288833107 -0.2837129053592693 -2.807860428519323
0.31639272969236415 -0.28916391689557747 -2.8849323948016963
0.31704020055923576 -0.29421280046793685 -2.9484191540703413
0.31713422366492844 -0.29893041158298705 -3.000678281875179
0.3167203504987975 -0.30336279122271903 -3.0434155209829075
0.31540098528269683 -0.3075665928725873 -3.067212959501157
0.3140314195237453 -0.3115349922178525 -3.0933426001045006
0.31192856901198074 -0.31541172796139066 -3.111271218258019
0.3097680988181462 -0.3190283805183945 -3.1254763757752935
0.30720775340046735 -0.3225079770527504 -3.1340138421840873
0.3042455896576197 -0.3258625542343747 -3.137146755003255
0.30087692350266426 -0.3290983520258712 -3.135059258593921
0.2970967803676008 -0.3322166816343512 -3.127885947427218
0.29290164508158834 -0.33521449106564766 -3.115729318332554
0.2882906290656733 -0.33808476935948883 -3.0986693456295566
0.28326617593222997 -0.34081696725102184 -3.0767700659226183
0.2778342959398796 -0.34339747997147213 -3.050085861060858
0.2717084069390268 -0.3458889669084283 -3.0161636440650734
0.26532661881998637 -0.34816681177201864 -2.978685111722181
0.25871196495291465 -0.3501711879818989 -2.937794786095175
0.2517379970300687 -0.3519485867431114 -2.8924135574590797
0.2444153617431409 -0.3534759936828784 -2.8426810325968774
0.23675224954474464 -0.3547292377518282 -2.788787668870398
0.22875444405286405 -0.3556833212087004 -2.730984634209511
0.2204264134270899 -0.35631293797989716 -2.6695908535833945
0.21177344756239164 -0.35659321439922154 -2.604996584388611
0.20280466393389576 -0.3565006766607822 -2.5376634687876827
0.1935365644687716 -0.35601444033729823 -2.4681215617574974
0.18399674710042765 -0.35511763739866914 -2.396964159203849
0.17422735709715437 -0.3537991429719464 -2.324841269003289
0.16428788187016716 -0.3520557133540617 -2.252452292768511
0.1542569167715985 -0.34989464069188037 -2.1805380061621458
0.1442325451509947 -0.34733689561602393 -2.1098713955073127
0.13433101591552973 -0.34442044372899266 -2.041246547639187
0.12468353440751438 -0.3412030748493984 -1.9754648296891486
0.11543125412129306 -0.3377638617458166 -1.913318147814901
0.10671892863279936 -0.3342024383692595 -1.8555700049769503
0.09868802519185772 -0.3306356856736109 -1.8029360183765681
0.09147026204731687 -0.32719199242179375 -1.7560660820413558
0.07612477326946455 0.31354237889813497 -1.61765627670538
0.08239148505891661 0.3166761082381022 -1.657650577490938
0.08958922949598921 0.32006203416724366 -1.703938678321917
0.09760315740491284 0.3235706531667088 -1.7559759667761723
0.10630339710730968 0.32707660647561626 -1.8131386727675731
0.11555011713189947 0.3304660121895173 -1.8747369296715626
0.12519989128671535 0.33364207002431995 -1.9400316246745017
0.13511251507811015 0.3365282503729155 -2.0082530714565188
0.14515731653357747 0.33906890906882126 -2.078619372726556
0.1552181615764917 0.34122774722550253 -2.1503528319150504
0.16519669309685564 0.34298493143499986 -2.2226936810985496
0.17501371249214412 0.34433376024927814 -2.294911298724737
0.18460888267306527 0.3452775378727345 -2.3663136305743615
0.19393906284408835 0.34582696612881114 -2.436255566248267
0.20297562384959894 0.3459980775618905 -2.504146669637677
0.2117011068515549 0.3458105958409501 -2.5694581422576843
0.22010561041196064 0.3452866016447372 -2.631728429313389
0.22818330945767748 0.34444943085144714 -2.6905666135523445
0.2359294930530575 0.3433227797752801 -2.745652770076887
0.24333843369517247 0.3419300151824488 -2.7967347900933914
0.2504022667093006 0.34029368199800186 -2.843621740757085
0.25711088391604603 0.3384351762833431 -2.8861744408002803
0.26360872481808245 0.33631082762619446 -2.9256127175309286
0.2698435690442698 0.3339780729805779 -2.9616353744386954
0.27538865719432704 0.33154933010655535 -2.9904742081449975
0.2805336654254132 0.3289669659487834 -3.014707942335799
0.2852733575674868 0.3262425888502991 -3.034297080657077
0.2896060793544407 0.32338451789510136 -3.0491985947456586
0.2935335780968384 0.32039719849493176 -3.059361544930847
0.2970603723768964 0.31728063043017407 -3.0647230812693396
0.3001926750060438 0.31402973722760547 -3.0652024627639958
0.3029367388416577 0.31063346362606264 -3.0606887090235824
0.30529649037064227 0.30707340919016796 -3.051018556840424
0.30762695134684703 0.3032168981344744 -3.038483269888147
0.30923530337576854 0.2992223885400818 -3.0184162278989306
0.31081680767009034 0.2949369074293075 -3.0023938170321043
0.31151667376819103 0.29032551034731907 -2.9682662181969772
0.3117301113498052 0.28530719404473004 -2.9266985902425415
0.31139546396757944 0.2797912904954801 -2.8768545602602993
0.3104227795138199 0.27365555456314433 -2.817709064190311
0.30868770297511294 0.26672197804985703 -2.748020046380937
0.306033782784487 0.258701666313005 -2.6663458906884134
0.30228283398633826 0.2490637107172502 -2.5712029778339516
0.2972201842454363 0.23675740943091303 -2.4614793691649464
0.29038256310915345 0.21977254527805024 -2.3367022693578607
0.2801874863159818 0.19488687153770567 -2.1944674159025994
0.2622891990184617 0.15886855133089048 -2.0211283641136486
0.23048947256425686 0.11281998890134735 -1.7898795493558974
0.18499993370000564 0.066317393861772 -1.5001135640231458
0.13715413180612473 0.03131853760445563 -1.2082892996914436
0.09838154671848981 0.011178118724857416 -0.983732492973277
0.1411303180549462 0.004500608816853369 -1.1421302259117458
0.1970534492049716 -0.017530646740749323 -1.3089393735521526
0.25217722396818903 -0.06411410842586335 -1.456255118016291
0.28819162500829093 -0.12783447817364335 -1.6208963224985902
0.3022422280334678 -0.18635178252526158 -1.8341611584660018
0.30532370418487653 -0.22593095023886495 -2.0667915744769343
0.3065177734741816 -0.24871849411627925 -2.2788676058624873
0.3084890788388201 -0.26195495197077273 -2.455529896679347
0.31096483136983427 -0.27079235090169984 -2.59845183754699
0.313303192102446 -0.27771312275997584 -2.7138984669737938
0.31514914288833107 -0.2837129053592693 -2.807860428519323
0.31639272969236415 -0.28916391689557747 -2.8849323948016963
0.31704020055923576 -0.29421280046793685 -2.9484191540703413
0.31713422366492844 -0.29893041158298705 -3.000678281875179
0.3167203504987975 -0.30336279122271903 -3.0434155209829075
0.31540098528269683 -0.3075665928725873 -3.067212959501157
0.3140314195237453 -0.3115349922178525 -3.0933426001045006
0.31192856901198074 -0.31541172796139066 -3.111271218258019
0.3097680988181462 -0.3190283805183945 -3.1254763757752935
0.30720775340046735 -0.3225079770527504 -3.1340138421840873
0.3042455896576197 -0.3258625542343747 -3.137146755003255
0.30087692350266426 -0.3290983520258712 -3.135059258593921
0.2970967803676008 -0.3322166816343512 -3.127885947427218
0.29290164508158834 -0.33521449106564766 -3.115729318332554
0.2882906290656733 -0.33808476935948883 -3.0986693456295566
0.28326617593222997 -0.34081696725102184 -3.0767700659226183
0.2778342959398796 -0.34339747997147213 -3.050085861060858
0.2717084069390268 -0.3458889669084283 -3.0161636440650734
0.26532661881998637 -0.34816681177201864 -2.978685111722181
0.25871196495291465 -0.3501711879818989 -2.937794786095175
0.2517379970300687 -0.3519485867431114 -2.8924135574590797
0.2444153617431409 -0.3534759936828784 -2.8426810325968774
0.23675224954474464 -0.3547292377518282 -2.788787668870398
0.22875444405286405 -0.3556833212087004 -2.730984634209511
0.2204264134270899 -0.35631293797989716 -2.6695908535833945
0.21177344756239164 -0.35659321439922154 -2.604996584388611
0.20280466393389576 -0.3565006766607822 -2.5376634687876827
0.1935365644687716 -0.35601444033729823 -2.4681215617574974
0.18399674710042765 -0.35511763739866914 -2.396964159203849
0.17422735709715437 -0.3537991429719464 -2.324841269003289
0.16428788187016716 -0.3520557133540617 -2.252452292768511
0.1542569167715985 -0.34989464069188037 -2.1805380061621458
0.1442325451509947 -0.34733689561602393 -2.1098713955073127
0.13433101591552973 -0.34442044372899266 -2.041246547639187
0.12468353440751438 -0.3412030748493984 -1.9754648296891486
0.11543125412129306 -0.3377638617458166 -1.913318147814901
0.10671892863279936 -0.3342024383692595 -1.8555700049769503
0.09868802519185772 -0.3306356856736109 -1.8029360183765681
0.09147026204731687 -0.32719199242179375 -1.7560660820413558

VECTORS Vkin float
-0.0 -0.0 -0.0
-0.0 -0.0 -0.0
-0.0 -0.0 -0.0
-0.0 -0.0 -0.0
-0.0 -0.0 -0.0
-0.0 -0.0 -0.0
-0.0 -0.0 -0.0
-0.0 -0.0 -0.0
-0.0 -0.0 -0.0
-0.0 -0.0 -0.0
-0.0 -0.0 -0.0
-0.0 -0.0 -0.0
-0.0 -0.0 -0.0
-0.0 -0.0 -0.0
-0.0 -0.0 -0.0
-0.0 -0.0 -0.0
-0.0 -0.0 -0.0
-0.0 -0.0 -0.0
-0.0 -0.0 -0.0
-0.0 -0.0 -0.0
-0.0 -0.0 -0.0
-0.0 -0.0 -0.0
-0.0 -0.0 -0.0
-0.0 -0.0 -0.0
-0.0 -0.0 -0.0
-0.0 -0.0 -0.0
-0.0 -0.0 -0.0
-0.0 -0.0 -0.0
-0.0 -0.0 -0.0
-0.0 -0.0 -0.0
-0.0 -0.0 -0.0
-0.0 -0.0 -0.0
-0.0 -0.0 -0.0
-0.0 -0.0 -0.0
-0.0 -0.0 -0.0
-0.0 -0.0 -0.0
-0.0 -0.0 -0.0
-0.0 -0.0 -0.0
-0.0 -0.0 -0.0
-0.0 -0.0 -0.0
-0.0 -0.0 -0.0
-0.0 -0.0 -0.0
-0.0 -0.0 -0.0
-0.0 -0.0 -0.0
-0.0 -0.0 -0.0
-0.0 -0.0 -0.0
-0.0 -0.0 -0.0
-0.0 -0.0 -0.0
-0.0 -0.0 -0.0
-0.0 -0.0 -0.0
-0.0 -0.0 -0.0
-0.0 -0.0 -0.0
-0.0 -0.0 -0.0
-0.0 -0.0 -0.0
-0.0 -0.0 -0.0
-0.0 -0.0 -0.0
-0.0 -0.0 -0.0
-0.0 -0.0 -0.0
-0.0 -0.0 -0.0
-0.0 -0.0 -0.0
-0.0 -0.0 -0.0
-0.0 -0.0 -0.0
-0.0 -0.0 -0.0
-0.0 -0.0 -0.0
-0.0 -0.0 -0.0
-0.0 -0.0 -0.0
-0.0 -0.0 -0.0
-0.0 -0.0 -0.0
-0.0 -0.0 -0.0
-0.0 -0.0 -0.0
-0.0 -0.0 -0.0
-0.0 -0.0 -0.0
-0.0 -0.0 -0.0
-0.0 -0.0 -0.0
-0.0 -0.0 -0.0
-0.0 -0.0 -0.0
-0.0 -0.0 -0.0
-0.0 -0.0 -0.0
-0.0 -0.0 -0.0
-0.0 -0.0 -0.0
-0.0 -0.0 -0.0
-0.0 -0.0 -0.0
-0.0 -0.0 -0.0
-0.0 -0.0 -0.0
-0.0 -0.0 -0.0
-0.0 -0.0 -0.0
-0.0 -0.0 -0.0
-0.0 -0.0 -0.0
-0.0 -0.0 -0.0
-0.0 -0.0 -0.0
-0.0 -0.0 -0.0
-0.0 -0.0 -0.0
-0.0 -0.0 -0.0
-0.0 -0.0 -0.0
-0.0 -0.0 -0.0
-0.0 -0.0 -0.0
-0.0 -0.0 -0.0
-0.0 -0.0 -0.0
-0.0 -0.0 -0.0
-0.0 -0.0 -0.0
-0.0 -0.0 -0.0
-0.0 -0.0 -0.0
-0.0 -0.0 -0.0
-0.0 -0.0 -0.0
-0.0 -0.0 -0.0
-0.0 -0.0 -0.0
-0.0 -0.0 -0.0
-0.0 -0.0 -0.0
-0.0 -0.0 -0.0
-0.0 -0.0 -0.0
-0.0 -0.0 -0.0
-0.0 -0.0 -0.0
-0.0 -0.0 -0.0
-0.0 -0.0 -0.0
-0.0 -0.0 -0.0
-0.0 -0.0 -0.0
-0.0 -0.0 -0.0
-0.0 -0.0 -0.0
-0.0 -0.0 -0.0
-0.0 -0.0 -0.0
-0.0 -0.0 -0.0
-0.0 -0.0 -0.0
-0.0 -0.0 -0.0
-0.0 -0.0 -0.0
-0.0 -0.0 -0.0
-0.0 -0.0 -0.0
-0.0 -0.0 -0.0
-0.0 -0.0 -0.0
-0.0 -0.0 -0.0
-0.0 -0.0 -0.0
-0.0 -0.0 -0.0
-0.0 -0.0 -0.0
-0.0 -0.0 -0.0
-0.0 -0.0 -0.0
-0.0 -0.0 -0.0
-0.0 -0.0 -0.0
-0.0 -0.0 -0.0
-0.0 -0.0 -0.0
-0.0 -0.0 -0.0
-0.0 -0.0 -0.0
-0.0 -0.0 -0.0
-0.0 -0.0 -0.0
-0.0 -0.0 -0.0
-0.0 -0.0 -0.0
-0.0 -0.0 -0.0
-0.0 -0.0 -0.0
-0.0 -0.0 -0.0
-0.0 -0.0 -0.0
-0.0 -0.0 -0.0
-0.0 -0.0 -0.0
-0.0 -0.0 -0.0
-0.0 -0.0 -0.0
-0.0 -0.0 -0.0
-0.0 -0.0 -0.0
-0.0 -0.0 -0.0
-0.0 -0.0 -0.0
-0.0 -0.0 -0.0
-0.0 -0.0 -0.0
-0.0 -0.0 -0.0
-0.0 -0.0 -0.0
-0.0 -0.0 -0.0
-0.0 -0.0 -0.0
-0.0 -0.0 -0.0
-0.0 -0.0 -0.0
-0.0 -0.0 -0.0
-0.0 -0.0 -0.0
-0.0 -0.0 -0.0
-0.0 -0.0 -0.0
-0.0 -0.0 -0.0
-0.0 -0.0 -0.0
-0.0 -0.0 -0.0
-0.0 -0.0 -0.0
-0.0 -0.0 -0.0
-0.0 -0.0 -0.0
-0.0 -0.0 -0.0
-0.0 -0.0 -0.0
-0.0 -0.0 -0.0
-0.0 -0.0 -0.0
-0.0 -0.0 -0.0
-0.0 -0.0 -0.0
-0.0 -0.0 -0.0
-0.0 -0.0 -0.0
-0.0 -0.0 -0.0
-0.0 -0.0 -0.0
-0.0 -0.0 -0.0
-0.0 -0.0 -0.0
-0.0 -0.0 -0.0
-0.0 -0.0 -0.0
-0.0 -0.0 -0.0
-0.0 -0.0 -0.0
-0.0 -0.0 -0.0
-0.0 -0.0 -0.0
-0.0 -0.0 -0.0
-0.0 -0.0 -0.0
-0.0 -0.0 -0.0
-0.0 -0.0 -0.0
-0.0 -0.0 -0.0
-0.0 -0.0 -0.0
-0.0 -0.0 -0.0
-0.0 -0.0 -0.0

VECTORS Vinf float
9.18367267057679 0.3990353632800234 2.605890625358405
9.19570182273434 0.4078812545025585 2.5423976307390586
9.209276339984898 0.4173421137864797 2.470060400118469
9.224131888251902 0.4270738717004957 2.3898499938530717
9.240134530986088 0.43697145957011024 2.292858611494835
9.256644875903755 0.44628420314056566 2.200804318599267
9.27347792714844 0.4549953407641954 2.1045499577159683
9.290329240335 0.4629379817370244 2.0053634819585335
9.306938667841822 0.47002022062752535 1.9044530934079729
9.323102902239665 0.4762154034100789 1.802936280284695
9.338678879765922 0.4815445477763969 1.7018294599708104
9.353579485349165 0.48605681267497985 1.6020530193583622
9.367764654949166 0.4898132610350033 1.504442539185808
9.381230906825994 0.49287650631814894 1.4097575846753552
9.394001107827844 0.4953059040766662 1.3186833757436474
9.40611500222345 0.4971562650701119 1.231825245067271
9.41762045069448 0.498477975224392 1.1496989966266438
9.428565447175496 0.4993172348154528 1.0727215424533165
9.438991353656958 0.4997160207778288 1.0012059276089107
9.448928008909993 0.49971189985004777 0.9353635669793031
9.458391269914154 0.49933796503898165 0.8753145973062733
9.467383178262414 0.4986230778283159 0.8211051507783336
9.475894448188512 0.4975924121706144 0.772728685727337
9.48424641235528 0.4961295012500362 0.7291418002825099
9.491812171529384 0.49451554487385235 0.6895899465990096
9.498744848298303 0.4926412604499036 0.658696524428128
9.505127587624017 0.49052414558123636 0.6334822517521217
9.510953271479995 0.48817578954335067 0.613932839978176
9.516221401782808 0.48560380275815057 0.600055132243821
9.520937502159978 0.48281103741410347 0.5918778911235592
9.5251118633466 0.4797948855572719 0.5894528271140871
9.528757551207246 0.4765462941805495 0.592862189185392
9.531887117195124 0.47304771742819385 0.6022435142477449
9.534507842067736 0.46926972837257175 0.6178338062359883
9.537354941479803 0.46490680492669256 0.6362955320041559
9.538998929085835 0.460546467525992 0.655134408852128
9.540002203879881 0.4555768321669893 0.6926545664131498
9.540412986341492 0.45005322422047994 0.738883894016507
9.540179929450709 0.44385871111885716 0.7949249270721297
9.539222968056345 0.4368306409657816 0.8621927620911448
9.537420951803893 0.42872262066055145 0.9425247464611828
9.534617993108565 0.4191250524746354 1.0382853903872569
9.530662831105143 0.4072651922931849 1.1522996871638118
9.525479731959614 0.39152578492573076 1.2870475350477197
9.51897296399966 0.3685109639853334 1.4420889773306267
9.509715451708713 0.33199572564726115 1.6111153582258644
9.490261156472918 0.2740200635802431 1.7921454068565739
9.443704389780326 0.19318893925912228 2.0227266266895128
9.362007894579232 0.10728268181306239 2.3596506863026336
9.26996658489957 0.043916773605806744 2.756231643765991
9.273750912191721 0.019770358523067907 2.813905484215167
9.380582918942155 -0.015822372319440905 2.6266014563662674
9.480889412943972 -0.10585282195183074 2.528725891652458
9.53408328266744 -0.22691851563678236 2.3719148110103414
9.54473522070938 -0.32641093593918785 2.081074707118567
9.541449049088262 -0.3841145781611945 1.754466658160179
9.53964261828259 -0.41264346986008876 1.4753431909008405
9.541003259399316 -0.42761811838462205 1.2579595209965313
9.54366809454023 -0.4373557451948 1.090415818451293
9.546279817135012 -0.4450684115699562 0.9591423248873747
9.54829297676051 -0.4518147233833009 0.8542428976627584
9.549580239472004 -0.45793199861899025 0.7691980975033794
9.550160110159714 -0.46354458804203147 0.6997422709111856
9.550080517578134 -0.4687162494737183 0.6430052003849611
9.549386096026808 -0.4734946996692257 0.5969819304771531
9.548031026495089 -0.47778819716219634 0.5703256772100751
9.545464922081896 -0.4821553848393846 0.545616461271675
9.543099623672118 -0.4860002891028626 0.5247404881931153
9.540213026768598 -0.48961190535414484 0.5106732420404234
9.536799632508236 -0.4930090039404759 0.5030490751897481
9.53284813408241 -0.49620132297901703 0.5016381840606039
9.528346313243496 -0.49919200787016943 0.5062916777025599
9.523284475852694 -0.5019790354169908 0.5169096794972372
9.51765758269688 -0.5045557893761126 0.5334288689453337
9.51146662745439 -0.5069114950096114 0.5558180608593632
9.504719333404566 -0.5090318219561512 0.5840749909568781
9.497329109723573 -0.5108991664036342 0.6210363975477486
9.489174419961122 -0.5126249767581568 0.6622100808583933
9.480832570876661 -0.5139087713372829 0.7084707946774831
9.472007771583193 -0.5148753399093544 0.760734081072683
9.46271018763671 -0.5154971896326712 0.8190090409183446
9.452938278412363 -0.5157428804293198 0.8832535919761924
9.442676114530101 -0.5155763900320748 0.9533526997080032
9.431893069516821 -0.5149568356726539 1.0291007336166982
9.420546220578588 -0.5138385760187312 1.1101907766364074
9.408585280257252 -0.5121715176389025 1.1962120439291466
9.395959494502632 -0.5099013452899914 1.2866544713592027
9.382625830250838 -0.5069695279074029 1.3809176126613578
9.368557985157254 -0.503313469710675 1.4783196937922685
9.353756127368943 -0.4988680673191702 1.5781024043227334
9.33825740094292 -0.4935707647034592 1.6794282861918295
9.322146658849885 -0.48737211075964393 1.7813708296244268
9.305565607013612 -0.4802521419701421 1.8829020582078904
9.288717310689139 -0.47223998369171444 1.9828864066940175
9.271862941295435 -0.46343141143679684 2.0800903565810946
9.255309291598874 -0.4539984670696217 2.173213289819768
9.239258088294486 -0.4439797776483311 2.2706703166349977
9.224326174052909 -0.4341013069865222 2.3520537802407055
9.210667243279893 -0.42449157823367106 2.425552913538318
9.198551533875326 -0.41550203696322674 2.490148413405455
9.18367267057679 0.3990353632800234 2.605890625358405
9.19570182273434 0.4078812545025585 2.5423976307390586
9.209276339984898 0.4173421137864797 2.470060400118469
9.224131888251902 0.4270738717004957 2.3898499938530717
9.240134530986088 0.43697145957011024 2.292858611494835
9.256644875903755 0.44628420314056566 2.200804318599267
9.27347792714844 0.4549953407641954 2.1045499577159683
9.290329240335 0.4629379817370244 2.0053634819585335
9.306938667841822 0.47002022062752535 1.9044530934079729
9.323102902239665 0.4762154034100789 1.802936280284695
9.338678879765922 0.4815445477763969 1.7018294599708104
9.353579485349165 0.48605681267497985 1.6020530193583622
9.367764654949166 0.4898132610350033 1.504442539185808
9.381230906825994 0.49287650631814894 1.4097575846753552
9.394001107827844 0.4953059040766662 1.3186833757436474
9.40611500222345 0.4971562650701119 1.231825245067271
9.41762045069448 0.498477975224392 1.1496989966266438
9.428565447175496 0.4993172348154528 1.0727215424533165
9.438991353656958 0.4997160207778288 1.0012059276089107
9.448928008909993 0.49971189985004777 0.9353635669793031
9.458391269914154 0.49933796503898165 0.8753145973062733
9.467383178262414 0.4986230778283159 0.8211051507783336
9.475894448188512 0.4975924121706144 0.772728685727337
9.48424641235528 0.4961295012500362 0.7291418002825099
9.491812171529384 0.49451554487385235 0.6895899465990096
9.498744848298303 0.4926412604499036 0.658696524428128
9.505127587624017 0.49052414558123636 0.6334822517521217
9.510953271479995 0.48817578954335067 0.613932839978176
9.516221401782808 0.48560380275815057 0.600055132243821
9.520937502159978 0.48281103741410347 0.5918778911235592
9.5251118633466 0.4797948855572719 0.5894528271140871
9.528757551207246 0.4765462941805495 0.592862189185392
9.531887117195124 0.47304771742819385 0.6022435142477449
9.534507842067736 0.46926972837257175 0.6178338062359883
9.537354941479803 0.46490680492669256 0.6362955320041559
9.538998929085835 0.460546467525992 0.655134408852128
9.540002203879881 0.4555768321669893 0.6926545664131498
9.540412986341492 0.45005322422047994 0.738883894016507
9.540179929450709 0.44385871111885716 0.7949249270721297
9.539222968056345 0.4368306409657816 0.8621927620911448
9.537420951803893 0.42872262066055145 0.9425247464611828
9.534617993108565 0.4191250524746354 1.0382853903872569
9.530662831105143 0.4072651922931849 1.1522996871638118
9.525479731959614 0.39152578492573076 1.2870475350477197
9.51897296399966 0.3685109639853334 1.4420889773306267
9.509715451708713 0.33199572564726115 1.6111153582258644
9.490261156472918 0.2740200635802431 1.7921454068565739
9.443704389780326 0.19318893925912228 2.0227266266895128
9.362007894579232 0.10728268181306239 2.3596506863026336
9.26996658489957 0.043916773605806744 2.756231643765991
9.273750912191721 0.019770358523067907 2.813905484215167
9.380582918942155 -0.015822372319440905 2.6266014563662674
9.480889412943972 -0.10585282195183074 2.528725891652458
9.53408328266744 -0.22691851563678236 2.3719148110103414
9.54473522070938 -0.32641093593918785 2.081074707118567
9.541449049088262 -0.3841145781611945 1.754466658160179
9.53964261828259 -0.41264346986008876 1.4753431909008405
9.541003259399316 -0.42761811838462205 1.2579595209965313
9.54366809454023 -0.4373557451948 1.090415818451293
9.546279817135012 -0.4450684115699562 0.9591423248873747
9.54829297676051 -0.4518147233833009 0.8542428976627584
9.549580239472004 -0.45793199861899025 0.7691980975033794
9.550160110159714 -0.46354458804203147 0.6997422709111856
9.550080517578134 -0.4687162494737183 0.6430052003849611
9.549386096026808 -0.4734946996692257 0.5969819304771531
9.548031026495089 -0.47778819716219634 0.5703256772100751
9.545464922081896 -0.4821553848393846 0.545616461271675
9.543099623672118 -0.4860002891028626 0.5247404881931153
9.540213026768598 -0.48961190535414484 0.5106732420404234
9.536799632508236 -0.4930090039404759 0.5030490751897481
9.53284813408241 -0.49620132297901703 0.5016381840606039
9.528346313243496 -0.49919200787016943 0.5062916777025599
9.523284475852694 -0.5019790354169908 0.5169096794972372
9.51765758269688 -0.5045557893761126 0.5334288689453337
9.51146662745439 -0.5069114950096114 0.5558180608593632
9.504719333404566 -0.5090318219561512 0.5840749909568781
9.497329109723573 -0.5108991664036342 0.6210363975477486
9.489174419961122 -0.5126249767581568 0.6622100808583933
9.480832570876661 -0.5139087713372829 0.7084707946774831
9.472007771583193 -0.5148753399093544 0.760734081072683
9.46271018763671 -0.5154971896326712 0.8190090409183446
9.452938278412363 -0.5157428804293198 0.8832535919761924
9.442676114530101 -0.5155763900320748 0.9533526997080032
9.431893069516821 -0.5149568356726539 1.0291007336166982
9.420546220578588 -0.5138385760187312 1.1101907766364074
9.408585280257252 -0.5121715176389025 1.1962120439291466
9.395959494502632 -0.5099013452899914 1.2866544713592027
9.382625830250838 -0.5069695279074029 1.3809176126613578
9.368557985157254 -0.503313469710675 1.4783196937922685
9.353756127368943 -0.4988680673191702 1.5781024043227334
9.33825740094292 -0.4935707647034592 1.6794282861918295
9.322146658849885 -0.48737211075964393 1.7813708296244268
9.305565607013612 -0.4802521419701421 1.8829020582078904
9.288717310689139 -0.47223998369171444 1.9828864066940175
9.271862941295435 -0.46343141143679684 2.0800903565810946
9.255309291598874 -0.4539984670696217 2.173213289819768
9.239258088294486 -0.4439797776483311 2.2706703166349977
9.224326174052909 -0.4341013069865222 2.3520537802407055
9.210667243279893 -0.42449157823367106 2.425552913538318
9.198551533875326 -0.41550203696322674 2.490148413405455

VECTORS Vvpm_AB float
0.037345459706098004 0.13275694142015018 -1.1983660261282225
0.039001334132789806 0.13309568236563932 -1.2127819603267627
0.040897803922934114 0.13344472415359881 -1.2292709463571452
0.04301732039171946 0.13378559068477988 -1.2476700991248522
0.04534012740241945 0.13409927698464894 -1.2677949872552992
0.047844547095584965 0.13436690767253784 -1.2894412937768913
0.05050734448863291 0.13457035861919653 -1.312387028391311
0.05330415386267424 0.13469281093919638 -1.3363952735624902
0.05620994153454665 0.1347192122325658 -1.3612174015918177
0.05919947494472457 0.13463662798379433 -1.3865966590361745
0.06213455319789981 0.13443079306435954 -1.4143374930238417
0.06523122338105215 0.13410088668062656 -1.440162679545704
0.06833978231070034 0.13363750117297207 -1.4657733993616746
0.07143806304877386 0.13303735861453153 -1.490918801610183
0.07450529161284962 0.13229940416181968 -1.5153580416052952
0.07752219754905848 0.13142458044389912 -1.5388628081229943
0.08047107421309796 0.13041555667151258 -1.5612191884753246
0.08333580464273338 0.12927642551928614 -1.5822288142760208
0.0861018662764559 0.1280123777719518 -1.601709276863693
0.08875632229258011 0.12662936188662238 -1.6194938453501406
0.09128780043169467 0.12513373347802303 -1.6354305558945685
0.09368645338997712 0.12353189848869717 -1.649380762285159
0.09594388953117743 0.12182995337352295 -1.6612172409191415
0.09827683572789084 0.11983876773227861 -1.6689925259044252
0.10017526174450717 0.11794273740338686 -1.6757357691939936
0.10191122201663201 0.11595988601113094 -1.6799970345168709
0.10352165200974757 0.11393243738880787 -1.6840373517190235
0.10494512206539683 0.11177324221317357 -1.6835653292202855
0.10619160757249718 0.10952483476385397 -1.6802943616182813
0.10725481947759578 0.10718184531156343 -1.674090894149084
0.10812663170304805 0.10473610055174953 -1.6648040079941682
0.10879629229707873 0.1021764211885386 -1.6522616883172483
0.10924959143265583 0.09948842331748854 -1.6362681153106557
0.10946799871137687 0.09665423320388188 -1.6166019987724378
0.1099801034017307 0.09344856881188743 -1.5993951220661198
0.10961083069851978 0.09024097898514673 -1.5704307008346028
0.10891822156640356 0.08680308964221498 -1.5369340642768425
0.10786038666490429 0.0830875700577442 -1.4985918553403632
0.1063892797520054 0.07902551027658881 -1.4550740019338009
0.10444805043695961 0.07451138329023178 -1.406016062510749
0.10195950062160415 0.06938389240122504 -1.3509443837363206
0.0987967408491378 0.06341602985458611 -1.289088481955241
0.09473702843609652 0.056349845518111806 -1.2191025205798562
0.0894423792148874 0.04802836880677176 -1.1390697503965923
0.0825713897671092 0.03863119317611476 -1.0476475417563478
0.0739520307972769 0.029169198446985116 -0.9554815279457227
0.06434661715233436 0.020092180172145403 -0.8522100491321702
0.05452392075937666 0.012592475183184045 -0.7531117181051614
0.04536908600739433 0.007021474289853258 -0.6640088618046973
0.03741192731362804 0.0032152675623792646 -0.5871229164067262
0.03760029464708453 0.0012605665196264524 -0.5823014477063814
0.04618342792415207 -0.0008709656585888816 -0.6446524845915572
0.05637566405151005 -0.004714990126543786 -0.7114850146626808
0.06761162967081202 -0.010997323030260669 -0.781214106694208
0.07869162792269248 -0.020100541405565244 -0.8530020563569344
0.08830401125925046 -0.03123046951584513 -0.9208851110798565
0.09524757281037327 -0.043503189537232534 -1.0015180283921399
0.09975621385517912 -0.05490191665674731 -1.0861212825852944
0.1026101823705682 -0.06440398551617971 -1.1715326545096314
0.10460103699374111 -0.07189160999484288 -1.25370859077532
0.1061966631827186 -0.07776917352174541 -1.3295829794313203
0.10757048150761908 -0.08253935630825593 -1.3976159511636022
0.10874405596356201 -0.08659813997667196 -1.4574680808847256
0.10969302291021832 -0.09020180844526729 -1.5094854129300417
0.11039461950029165 -0.09350070838836265 -1.5543074452937564
0.11083974247582648 -0.09657993795956499 -1.5926413742331265
0.1104403861199143 -0.09968585401966153 -1.6180320799419554
0.11034617282627542 -0.10244428759523204 -1.6442867847577205
0.11001913224170602 -0.10508171756627344 -1.6658544475536816
0.10947150859303602 -0.10761220066482118 -1.6831573875804726
0.1087143558520957 -0.11004611738959116 -1.6965480712459962
0.1077570664772178 -0.112391021907814 -1.7063201373596453
0.10660740410727834 -0.11465200039214701 -1.7127189679420163
0.10527182571505059 -0.11683186241195077 -1.715951664499304
0.10374537695252822 -0.11888729242600715 -1.714580382134832
0.10208034185391018 -0.12090095290515576 -1.7124801218017613
0.10024549297274377 -0.12283061376959373 -1.7076700992236291
0.09798207182022978 -0.12486415607075363 -1.7015606078042846
0.09577266683138494 -0.12660083993392482 -1.6912871644123593
0.0934166454562198 -0.12823720415439618 -1.678740468016817
0.09092287045666896 -0.12976641589048382 -1.664062083427281
0.08830163261982185 -0.1311814432078192 -1.6474023870276628
0.0855647185010869 -0.13247540470027316 -1.6289231035619938
0.08272544848040139 -0.1336419201780482 -1.608799274794182
0.07979869654459537 -0.13467545772282563 -1.5872205934528452
0.07680089815557634 -0.135571672248245 -1.564392031360618
0.073750045826529 -0.13632772966864404 -1.5405337064534848
0.07066566497922042 -0.13694260879090064 -1.5158799647265166
0.0675687569347862 -0.1374173703289134 -1.490677693920961
0.06448169298985572 -0.137755379490488 -1.4651839295285194
0.06156916649594372 -0.13797251682268274 -1.437926517054938
0.058585603243878306 -0.1380573008823665 -1.4127405034835627
0.055684281097910064 -0.13803051532471863 -1.3880550086828405
0.05289060193803594 -0.13790544442001398 -1.3641340072438985
0.05022977159595889 -0.1376975313081524 -1.34123353778251
0.047726332561599145 -0.13742401397095297 -1.3195980208451554
0.04540370113746504 -0.13710345065115973 -1.2994569192915821
0.043283739161888914 -0.13675515231000102 -1.2810218517366583
0.0413863859287765 -0.13639854770433718 -1.2644842294568814
0.039729367746847946 -0.13605251238605104 -1.250013442216824
0.037345459706098004 0.13275694142015018 -1.1983660261282225
0.039001334132789806 0.13309568236563932 -1.2127819603267627
0.040897803922934114 0.13344472415359881 -1.2292709463571452
0.04301732039171946 0.13378559068477988 -1.2476700991248522
0.04534012740241945 0.13409927698464894 -1.2677949872552992
0.047844547095584965 0.13436690767253784 -1.2894412937768913
0.05050734448863291 0.13457035861919653 -1.312387028391311
0.05330415386267424 0.13469281093919638 -1.3363952735624902
0.05620994153454665 0.1347192122325658 -1.3612174015918177
0.05919947494472457 0.13463662798379433 -1.3865966590361745
0.06213455319789981 0.13443079306435954 -1.4143374930238417
0.06523122338105215 0.13410088668062656 -1.440162679545704
0.06833978231070034 0.13363750117297207 -1.4657733993616746
0.07143806304877386 0.13303735861453153 -1.490918801610183
0.07450529161284962 0.13229940416181968 -1.5153580416052952
0.07752219754905848 0.13142458044389912 -1.5388628081229943
0.08047107421309796 0.13041555667151258 -1.5612191884753246
0.08333580464273338 0.12927642551928614 -1.5822288142760208
0.0861018662764559 0.1280123777719518 -1.601709276863693
0.08875632229258011 0.12662936188662238 -1.6194938453501406
0.09128780043169467 0.12513373347802303 -1.6354305558945685
0.09368645338997712 0.12353189848869717 -1.649380762285159
0.09594388953117743 0.12182995337352295 -1.6612172409191415
0.09827683572789084 0.11983876773227861 -1.6689925259044252
0.10017526174450717 0.11794273740338686 -1.6757357691939936
0.10191122201663201 0.11595988601113094 -1.6799970345168709
0.10352165200974757 0.11393243738880787 -1.6840373517190235
0.10494512206539683 0.11177324221317357 -1.6835653292202855
0.10619160757249718 0.10952483476385397 -1.6802943616182813
0.10725481947759578 0.10718184531156343 -1.674090894149084
0.10812663170304805 0.10473610055174953 -1.6648040079941682
0.10879629229707873 0.1021764211885386 -1.6522616883172483
0.10924959143265583 0.09948842331748854 -1.6362681153106557
0.10946799871137687 0.09665423320388188 -1.6166019987724378
0.1099801034017307 0.09344856881188743 -1.5993951220661198
0.10961083069851978 0.09024097898514673 -1.5704307008346028
0.10891822156640356 0.08680308964221498 -1.5369340642768425
0.10786038666490429 0.0830875700577442 -1.4985918553403632
0.1063892797520054 0.07902551027658881 -1.4550740019338009
0.10444805043695961 0.07451138329023178 -1.406016062510749
0.10195950062160415 0.06938389240122504 -1.3509443837363206
0.0987967408491378 0.06341602985458611 -1.289088481955241
0.09473702843609652 0.056349845518111806 -1.2191025205798562
0.0894423792148874 0.04802836880677176 -1.1390697503965923
0.0825713897671092 0.03863119317611476 -1.0476475417563478
0.0739520307972769 0.029169198446985116 -0.9554815279457227
0.06434661715233436 0.020092180172145403 -0.8522100491321702
0.05452392075937666 0.012592475183184045 -0.7531117181051614
0.04536908600739433 0.007021474289853258 -0.6640088618046973
0.03741192731362804 0.0032152675623792646 -0.5871229164067262
0.03760029464708453 0.0012605665196264524 -0.5823014477063814
0.04618342792415207 -0.0008709656585888816 -0.6446524845915572
0.05637566405151005 -0.004714990126543786 -0.7114850146626808
0.06761162967081202 -0.010997323030260669 -0.781214106694208
0.07869162792269248 -0.020100541405565244 -0.8530020563569344
0.08830401125925046 -0.03123046951584513 -0.9208851110798565
0.09524757281037327 -0.043503189537232534 -1.0015180283921399
0.09975621385517912 -0.05490191665674731 -1.0861212825852944
0.1026101823705682 -0.06440398551617971 -1.1715326545096314
0.10460103699374111 -0.07189160999484288 -1.25370859077532
0.1061966631827186 -0.07776917352174541 -1.3295829794313203
0.10757048150761908 -0.08253935630825593 -1.3976159511636022
0.10874405596356201 -0.08659813997667196 -1.4574680808847256
0.10969302291021832 -0.09020180844526729 -1.5094854129300417
0.11039461950029165 -0.09350070838836265 -1.5543074452937564
0.11083974247582648 -0.09657993795956499 -1.5926413742331265
0.1104403861199143 -0.09968585401966153 -1.6180320799419554
0.11034617282627542 -0.10244428759523204 -1.6442867847577205
0.11001913224170602 -0.10508171756627344 -1.6658544475536816
0.10947150859303602 -0.10761220066482118 -1.6831573875804726
0.1087143558520957 -0.11004611738959116 -1.6965480712459962
0.1077570664772178 -0.112391021907814 -1.7063201373596453
0.10660740410727834 -0.11465200039214701 -1.7127189679420163
0.10527182571505059 -0.11683186241195077 -1.715951664499304
0.10374537695252822 -0.11888729242600715 -1.714580382134832
0.10208034185391018 -0.12090095290515576 -1.7124801218017613
0.10024549297274377 -0.12283061376959373 -1.7076700992236291
0.09798207182022978 -0.12486415607075363 -1.7015606078042846
0.09577266683138494 -0.12660083993392482 -1.6912871644123593
0.0934166454562198 -0.12823720415439618 -1.678740468016817
0.09092287045666896 -0.12976641589048382 -1.664062083427281
0.08830163261982185 -0.1311814432078192 -1.6474023870276628
0.0855647185010869 -0.13247540470027316 -1.6289231035619938
0.08272544848040139 -0.1336419201780482 -1.608799274794182
0.07979869654459537 -0.13467545772282563 -1.5872205934528452
0.07680089815557634 -0.135571672248245 -1.564392031360618
0.073750045826529 -0.13632772966864404 -1.5405337064534848
0.07066566497922042 -0.13694260879090064 -1.5158799647265166
0.0675687569347862 -0.1374173703289134 -1.490677693920961
0.06448169298985572 -0.137755379490488 -1.4651839295285194
0.06156916649594372 -0.13797251682268274 -1.437926517054938
0.058585603243878306 -0.1380573008823665 -1.4127405034835627
0.055684281097910064 -0.13803051532471863 -1.3880550086828405
0.05289060193803594 -0.13790544442001398 -1.3641340072438985
0.05022977159595889 -0.1376975313081524 -1.34123353778251
0.047726332561599145 -0.13742401397095297 -1.3195980208451554
0.04540370113746504 -0.13710345065115973 -1.2994569192915821
0.043283739161888914 -0.13675515231000102 -1.2810218517366583
0.0413863859287765 -0.13639854770433718 -1.2644842294568814
0.039729367746847946 -0.13605251238605104 -1.250013442216824