# vtk DataFile Version 4.0
[MyVLM domain - lattices] 
ASCII
DATASET UNSTRUCTURED_GRID
POINTS 302 float
1.2444999999999997 -1.2445 0.0
1.2399745454545452 -1.2399745454545454 0.0
1.2346178849721705 -1.2346178849721707 0.0
1.2284300185528754 -1.2284300185528756 0.0
1.2214109461966602 -1.2214109461966605 0.0
1.2135606679035247 -1.213560667903525 0.0
1.2048791836734691 -1.2048791836734694 0.0
1.1953664935064932 -1.1953664935064934 0.0
1.1850225974025972 -1.1850225974025974 0.0
1.1738474953617808 -1.173847495361781 0.0
1.1618411873840442 -1.1618411873840444 0.0
1.1490036734693874 -1.1490036734693876 0.0
1.1353349536178106 -1.1353349536178108 0.0
1.1208350278293133 -1.1208350278293135 0.0
1.1055038961038959 -1.105503896103896 0.0
1.0893415584415582 -1.0893415584415584 0.0
1.0723480148423004 -1.0723480148423006 0.0
1.054523265306122 -1.0545232653061223 0.0
1.0358673098330238 -1.035867309833024 0.0
1.0163801484230053 -1.0163801484230055 0.0
0.9960617810760664 -0.9960617810760668 0.0
0.9749122077922076 -0.9749122077922077 0.0
0.9529314285714284 -0.9529314285714284 0.0
0.9301194434137288 -0.930119443413729 0.0
0.9064762523191091 -0.9064762523191096 0.0
0.8820018552875695 -0.8820018552875695 0.0
0.8566962523191093 -0.8566962523191094 0.0
0.8305594434137288 -0.8305594434137291 0.0
0.8035914285714284 -0.8035914285714285 0.0
0.7757922077922076 -0.7757922077922077 0.0
0.7471617810760666 -0.7471617810760667 0.0
0.7177001484230053 -0.7177001484230054 0.0
0.6874073098330239 -0.687407309833024 0.0
0.6562832653061222 -0.6562832653061225 0.0
0.6243280148423004 -0.6243280148423005 0.0
0.5915415584415582 -0.5915415584415583 0.0
0.5579238961038958 -0.5579238961038959 0.0
0.5234750278293133 -0.5234750278293134 0.0
0.48819495361781057 -0.48819495361781057 0.0
0.4520836734693877 -0.4520836734693877 0.0
0.4151411873840445 -0.4151411873840446 0.0
0.37736749536178105 -0.37736749536178116 0.0
0.3387625974025974 -0.3387625974025974 0.0
0.2993264935064933 -0.29932649350649343 0.0
0.25905918367346925 -0.25905918367346925 0.0
0.21796066790352486 -0.21796066790352486 0.0
0.17603094619666027 -0.1760309461966605 0.0
0.13327001855287546 -0.13327001855287568 0.0
0.08967788497217066 -0.08967788497217066 0.0
0.045254545454545436 -0.045254545454545436 0.0
0.0 0.0 0.0
0.04525454545454545 0.04525454545454546 0.0
0.08967788497217066 0.08967788497217068 0.0
0.13327001855287568 0.1332700185528757 0.0
0.17603094619666046 0.1760309461966605 0.0
0.21796066790352497 0.21796066790352508 0.0
0.2590591836734693 0.25905918367346936 0.0
0.29932649350649343 0.2993264935064935 0.0
0.3387625974025973 0.33876259740259734 0.0
0.37736749536178094 0.377367495361781 0.0
0.41514118738404443 0.4151411873840445 0.0
0.45208367346938766 0.4520836734693878 0.0
0.48819495361781057 0.4881949536178107 0.0
0.5234750278293133 0.5234750278293134 0.0
0.5579238961038959 0.557923896103896 0.0
0.5915415584415582 0.5915415584415583 0.0
0.6243280148423003 0.6243280148423004 0.0
0.6562832653061222 0.6562832653061225 0.0
0.687407309833024 0.6874073098330241 0.0
0.7177001484230054 0.7177001484230056 0.0
0.7471617810760667 0.7471617810760669 0.0
0.7757922077922076 0.7757922077922077 0.0
0.8035914285714284 0.8035914285714285 0.0
0.8305594434137288 0.830559443413729 0.0
0.8566962523191093 0.8566962523191094 0.0
0.8820018552875692 0.8820018552875695 0.0
0.9064762523191091 0.9064762523191093 0.0
0.9301194434137288 0.9301194434137292 0.0
0.9529314285714284 0.9529314285714284 0.0
0.9749122077922076 0.9749122077922077 0.0
0.9960617810760666 0.9960617810760668 0.0
1.0163801484230053 1.0163801484230055 0.0
1.0358673098330238 1.035867309833024 0.0
1.054523265306122 1.0545232653061223 0.0
1.0723480148423001 1.0723480148423004 0.0
1.0893415584415582 1.0893415584415584 0.0
1.1055038961038959 1.105503896103896 0.0
1.120835027829313 1.1208350278293133 0.0
1.1353349536178106 1.1353349536178106 0.0
1.1490036734693874 1.1490036734693876 0.0
1.1618411873840444 1.1618411873840446 0.0
1.1738474953617808 1.173847495361781 0.0
1.1850225974025972 1.1850225974025972 0.0
1.1953664935064932 1.1953664935064934 0.0
1.2048791836734691 1.2048791836734694 0.0
1.2135606679035245 1.2135606679035247 0.0
1.22141094619666 1.2214109461966602 0.0
1.2284300185528754 1.2284300185528756 0.0
1.2346178849721703 1.2346178849721705 0.0
1.2399745454545452 1.2399745454545454 0.0
1.2444999999999997 1.2445 0.0
1.7422999999999997 -1.2445 0.0
1.7377745454545452 -1.2399745454545454 0.0
1.7324178849721703 -1.2346178849721707 0.0
1.7262300185528754 -1.2284300185528756 0.0
1.7192109461966603 -1.2214109461966605 0.0
1.7113606679035245 -1.213560667903525 0.0
1.7026791836734692 -1.2048791836734694 0.0
1.6931664935064934 -1.1953664935064934 0.0
1.6828225974025972 -1.1850225974025974 0.0
1.6716474953617806 -1.173847495361781 0.0
1.6596411873840444 -1.1618411873840444 0.0
1.6468036734693878 -1.1490036734693876 0.0
1.6331349536178106 -1.1353349536178108 0.0
1.6186350278293133 -1.1208350278293135 0.0
1.603303896103896 -1.105503896103896 0.0
1.5871415584415582 -1.0893415584415584 0.0
1.5701480148423004 -1.0723480148423006 0.0
1.552323265306122 -1.0545232653061223 0.0
1.5336673098330238 -1.035867309833024 0.0
1.5141801484230053 -1.0163801484230055 0.0
1.4938617810760666 -0.9960617810760668 0.0
1.4727122077922075 -0.9749122077922077 0.0
1.4507314285714283 -0.9529314285714284 0.0
1.4279194434137288 -0.930119443413729 0.0
1.4042762523191092 -0.9064762523191096 0.0
1.3798018552875693 -0.8820018552875695 0.0
1.3544962523191093 -0.8566962523191094 0.0
1.328359443413729 -0.8305594434137291 0.0
1.3013914285714283 -0.8035914285714285 0.0
1.2735922077922077 -0.7757922077922077 0.0
1.2449617810760665 -0.7471617810760667 0.0
1.2155001484230055 -0.7177001484230054 0.0
1.1852073098330238 -0.687407309833024 0.0
1.1540832653061224 -0.6562832653061225 0.0
1.1221280148423003 -0.6243280148423005 0.0
1.0893415584415582 -0.5915415584415583 0.0
1.055723896103896 -0.5579238961038959 0.0
1.0212750278293132 -0.5234750278293134 0.0
0.9859949536178108 -0.48819495361781057 0.0
0.9498836734693876 -0.4520836734693877 0.0
0.9129411873840445 -0.4151411873840446 0.0
0.875167495361781 -0.37736749536178116 0.0
0.8365625974025973 -0.3387625974025974 0.0
0.7971264935064933 -0.29932649350649343 0.0
0.7568591836734693 -0.25905918367346925 0.0
0.7157606679035249 -0.21796066790352486 0.0
0.6738309461966603 -0.1760309461966605 0.0
0.6310700185528755 -0.13327001855287568 0.0
0.5874778849721707 -0.08967788497217066 0.0
0.5430545454545455 -0.045254545454545436 0.0
0.4978 0.0 0.0
0.5430545454545455 0.04525454545454546 0.0
0.5874778849721707 0.08967788497217068 0.0
0.6310700185528757 0.1332700185528757 0.0
0.6738309461966605 0.1760309461966605 0.0
0.715760667903525 0.21796066790352508 0.0
0.7568591836734693 0.25905918367346936 0.0
0.7971264935064934 0.2993264935064935 0.0
0.8365625974025973 0.33876259740259734 0.0
0.875167495361781 0.377367495361781 0.0
0.9129411873840445 0.4151411873840445 0.0
0.9498836734693876 0.4520836734693878 0.0
0.9859949536178105 0.4881949536178107 0.0
1.0212750278293132 0.5234750278293134 0.0
1.055723896103896 0.557923896103896 0.0
1.0893415584415582 0.5915415584415583 0.0
1.1221280148423003 0.6243280148423004 0.0
1.1540832653061224 0.6562832653061225 0.0
1.185207309833024 0.6874073098330241 0.0
1.2155001484230055 0.7177001484230056 0.0
1.2449617810760667 0.7471617810760669 0.0
1.2735922077922077 0.7757922077922077 0.0
1.3013914285714283 0.8035914285714285 0.0
1.3283594434137287 0.830559443413729 0.0
1.3544962523191093 0.8566962523191094 0.0
1.3798018552875693 0.8820018552875695 0.0
1.4042762523191092 0.9064762523191093 0.0
1.427919443413729 0.9301194434137292 0.0
1.4507314285714283 0.9529314285714284 0.0
1.4727122077922075 0.9749122077922077 0.0
1.4938617810760666 0.9960617810760668 0.0
1.5141801484230053 1.0163801484230055 0.0
1.5336673098330238 1.035867309833024 0.0
1.552323265306122 1.0545232653061223 0.0
1.5701480148423002 1.0723480148423004 0.0
1.5871415584415582 1.0893415584415584 0.0
1.603303896103896 1.105503896103896 0.0
1.6186350278293131 1.1208350278293133 0.0
1.6331349536178106 1.1353349536178106 0.0
1.6468036734693874 1.1490036734693876 0.0
1.6596411873840444 1.1618411873840446 0.0
1.6716474953617806 1.173847495361781 0.0
1.6828225974025972 1.1850225974025972 0.0
1.6931664935064934 1.1953664935064934 0.0
1.7026791836734692 1.2048791836734694 0.0
1.7113606679035245 1.2135606679035247 0.0
1.71921094619666 1.2214109461966602 0.0
1.7262300185528754 1.2284300185528756 0.0
1.7324178849721703 1.2346178849721705 0.0
1.7377745454545452 1.2399745454545454 0.0
1.7422999999999997 1.2445 0.0
1.6155872727272724 -1.2422372727272726 0.0
1.6106462152133578 -1.237296215213358 0.0
1.604873951762523 -1.2315239517625232 0.0
1.598270482374768 -1.224920482374768 0.0
1.5908358070500925 -1.2174858070500927 0.0
1.582569925788497 -1.2092199257884972 0.0
1.5734728385899812 -1.2001228385899814 0.0
1.5635445454545454 -1.1901945454545453 0.0
1.552785046382189 -1.1794350463821892 0.0
1.5411943413729126 -1.1678443413729127 0.0
1.5287724304267158 -1.155422430426716 0.0
1.5155193135435991 -1.142169313543599 0.0
1.501434990723562 -1.1280849907235622 0.0
1.4865194619666047 -1.1131694619666048 0.0
1.4707727272727271 -1.0974227272727273 0.0
1.4541947866419294 -1.0808447866419293 0.0
1.4367856400742112 -1.0634356400742113 0.0
1.418545287569573 -1.0451952875695731 0.0
1.3994737291280146 -1.0261237291280147 0.0
1.379570964749536 -1.0062209647495362 0.0
1.358836994434137 -0.9854869944341371 0.0
1.337271818181818 -0.9639218181818181 0.0
1.3148754359925787 -0.9415254359925787 0.0
1.291647847866419 -0.9182978478664192 0.0
1.2675890538033394 -0.8942390538033393 0.0
1.2426990538033393 -0.8693490538033395 0.0
1.2169778478664193 -0.8436278478664192 0.0
1.1904254359925788 -0.8170754359925788 0.0
1.163041818181818 -0.7896918181818181 0.0
1.1348269944341371 -0.7614769944341371 0.0
1.105780964749536 -0.7324309647495362 0.0
1.0759037291280147 -0.7025537291280148 0.0
1.0451952875695731 -0.6718452875695733 0.0
1.0136556400742114 -0.6403056400742114 0.0
0.9812847866419293 -0.6079347866419293 0.0
0.9480827272727271 -0.5747327272727272 0.0
0.9140494619666047 -0.5406994619666048 0.0
0.8791849907235622 -0.5058349907235622 0.0
0.8434893135435992 -0.47013931354359917 0.0
0.8069624304267162 -0.43361243042671627 0.0
0.7696043413729128 -0.3962543413729128 0.0
0.7314150463821893 -0.3580650463821894 0.0
0.6923945454545455 -0.3190445454545454 0.0
0.6525428385899814 -0.27919283858998134 0.0
0.6118599257884971 -0.23850992578849706 0.0
0.5703458070500929 -0.19699580705009279 0.0
0.5280004823747682 -0.15465048237476808 0.0
0.4848239517625232 -0.11147395176252317 0.0
0.4408162152133581 -0.06746621521335805 0.0
0.39597727272727273 -0.022627272727272718 0.0
0.39597727272727273 0.02262727272727273 0.0
0.4408162152133581 0.06746621521335806 0.0
0.4848239517625232 0.11147395176252319 0.0
0.528000482374768 0.15465048237476808 0.0
0.5703458070500929 0.19699580705009276 0.0
0.6118599257884971 0.23850992578849717 0.0
0.6525428385899814 0.2791928385899814 0.0
0.6923945454545455 0.3190445454545454 0.0
0.7314150463821891 0.3580650463821891 0.0
0.7696043413729128 0.39625434137291277 0.0
0.8069624304267162 0.43361243042671616 0.0
0.8434893135435992 0.4701393135435992 0.0
0.8791849907235619 0.5058349907235621 0.0
0.9140494619666046 0.5406994619666047 0.0
0.9480827272727271 0.5747327272727272 0.0
0.9812847866419294 0.6079347866419295 0.0
1.0136556400742114 0.6403056400742114 0.0
1.0451952875695731 0.6718452875695732 0.0
1.0759037291280147 0.7025537291280147 0.0
1.105780964749536 0.7324309647495362 0.0
1.1348269944341371 0.7614769944341373 0.0
1.163041818181818 0.789691818181818 0.0
1.1904254359925786 0.8170754359925786 0.0
1.216977847866419 0.843627847866419 0.0
1.2426990538033393 0.8693490538033394 0.0
1.2675890538033392 0.8942390538033393 0.0
1.291647847866419 0.9182978478664192 0.0
1.3148754359925787 0.9415254359925787 0.0
1.3372718181818182 0.9639218181818181 0.0
1.3588369944341372 0.9854869944341373 0.0
1.379570964749536 1.0062209647495362 0.0
1.3994737291280148 1.0261237291280147 0.0
1.418545287569573 1.0451952875695731 0.0
1.4367856400742112 1.0634356400742113 0.0
1.4541947866419291 1.0808447866419293 0.0
1.470772727272727 1.097422727272727 0.0
1.4865194619666047 1.1131694619666048 0.0
1.501434990723562 1.128084990723562 0.0
1.5155193135435991 1.1421693135435993 0.0
1.528772430426716 1.1554224304267162 0.0
1.5411943413729128 1.1678443413729127 0.0
1.5527850463821888 1.179435046382189 0.0
1.5635445454545451 1.1901945454545453 0.0
1.573472838589981 1.2001228385899811 0.0
1.5825699257884969 1.209219925788497 0.0
1.5908358070500925 1.2174858070500927 0.0
1.5982704823747678 1.224920482374768 0.0
1.604873951762523 1.2315239517625232 0.0
1.6106462152133578 1.237296215213358 0.0
1.6155872727272724 1.2422372727272726 0.0

CELLS 200 700
4 0 101 102 1
4 1 102 103 2
4 2 103 104 3
4 3 104 105 4
4 4 105 106 5
4 5 106 107 6
4 6 107 108 7
4 7 108 109 8
4 8 109 110 9
4 9 110 111 10
4 10 111 112 11
4 11 112 113 12
4 12 113 114 13
4 13 114 115 14
4 14 115 116 15
4 15 116 117 16
4 16 117 118 17
4 17 118 119 18
4 18 119 120 19
4 19 120 121 20
4 20 121 122 21
4 21 122 123 22
4 22 123 124 23
4 23 124 125 24
4 24 125 126 25
4 25 126 127 26
4 26 127 128 27
4 27 128 129 28
4 28 129 130 29
4 29 130 131 30
4 30 131 132 31
4 31 132 133 32
4 32 133 134 33
4 33 134 135 34
4 34 135 136 35
4 35 136 137 36
4 36 137 138 37
4 37 138 139 38
4 38 139 140 39
4 39 140 141 40
4 40 141 142 41
4 41 142 143 42
4 42 143 144 43
4 43 144 145 44
4 44 145 146 45
4 45 146 147 46
4 46 147 148 47
4 47 148 149 48
4 48 149 150 49
4 49 150 151 50
4 50 151 152 51
4 51 152 153 52
4 52 153 154 53
4 53 154 155 54
4 54 155 156 55
4 55 156 157 56
4 56 157 158 57
4 57 158 159 58
4 58 159 160 59
4 59 160 161 60
4 60 161 162 61
4 61 162 163 62
4 62 163 164 63
4 63 164 165 64
4 64 165 166 65
4 65 166 167 66
4 66 167 168 67
4 67 168 169 68
4 68 169 170 69
4 69 170 171 70
4 70 171 172 71
4 71 172 173 72
4 72 173 174 73
4 73 174 175 74
4 74 175 176 75
4 75 176 177 76
4 76 177 178 77
4 77 178 179 78
4 78 179 180 79
4 79 180 181 80
4 80 181 182 81
4 81 182 183 82
4 82 183 184 83
4 83 184 185 84
4 84 185 186 85
4 85 186 187 86
4 86 187 188 87
4 87 188 189 88
4 88 189 190 89
4 89 190 191 90
4 90 191 192 91
4 91 192 193 92
4 92 193 194 93
4 93 194 195 94
4 94 195 196 95
4 95 196 197 96
4 96 197 198 97
4 97 198 199 98
4 98 199 200 99
4 99 200 201 100
1 202
1 203
1 204
1 205
1 206
1 207
1 208
1 209
1 210
1 211
1 212
1 213
1 214
1 215
1 216
1 217
1 218
1 219
1 220
1 221
1 222
1 223
1 224
1 225
1 226
1 227
1 228
1 229
1 230
1 231
1 232
1 233
1 234
1 235
1 236
1 237
1 238
1 239
1 240
1 241
1 242
1 243
1 244
1 245
1 246
1 247
1 248
1 249
1 250
1 251
1 252
1 253
1 254
1 255
1 256
1 257
1 258
1 259
1 260
1 261
1 262
1 263
1 264
1 265
1 266
1 267
1 268
1 269
1 270
1 271
1 272
1 273
1 274
1 275
1 276
1 277
1 278
1 279
1 280
1 281
1 282
1 283
1 284
1 285
1 286
1 287
1 288
1 289
1 290
1 291
1 292
1 293
1 294
1 295
1 296
1 297
1 298
1 299
1 300
1 301

CELL_TYPES 200
9
9
9
9
9
9
9
9
9
9
9
9
9
9
9
9
9
9
9
9
9
9
9
9
9
9
9
9
9
9
9
9
9
9
9
9
9
9
9
9
9
9
9
9
9
9
9
9
9
9
9
9
9
9
9
9
9
9
9
9
9
9
9
9
9
9
9
9
9
9
9
9
9
9
9
9
9
9
9
9
9
9
9
9
9
9
9
9
9
9
9
9
9
9
9
9
9
9
9
9
1
1
1
1
1
1
1
1
1
1
1
1
1
1
1
1
1
1
1
1
1
1
1
1
1
1
1
1
1
1
1
1
1
1
1
1
1
1
1
1
1
1
1
1
1
1
1
1
1
1
1
1
1
1
1
1
1
1
1
1
1
1
1
1
1
1
1
1
1
1
1
1
1
1
1
1
1
1
1
1
1
1
1
1
1
1
1
1
1
1
1
1
1
1
1
1
1
1
1
1

CELL_DATA 200

VECTORS Vvpm float
-0.07304323350215132 0.0809167568577103 0.15664171974175894
-0.06917954970969413 0.08242735210581656 0.148356023110174
-0.06482693792704289 0.08376721864408411 0.13902181701998712
-0.060089598242761194 0.08478111962707609 0.1288625592822403
-0.05509157274354072 0.08532990802208872 0.11814425901027881
-0.049967405818148694 0.08530666926694014 0.10715544757692955
-0.04484958065022941 0.08464960844856112 0.09618023608636857
-0.0398555514689195 0.0833481461947004 0.08547050594582285
-0.035077682847790434 0.08144015890355746 0.07522433362252601
-0.03057858737744487 0.07900095792509036 0.06557599225033686
-0.026392434054207523 0.0761273454252102 0.05659875747834014
-0.02253069791749581 0.07292150496432401 0.04831723760798004
-0.018989627861743106 0.06947880846297506 0.040723388367409255
-0.01575692677207309 0.06588133662104143 0.033790838508673086
-0.012816347076943416 0.06219644164296963 0.027484745002157602
-0.010150186620350206 0.05847831247155105 0.02176714545180454
-0.007740358062587845 0.05477052428059326 0.01659925143244159
-0.005568750706405908 0.051108357036510586 0.01194222442847996
-0.0036173440974331767 0.04752048347227255 0.007757419450809855
-0.0018682782429455883 0.04403008398828442 0.004006535621434274
-0.0003039425309648352 0.04065557894135179 0.0006518068610912814
0.0010929112126145703 0.03741114644244923 -0.0023437556589544326
0.002339042861135765 0.03430713515669049 -0.005016093603074113
0.003450598538725508 0.031350431589546826 -0.007399832446197017
0.004442995066509356 0.028544807891682324 -0.009528033667919121
0.005330818332721038 0.025891256912145444 -0.011431976806499461
0.0061277345533135 0.023388311948893747 -0.013140969156626334
0.006846409464016691 0.02103234544001186 -0.014682172476225908
0.007498427476534732 0.018817840653246317 -0.01608042961636774
0.008094200084390121 0.016737631363393436 -0.017358068096963636
0.008642849566207991 0.014783105639764338 -0.018534650707656045
0.00915204953708636 0.012944370926498385 -0.019626633569127964
0.009627797259096346 0.01121037868363315 -0.02064687785139503
0.010074082649754712 0.00956900832287649 -0.021603939960184206
0.010492403851694424 0.008007112707393533 -0.022501032672739795
0.01088105630313577 0.006510532403922554 -0.023334500544528763
0.011234087170570006 0.005064095784162865 -0.02409157768289496
0.011539753036899206 0.003651642307572366 -0.02474708024860146
0.011778235583592955 0.002256148137598217 -0.02525850772040696
0.011918242951668873 0.0008601211736722501 -0.025558754490168055
0.011911936557601486 -0.0005533779360106612 -0.025545230384447046
0.01168737155200725 -0.0019983105474012056 -0.02506364917584587
0.0111374093883529 -0.003480075300829554 -0.023884251509870606
0.010104396605222667 -0.004982597015036455 -0.021668948447472844
0.008364725574157092 -0.0064370162466779995 -0.01793821188194238
0.005655894595361263 -0.007638807629138348 -0.012129105101423319
0.001959290528537318 -0.008060400553125265 -0.00420171209773422
-0.0017210317046258859 -0.006830840732583277 0.003690764400991301
-0.0034213738175691557 -0.003863739206961993 0.007337159829432702
-0.002697995395167254 -0.0009195147967876235 0.0057858697964431535
-0.0026979953951686924 0.000919514796780584 0.0057858697964445925
-0.0034213738175746314 0.003863739206956661 0.007337159829438188
-0.001721031704633394 0.006830840732581787 0.0036907644009988284
0.0019592905285311674 0.008060400553126078 -0.004201712097728006
0.00565589459535726 0.007638807629139625 -0.012129105101419216
0.00836472557415456 0.006437016246679141 -0.017938211881939732
0.010104396605221002 0.0049825970150373915 -0.021668948447471095
0.011137409388351747 0.003480075300830298 -0.023884251509869465
0.011687371552006427 0.001998310547401796 -0.02506364917584508
0.011911936557600868 0.0005533779360111274 -0.025545230384446494
0.011918242951668372 -0.0008601211736718602 -0.025558754490167594
0.011778235583592549 -0.002256148137597864 -0.02525850772040658
0.011539753036898878 -0.003651642307572032 -0.024747080248601193
0.011234087170569777 -0.00506409578416257 -0.024091577682894823
0.01088105630313563 -0.006510532403922335 -0.023334500544528763
0.010492403851694353 -0.008007112707393408 -0.022501032672739903
0.010074082649754675 -0.009569008322876443 -0.021603939960184365
0.0096277972590963 -0.011210378683633171 -0.02064687785139516
0.009152049537086291 -0.012944370926498465 -0.019626633569128017
0.008642849566207887 -0.014783105639764463 -0.018534650707655996
0.008094200084389967 -0.016737631363393613 -0.017358068096963476
0.007498427476534542 -0.01881784065324648 -0.016080429616367478
0.006846409464016431 -0.02103234544001201 -0.014682172476225488
0.00612773455331319 -0.023388311948893847 -0.013140969156625793
0.0053308183327207045 -0.025891256912145534 -0.01143197680649888
0.004442995066509016 -0.02854480789168235 -0.009528033667918512
0.003450598538725218 -0.03135043158954689 -0.007399832446196493
0.0023390428611354975 -0.034307135156690566 -0.005016093603073634
0.0010929112126143352 -0.03741114644244935 -0.0023437556589540236
-0.00030394253096509543 -0.04065557894135197 0.0006518068610917595
-0.001868278242945865 -0.04403008398828457 0.004006535621434772
-0.0036173440974334725 -0.047520483472272786 0.007757419450810418
-0.005568750706406257 -0.05110835703651077 0.011942224428480645
-0.0077403580625882325 -0.054770524280593404 0.01659925143244236
-0.010150186620350665 -0.05847831247155114 0.021767145451805452
-0.012816347076943851 -0.06219644164296966 0.027484745002158473
-0.015756926772073618 -0.06588133662104143 0.03379083850867416
-0.018989627861743626 -0.06947880846297504 0.04072338836741025
-0.02253069791749649 -0.07292150496432395 0.048317237607981435
-0.026392434054208224 -0.07612734542521013 0.0565987574783416
-0.03057858737744556 -0.07900095792509018 0.06557599225033818
-0.03507768284779101 -0.08144015890355712 0.07522433362252719
-0.03985555146892019 -0.08334814619469995 0.0854705059458242
-0.044849580650229974 -0.08464960844856062 0.09618023608636969
-0.04996740581814921 -0.08530666926693962 0.10715544757693046
-0.055091572743541324 -0.08532990802208815 0.1181442590102801
-0.06008959824276174 -0.08478111962707556 0.12886255928224147
-0.06482693792704343 -0.08376721864408336 0.13902181701998811
-0.06917954970969464 -0.08242735210581588 0.14835602311017512
-0.0730432335021518 -0.08091675685770952 0.15664171974176005
-0.07304323350215132 0.0809167568577103 0.15664171974175894
-0.06917954970969413 0.08242735210581656 0.148356023110174
-0.06482693792704289 0.08376721864408411 0.13902181701998712
-0.060089598242761194 0.08478111962707609 0.1288625592822403
-0.05509157274354072 0.08532990802208872 0.11814425901027881
-0.049967405818148694 0.08530666926694014 0.10715544757692955
-0.04484958065022941 0.08464960844856112 0.09618023608636857
-0.0398555514689195 0.0833481461947004 0.08547050594582285
-0.035077682847790434 0.08144015890355746 0.07522433362252601
-0.03057858737744487 0.07900095792509036 0.06557599225033686
-0.026392434054207523 0.0761273454252102 0.05659875747834014
-0.02253069791749581 0.07292150496432401 0.04831723760798004
-0.018989627861743106 0.06947880846297506 0.040723388367409255
-0.01575692677207309 0.06588133662104143 0.033790838508673086
-0.012816347076943416 0.06219644164296963 0.027484745002157602
-0.010150186620350206 0.05847831247155105 0.02176714545180454
-0.007740358062587845 0.05477052428059326 0.01659925143244159
-0.005568750706405908 0.051108357036510586 0.01194222442847996
-0.0036173440974331767 0.04752048347227255 0.007757419450809855
-0.0018682782429455883 0.04403008398828442 0.004006535621434274
-0.0003039425309648352 0.04065557894135179 0.0006518068610912814
0.0010929112126145703 0.03741114644244923 -0.0023437556589544326
0.002339042861135765 0.03430713515669049 -0.005016093603074113
0.003450598538725508 0.031350431589546826 -0.007399832446197017
0.004442995066509356 0.028544807891682324 -0.009528033667919121
0.005330818332721038 0.025891256912145444 -0.011431976806499461
0.0061277345533135 0.023388311948893747 -0.013140969156626334
0.006846409464016691 0.02103234544001186 -0.014682172476225908
0.007498427476534732 0.018817840653246317 -0.01608042961636774
0.008094200084390121 0.016737631363393436 -0.017358068096963636
0.008642849566207991 0.014783105639764338 -0.018534650707656045
0.00915204953708636 0.012944370926498385 -0.019626633569127964
0.009627797259096346 0.01121037868363315 -0.02064687785139503
0.010074082649754712 0.00956900832287649 -0.021603939960184206
0.010492403851694424 0.008007112707393533 -0.022501032672739795
0.01088105630313577 0.006510532403922554 -0.023334500544528763
0.011234087170570006 0.005064095784162865 -0.02409157768289496
0.011539753036899206 0.003651642307572366 -0.02474708024860146
0.011778235583592955 0.002256148137598217 -0.02525850772040696
0.011918242951668873 0.0008601211736722501 -0.025558754490168055
0.011911936557601486 -0.0005533779360106612 -0.025545230384447046
0.01168737155200725 -0.0019983105474012056 -0.02506364917584587
0.0111374093883529 -0.003480075300829554 -0.023884251509870606
0.010104396605222667 -0.004982597015036455 -0.021668948447472844
0.008364725574157092 -0.0064370162466779995 -0.01793821188194238
0.005655894595361263 -0.007638807629138348 -0.012129105101423319
0.001959290528537318 -0.008060400553125265 -0.00420171209773422
-0.0017210317046258859 -0.006830840732583277 0.003690764400991301
-0.0034213738175691557 -0.003863739206961993 0.007337159829432702
-0.002697995395167254 -0.0009195147967876235 0.0057858697964431535
-0.0026979953951686924 0.000919514796780584 0.0057858697964445925
-0.0034213738175746314 0.003863739206956661 0.007337159829438188
-0.001721031704633394 0.006830840732581787 0.0036907644009988284
0.0019592905285311674 0.008060400553126078 -0.004201712097728006
0.00565589459535726 0.007638807629139625 -0.012129105101419216
0.00836472557415456 0.006437016246679141 -0.017938211881939732
0.010104396605221002 0.0049825970150373915 -0.021668948447471095
0.011137409388351747 0.003480075300830298 -0.023884251509869465
0.011687371552006427 0.001998310547401796 -0.02506364917584508
0.011911936557600868 0.0005533779360111274 -0.025545230384446494
0.011918242951668372 -0.0008601211736718602 -0.025558754490167594
0.011778235583592549 -0.002256148137597864 -0.02525850772040658
0.011539753036898878 -0.003651642307572032 -0.024747080248601193
0.011234087170569777 -0.00506409578416257 -0.024091577682894823
0.01088105630313563 -0.006510532403922335 -0.023334500544528763
0.010492403851694353 -0.008007112707393408 -0.022501032672739903
0.010074082649754675 -0.009569008322876443 -0.021603939960184365
0.0096277972590963 -0.011210378683633171 -0.02064687785139516
0.009152049537086291 -0.012944370926498465 -0.019626633569128017
0.008642849566207887 -0.014783105639764463 -0.018534650707655996
0.008094200084389967 -0.016737631363393613 -0.017358068096963476
0.007498427476534542 -0.01881784065324648 -0.016080429616367478
0.006846409464016431 -0.02103234544001201 -0.014682172476225488
0.00612773455331319 -0.023388311948893847 -0.013140969156625793
0.0053308183327207045 -0.025891256912145534 -0.01143197680649888
0.004442995066509016 -0.02854480789168235 -0.009528033667918512
0.003450598538725218 -0.03135043158954689 -0.007399832446196493
0.0023390428611354975 -0.034307135156690566 -0.005016093603073634
0.0010929112126143352 -0.03741114644244935 -0.0023437556589540236
-0.00030394253096509543 -0.04065557894135197 0.0006518068610917595
-0.001868278242945865 -0.04403008398828457 0.004006535621434772
-0.0036173440974334725 -0.047520483472272786 0.007757419450810418
-0.005568750706406257 -0.05110835703651077 0.011942224428480645
-0.0077403580625882325 -0.054770524280593404 0.01659925143244236
-0.010150186620350665 -0.05847831247155114 0.021767145451805452
-0.012816347076943851 -0.06219644164296966 0.027484745002158473
-0.015756926772073618 -0.06588133662104143 0.03379083850867416
-0.018989627861743626 -0.06947880846297504 0.04072338836741025
-0.02253069791749649 -0.07292150496432395 0.048317237607981435
-0.026392434054208224 -0.07612734542521013 0.0565987574783416
-0.03057858737744556 -0.07900095792509018 0.06557599225033818
-0.03507768284779101 -0.08144015890355712 0.07522433362252719
-0.03985555146892019 -0.08334814619469995 0.0854705059458242
-0.044849580650229974 -0.08464960844856062 0.09618023608636969
-0.04996740581814921 -0.08530666926693962 0.10715544757693046
-0.055091572743541324 -0.08532990802208815 0.1181442590102801
-0.06008959824276174 -0.08478111962707556 0.12886255928224147
-0.06482693792704343 -0.08376721864408336 0.13902181701998811
-0.06917954970969464 -0.08242735210581588 0.14835602311017512
-0.0730432335021518 -0.08091675685770952 0.15664171974176005

VECTORS Vvpm_BBp float
-0.05207829992550386 0.07417077820356827 0.11168227459861546
-0.04958653937486633 0.07395980518067569 0.10633867685352061
-0.04682795933302464 0.07354383485347749 0.10042288286301153
-0.04385641055158606 0.07288046039823085 0.09405037593658469
-0.04072987441628743 0.07193919583085108 0.08734549755721356
-0.0375072489734489 0.07070401826802143 0.0804345549928362
-0.03424504705718862 0.06917396073435422 0.0734387404073165
-0.030994587491986435 0.06736178369822296 0.06646810737490395
-0.027800093071493084 0.06529121175299685 0.05961749198262679
-0.024697823838116004 0.06299350544838851 0.052964654142365696
-0.021716100558140643 0.06050413505894852 0.046570327933414084
-0.018875919399501274 0.057860070782807756 0.0404795397832111
-0.0161918509960558 0.05509786153309962 0.034723536516901264
-0.013673002665135199 0.05225241046849778 0.029321848839528087
-0.011323925462391604 0.049356245561921225 0.024284236521433224
-0.009145421394061016 0.046439097467142386 0.01961241947054002
-0.007135244182588089 0.04352766002065392 0.015301580529085736
-0.005288702549257226 0.04064546593256807 0.011341659217398685
-0.003599179936549504 0.03781284458103617 0.007718466282089584
-0.002058584544178491 0.035046945096143346 0.004414648801444797
-0.0006577410522836412 0.0323618143151245 0.0014105302385255159
0.000613267608851064 0.029768520864125136 -0.0013151566313054396
0.0017648022587861787 0.027275316301928997 -0.0037846306572978496
0.0028074079487319815 0.024887823559512145 -0.006020505774749263
0.003751587473786522 0.02260924269432829 -0.008045305300432147
0.004607601644417672 0.02044056449216074 -0.0098810336134049
0.005385288843974301 0.018380783553443455 -0.011548789194845782
0.0060938948714535845 0.016427103951191225 -0.013068399724689882
0.0067419020819594715 0.014575132171621524 -0.014458055672159858
0.007336844109795071 0.012819053815299991 -0.015733912968155288
0.007885088572452702 0.011151792577687262 -0.016909627012455616
0.008391564519963967 0.009565152669044102 -0.01799576818696515
0.008859403182688652 0.008049949686080438 -0.018999051436860172
0.009289448601066803 0.006596141113596121 -0.019921286812705524
0.009679577336905863 0.0051929781210763104 -0.020757920586602037
0.010023741454626785 0.003829218859567464 -0.021495982918845608
0.010310613731876703 0.00249347715576657 -0.022111182502710366
0.010521666764254398 0.0011748431467981386 -0.022563787191238846
0.010628461324764886 -0.00013596855069532214 -0.022792808865326333
0.010588875629554273 -0.0014444564214025476 -0.022707917067993934
0.01034205937846363 -0.002748211212099746 -0.02217861790943573
0.009802327925367513 -0.004028975316565376 -0.02102116007305431
0.008854008001980886 -0.005237180543732742 -0.018987481434494385
0.007356484348206279 -0.006261731683624307 -0.01577603159534755
0.005198320579363956 -0.0068748876091397 -0.011147834457471435
0.0025092793777120237 -0.006681454885366557 -0.005381166990992294
1.043500068452392e-5 -0.005311641051042054 -2.237793117911341e-5
-0.0012657630310414295 -0.0030845313884596873 0.0027144375797981046
-0.0011669502087684094 -0.001093331432246237 0.002502532798597343
-0.0004903776789736142 -2.0229586235320784e-15 0.0010516183262242569
-0.0011669502087700112 0.0010933314322409246 0.002502532798598943
-0.0012657630310455776 0.0030845313884547915 0.0027144375798022697
1.0435000678848908e-5 0.005311641051039405 -2.2377931173416795e-5
0.0025092793777069223 0.006681454885365971 -0.005381166990987162
0.005198320579360276 0.006874887609140059 -0.011147834457467701
0.0073564843482037635 0.006261731683624926 -0.015776031595344964
0.008854008001979156 0.005237180543733377 -0.01898748143449259
0.009802327925366276 0.004028975316565956 -0.021021160073053054
0.01034205937846273 0.002748211212100245 -0.022178617909434876
0.010588875629553591 0.0014444564214029624 -0.02270791706799329
0.010628461324764343 0.0001359685506956735 -0.022792808865325826
0.01052166676425395 -0.0011748431467978268 -0.02256378719123843
0.010310613731876342 -0.0024934771557662836 -0.022111182502710068
0.010023741454626504 -0.003829218859567209 -0.021495982918845385
0.009679577336905663 -0.005192978121076094 -0.02075792058660194
0.009289448601066657 -0.00659614111359596 -0.019921286812705517
0.00885940318268855 -0.008049949686080356 -0.01899905143686021
0.008391564519963871 -0.009565152669044083 -0.017995768186965185
0.007885088572452594 -0.01115179257768729 -0.016909627012455592
0.007336844109794937 -0.012819053815300083 -0.015733912968155194
0.0067419020819593145 -0.014575132171621628 -0.0144580556721597
0.0060938948714533946 -0.01642710395119136 -0.013068399724689643
0.005385288843974073 -0.01838078355344357 -0.011548789194845446
0.0046076016444174086 -0.020440564492160865 -0.00988103361340447
0.003751587473786232 -0.02260924269432839 -0.008045305300431656
0.002807407948731685 -0.024887823559512235 -0.006020505774748748
0.0017648022587858842 -0.027275316301929087 -0.0037846306572973183
0.0006132676088507843 -0.029768520864125198 -0.0013151566313049472
-0.0006577410522839122 -0.03236181431512465 0.0014105302385260022
-0.0020585845441787563 -0.035046945096143485 0.004414648801445277
-0.0035991799365497723 -0.03781284458103631 0.007718466282090062
-0.005288702549257513 -0.04064546593256824 0.011341659217399198
-0.007135244182588402 -0.043527660020654065 0.015301580529086329
-0.009145421394061333 -0.04643909746714252 0.019612419470540644
-0.011323925462391984 -0.04935624556192136 0.02428423652143393
-0.013673002665135608 -0.05225241046849788 0.02932184883952886
-0.016191850996056207 -0.05509786153309973 0.03472353651690206
-0.0188759193995017 -0.05786007078280782 0.04047953978321195
-0.021716100558141115 -0.06050413505894854 0.04657032793341505
-0.02469782383811653 -0.06299350544838846 0.05296465414236674
-0.027800093071493608 -0.06529121175299678 0.05961749198262783
-0.030994587491986914 -0.0673617836982229 0.06646810737490488
-0.03424504705718912 -0.06917396073435401 0.0734387404073175
-0.03750724897344942 -0.07070401826802122 0.08043455499283722
-0.04072987441628778 -0.07193919583085068 0.08734549755721434
-0.04385641055158642 -0.07288046039823054 0.09405037593658543
-0.04682795933302516 -0.07354383485347712 0.10042288286301251
-0.04958653937486678 -0.07395980518067538 0.10633867685352148
-0.052078299925504334 -0.07417077820356788 0.11168227459861636
-0.054256090243536656 -0.07422700534923338 0.11635256100705539
-0.05207829992550386 0.07417077820356827 0.11168227459861546
-0.04958653937486633 0.07395980518067569 0.10633867685352061
-0.04682795933302464 0.07354383485347749 0.10042288286301153
-0.04385641055158606 0.07288046039823085 0.09405037593658469
-0.04072987441628743 0.07193919583085108 0.08734549755721356
-0.0375072489734489 0.07070401826802143 0.0804345549928362
-0.03424504705718862 0.06917396073435422 0.0734387404073165
-0.030994587491986435 0.06736178369822296 0.06646810737490395
-0.027800093071493084 0.06529121175299685 0.05961749198262679
-0.024697823838116004 0.06299350544838851 0.052964654142365696
-0.021716100558140643 0.06050413505894852 0.046570327933414084
-0.018875919399501274 0.057860070782807756 0.0404795397832111
-0.0161918509960558 0.05509786153309962 0.034723536516901264
-0.013673002665135199 0.05225241046849778 0.029321848839528087
-0.011323925462391604 0.049356245561921225 0.024284236521433224
-0.009145421394061016 0.046439097467142386 0.01961241947054002
-0.007135244182588089 0.04352766002065392 0.015301580529085736
-0.005288702549257226 0.04064546593256807 0.011341659217398685
-0.003599179936549504 0.03781284458103617 0.007718466282089584
-0.002058584544178491 0.035046945096143346 0.004414648801444797
-0.0006577410522836412 0.0323618143151245 0.0014105302385255159
0.000613267608851064 0.029768520864125136 -0.0013151566313054396
0.0017648022587861787 0.027275316301928997 -0.0037846306572978496
0.0028074079487319815 0.024887823559512145 -0.006020505774749263
0.003751587473786522 0.02260924269432829 -0.008045305300432147
0.004607601644417672 0.02044056449216074 -0.0098810336134049
0.005385288843974301 0.018380783553443455 -0.011548789194845782
0.0060938948714535845 0.016427103951191225 -0.013068399724689882
0.0067419020819594715 0.014575132171621524 -0.014458055672159858
0.007336844109795071 0.012819053815299991 -0.015733912968155288
0.007885088572452702 0.011151792577687262 -0.016909627012455616
0.008391564519963967 0.009565152669044102 -0.01799576818696515
0.008859403182688652 0.008049949686080438 -0.018999051436860172
0.009289448601066803 0.006596141113596121 -0.019921286812705524
0.009679577336905863 0.0051929781210763104 -0.020757920586602037
0.010023741454626785 0.003829218859567464 -0.021495982918845608
0.010310613731876703 0.00249347715576657 -0.022111182502710366
0.010521666764254398 0.0011748431467981386 -0.022563787191238846
0.010628461324764886 -0.00013596855069532214 -0.022792808865326333
0.010588875629554273 -0.0014444564214025476 -0.022707917067993934
0.01034205937846363 -0.002748211212099746 -0.02217861790943573
0.009802327925367513 -0.004028975316565376 -0.02102116007305431
0.008854008001980886 -0.005237180543732742 -0.018987481434494385
0.007356484348206279 -0.006261731683624307 -0.01577603159534755
0.005198320579363956 -0.0068748876091397 -0.011147834457471435
0.0025092793777120237 -0.006681454885366557 -0.005381166990992294
1.043500068452392e-5 -0.005311641051042054 -2.237793117911341e-5
-0.0012657630310414295 -0.0030845313884596873 0.0027144375797981046
-0.0011669502087684094 -0.001093331432246237 0.002502532798597343
-0.0004903776789736142 -2.0229586235320784e-15 0.0010516183262242569
-0.0011669502087700112 0.0010933314322409246 0.002502532798598943
-0.0012657630310455776 0.0030845313884547915 0.0027144375798022697
1.0435000678848908e-5 0.005311641051039405 -2.2377931173416795e-5
0.0025092793777069223 0.006681454885365971 -0.005381166990987162
0.005198320579360276 0.006874887609140059 -0.011147834457467701
0.0073564843482037635 0.006261731683624926 -0.015776031595344964
0.008854008001979156 0.005237180543733377 -0.01898748143449259
0.009802327925366276 0.004028975316565956 -0.021021160073053054
0.01034205937846273 0.002748211212100245 -0.022178617909434876
0.010588875629553591 0.0014444564214029624 -0.02270791706799329
0.010628461324764343 0.0001359685506956735 -0.022792808865325826
0.01052166676425395 -0.0011748431467978268 -0.02256378719123843
0.010310613731876342 -0.0024934771557662836 -0.022111182502710068
0.010023741454626504 -0.003829218859567209 -0.021495982918845385
0.009679577336905663 -0.005192978121076094 -0.02075792058660194
0.009289448601066657 -0.00659614111359596 -0.019921286812705517
0.00885940318268855 -0.008049949686080356 -0.01899905143686021
0.008391564519963871 -0.009565152669044083 -0.017995768186965185
0.007885088572452594 -0.01115179257768729 -0.016909627012455592
0.007336844109794937 -0.012819053815300083 -0.015733912968155194
0.0067419020819593145 -0.014575132171621628 -0.0144580556721597
0.0060938948714533946 -0.01642710395119136 -0.013068399724689643
0.005385288843974073 -0.01838078355344357 -0.011548789194845446
0.0046076016444174086 -0.020440564492160865 -0.00988103361340447
0.003751587473786232 -0.02260924269432839 -0.008045305300431656
0.002807407948731685 -0.024887823559512235 -0.006020505774748748
0.0017648022587858842 -0.027275316301929087 -0.0037846306572973183
0.0006132676088507843 -0.029768520864125198 -0.0013151566313049472
-0.0006577410522839122 -0.03236181431512465 0.0014105302385260022
-0.0020585845441787563 -0.035046945096143485 0.004414648801445277
-0.0035991799365497723 -0.03781284458103631 0.007718466282090062
-0.005288702549257513 -0.04064546593256824 0.011341659217399198
-0.007135244182588402 -0.043527660020654065 0.015301580529086329
-0.009145421394061333 -0.04643909746714252 0.019612419470540644
-0.011323925462391984 -0.04935624556192136 0.02428423652143393
-0.013673002665135608 -0.05225241046849788 0.02932184883952886
-0.016191850996056207 -0.05509786153309973 0.03472353651690206
-0.0188759193995017 -0.05786007078280782 0.04047953978321195
-0.021716100558141115 -0.06050413505894854 0.04657032793341505
-0.02469782383811653 -0.06299350544838846 0.05296465414236674
-0.027800093071493608 -0.06529121175299678 0.05961749198262783
-0.030994587491986914 -0.0673617836982229 0.06646810737490488
-0.03424504705718912 -0.06917396073435401 0.0734387404073175
-0.03750724897344942 -0.07070401826802122 0.08043455499283722
-0.04072987441628778 -0.07193919583085068 0.08734549755721434
-0.04385641055158642 -0.07288046039823054 0.09405037593658543
-0.04682795933302516 -0.07354383485347712 0.10042288286301251
-0.04958653937486678 -0.07395980518067538 0.10633867685352148
-0.052078299925504334 -0.07417077820356788 0.11168227459861636
-0.054256090243536656 -0.07422700534923338 0.11635256100705539

SCALARS Gamma float
LOOKUP_TABLE default
0.47411195418979674
0.7295301475610878
0.9393521765569052
1.1289542707697624
1.3069012741575479
1.4769824388101025
1.641080173090607
1.8001534261609482
1.9546527479581834
2.104722405106979
2.2503109382703883
2.3912388989973943
2.5272457435712083
2.6580264209981412
2.783262390993622
2.9026483352304835
3.015913805046939
3.1228384890588416
3.2232605182696945
3.317078493336438
3.4042488289672344
3.4847801928580506
3.5587264698985543
3.62617917941523
3.6872598560340966
3.742112640757509
3.790897190279807
3.833781949429083
3.8709378047875407
3.902532124836475
3.9287231839452166
3.9496549618980303
3.965452308499162
3.9762164667302295
3.9820209617773115
3.9829078926445347
3.978884716931305
3.9699217123727712
3.955950455935586
3.9368639262601994
3.9125192862947014
3.8827451849643575
3.847356808708431
3.8061844760312757
3.759126423578982
3.706245682668759
3.6479522420018067
3.5853944604661563
3.5214407976233812
3.464153805101957
3.464153805101957
3.5214407976233826
3.5853944604661585
3.6479522420018067
3.706245682668759
3.7591264235789845
3.806184476031279
3.847356808708433
3.88274518496436
3.9125192862947027
3.9368639262602017
3.955950455935588
3.9699217123727744
3.9788847169313097
3.98290789264454
3.9820209617773155
3.976216466730233
3.9654523084991657
3.949654961898033
3.9287231839452184
3.9025321248364757
3.870937804787539
3.8337819494290795
3.790897190279804
3.7421126407575054
3.6872598560340926
3.6261791794152263
3.558726469898549
3.4847801928580444
3.4042488289672264
3.31707849333643
3.2232605182696856
3.1228384890588314
3.0159138050469263
2.902648335230471
2.783262390993613
2.6580264209981257
2.5272457435711924
2.39123889899737
2.2503109382703674
2.104722405106966
1.9546527479581741
1.8001534261609338
1.6410801730906008
1.476982438810091
1.306901274157519
1.1289542707697313
0.939352176556873
0.7295301475610595
0.4741119541897817
0.47411195418979674
0.7295301475610878
0.9393521765569052
1.1289542707697624
1.3069012741575479
1.4769824388101025
1.641080173090607
1.8001534261609482
1.9546527479581834
2.104722405106979
2.2503109382703883
2.3912388989973943
2.5272457435712083
2.6580264209981412
2.783262390993622
2.9026483352304835
3.015913805046939
3.1228384890588416
3.2232605182696945
3.317078493336438
3.4042488289672344
3.4847801928580506
3.5587264698985543
3.62617917941523
3.6872598560340966
3.742112640757509
3.790897190279807
3.833781949429083
3.8709378047875407
3.902532124836475
3.9287231839452166
3.9496549618980303
3.965452308499162
3.9762164667302295
3.9820209617773115
3.9829078926445347
3.978884716931305
3.9699217123727712
3.955950455935586
3.9368639262601994
3.9125192862947014
3.8827451849643575
3.847356808708431
3.8061844760312757
3.759126423578982
3.706245682668759
3.6479522420018067
3.5853944604661563
3.5214407976233812
3.464153805101957
3.464153805101957
3.5214407976233826
3.5853944604661585
3.6479522420018067
3.706245682668759
3.7591264235789845
3.806184476031279
3.847356808708433
3.88274518496436
3.9125192862947027
3.9368639262602017
3.955950455935588
3.9699217123727744
3.9788847169313097
3.98290789264454
3.9820209617773155
3.976216466730233
3.9654523084991657
3.949654961898033
3.9287231839452184
3.9025321248364757
3.870937804787539
3.8337819494290795
3.790897190279804
3.7421126407575054
3.6872598560340926
3.6261791794152263
3.558726469898549
3.4847801928580444
3.4042488289672264
3.31707849333643
3.2232605182696856
3.1228384890588314
3.0159138050469263
2.902648335230471
2.783262390993613
2.6580264209981257
2.5272457435711924
2.39123889899737
2.2503109382703674
2.104722405106966
1.9546527479581741
1.8001534261609338
1.6410801730906008
1.476982438810091
1.306901274157519
1.1289542707697313
0.939352176556873
0.7295301475610595
0.4741119541897817

VECTORS Vvpm_ApA float
-0.054256090243536205 0.07422700534923372 0.11635256100705454
-0.05207829992550386 0.07417077820356827 0.11168227459861546
-0.04958653937486633 0.07395980518067569 0.10633867685352061
-0.04682795933302464 0.07354383485347749 0.10042288286301153
-0.04385641055158606 0.07288046039823085 0.09405037593658469
-0.04072987441628743 0.07193919583085108 0.08734549755721356
-0.0375072489734489 0.07070401826802143 0.0804345549928362
-0.03424504705718862 0.06917396073435422 0.0734387404073165
-0.030994587491986435 0.06736178369822296 0.06646810737490395
-0.027800093071493084 0.06529121175299685 0.05961749198262679
-0.024697823838116004 0.06299350544838851 0.052964654142365696
-0.021716100558140643 0.06050413505894852 0.046570327933414084
-0.018875919399501274 0.057860070782807756 0.0404795397832111
-0.0161918509960558 0.05509786153309962 0.034723536516901264
-0.013673002665135199 0.05225241046849778 0.029321848839528087
-0.011323925462391604 0.049356245561921225 0.024284236521433224
-0.009145421394061016 0.046439097467142386 0.01961241947054002
-0.007135244182588089 0.04352766002065392 0.015301580529085736
-0.005288702549257226 0.04064546593256807 0.011341659217398685
-0.003599179936549504 0.03781284458103617 0.007718466282089584
-0.002058584544178491 0.035046945096143346 0.004414648801444797
-0.0006577410522836412 0.0323618143151245 0.0014105302385255159
0.000613267608851064 0.029768520864125136 -0.0013151566313054396
0.0017648022587861787 0.027275316301928997 -0.0037846306572978496
0.0028074079487319815 0.024887823559512145 -0.006020505774749263
0.003751587473786522 0.02260924269432829 -0.008045305300432147
0.004607601644417672 0.02044056449216074 -0.0098810336134049
0.005385288843974301 0.018380783553443455 -0.011548789194845782
0.0060938948714535845 0.016427103951191225 -0.013068399724689882
0.0067419020819594715 0.014575132171621524 -0.014458055672159858
0.007336844109795071 0.012819053815299991 -0.015733912968155288
0.007885088572452702 0.011151792577687262 -0.016909627012455616
0.008391564519963967 0.009565152669044102 -0.01799576818696515
0.008859403182688652 0.008049949686080438 -0.018999051436860172
0.009289448601066803 0.006596141113596121 -0.019921286812705524
0.009679577336905863 0.0051929781210763104 -0.020757920586602037
0.010023741454626785 0.003829218859567464 -0.021495982918845608
0.010310613731876703 0.00249347715576657 -0.022111182502710366
0.010521666764254398 0.0011748431467981386 -0.022563787191238846
0.010628461324764886 -0.00013596855069532214 -0.022792808865326333
0.010588875629554273 -0.0014444564214025476 -0.022707917067993934
0.01034205937846363 -0.002748211212099746 -0.02217861790943573
0.009802327925367513 -0.004028975316565376 -0.02102116007305431
0.008854008001980886 -0.005237180543732742 -0.018987481434494385
0.007356484348206279 -0.006261731683624307 -0.01577603159534755
0.005198320579363956 -0.0068748876091397 -0.011147834457471435
0.0025092793777120237 -0.006681454885366557 -0.005381166990992294
1.043500068452392e-5 -0.005311641051042054 -2.237793117911341e-5
-0.0012657630310414295 -0.0030845313884596873 0.0027144375797981046
-0.0011669502087684094 -0.001093331432246237 0.002502532798597343
-0.0004903776789736142 -2.0229586235320784e-15 0.0010516183262242569
-0.0011669502087700112 0.0010933314322409246 0.002502532798598943
-0.0012657630310455776 0.0030845313884547915 0.0027144375798022697
1.0435000678848908e-5 0.005311641051039405 -2.2377931173416795e-5
0.0025092793777069223 0.006681454885365971 -0.005381166990987162
0.005198320579360276 0.006874887609140059 -0.011147834457467701
0.0073564843482037635 0.006261731683624926 -0.015776031595344964
0.008854008001979156 0.005237180543733377 -0.01898748143449259
0.009802327925366276 0.004028975316565956 -0.021021160073053054
0.01034205937846273 0.002748211212100245 -0.022178617909434876
0.010588875629553591 0.0014444564214029624 -0.02270791706799329
0.010628461324764343 0.0001359685506956735 -0.022792808865325826
0.01052166676425395 -0.0011748431467978268 -0.02256378719123843
0.010310613731876342 -0.0024934771557662836 -0.022111182502710068
0.010023741454626504 -0.003829218859567209 -0.021495982918845385
0.009679577336905663 -0.005192978121076094 -0.02075792058660194
0.009289448601066657 -0.00659614111359596 -0.019921286812705517
0.00885940318268855 -0.008049949686080356 -0.01899905143686021
0.008391564519963871 -0.009565152669044083 -0.017995768186965185
0.007885088572452594 -0.01115179257768729 -0.016909627012455592
0.007336844109794937 -0.012819053815300083 -0.015733912968155194
0.0067419020819593145 -0.014575132171621628 -0.0144580556721597
0.0060938948714533946 -0.01642710395119136 -0.013068399724689643
0.005385288843974073 -0.01838078355344357 -0.011548789194845446
0.0046076016444174086 -0.020440564492160865 -0.00988103361340447
0.003751587473786232 -0.02260924269432839 -0.008045305300431656
0.002807407948731685 -0.024887823559512235 -0.006020505774748748
0.0017648022587858842 -0.027275316301929087 -0.0037846306572973183
0.0006132676088507843 -0.029768520864125198 -0.0013151566313049472
-0.0006577410522839122 -0.03236181431512465 0.0014105302385260022
-0.0020585845441787563 -0.035046945096143485 0.004414648801445277
-0.0035991799365497723 -0.03781284458103631 0.007718466282090062
-0.005288702549257513 -0.04064546593256824 0.011341659217399198
-0.007135244182588402 -0.043527660020654065 0.015301580529086329
-0.009145421394061333 -0.04643909746714252 0.019612419470540644
-0.011323925462391984 -0.04935624556192136 0.02428423652143393
-0.013673002665135608 -0.05225241046849788 0.02932184883952886
-0.016191850996056207 -0.05509786153309973 0.03472353651690206
-0.0188759193995017 -0.05786007078280782 0.04047953978321195
-0.021716100558141115 -0.06050413505894854 0.04657032793341505
-0.02469782383811653 -0.06299350544838846 0.05296465414236674
-0.027800093071493608 -0.06529121175299678 0.05961749198262783
-0.030994587491986914 -0.0673617836982229 0.06646810737490488
-0.03424504705718912 -0.06917396073435401 0.0734387404073175
-0.03750724897344942 -0.07070401826802122 0.08043455499283722
-0.04072987441628778 -0.07193919583085068 0.08734549755721434
-0.04385641055158642 -0.07288046039823054 0.09405037593658543
-0.04682795933302516 -0.07354383485347712 0.10042288286301251
-0.04958653937486678 -0.07395980518067538 0.10633867685352148
-0.052078299925504334 -0.07417077820356788 0.11168227459861636
-0.054256090243536205 0.07422700534923372 0.11635256100705454
-0.05207829992550386 0.07417077820356827 0.11168227459861546
-0.04958653937486633 0.07395980518067569 0.10633867685352061
-0.04682795933302464 0.07354383485347749 0.10042288286301153
-0.04385641055158606 0.07288046039823085 0.09405037593658469
-0.04072987441628743 0.07193919583085108 0.08734549755721356
-0.0375072489734489 0.07070401826802143 0.0804345549928362
-0.03424504705718862 0.06917396073435422 0.0734387404073165
-0.030994587491986435 0.06736178369822296 0.06646810737490395
-0.027800093071493084 0.06529121175299685 0.05961749198262679
-0.024697823838116004 0.06299350544838851 0.052964654142365696
-0.021716100558140643 0.06050413505894852 0.046570327933414084
-0.018875919399501274 0.057860070782807756 0.0404795397832111
-0.0161918509960558 0.05509786153309962 0.034723536516901264
-0.013673002665135199 0.05225241046849778 0.029321848839528087
-0.011323925462391604 0.049356245561921225 0.024284236521433224
-0.009145421394061016 0.046439097467142386 0.01961241947054002
-0.007135244182588089 0.04352766002065392 0.015301580529085736
-0.005288702549257226 0.04064546593256807 0.011341659217398685
-0.003599179936549504 0.03781284458103617 0.007718466282089584
-0.002058584544178491 0.035046945096143346 0.004414648801444797
-0.0006577410522836412 0.0323618143151245 0.0014105302385255159
0.000613267608851064 0.029768520864125136 -0.0013151566313054396
0.0017648022587861787 0.027275316301928997 -0.0037846306572978496
0.0028074079487319815 0.024887823559512145 -0.006020505774749263
0.003751587473786522 0.02260924269432829 -0.008045305300432147
0.004607601644417672 0.02044056449216074 -0.0098810336134049
0.005385288843974301 0.018380783553443455 -0.011548789194845782
0.0060938948714535845 0.016427103951191225 -0.013068399724689882
0.0067419020819594715 0.014575132171621524 -0.014458055672159858
0.007336844109795071 0.012819053815299991 -0.015733912968155288
0.007885088572452702 0.011151792577687262 -0.016909627012455616
0.008391564519963967 0.009565152669044102 -0.01799576818696515
0.008859403182688652 0.008049949686080438 -0.018999051436860172
0.009289448601066803 0.006596141113596121 -0.019921286812705524
0.009679577336905863 0.0051929781210763104 -0.020757920586602037
0.010023741454626785 0.003829218859567464 -0.021495982918845608
0.010310613731876703 0.00249347715576657 -0.022111182502710366
0.010521666764254398 0.0011748431467981386 -0.022563787191238846
0.010628461324764886 -0.00013596855069532214 -0.022792808865326333
0.010588875629554273 -0.0014444564214025476 -0.022707917067993934
0.01034205937846363 -0.002748211212099746 -0.02217861790943573
0.009802327925367513 -0.004028975316565376 -0.02102116007305431
0.008854008001980886 -0.005237180543732742 -0.018987481434494385
0.007356484348206279 -0.006261731683624307 -0.01577603159534755
0.005198320579363956 -0.0068748876091397 -0.011147834457471435
0.0025092793777120237 -0.006681454885366557 -0.005381166990992294
1.043500068452392e-5 -0.005311641051042054 -2.237793117911341e-5
-0.0012657630310414295 -0.0030845313884596873 0.0027144375797981046
-0.0011669502087684094 -0.001093331432246237 0.002502532798597343
-0.0004903776789736142 -2.0229586235320784e-15 0.0010516183262242569
-0.0011669502087700112 0.0010933314322409246 0.002502532798598943
-0.0012657630310455776 0.0030845313884547915 0.0027144375798022697
1.0435000678848908e-5 0.005311641051039405 -2.2377931173416795e-5
0.0025092793777069223 0.006681454885365971 -0.005381166990987162
0.005198320579360276 0.006874887609140059 -0.011147834457467701
0.0073564843482037635 0.006261731683624926 -0.015776031595344964
0.008854008001979156 0.005237180543733377 -0.01898748143449259
0.009802327925366276 0.004028975316565956 -0.021021160073053054
0.01034205937846273 0.002748211212100245 -0.022178617909434876
0.010588875629553591 0.0014444564214029624 -0.02270791706799329
0.010628461324764343 0.0001359685506956735 -0.022792808865325826
0.01052166676425395 -0.0011748431467978268 -0.02256378719123843
0.010310613731876342 -0.0024934771557662836 -0.022111182502710068
0.010023741454626504 -0.003829218859567209 -0.021495982918845385
0.009679577336905663 -0.005192978121076094 -0.02075792058660194
0.009289448601066657 -0.00659614111359596 -0.019921286812705517
0.00885940318268855 -0.008049949686080356 -0.01899905143686021
0.008391564519963871 -0.009565152669044083 -0.017995768186965185
0.007885088572452594 -0.01115179257768729 -0.016909627012455592
0.007336844109794937 -0.012819053815300083 -0.015733912968155194
0.0067419020819593145 -0.014575132171621628 -0.0144580556721597
0.0060938948714533946 -0.01642710395119136 -0.013068399724689643
0.005385288843974073 -0.01838078355344357 -0.011548789194845446
0.0046076016444174086 -0.020440564492160865 -0.00988103361340447
0.003751587473786232 -0.02260924269432839 -0.008045305300431656
0.002807407948731685 -0.024887823559512235 -0.006020505774748748
0.0017648022587858842 -0.027275316301929087 -0.0037846306572973183
0.0006132676088507843 -0.029768520864125198 -0.0013151566313049472
-0.0006577410522839122 -0.03236181431512465 0.0014105302385260022
-0.0020585845441787563 -0.035046945096143485 0.004414648801445277
-0.0035991799365497723 -0.03781284458103631 0.007718466282090062
-0.005288702549257513 -0.04064546593256824 0.011341659217399198
-0.007135244182588402 -0.043527660020654065 0.015301580529086329
-0.009145421394061333 -0.04643909746714252 0.019612419470540644
-0.011323925462391984 -0.04935624556192136 0.02428423652143393
-0.013673002665135608 -0.05225241046849788 0.02932184883952886
-0.016191850996056207 -0.05509786153309973 0.03472353651690206
-0.0188759193995017 -0.05786007078280782 0.04047953978321195
-0.021716100558141115 -0.06050413505894854 0.04657032793341505
-0.02469782383811653 -0.06299350544838846 0.05296465414236674
-0.027800093071493608 -0.06529121175299678 0.05961749198262783
-0.030994587491986914 -0.0673617836982229 0.06646810737490488
-0.03424504705718912 -0.06917396073435401 0.0734387404073175
-0.03750724897344942 -0.07070401826802122 0.08043455499283722
-0.04072987441628778 -0.07193919583085068 0.08734549755721434
-0.04385641055158642 -0.07288046039823054 0.09405037593658543
-0.04682795933302516 -0.07354383485347712 0.10042288286301251
-0.04958653937486678 -0.07395980518067538 0.10633867685352148
-0.052078299925504334 -0.07417077820356788 0.11168227459861636

VECTORS Vkin float
-0.0 -0.0 -0.0
-0.0 -0.0 -0.0
-0.0 -0.0 -0.0
-0.0 -0.0 -0.0
-0.0 -0.0 -0.0
-0.0 -0.0 -0.0
-0.0 -0.0 -0.0
-0.0 -0.0 -0.0
-0.0 -0.0 -0.0
-0.0 -0.0 -0.0
-0.0 -0.0 -0.0
-0.0 -0.0 -0.0
-0.0 -0.0 -0.0
-0.0 -0.0 -0.0
-0.0 -0.0 -0.0
-0.0 -0.0 -0.0
-0.0 -0.0 -0.0
-0.0 -0.0 -0.0
-0.0 -0.0 -0.0
-0.0 -0.0 -0.0
-0.0 -0.0 -0.0
-0.0 -0.0 -0.0
-0.0 -0.0 -0.0
-0.0 -0.0 -0.0
-0.0 -0.0 -0.0
-0.0 -0.0 -0.0
-0.0 -0.0 -0.0
-0.0 -0.0 -0.0
-0.0 -0.0 -0.0
-0.0 -0.0 -0.0
-0.0 -0.0 -0.0
-0.0 -0.0 -0.0
-0.0 -0.0 -0.0
-0.0 -0.0 -0.0
-0.0 -0.0 -0.0
-0.0 -0.0 -0.0
-0.0 -0.0 -0.0
-0.0 -0.0 -0.0
-0.0 -0.0 -0.0
-0.0 -0.0 -0.0
-0.0 -0.0 -0.0
-0.0 -0.0 -0.0
-0.0 -0.0 -0.0
-0.0 -0.0 -0.0
-0.0 -0.0 -0.0
-0.0 -0.0 -0.0
-0.0 -0.0 -0.0
-0.0 -0.0 -0.0
-0.0 -0.0 -0.0
-0.0 -0.0 -0.0
-0.0 -0.0 -0.0
-0.0 -0.0 -0.0
-0.0 -0.0 -0.0
-0.0 -0.0 -0.0
-0.0 -0.0 -0.0
-0.0 -0.0 -0.0
-0.0 -0.0 -0.0
-0.0 -0.0 -0.0
-0.0 -0.0 -0.0
-0.0 -0.0 -0.0
-0.0 -0.0 -0.0
-0.0 -0.0 -0.0
-0.0 -0.0 -0.0
-0.0 -0.0 -0.0
-0.0 -0.0 -0.0
-0.0 -0.0 -0.0
-0.0 -0.0 -0.0
-0.0 -0.0 -0.0
-0.0 -0.0 -0.0
-0.0 -0.0 -0.0
-0.0 -0.0 -0.0
-0.0 -0.0 -0.0
-0.0 -0.0 -0.0
-0.0 -0.0 -0.0
-0.0 -0.0 -0.0
-0.0 -0.0 -0.0
-0.0 -0.0 -0.0
-0.0 -0.0 -0.0
-0.0 -0.0 -0.0
-0.0 -0.0 -0.0
-0.0 -0.0 -0.0
-0.0 -0.0 -0.0
-0.0 -0.0 -0.0
-0.0 -0.0 -0.0
-0.0 -0.0 -0.0
-0.0 -0.0 -0.0
-0.0 -0.0 -0.0
-0.0 -0.0 -0.0
-0.0 -0.0 -0.0
-0.0 -0.0 -0.0
-0.0 -0.0 -0.0
-0.0 -0.0 -0.0
-0.0 -0.0 -0.0
-0.0 -0.0 -0.0
-0.0 -0.0 -0.0
-0.0 -0.0 -0.0
-0.0 -0.0 -0.0
-0.0 -0.0 -0.0
-0.0 -0.0 -0.0
-0.0 -0.0 -0.0
-0.0 -0.0 -0.0
-0.0 -0.0 -0.0
-0.0 -0.0 -0.0
-0.0 -0.0 -0.0
-0.0 -0.0 -0.0
-0.0 -0.0 -0.0
-0.0 -0.0 -0.0
-0.0 -0.0 -0.0
-0.0 -0.0 -0.0
-0.0 -0.0 -0.0
-0.0 -0.0 -0.0
-0.0 -0.0 -0.0
-0.0 -0.0 -0.0
-0.0 -0.0 -0.0
-0.0 -0.0 -0.0
-0.0 -0.0 -0.0
-0.0 -0.0 -0.0
-0.0 -0.0 -0.0
-0.0 -0.0 -0.0
-0.0 -0.0 -0.0
-0.0 -0.0 -0.0
-0.0 -0.0 -0.0
-0.0 -0.0 -0.0
-0.0 -0.0 -0.0
-0.0 -0.0 -0.0
-0.0 -0.0 -0.0
-0.0 -0.0 -0.0
-0.0 -0.0 -0.0
-0.0 -0.0 -0.0
-0.0 -0.0 -0.0
-0.0 -0.0 -0.0
-0.0 -0.0 -0.0
-0.0 -0.0 -0.0
-0.0 -0.0 -0.0
-0.0 -0.0 -0.0
-0.0 -0.0 -0.0
-0.0 -0.0 -0.0
-0.0 -0.0 -0.0
-0.0 -0.0 -0.0
-0.0 -0.0 -0.0
-0.0 -0.0 -0.0
-0.0 -0.0 -0.0
-0.0 -0.0 -0.0
-0.0 -0.0 -0.0
-0.0 -0.0 -0.0
-0.0 -0.0 -0.0
-0.0 -0.0 -0.0
-0.0 -0.0 -0.0
-0.0 -0.0 -0.0
-0.0 -0.0 -0.0
-0.0 -0.0 -0.0
-0.0 -0.0 -0.0
-0.0 -0.0 -0.0
-0.0 -0.0 -0.0
-0.0 -0.0 -0.0
-0.0 -0.0 -0.0
-0.0 -0.0 -0.0
-0.0 -0.0 -0.0
-0.0 -0.0 -0.0
-0.0 -0.0 -0.0
-0.0 -0.0 -0.0
-0.0 -0.0 -0.0
-0.0 -0.0 -0.0
-0.0 -0.0 -0.0
-0.0 -0.0 -0.0
-0.0 -0.0 -0.0
-0.0 -0.0 -0.0
-0.0 -0.0 -0.0
-0.0 -0.0 -0.0
-0.0 -0.0 -0.0
-0.0 -0.0 -0.0
-0.0 -0.0 -0.0
-0.0 -0.0 -0.0
-0.0 -0.0 -0.0
-0.0 -0.0 -0.0
-0.0 -0.0 -0.0
-0.0 -0.0 -0.0
-0.0 -0.0 -0.0
-0.0 -0.0 -0.0
-0.0 -0.0 -0.0
-0.0 -0.0 -0.0
-0.0 -0.0 -0.0
-0.0 -0.0 -0.0
-0.0 -0.0 -0.0
-0.0 -0.0 -0.0
-0.0 -0.0 -0.0
-0.0 -0.0 -0.0
-0.0 -0.0 -0.0
-0.0 -0.0 -0.0
-0.0 -0.0 -0.0
-0.0 -0.0 -0.0
-0.0 -0.0 -0.0
-0.0 -0.0 -0.0
-0.0 -0.0 -0.0
-0.0 -0.0 -0.0
-0.0 -0.0 -0.0
-0.0 -0.0 -0.0
-0.0 -0.0 -0.0
-0.0 -0.0 -0.0
-0.0 -0.0 -0.0

VECTORS Vinf float
8.990034636864348 0.0809167568577103 4.382824337148754
8.993898320656804 0.08242735210581656 4.3745386405171685
8.998250932439456 0.08376721864408411 4.365204434426982
9.002988272123737 0.08478111962707609 4.355045176689234
9.007986297622958 0.08532990802208872 4.3443268764172736
9.01311046454835 0.08530666926694014 4.333338064983924
9.01822828971627 0.08464960844856112 4.322362853493363
9.023222318897579 0.0833481461947004 4.3116531233528175
9.028000187518709 0.08144015890355746 4.30140695102952
9.032499282989054 0.07900095792509036 4.2917586096573315
9.036685436312291 0.0761273454252102 4.282781374885334
9.040547172449003 0.07292150496432401 4.274499855014975
9.044088242504756 0.06947880846297506 4.266906005774404
9.047320943594425 0.06588133662104143 4.2599734559156675
9.050261523289555 0.06219644164296963 4.2536673624091526
9.052927683746148 0.05847831247155105 4.247949762858799
9.055337512303911 0.05477052428059326 4.242781868839436
9.057509119660093 0.051108357036510586 4.238124841835474
9.059460526269065 0.04752048347227255 4.233940036857804
9.061209592123554 0.04403008398828442 4.230189153028429
9.062773927835535 0.04065557894135179 4.226834424268086
9.064170781579113 0.03741114644244923 4.22383886174804
9.065416913227635 0.03430713515669049 4.22116652380392
9.066528468905224 0.031350431589546826 4.218782784960798
9.067520865433009 0.028544807891682324 4.216654583739075
9.06840868869922 0.025891256912145444 4.214750640600495
9.069205604919812 0.023388311948893747 4.2130416482503685
9.069924279830515 0.02103234544001186 4.211500444930769
9.070576297843033 0.018817840653246317 4.210102187790627
9.071172070450888 0.016737631363393436 4.208824549310031
9.071720719932706 0.014783105639764338 4.207647966699338
9.072229919903585 0.012944370926498385 4.206555983837867
9.072705667625595 0.01121037868363315 4.205535739555599
9.073151953016254 0.00956900832287649 4.20457867744681
9.073570274218193 0.008007112707393533 4.203681584734254
9.073958926669635 0.006510532403922554 4.202848116862466
9.074311957537068 0.005064095784162865 4.2020910397241
9.074617623403398 0.003651642307572366 4.201435537158393
9.074856105950092 0.002256148137598217 4.2009241096865875
9.074996113318168 0.0008601211736722501 4.200623862916826
9.0749898069241 -0.0005533779360106612 4.200637387022548
9.074765241918506 -0.0019983105474012056 4.201118968231149
9.074215279754851 -0.003480075300829554 4.202298365897124
9.073182266971722 -0.004982597015036455 4.204513668959522
9.071442595940656 -0.0064370162466779995 4.208244405525052
9.06873376496186 -0.007638807629138348 4.214053512305571
9.065037160895036 -0.008060400553125265 4.221980905309261
9.061356838661872 -0.006830840732583277 4.229873381807986
9.05965649654893 -0.003863739206961993 4.2335197772364275
9.060379874971332 -0.0009195147967876235 4.231968487203438
9.06037987497133 0.000919514796780584 4.2319684872034395
9.059656496548923 0.003863739206956661 4.233519777236433
9.061356838661865 0.006830840732581787 4.229873381807994
9.065037160895029 0.008060400553126078 4.221980905309267
9.068733764961856 0.007638807629139625 4.214053512305576
9.071442595940653 0.006437016246679141 4.208244405525055
9.07318226697172 0.0049825970150373915 4.204513668959524
9.074215279754851 0.003480075300830298 4.202298365897125
9.074765241918506 0.001998310547401796 4.20111896823115
9.0749898069241 0.0005533779360111274 4.200637387022548
9.074996113318168 -0.0008601211736718602 4.200623862916827
9.074856105950092 -0.002256148137597864 4.200924109686588
9.074617623403398 -0.003651642307572032 4.201435537158393
9.074311957537068 -0.00506409578416257 4.2020910397241
9.073958926669635 -0.006510532403922335 4.202848116862466
9.073570274218193 -0.008007112707393408 4.203681584734254
9.073151953016254 -0.009569008322876443 4.20457867744681
9.072705667625595 -0.011210378683633171 4.205535739555599
9.072229919903585 -0.012944370926498465 4.206555983837866
9.071720719932706 -0.014783105639764463 4.207647966699339
9.071172070450888 -0.016737631363393613 4.208824549310031
9.070576297843033 -0.01881784065324648 4.210102187790627
9.069924279830515 -0.02103234544001201 4.211500444930769
9.069205604919812 -0.023388311948893847 4.2130416482503685
9.06840868869922 -0.025891256912145534 4.214750640600496
9.067520865433007 -0.02854480789168235 4.216654583739076
9.066528468905224 -0.03135043158954689 4.218782784960798
9.065416913227635 -0.034307135156690566 4.221166523803921
9.064170781579113 -0.03741114644244935 4.223838861748041
9.062773927835533 -0.04065557894135197 4.226834424268087
9.061209592123554 -0.04403008398828457 4.230189153028429
9.059460526269065 -0.047520483472272786 4.233940036857805
9.057509119660093 -0.05110835703651077 4.238124841835475
9.055337512303911 -0.054770524280593404 4.242781868839437
9.052927683746148 -0.05847831247155114 4.2479497628588
9.050261523289555 -0.06219644164296966 4.253667362409153
9.047320943594425 -0.06588133662104143 4.259973455915668
9.044088242504754 -0.06947880846297504 4.266906005774405
9.040547172449003 -0.07292150496432395 4.274499855014976
9.03668543631229 -0.07612734542521013 4.282781374885336
9.032499282989054 -0.07900095792509018 4.291758609657332
9.028000187518707 -0.08144015890355712 4.301406951029522
9.023222318897579 -0.08334814619469995 4.311653123352818
9.01822828971627 -0.08464960844856062 4.322362853493364
9.01311046454835 -0.08530666926693962 4.333338064983925
9.007986297622958 -0.08532990802208815 4.344326876417274
9.002988272123737 -0.08478111962707556 4.355045176689236
8.998250932439456 -0.08376721864408336 4.365204434426983
8.993898320656804 -0.08242735210581588 4.374538640517169
8.990034636864348 -0.08091675685770952 4.3828243371487545
8.990034636864348 0.0809167568577103 4.382824337148754
8.993898320656804 0.08242735210581656 4.3745386405171685
8.998250932439456 0.08376721864408411 4.365204434426982
9.002988272123737 0.08478111962707609 4.355045176689234
9.007986297622958 0.08532990802208872 4.3443268764172736
9.01311046454835 0.08530666926694014 4.333338064983924
9.01822828971627 0.08464960844856112 4.322362853493363
9.023222318897579 0.0833481461947004 4.3116531233528175
9.028000187518709 0.08144015890355746 4.30140695102952
9.032499282989054 0.07900095792509036 4.2917586096573315
9.036685436312291 0.0761273454252102 4.282781374885334
9.040547172449003 0.07292150496432401 4.274499855014975
9.044088242504756 0.06947880846297506 4.266906005774404
9.047320943594425 0.06588133662104143 4.2599734559156675
9.050261523289555 0.06219644164296963 4.2536673624091526
9.052927683746148 0.05847831247155105 4.247949762858799
9.055337512303911 0.05477052428059326 4.242781868839436
9.057509119660093 0.051108357036510586 4.238124841835474
9.059460526269065 0.04752048347227255 4.233940036857804
9.061209592123554 0.04403008398828442 4.230189153028429
9.062773927835535 0.04065557894135179 4.226834424268086
9.064170781579113 0.03741114644244923 4.22383886174804
9.065416913227635 0.03430713515669049 4.22116652380392
9.066528468905224 0.031350431589546826 4.218782784960798
9.067520865433009 0.028544807891682324 4.216654583739075
9.06840868869922 0.025891256912145444 4.214750640600495
9.069205604919812 0.023388311948893747 4.2130416482503685
9.069924279830515 0.02103234544001186 4.211500444930769
9.070576297843033 0.018817840653246317 4.210102187790627
9.071172070450888 0.016737631363393436 4.208824549310031
9.071720719932706 0.014783105639764338 4.207647966699338
9.072229919903585 0.012944370926498385 4.206555983837867
9.072705667625595 0.01121037868363315 4.205535739555599
9.073151953016254 0.00956900832287649 4.20457867744681
9.073570274218193 0.008007112707393533 4.203681584734254
9.073958926669635 0.006510532403922554 4.202848116862466
9.074311957537068 0.005064095784162865 4.2020910397241
9.074617623403398 0.003651642307572366 4.201435537158393
9.074856105950092 0.002256148137598217 4.2009241096865875
9.074996113318168 0.0008601211736722501 4.200623862916826
9.0749898069241 -0.0005533779360106612 4.200637387022548
9.074765241918506 -0.0019983105474012056 4.201118968231149
9.074215279754851 -0.003480075300829554 4.202298365897124
9.073182266971722 -0.004982597015036455 4.204513668959522
9.071442595940656 -0.0064370162466779995 4.208244405525052
9.06873376496186 -0.007638807629138348 4.214053512305571
9.065037160895036 -0.008060400553125265 4.221980905309261
9.061356838661872 -0.006830840732583277 4.229873381807986
9.05965649654893 -0.003863739206961993 4.2335197772364275
9.060379874971332 -0.0009195147967876235 4.231968487203438
9.06037987497133 0.000919514796780584 4.2319684872034395
9.059656496548923 0.003863739206956661 4.233519777236433
9.061356838661865 0.006830840732581787 4.229873381807994
9.065037160895029 0.008060400553126078 4.221980905309267
9.068733764961856 0.007638807629139625 4.214053512305576
9.071442595940653 0.006437016246679141 4.208244405525055
9.07318226697172 0.0049825970150373915 4.204513668959524
9.074215279754851 0.003480075300830298 4.202298365897125
9.074765241918506 0.001998310547401796 4.20111896823115
9.0749898069241 0.0005533779360111274 4.200637387022548
9.074996113318168 -0.0008601211736718602 4.200623862916827
9.074856105950092 -0.002256148137597864 4.200924109686588
9.074617623403398 -0.003651642307572032 4.201435537158393
9.074311957537068 -0.00506409578416257 4.2020910397241
9.073958926669635 -0.006510532403922335 4.202848116862466
9.073570274218193 -0.008007112707393408 4.203681584734254
9.073151953016254 -0.009569008322876443 4.20457867744681
9.072705667625595 -0.011210378683633171 4.205535739555599
9.072229919903585 -0.012944370926498465 4.206555983837866
9.071720719932706 -0.014783105639764463 4.207647966699339
9.071172070450888 -0.016737631363393613 4.208824549310031
9.070576297843033 -0.01881784065324648 4.210102187790627
9.069924279830515 -0.02103234544001201 4.211500444930769
9.069205604919812 -0.023388311948893847 4.2130416482503685
9.06840868869922 -0.025891256912145534 4.214750640600496
9.067520865433007 -0.02854480789168235 4.216654583739076
9.066528468905224 -0.03135043158954689 4.218782784960798
9.065416913227635 -0.034307135156690566 4.221166523803921
9.064170781579113 -0.03741114644244935 4.223838861748041
9.062773927835533 -0.04065557894135197 4.226834424268087
9.061209592123554 -0.04403008398828457 4.230189153028429
9.059460526269065 -0.047520483472272786 4.233940036857805
9.057509119660093 -0.05110835703651077 4.238124841835475
9.055337512303911 -0.054770524280593404 4.242781868839437
9.052927683746148 -0.05847831247155114 4.2479497628588
9.050261523289555 -0.06219644164296966 4.253667362409153
9.047320943594425 -0.06588133662104143 4.259973455915668
9.044088242504754 -0.06947880846297504 4.266906005774405
9.040547172449003 -0.07292150496432395 4.274499855014976
9.03668543631229 -0.07612734542521013 4.282781374885336
9.032499282989054 -0.07900095792509018 4.291758609657332
9.028000187518707 -0.08144015890355712 4.301406951029522
9.023222318897579 -0.08334814619469995 4.311653123352818
9.01822828971627 -0.08464960844856062 4.322362853493364
9.01311046454835 -0.08530666926693962 4.333338064983925
9.007986297622958 -0.08532990802208815 4.344326876417274
9.002988272123737 -0.08478111962707556 4.355045176689236
8.998250932439456 -0.08376721864408336 4.365204434426983
8.993898320656804 -0.08242735210581588 4.374538640517169
8.990034636864348 -0.08091675685770952 4.3828243371487545

VECTORS Vvpm_AB float
-0.014933177740595204 0.03129030363205969 0.03202430300990571
-0.014359458987220089 0.031068332447604714 0.03079395917286665
-0.013705515315863517 0.030794478407233983 0.02939157244401909
-0.012978930635629706 0.030463822644592537 0.027833406568921474
-0.012188249673189157 0.030071897658099738 0.02613778577305252
-0.0113428337521512 0.02961500040060518 0.024324785479677667
-0.01045267160127138 0.029090460341870177 0.022415826586740212
-0.009528153293064431 0.028496845286794907 0.020433190676652616
-0.008579819899778612 0.027834093149973607 0.018399483151800882
-0.00761810420045333 0.02710356436300425 0.016337077179035105
-0.0066530784686468164 0.026308016250491815 0.014267572818706246
-0.00569422410488335 0.025451506684507262 0.012211302999854713
-0.004750235076428466 0.024539238933572648 0.01018691199544812
-0.003828863411579433 0.023577362483225863 0.00821102408381795
-0.0029368110221782017 0.022572745672334818 0.00629801156128993
-0.00207966845111691 0.021532735486603057 0.004459863385785627
-0.001261898136889988 0.020464918170105886 0.00270614928753872
-0.0004868576362466692 0.019376891905214327 0.001044069570233932
0.00024314303263826882 0.018276060086501036 -0.0005214219161664219
0.0009267562608244171 0.017169451007030215 -0.0019874352149634963
0.0015634901273945115 0.016063567317713485 -0.0033529153983458703
0.002153585660747084 0.014964266552398566 -0.004618379353382239
0.0026978826988700126 0.013876672402254089 -0.005785628118449711
0.0031976777827513194 0.012805115294919435 -0.0068574421346698266
0.0036545761916743336 0.011753100184275373 -0.00783726393457504
0.004070338811610644 0.0107232992783007 -0.008728869750317643
0.0044467230444454565 0.009717567731705812 -0.009536028342402561
0.00478531542710746 0.008736981145910708 -0.010262142050253041
0.005087352046753579 0.007781895145586267 -0.010909861671331449
0.005353521249730606 0.006852029517032499 -0.011480663369142195
0.005583741666483873 0.005946582702793788 -0.011974372646112171
0.0057769075096767075 0.005064387333315029 -0.012388618133645238
0.005930593119934524 0.004204124675040879 -0.012718197988425854
0.006040711256683792 0.0033646264392707633 -0.012954347094758262
0.006101127571159625 0.0025453077009011437 -0.01308391029926334
0.006103252854774883 0.0017467961364699062 -0.013088467984684271
0.006035676311978635 0.0009718507104996262 -0.012943549620993571
0.005883988497598412 0.00022669286583214208 -0.012618254053298151
0.0056311092802002775 -0.000477114272912761 -0.012075952821534737
0.0052587421110470555 -0.001120169386842634 -0.011277408850314996
0.004751076396127809 -0.001672359850957395 -0.010188716211365093
0.004102465947718744 -0.0020907888264500166 -0.008797766616036835
0.0033307646358161497 -0.002321887084768155 -0.007142847812095166
0.002494622626597015 -0.002314623903236938 -0.005349735486795673
0.0017016375361157353 -0.0020518342818645484 -0.0036491734723974214
0.0010802678639935121 -0.0015887686772503016 -0.0023166419103364624
0.0007103600002594583 -0.0010535432150987488 -0.0015233719366080012
0.000574920156824308 -0.0005819193861033272 -0.0012329202550488835
0.000590091687382845 -0.0002473714636650514 -0.0012654557073267184
0.0006691366870137277 -5.3523756016650916e-5 -0.0014349682560671042
0.0006691366870136465 5.35237560153568e-5 -0.0014349682560670224
0.0005900916873825072 0.0002473714636634724 -0.0012654557073263789
0.0005749201568235682 0.0005819193861015296 -0.001232920255048138
0.0007103600002582183 0.0010535432150969278 -0.0015233719366067543
0.0010802678639918347 0.0015887686772487193 -0.002316641910334775
0.0017016375361138464 0.0020518342818634057 -0.003649173472395521
0.002494622626595174 0.0023146239032362584 -0.005349735486793815
0.003330764635814514 0.0023218870847678316 -0.007142847812093507
0.004102465947717362 0.0020907888264499307 -0.008797766616035438
0.004751076396126675 0.0016723598509574462 -0.01018871621136394
0.0052587421110461266 0.0011201693868427578 -0.011277408850314051
0.005631109280199517 0.0004771142729129177 -0.01207595282153397
0.0058839884975977795 -0.0002266928658319779 -0.01261825405329753
0.006035676311978109 -0.0009718507104994621 -0.012943549620993049
0.0061032528547744404 -0.0017467961364697458 -0.013088467984683853
0.006101127571159249 -0.002545307700900992 -0.013083910299262983
0.0060407112566834755 -0.0033646264392706276 -0.012954347094757977
0.005930593119934253 -0.00420412467504076 -0.012718197988425623
0.005776907509676472 -0.005064387333314934 -0.012388618133645047
0.005583741666483663 -0.005946582702793714 -0.01197437264611199
0.005353521249730417 -0.006852029517032441 -0.011480663369142042
0.005087352046753398 -0.007781895145586231 -0.0109098616713313
0.004785315427107286 -0.008736981145910682 -0.010262142050252885
0.004446723044445291 -0.009717567731705803 -0.009536028342402395
0.0040703388116104765 -0.010723299278300702 -0.008728869750317452
0.003654576191674162 -0.01175310018427539 -0.007837263934574835
0.0031976777827511385 -0.012805115294919471 -0.006857442134669597
0.0026978826988698257 -0.013876672402254125 -0.005785628118449459
0.0021535856607468964 -0.014964266552398587 -0.004618379353381976
0.0015634901273943154 -0.016063567317713506 -0.0033529153983455798
0.0009267562608242235 -0.01716945100703025 -0.0019874352149632023
0.00024314303263807443 -0.01827606008650106 -0.0005214219161661209
-0.0004868576362468642 -0.019376891905214345 0.0010440695702342395
-0.0012618981368901808 -0.020464918170105907 0.0027061492875390296
-0.0020796684511171035 -0.021532735486603075 0.004459863385785938
-0.002936811022178401 -0.022572745672334835 0.00629801156129025
-0.0038288634115796307 -0.023577362483225894 0.00821102408381828
-0.004750235076428659 -0.024539238933572637 0.010186911995448432
-0.005694224104883564 -0.02545150668450728 0.012211302999855077
-0.006653078468647033 -0.026308016250491822 0.014267572818706626
-0.00761810420045356 -0.02710356436300427 0.01633707717903552
-0.008579819899778823 -0.0278340931499736 0.018399483151801246
-0.009528153293064645 -0.028496845286794914 0.020433190676652998
-0.010452671601271604 -0.02909046034187016 0.022415826586740625
-0.011342833752151409 -0.029615000400605145 0.02432478547967804
-0.012188249673189357 -0.030071897658099693 0.026137785773052875
-0.01297893063562994 -0.030463822644592513 0.027833406568921873
-0.013705515315863734 -0.030794478407233917 0.029391572444019458
-0.014359458987220297 -0.031068332447604645 0.03079395917286703
-0.014933177740595435 -0.031290303632059646 0.032024303009906135
-0.014933177740595204 0.03129030363205969 0.03202430300990571
-0.014359458987220089 0.031068332447604714 0.03079395917286665
-0.013705515315863517 0.030794478407233983 0.02939157244401909
-0.012978930635629706 0.030463822644592537 0.027833406568921474
-0.012188249673189157 0.030071897658099738 0.02613778577305252
-0.0113428337521512 0.02961500040060518 0.024324785479677667
-0.01045267160127138 0.029090460341870177 0.022415826586740212
-0.009528153293064431 0.028496845286794907 0.020433190676652616
-0.008579819899778612 0.027834093149973607 0.018399483151800882
-0.00761810420045333 0.02710356436300425 0.016337077179035105
-0.0066530784686468164 0.026308016250491815 0.014267572818706246
-0.00569422410488335 0.025451506684507262 0.012211302999854713
-0.004750235076428466 0.024539238933572648 0.01018691199544812
-0.003828863411579433 0.023577362483225863 0.00821102408381795
-0.0029368110221782017 0.022572745672334818 0.00629801156128993
-0.00207966845111691 0.021532735486603057 0.004459863385785627
-0.001261898136889988 0.020464918170105886 0.00270614928753872
-0.0004868576362466692 0.019376891905214327 0.001044069570233932
0.00024314303263826882 0.018276060086501036 -0.0005214219161664219
0.0009267562608244171 0.017169451007030215 -0.0019874352149634963
0.0015634901273945115 0.016063567317713485 -0.0033529153983458703
0.002153585660747084 0.014964266552398566 -0.004618379353382239
0.0026978826988700126 0.013876672402254089 -0.005785628118449711
0.0031976777827513194 0.012805115294919435 -0.0068574421346698266
0.0036545761916743336 0.011753100184275373 -0.00783726393457504
0.004070338811610644 0.0107232992783007 -0.008728869750317643
0.0044467230444454565 0.009717567731705812 -0.009536028342402561
0.00478531542710746 0.008736981145910708 -0.010262142050253041
0.005087352046753579 0.007781895145586267 -0.010909861671331449
0.005353521249730606 0.006852029517032499 -0.011480663369142195
0.005583741666483873 0.005946582702793788 -0.011974372646112171
0.0057769075096767075 0.005064387333315029 -0.012388618133645238
0.005930593119934524 0.004204124675040879 -0.012718197988425854
0.006040711256683792 0.0033646264392707633 -0.012954347094758262
0.006101127571159625 0.0025453077009011437 -0.01308391029926334
0.006103252854774883 0.0017467961364699062 -0.013088467984684271
0.006035676311978635 0.0009718507104996262 -0.012943549620993571
0.005883988497598412 0.00022669286583214208 -0.012618254053298151
0.0056311092802002775 -0.000477114272912761 -0.012075952821534737
0.0052587421110470555 -0.001120169386842634 -0.011277408850314996
0.004751076396127809 -0.001672359850957395 -0.010188716211365093
0.004102465947718744 -0.0020907888264500166 -0.008797766616036835
0.0033307646358161497 -0.002321887084768155 -0.007142847812095166
0.002494622626597015 -0.002314623903236938 -0.005349735486795673
0.0017016375361157353 -0.0020518342818645484 -0.0036491734723974214
0.0010802678639935121 -0.0015887686772503016 -0.0023166419103364624
0.0007103600002594583 -0.0010535432150987488 -0.0015233719366080012
0.000574920156824308 -0.0005819193861033272 -0.0012329202550488835
0.000590091687382845 -0.0002473714636650514 -0.0012654557073267184
0.0006691366870137277 -5.3523756016650916e-5 -0.0014349682560671042
0.0006691366870136465 5.35237560153568e-5 -0.0014349682560670224
0.0005900916873825072 0.0002473714636634724 -0.0012654557073263789
0.0005749201568235682 0.0005819193861015296 -0.001232920255048138
0.0007103600002582183 0.0010535432150969278 -0.0015233719366067543
0.0010802678639918347 0.0015887686772487193 -0.002316641910334775
0.0017016375361138464 0.0020518342818634057 -0.003649173472395521
0.002494622626595174 0.0023146239032362584 -0.005349735486793815
0.003330764635814514 0.0023218870847678316 -0.007142847812093507
0.004102465947717362 0.0020907888264499307 -0.008797766616035438
0.004751076396126675 0.0016723598509574462 -0.01018871621136394
0.0052587421110461266 0.0011201693868427578 -0.011277408850314051
0.005631109280199517 0.0004771142729129177 -0.01207595282153397
0.0058839884975977795 -0.0002266928658319779 -0.01261825405329753
0.006035676311978109 -0.0009718507104994621 -0.012943549620993049
0.0061032528547744404 -0.0017467961364697458 -0.013088467984683853
0.006101127571159249 -0.002545307700900992 -0.013083910299262983
0.0060407112566834755 -0.0033646264392706276 -0.012954347094757977
0.005930593119934253 -0.00420412467504076 -0.012718197988425623
0.005776907509676472 -0.005064387333314934 -0.012388618133645047
0.005583741666483663 -0.005946582702793714 -0.01197437264611199
0.005353521249730417 -0.006852029517032441 -0.011480663369142042
0.005087352046753398 -0.007781895145586231 -0.0109098616713313
0.004785315427107286 -0.008736981145910682 -0.010262142050252885
0.004446723044445291 -0.009717567731705803 -0.009536028342402395
0.0040703388116104765 -0.010723299278300702 -0.008728869750317452
0.003654576191674162 -0.01175310018427539 -0.007837263934574835
0.0031976777827511385 -0.012805115294919471 -0.006857442134669597
0.0026978826988698257 -0.013876672402254125 -0.005785628118449459
0.0021535856607468964 -0.014964266552398587 -0.004618379353381976
0.0015634901273943154 -0.016063567317713506 -0.0033529153983455798
0.0009267562608242235 -0.01716945100703025 -0.0019874352149632023
0.00024314303263807443 -0.01827606008650106 -0.0005214219161661209
-0.0004868576362468642 -0.019376891905214345 0.0010440695702342395
-0.0012618981368901808 -0.020464918170105907 0.0027061492875390296
-0.0020796684511171035 -0.021532735486603075 0.004459863385785938
-0.002936811022178401 -0.022572745672334835 0.00629801156129025
-0.0038288634115796307 -0.023577362483225894 0.00821102408381828
-0.004750235076428659 -0.024539238933572637 0.010186911995448432
-0.005694224104883564 -0.02545150668450728 0.012211302999855077
-0.006653078468647033 -0.026308016250491822 0.014267572818706626
-0.00761810420045356 -0.02710356436300427 0.01633707717903552
-0.008579819899778823 -0.0278340931499736 0.018399483151801246
-0.009528153293064645 -0.028496845286794914 0.020433190676652998
-0.010452671601271604 -0.02909046034187016 0.022415826586740625
-0.011342833752151409 -0.029615000400605145 0.02432478547967804
-0.012188249673189357 -0.030071897658099693 0.026137785773052875
-0.01297893063562994 -0.030463822644592513 0.027833406568921873
-0.013705515315863734 -0.030794478407233917 0.029391572444019458
-0.014359458987220297 -0.031068332447604645 0.03079395917286703
-0.014933177740595435 -0.031290303632059646 0.032024303009906135