# vtk DataFile Version 4.0
[MyVLM domain - lattices] 
ASCII
DATASET UNSTRUCTURED_GRID
POINTS 302 float
1.2444999999999997 -1.2445 0.0
1.2399745454545452 -1.2399745454545454 0.0
1.2346178849721705 -1.2346178849721707 0.0
1.2284300185528754 -1.2284300185528756 0.0
1.2214109461966602 -1.2214109461966605 0.0
1.2135606679035247 -1.213560667903525 0.0
1.2048791836734691 -1.2048791836734694 0.0
1.1953664935064932 -1.1953664935064934 0.0
1.1850225974025972 -1.1850225974025974 0.0
1.1738474953617808 -1.173847495361781 0.0
1.1618411873840442 -1.1618411873840444 0.0
1.1490036734693874 -1.1490036734693876 0.0
1.1353349536178106 -1.1353349536178108 0.0
1.1208350278293133 -1.1208350278293135 0.0
1.1055038961038959 -1.105503896103896 0.0
1.0893415584415582 -1.0893415584415584 0.0
1.0723480148423004 -1.0723480148423006 0.0
1.054523265306122 -1.0545232653061223 0.0
1.0358673098330238 -1.035867309833024 0.0
1.0163801484230053 -1.0163801484230055 0.0
0.9960617810760664 -0.9960617810760668 0.0
0.9749122077922076 -0.9749122077922077 0.0
0.9529314285714284 -0.9529314285714284 0.0
0.9301194434137288 -0.930119443413729 0.0
0.9064762523191091 -0.9064762523191096 0.0
0.8820018552875695 -0.8820018552875695 0.0
0.8566962523191093 -0.8566962523191094 0.0
0.8305594434137288 -0.8305594434137291 0.0
0.8035914285714284 -0.8035914285714285 0.0
0.7757922077922076 -0.7757922077922077 0.0
0.7471617810760666 -0.7471617810760667 0.0
0.7177001484230053 -0.7177001484230054 0.0
0.6874073098330239 -0.687407309833024 0.0
0.6562832653061222 -0.6562832653061225 0.0
0.6243280148423004 -0.6243280148423005 0.0
0.5915415584415582 -0.5915415584415583 0.0
0.5579238961038958 -0.5579238961038959 0.0
0.5234750278293133 -0.5234750278293134 0.0
0.48819495361781057 -0.48819495361781057 0.0
0.4520836734693877 -0.4520836734693877 0.0
0.4151411873840445 -0.4151411873840446 0.0
0.37736749536178105 -0.37736749536178116 0.0
0.3387625974025974 -0.3387625974025974 0.0
0.2993264935064933 -0.29932649350649343 0.0
0.25905918367346925 -0.25905918367346925 0.0
0.21796066790352486 -0.21796066790352486 0.0
0.17603094619666027 -0.1760309461966605 0.0
0.13327001855287546 -0.13327001855287568 0.0
0.08967788497217066 -0.08967788497217066 0.0
0.045254545454545436 -0.045254545454545436 0.0
0.0 0.0 0.0
0.04525454545454545 0.04525454545454546 0.0
0.08967788497217066 0.08967788497217068 0.0
0.13327001855287568 0.1332700185528757 0.0
0.17603094619666046 0.1760309461966605 0.0
0.21796066790352497 0.21796066790352508 0.0
0.2590591836734693 0.25905918367346936 0.0
0.29932649350649343 0.2993264935064935 0.0
0.3387625974025973 0.33876259740259734 0.0
0.37736749536178094 0.377367495361781 0.0
0.41514118738404443 0.4151411873840445 0.0
0.45208367346938766 0.4520836734693878 0.0
0.48819495361781057 0.4881949536178107 0.0
0.5234750278293133 0.5234750278293134 0.0
0.5579238961038959 0.557923896103896 0.0
0.5915415584415582 0.5915415584415583 0.0
0.6243280148423003 0.6243280148423004 0.0
0.6562832653061222 0.6562832653061225 0.0
0.687407309833024 0.6874073098330241 0.0
0.7177001484230054 0.7177001484230056 0.0
0.7471617810760667 0.7471617810760669 0.0
0.7757922077922076 0.7757922077922077 0.0
0.8035914285714284 0.8035914285714285 0.0
0.8305594434137288 0.830559443413729 0.0
0.8566962523191093 0.8566962523191094 0.0
0.8820018552875692 0.8820018552875695 0.0
0.9064762523191091 0.9064762523191093 0.0
0.9301194434137288 0.9301194434137292 0.0
0.9529314285714284 0.9529314285714284 0.0
0.9749122077922076 0.9749122077922077 0.0
0.9960617810760666 0.9960617810760668 0.0
1.0163801484230053 1.0163801484230055 0.0
1.0358673098330238 1.035867309833024 0.0
1.054523265306122 1.0545232653061223 0.0
1.0723480148423001 1.0723480148423004 0.0
1.0893415584415582 1.0893415584415584 0.0
1.1055038961038959 1.105503896103896 0.0
1.120835027829313 1.1208350278293133 0.0
1.1353349536178106 1.1353349536178106 0.0
1.1490036734693874 1.1490036734693876 0.0
1.1618411873840444 1.1618411873840446 0.0
1.1738474953617808 1.173847495361781 0.0
1.1850225974025972 1.1850225974025972 0.0
1.1953664935064932 1.1953664935064934 0.0
1.2048791836734691 1.2048791836734694 0.0
1.2135606679035245 1.2135606679035247 0.0
1.22141094619666 1.2214109461966602 0.0
1.2284300185528754 1.2284300185528756 0.0
1.2346178849721703 1.2346178849721705 0.0
1.2399745454545452 1.2399745454545454 0.0
1.2444999999999997 1.2445 0.0
1.7422999999999997 -1.2445 0.0
1.7377745454545452 -1.2399745454545454 0.0
1.7324178849721703 -1.2346178849721707 0.0
1.7262300185528754 -1.2284300185528756 0.0
1.7192109461966603 -1.2214109461966605 0.0
1.7113606679035245 -1.213560667903525 0.0
1.7026791836734692 -1.2048791836734694 0.0
1.6931664935064934 -1.1953664935064934 0.0
1.6828225974025972 -1.1850225974025974 0.0
1.6716474953617806 -1.173847495361781 0.0
1.6596411873840444 -1.1618411873840444 0.0
1.6468036734693878 -1.1490036734693876 0.0
1.6331349536178106 -1.1353349536178108 0.0
1.6186350278293133 -1.1208350278293135 0.0
1.603303896103896 -1.105503896103896 0.0
1.5871415584415582 -1.0893415584415584 0.0
1.5701480148423004 -1.0723480148423006 0.0
1.552323265306122 -1.0545232653061223 0.0
1.5336673098330238 -1.035867309833024 0.0
1.5141801484230053 -1.0163801484230055 0.0
1.4938617810760666 -0.9960617810760668 0.0
1.4727122077922075 -0.9749122077922077 0.0
1.4507314285714283 -0.9529314285714284 0.0
1.4279194434137288 -0.930119443413729 0.0
1.4042762523191092 -0.9064762523191096 0.0
1.3798018552875693 -0.8820018552875695 0.0
1.3544962523191093 -0.8566962523191094 0.0
1.328359443413729 -0.8305594434137291 0.0
1.3013914285714283 -0.8035914285714285 0.0
1.2735922077922077 -0.7757922077922077 0.0
1.2449617810760665 -0.7471617810760667 0.0
1.2155001484230055 -0.7177001484230054 0.0
1.1852073098330238 -0.687407309833024 0.0
1.1540832653061224 -0.6562832653061225 0.0
1.1221280148423003 -0.6243280148423005 0.0
1.0893415584415582 -0.5915415584415583 0.0
1.055723896103896 -0.5579238961038959 0.0
1.0212750278293132 -0.5234750278293134 0.0
0.9859949536178108 -0.48819495361781057 0.0
0.9498836734693876 -0.4520836734693877 0.0
0.9129411873840445 -0.4151411873840446 0.0
0.875167495361781 -0.37736749536178116 0.0
0.8365625974025973 -0.3387625974025974 0.0
0.7971264935064933 -0.29932649350649343 0.0
0.7568591836734693 -0.25905918367346925 0.0
0.7157606679035249 -0.21796066790352486 0.0
0.6738309461966603 -0.1760309461966605 0.0
0.6310700185528755 -0.13327001855287568 0.0
0.5874778849721707 -0.08967788497217066 0.0
0.5430545454545455 -0.045254545454545436 0.0
0.4978 0.0 0.0
0.5430545454545455 0.04525454545454546 0.0
0.5874778849721707 0.08967788497217068 0.0
0.6310700185528757 0.1332700185528757 0.0
0.6738309461966605 0.1760309461966605 0.0
0.715760667903525 0.21796066790352508 0.0
0.7568591836734693 0.25905918367346936 0.0
0.7971264935064934 0.2993264935064935 0.0
0.8365625974025973 0.33876259740259734 0.0
0.875167495361781 0.377367495361781 0.0
0.9129411873840445 0.4151411873840445 0.0
0.9498836734693876 0.4520836734693878 0.0
0.9859949536178105 0.4881949536178107 0.0
1.0212750278293132 0.5234750278293134 0.0
1.055723896103896 0.557923896103896 0.0
1.0893415584415582 0.5915415584415583 0.0
1.1221280148423003 0.6243280148423004 0.0
1.1540832653061224 0.6562832653061225 0.0
1.185207309833024 0.6874073098330241 0.0
1.2155001484230055 0.7177001484230056 0.0
1.2449617810760667 0.7471617810760669 0.0
1.2735922077922077 0.7757922077922077 0.0
1.3013914285714283 0.8035914285714285 0.0
1.3283594434137287 0.830559443413729 0.0
1.3544962523191093 0.8566962523191094 0.0
1.3798018552875693 0.8820018552875695 0.0
1.4042762523191092 0.9064762523191093 0.0
1.427919443413729 0.9301194434137292 0.0
1.4507314285714283 0.9529314285714284 0.0
1.4727122077922075 0.9749122077922077 0.0
1.4938617810760666 0.9960617810760668 0.0
1.5141801484230053 1.0163801484230055 0.0
1.5336673098330238 1.035867309833024 0.0
1.552323265306122 1.0545232653061223 0.0
1.5701480148423002 1.0723480148423004 0.0
1.5871415584415582 1.0893415584415584 0.0
1.603303896103896 1.105503896103896 0.0
1.6186350278293131 1.1208350278293133 0.0
1.6331349536178106 1.1353349536178106 0.0
1.6468036734693874 1.1490036734693876 0.0
1.6596411873840444 1.1618411873840446 0.0
1.6716474953617806 1.173847495361781 0.0
1.6828225974025972 1.1850225974025972 0.0
1.6931664935064934 1.1953664935064934 0.0
1.7026791836734692 1.2048791836734694 0.0
1.7113606679035245 1.2135606679035247 0.0
1.71921094619666 1.2214109461966602 0.0
1.7262300185528754 1.2284300185528756 0.0
1.7324178849721703 1.2346178849721705 0.0
1.7377745454545452 1.2399745454545454 0.0
1.7422999999999997 1.2445 0.0
1.6155872727272724 -1.2422372727272726 0.0
1.6106462152133578 -1.237296215213358 0.0
1.604873951762523 -1.2315239517625232 0.0
1.598270482374768 -1.224920482374768 0.0
1.5908358070500925 -1.2174858070500927 0.0
1.582569925788497 -1.2092199257884972 0.0
1.5734728385899812 -1.2001228385899814 0.0
1.5635445454545454 -1.1901945454545453 0.0
1.552785046382189 -1.1794350463821892 0.0
1.5411943413729126 -1.1678443413729127 0.0
1.5287724304267158 -1.155422430426716 0.0
1.5155193135435991 -1.142169313543599 0.0
1.501434990723562 -1.1280849907235622 0.0
1.4865194619666047 -1.1131694619666048 0.0
1.4707727272727271 -1.0974227272727273 0.0
1.4541947866419294 -1.0808447866419293 0.0
1.4367856400742112 -1.0634356400742113 0.0
1.418545287569573 -1.0451952875695731 0.0
1.3994737291280146 -1.0261237291280147 0.0
1.379570964749536 -1.0062209647495362 0.0
1.358836994434137 -0.9854869944341371 0.0
1.337271818181818 -0.9639218181818181 0.0
1.3148754359925787 -0.9415254359925787 0.0
1.291647847866419 -0.9182978478664192 0.0
1.2675890538033394 -0.8942390538033393 0.0
1.2426990538033393 -0.8693490538033395 0.0
1.2169778478664193 -0.8436278478664192 0.0
1.1904254359925788 -0.8170754359925788 0.0
1.163041818181818 -0.7896918181818181 0.0
1.1348269944341371 -0.7614769944341371 0.0
1.105780964749536 -0.7324309647495362 0.0
1.0759037291280147 -0.7025537291280148 0.0
1.0451952875695731 -0.6718452875695733 0.0
1.0136556400742114 -0.6403056400742114 0.0
0.9812847866419293 -0.6079347866419293 0.0
0.9480827272727271 -0.5747327272727272 0.0
0.9140494619666047 -0.5406994619666048 0.0
0.8791849907235622 -0.5058349907235622 0.0
0.8434893135435992 -0.47013931354359917 0.0
0.8069624304267162 -0.43361243042671627 0.0
0.7696043413729128 -0.3962543413729128 0.0
0.7314150463821893 -0.3580650463821894 0.0
0.6923945454545455 -0.3190445454545454 0.0
0.6525428385899814 -0.27919283858998134 0.0
0.6118599257884971 -0.23850992578849706 0.0
0.5703458070500929 -0.19699580705009279 0.0
0.5280004823747682 -0.15465048237476808 0.0
0.4848239517625232 -0.11147395176252317 0.0
0.4408162152133581 -0.06746621521335805 0.0
0.39597727272727273 -0.022627272727272718 0.0
0.39597727272727273 0.02262727272727273 0.0
0.4408162152133581 0.06746621521335806 0.0
0.4848239517625232 0.11147395176252319 0.0
0.528000482374768 0.15465048237476808 0.0
0.5703458070500929 0.19699580705009276 0.0
0.6118599257884971 0.23850992578849717 0.0
0.6525428385899814 0.2791928385899814 0.0
0.6923945454545455 0.3190445454545454 0.0
0.7314150463821891 0.3580650463821891 0.0
0.7696043413729128 0.39625434137291277 0.0
0.8069624304267162 0.43361243042671616 0.0
0.8434893135435992 0.4701393135435992 0.0
0.8791849907235619 0.5058349907235621 0.0
0.9140494619666046 0.5406994619666047 0.0
0.9480827272727271 0.5747327272727272 0.0
0.9812847866419294 0.6079347866419295 0.0
1.0136556400742114 0.6403056400742114 0.0
1.0451952875695731 0.6718452875695732 0.0
1.0759037291280147 0.7025537291280147 0.0
1.105780964749536 0.7324309647495362 0.0
1.1348269944341371 0.7614769944341373 0.0
1.163041818181818 0.789691818181818 0.0
1.1904254359925786 0.8170754359925786 0.0
1.216977847866419 0.843627847866419 0.0
1.2426990538033393 0.8693490538033394 0.0
1.2675890538033392 0.8942390538033393 0.0
1.291647847866419 0.9182978478664192 0.0
1.3148754359925787 0.9415254359925787 0.0
1.3372718181818182 0.9639218181818181 0.0
1.3588369944341372 0.9854869944341373 0.0
1.379570964749536 1.0062209647495362 0.0
1.3994737291280148 1.0261237291280147 0.0
1.418545287569573 1.0451952875695731 0.0
1.4367856400742112 1.0634356400742113 0.0
1.4541947866419291 1.0808447866419293 0.0
1.470772727272727 1.097422727272727 0.0
1.4865194619666047 1.1131694619666048 0.0
1.501434990723562 1.128084990723562 0.0
1.5155193135435991 1.1421693135435993 0.0
1.528772430426716 1.1554224304267162 0.0
1.5411943413729128 1.1678443413729127 0.0
1.5527850463821888 1.179435046382189 0.0
1.5635445454545451 1.1901945454545453 0.0
1.573472838589981 1.2001228385899811 0.0
1.5825699257884969 1.209219925788497 0.0
1.5908358070500925 1.2174858070500927 0.0
1.5982704823747678 1.224920482374768 0.0
1.604873951762523 1.2315239517625232 0.0
1.6106462152133578 1.237296215213358 0.0
1.6155872727272724 1.2422372727272726 0.0

CELLS 200 700
4 0 101 102 1
4 1 102 103 2
4 2 103 104 3
4 3 104 105 4
4 4 105 106 5
4 5 106 107 6
4 6 107 108 7
4 7 108 109 8
4 8 109 110 9
4 9 110 111 10
4 10 111 112 11
4 11 112 113 12
4 12 113 114 13
4 13 114 115 14
4 14 115 116 15
4 15 116 117 16
4 16 117 118 17
4 17 118 119 18
4 18 119 120 19
4 19 120 121 20
4 20 121 122 21
4 21 122 123 22
4 22 123 124 23
4 23 124 125 24
4 24 125 126 25
4 25 126 127 26
4 26 127 128 27
4 27 128 129 28
4 28 129 130 29
4 29 130 131 30
4 30 131 132 31
4 31 132 133 32
4 32 133 134 33
4 33 134 135 34
4 34 135 136 35
4 35 136 137 36
4 36 137 138 37
4 37 138 139 38
4 38 139 140 39
4 39 140 141 40
4 40 141 142 41
4 41 142 143 42
4 42 143 144 43
4 43 144 145 44
4 44 145 146 45
4 45 146 147 46
4 46 147 148 47
4 47 148 149 48
4 48 149 150 49
4 49 150 151 50
4 50 151 152 51
4 51 152 153 52
4 52 153 154 53
4 53 154 155 54
4 54 155 156 55
4 55 156 157 56
4 56 157 158 57
4 57 158 159 58
4 58 159 160 59
4 59 160 161 60
4 60 161 162 61
4 61 162 163 62
4 62 163 164 63
4 63 164 165 64
4 64 165 166 65
4 65 166 167 66
4 66 167 168 67
4 67 168 169 68
4 68 169 170 69
4 69 170 171 70
4 70 171 172 71
4 71 172 173 72
4 72 173 174 73
4 73 174 175 74
4 74 175 176 75
4 75 176 177 76
4 76 177 178 77
4 77 178 179 78
4 78 179 180 79
4 79 180 181 80
4 80 181 182 81
4 81 182 183 82
4 82 183 184 83
4 83 184 185 84
4 84 185 186 85
4 85 186 187 86
4 86 187 188 87
4 87 188 189 88
4 88 189 190 89
4 89 190 191 90
4 90 191 192 91
4 91 192 193 92
4 92 193 194 93
4 93 194 195 94
4 94 195 196 95
4 95 196 197 96
4 96 197 198 97
4 97 198 199 98
4 98 199 200 99
4 99 200 201 100
1 202
1 203
1 204
1 205
1 206
1 207
1 208
1 209
1 210
1 211
1 212
1 213
1 214
1 215
1 216
1 217
1 218
1 219
1 220
1 221
1 222
1 223
1 224
1 225
1 226
1 227
1 228
1 229
1 230
1 231
1 232
1 233
1 234
1 235
1 236
1 237
1 238
1 239
1 240
1 241
1 242
1 243
1 244
1 245
1 246
1 247
1 248
1 249
1 250
1 251
1 252
1 253
1 254
1 255
1 256
1 257
1 258
1 259
1 260
1 261
1 262
1 263
1 264
1 265
1 266
1 267
1 268
1 269
1 270
1 271
1 272
1 273
1 274
1 275
1 276
1 277
1 278
1 279
1 280
1 281
1 282
1 283
1 284
1 285
1 286
1 287
1 288
1 289
1 290
1 291
1 292
1 293
1 294
1 295
1 296
1 297
1 298
1 299
1 300
1 301

CELL_TYPES 200
9
9
9
9
9
9
9
9
9
9
9
9
9
9
9
9
9
9
9
9
9
9
9
9
9
9
9
9
9
9
9
9
9
9
9
9
9
9
9
9
9
9
9
9
9
9
9
9
9
9
9
9
9
9
9
9
9
9
9
9
9
9
9
9
9
9
9
9
9
9
9
9
9
9
9
9
9
9
9
9
9
9
9
9
9
9
9
9
9
9
9
9
9
9
9
9
9
9
9
9
1
1
1
1
1
1
1
1
1
1
1
1
1
1
1
1
1
1
1
1
1
1
1
1
1
1
1
1
1
1
1
1
1
1
1
1
1
1
1
1
1
1
1
1
1
1
1
1
1
1
1
1
1
1
1
1
1
1
1
1
1
1
1
1
1
1
1
1
1
1
1
1
1
1
1
1
1
1
1
1
1
1
1
1
1
1
1
1
1
1
1
1
1
1
1
1
1
1
1
1

CELL_DATA 200

VECTORS Vvpm float
0.10614347457885742 0.15078462660312653 -0.42667245864868164
0.10374143719673157 0.15021587908267975 -0.4074544608592987
0.10381244122982025 0.15023253858089447 -0.4080386757850647
0.10105076432228088 0.1497393101453781 -0.38383278250694275
0.10086837410926819 0.14971652626991272 -0.38210687041282654
0.10078223049640656 0.14970633387565613 -0.3812851309776306
0.10002845525741577 0.14962193369865417 -0.3741118609905243
0.10506683588027954 0.1505247950553894 -0.4183675944805145
0.1078873723745346 0.15126881003379822 -0.4399114251136779
0.111737921833992 0.15244412422180176 -0.466949850320816
0.11660219728946686 0.15409180521965027 -0.4981115460395813
0.12190861999988556 0.15602515637874603 -0.5294630527496338
0.1188402771949768 0.15489237010478973 -0.5116288065910339
0.11397507786750793 0.1531819850206375 -0.48162987828254705
0.11509352922439575 0.1535644233226776 -0.48874920606613165
0.11374612152576447 0.1531025618314743 -0.48013949394226074
0.11078274250030518 0.15213336050510406 -0.46042701601982117
0.11693836748600006 0.15420661866664886 -0.5001861453056335
0.11777348816394806 0.15450194478034973 -0.5052317976951599
0.11351150274276732 0.1530206948518753 -0.47864538431167597
0.11226432025432587 0.15260647237300873 -0.470457136631012
0.11298654973506927 0.15284283459186554 -0.4751976132392883
0.11369246244430543 0.15307696163654327 -0.47976657748222346
0.11437994241714478 0.15330810844898224 -0.48416101932525635
0.10951164364814758 0.15173257887363434 -0.45155796408653265
0.11005015671253204 0.15189586579799652 -0.45531764626502985
0.11057622730731964 0.1520581692457199 -0.45894595980644226
0.11513501405715941 0.1535624861717224 -0.4889157712459564
0.11569546163082123 0.15375570952892303 -0.49241533875465393
0.11413462460041045 0.1532180905342102 -0.4825424551963806
0.11765883862972258 0.15445378422737122 -0.5045604705810547
0.11338867247104646 0.15296681225299835 -0.4778252840042115
0.11067791283130644 0.1520843505859375 -0.45973435044288635
0.1111339181661606 0.15222737193107605 -0.4628329575061798
0.1115821897983551 0.15236954391002655 -0.4658516049385071
0.11202237010002136 0.15251092612743378 -0.4687893986701966
0.11245359480381013 0.15265125036239624 -0.4716459214687348
0.11287653446197511 0.15279006958007812 -0.4744225740432739
0.11329062283039094 0.15292701125144958 -0.47711870074272156
0.11369574069976807 0.15306231379508972 -0.4797359704971314
0.11409066617488861 0.15319573879241943 -0.48227342963218695
0.12121607363224031 0.15574084222316742 -0.5254315733909607
0.12165071070194244 0.1559024453163147 -0.5279191732406616
0.1169106960296631 0.15417137742042542 -0.49992930889129644
0.11728470027446747 0.15430346131324768 -0.5022009611129761
0.11765313148498535 0.1544344276189804 -0.5044269561767578
0.11801622807979584 0.15456384420394897 -0.5066059231758118
0.11837303638458253 0.15469197928905487 -0.5087392330169678
0.11800906062126158 0.1545621007680893 -0.5065690279006958
0.1219867020845413 0.15603205561637878 -0.5298895239830017
0.1219867914915085 0.15603210031986237 -0.5298894643783569
0.11800801753997801 0.15456312894821167 -0.5065677165985107
0.11837196350097658 0.15469297766685486 -0.5087382197380066
0.11801519989967346 0.1545647531747818 -0.5066048502922058
0.11765210330486298 0.15443557500839233 -0.5044257044792175
0.11728370189666747 0.15430456399917603 -0.5022000074386597
0.11690983176231384 0.1541721075773239 -0.49992817640304565
0.12165130674839021 0.155904158949852 -0.5279176235198975
0.12121652066707611 0.15574271976947784 -0.5254302024841309
0.11409001052379608 0.15319858491420746 -0.4822706878185273
0.11369501054286957 0.15306556224822998 -0.4797330498695373
0.11329007148742676 0.15292991697788239 -0.47711575031280523
0.1128758192062378 0.15279321372509003 -0.47441965341567993
0.11245287954807283 0.15265437960624695 -0.4716431796550751
0.11202175915241241 0.15251398086547852 -0.4687864780426026
0.11158153414726257 0.1523725986480713 -0.4658488929271698
0.11113321781158449 0.15223027765750885 -0.462830364704132
0.11067742109298706 0.1520872563123703 -0.4597316086292267
0.11338876187801361 0.15296991169452667 -0.47782275080680847
0.11766016483306885 0.15445704758167267 -0.5045576691627502
0.11413532495498656 0.15321964025497437 -0.48254111409187317
0.1156955361366272 0.15375684201717377 -0.49241408705711365
0.11513520777225494 0.15356364846229553 -0.4889146685600281
0.1105755865573883 0.15206019580364227 -0.4589436650276184
0.1100494861602783 0.15189814567565918 -0.45531538128852844
0.10951098799705505 0.15173444151878357 -0.45155593752861023
0.11438053846359252 0.15331079065799713 -0.48415863513946533
0.11369308829307556 0.15307950973510742 -0.4797646403312683
0.11298717558383943 0.15284541249275208 -0.47519543766975403
0.11226497590541841 0.15260927379131317 -0.47045499086380005
0.11351147294044495 0.1530226618051529 -0.478643536567688
0.11777345836162567 0.1545044481754303 -0.5052293539047241
0.11693835258483887 0.15420904755592346 -0.5001838207244873
0.11078295111656188 0.15213543176651 -0.4604251384735108
0.11374710500240326 0.15310493111610413 -0.4801377058029174
0.11509495973587036 0.1535668820142746 -0.4887472093105316
0.11397588253021239 0.1531849205493927 -0.48162734508514404
0.11884106695652008 0.15489499270915985 -0.5116266012191772
0.12191033363342285 0.1560279279947281 -0.5294608473777771
0.11660389602184296 0.15409430861473083 -0.4981097579002381
0.11173853278160095 0.15244662761688232 -0.4669478237628937
0.10788714885711669 0.15127034485340118 -0.43990993499755854
0.10506592690944673 0.15052594244480133 -0.41836634278297424
0.10002675652503967 0.1496223509311676 -0.37411028146743774
0.10077983140945435 0.14970606565475464 -0.38128402829170227
0.10086488723754883 0.14971642196178436 -0.3821048438549042
0.10104699432849884 0.14973928034305573 -0.38383057713508606
0.10380770266056062 0.15023273229599 -0.40803614258766174
0.10373681783676147 0.15021580457687378 -0.40745195746421814
0.10613809525966644 0.15078473091125488 -0.42666956782341003
0.10614347457885742 0.15078462660312653 -0.42667245864868164
0.10374143719673157 0.15021587908267975 -0.4074544608592987
0.10381244122982025 0.15023253858089447 -0.4080386757850647
0.10105076432228088 0.1497393101453781 -0.38383278250694275
0.10086837410926819 0.14971652626991272 -0.38210687041282654
0.10078223049640656 0.14970633387565613 -0.3812851309776306
0.10002845525741577 0.14962193369865417 -0.3741118609905243
0.10506683588027954 0.1505247950553894 -0.4183675944805145
0.1078873723745346 0.15126881003379822 -0.4399114251136779
0.111737921833992 0.15244412422180176 -0.466949850320816
0.11660219728946686 0.15409180521965027 -0.4981115460395813
0.12190861999988556 0.15602515637874603 -0.5294630527496338
0.1188402771949768 0.15489237010478973 -0.5116288065910339
0.11397507786750793 0.1531819850206375 -0.48162987828254705
0.11509352922439575 0.1535644233226776 -0.48874920606613165
0.11374612152576447 0.1531025618314743 -0.48013949394226074
0.11078274250030518 0.15213336050510406 -0.46042701601982117
0.11693836748600006 0.15420661866664886 -0.5001861453056335
0.11777348816394806 0.15450194478034973 -0.5052317976951599
0.11351150274276732 0.1530206948518753 -0.47864538431167597
0.11226432025432587 0.15260647237300873 -0.470457136631012
0.11298654973506927 0.15284283459186554 -0.4751976132392883
0.11369246244430543 0.15307696163654327 -0.47976657748222346
0.11437994241714478 0.15330810844898224 -0.48416101932525635
0.10951164364814758 0.15173257887363434 -0.45155796408653265
0.11005015671253204 0.15189586579799652 -0.45531764626502985
0.11057622730731964 0.1520581692457199 -0.45894595980644226
0.11513501405715941 0.1535624861717224 -0.4889157712459564
0.11569546163082123 0.15375570952892303 -0.49241533875465393
0.11413462460041045 0.1532180905342102 -0.4825424551963806
0.11765883862972258 0.15445378422737122 -0.5045604705810547
0.11338867247104646 0.15296681225299835 -0.4778252840042115
0.11067791283130644 0.1520843505859375 -0.45973435044288635
0.1111339181661606 0.15222737193107605 -0.4628329575061798
0.1115821897983551 0.15236954391002655 -0.4658516049385071
0.11202237010002136 0.15251092612743378 -0.4687893986701966
0.11245359480381013 0.15265125036239624 -0.4716459214687348
0.11287653446197511 0.15279006958007812 -0.4744225740432739
0.11329062283039094 0.15292701125144958 -0.47711870074272156
0.11369574069976807 0.15306231379508972 -0.4797359704971314
0.11409066617488861 0.15319573879241943 -0.48227342963218695
0.12121607363224031 0.15574084222316742 -0.5254315733909607
0.12165071070194244 0.1559024453163147 -0.5279191732406616
0.1169106960296631 0.15417137742042542 -0.49992930889129644
0.11728470027446747 0.15430346131324768 -0.5022009611129761
0.11765313148498535 0.1544344276189804 -0.5044269561767578
0.11801622807979584 0.15456384420394897 -0.5066059231758118
0.11837303638458253 0.15469197928905487 -0.5087392330169678
0.11800906062126158 0.1545621007680893 -0.5065690279006958
0.1219867020845413 0.15603205561637878 -0.5298895239830017
0.1219867914915085 0.15603210031986237 -0.5298894643783569
0.11800801753997801 0.15456312894821167 -0.5065677165985107
0.11837196350097658 0.15469297766685486 -0.5087382197380066
0.11801519989967346 0.1545647531747818 -0.5066048502922058
0.11765210330486298 0.15443557500839233 -0.5044257044792175
0.11728370189666747 0.15430456399917603 -0.5022000074386597
0.11690983176231384 0.1541721075773239 -0.49992817640304565
0.12165130674839021 0.155904158949852 -0.5279176235198975
0.12121652066707611 0.15574271976947784 -0.5254302024841309
0.11409001052379608 0.15319858491420746 -0.4822706878185273
0.11369501054286957 0.15306556224822998 -0.4797330498695373
0.11329007148742676 0.15292991697788239 -0.47711575031280523
0.1128758192062378 0.15279321372509003 -0.47441965341567993
0.11245287954807283 0.15265437960624695 -0.4716431796550751
0.11202175915241241 0.15251398086547852 -0.4687864780426026
0.11158153414726257 0.1523725986480713 -0.4658488929271698
0.11113321781158449 0.15223027765750885 -0.462830364704132
0.11067742109298706 0.1520872563123703 -0.4597316086292267
0.11338876187801361 0.15296991169452667 -0.47782275080680847
0.11766016483306885 0.15445704758167267 -0.5045576691627502
0.11413532495498656 0.15321964025497437 -0.48254111409187317
0.1156955361366272 0.15375684201717377 -0.49241408705711365
0.11513520777225494 0.15356364846229553 -0.4889146685600281
0.1105755865573883 0.15206019580364227 -0.4589436650276184
0.1100494861602783 0.15189814567565918 -0.45531538128852844
0.10951098799705505 0.15173444151878357 -0.45155593752861023
0.11438053846359252 0.15331079065799713 -0.48415863513946533
0.11369308829307556 0.15307950973510742 -0.4797646403312683
0.11298717558383943 0.15284541249275208 -0.47519543766975403
0.11226497590541841 0.15260927379131317 -0.47045499086380005
0.11351147294044495 0.1530226618051529 -0.478643536567688
0.11777345836162567 0.1545044481754303 -0.5052293539047241
0.11693835258483887 0.15420904755592346 -0.5001838207244873
0.11078295111656188 0.15213543176651 -0.4604251384735108
0.11374710500240326 0.15310493111610413 -0.4801377058029174
0.11509495973587036 0.1535668820142746 -0.4887472093105316
0.11397588253021239 0.1531849205493927 -0.48162734508514404
0.11884106695652008 0.15489499270915985 -0.5116266012191772
0.12191033363342285 0.1560279279947281 -0.5294608473777771
0.11660389602184296 0.15409430861473083 -0.4981097579002381
0.11173853278160095 0.15244662761688232 -0.4669478237628937
0.10788714885711669 0.15127034485340118 -0.43990993499755854
0.10506592690944673 0.15052594244480133 -0.41836634278297424
0.10002675652503967 0.1496223509311676 -0.37411028146743774
0.10077983140945435 0.14970606565475464 -0.38128402829170227
0.10086488723754883 0.14971642196178436 -0.3821048438549042
0.10104699432849884 0.14973928034305573 -0.38383057713508606
0.10380770266056062 0.15023273229599 -0.40803614258766174
0.10373681783676147 0.15021580457687378 -0.40745195746421814
0.10613809525966644 0.15078473091125488 -0.42666956782341003

VECTORS Vvpm_BBp float
0.09950119256973267 0.1495644450187683 -0.3685844838619232
0.10458564758300781 0.15039324760437012 -0.4142531156539917
0.10797545313835144 0.15127578377723694 -0.44040435552597046
0.11231289803981781 0.15261195600032806 -0.4706307351589203
0.1134682148694992 0.152995303273201 -0.4782249331474304
0.12068091332912445 0.1555536985397339 -0.5223293304443359
0.12149813771247865 0.15585806965827942 -0.5270368456840515
0.12813223898410797 0.15839044749736786 -0.5635612607002258
0.13172808289527893 0.1597995162010193 -0.5823062658309937
0.13322851061820984 0.16039243340492249 -0.5899468064308167
0.13107524812221527 0.15953819453716278 -0.5789362192153931
0.13359716534614563 0.16053834557533264 -0.5918164253234863
0.1315130740404129 0.15971066057682037 -0.581200122833252
0.1302213966846466 0.15919890999794006 -0.5745116472244263
0.12721006572246552 0.15802176296710968 -0.5586122870445251
0.12801040709018707 0.1583305448293686 -0.562872052192688
0.13038550317287445 0.15925946831703186 -0.5753551125526428
0.12984611093997955 0.1590462327003479 -0.572542667388916
0.1305301934480667 0.15931326150894165 -0.5760922431945801
0.1257288157939911 0.15744103491306305 -0.5505810976028442
0.12496694922447205 0.15714672207832336 -0.5464023947715759
0.12558697164058685 0.15738292038440704 -0.5497848987579346
0.12453359365463257 0.15697921812534332 -0.5440071821212769
0.12223094701766968 0.1561059057712555 -0.5311180353164673
0.12277376651763916 0.15630944073200226 -0.5341824889183044
0.1294187605381012 0.1588664948940277 -0.5702711343765259
0.1284407079219818 0.1584818810224533 -0.5651068687438965
0.1276935189962387 0.15818893909454346 -0.5611288547515869
0.1281767338514328 0.1583760529756546 -0.5636948347091675
0.1224910318851471 0.15619473159313202 -0.5325703620910645
0.12299181520938873 0.15638206899166107 -0.5353832244873047
0.12348476052284241 0.15656717121601105 -0.5381361842155457
0.11680819094181061 0.154108464717865 -0.4991426467895508
0.11723759770393372 0.15426024794578552 -0.5017576217651367
0.11766350269317627 0.15441182255744934 -0.5043349266052246
0.11808514595031738 0.15456275641918182 -0.5068731904029846
0.11850330233573915 0.15471336245536804 -0.5093728303909302
0.11891748011112215 0.1548629254102707 -0.5118332505226135
0.11676494777202608 0.15408802032470703 -0.4988344013690948
0.11720876395702362 0.1542455554008484 -0.5015466809272766
0.11549220979213715 0.1536388099193573 -0.49093449115753174
0.12487748265266418 0.15708234906196594 -0.5458332300186157
0.12524612247943878 0.15722358226776123 -0.5478558540344238
0.12561005353927612 0.15736322104930878 -0.5498443245887756
0.12597014009952545 0.15750108659267426 -0.5517991781234741
0.12632553279399872 0.15763726830482483 -0.5537205934524536
0.12667599320411682 0.15777218341827393 -0.5556091070175171
0.12176677584648131 0.15589718520641327 -0.5283768177032471
0.1261121779680252 0.1575561910867691 -0.5525684356689453
0.1392585039138794 0.1627562940120697 -0.6196369528770447
0.12611211836338043 0.1575571745634079 -0.5525675415992737
0.12176808714866638 0.1558990329504013 -0.5283756256103516
0.12667588889598846 0.15777309238910675 -0.5556085109710693
0.1263256072998047 0.15763816237449646 -0.5537198781967163
0.12597014009952545 0.1575019806623459 -0.551798403263092
0.12561018764972687 0.1573639065027237 -0.5498435497283936
0.12524616718292236 0.1572243571281433 -0.5478551387786865
0.12487730383872986 0.1570831537246704 -0.5458322763442993
0.11549142003059387 0.15364059805870056 -0.49093261361122137
0.11720739305019379 0.15424683690071106 -0.5015450119972229
0.11676362156867981 0.15408924221992493 -0.49883273243904114
0.11891664564609528 0.15486454963684082 -0.511831521987915
0.11850257217884062 0.1547147035598755 -0.5093712210655212
0.11808434128761292 0.15456442534923553 -0.5068716406822205
0.11766280233860016 0.15441317856311798 -0.50433349609375
0.11723686754703522 0.15426141023635864 -0.5017560720443726
0.11680744588375093 0.15410970151424408 -0.4991410374641419
0.12348547577857971 0.156568706035614 -0.5381345152854919
0.12299238145351411 0.1563837081193924 -0.5353816747665405
0.12249159812927246 0.15619659423828125 -0.5325688719749451
0.12817643582820892 0.15837706625461578 -0.5636937022209167
0.12769320607185364 0.15818966925144196 -0.5611281394958496
0.1284399926662445 0.15848252177238464 -0.5651060938835144
0.1294184774160385 0.15886715054512024 -0.5702703595161438
0.1227729469537735 0.15631042420864105 -0.5341809988021851
0.12223008275032042 0.15610714256763458 -0.5311166644096375
0.12453356385231018 0.15698060393333435 -0.5440058708190918
0.12558694183826447 0.15738436579704285 -0.5497834086418152
0.12496687471866608 0.15714839100837708 -0.5464012026786804
0.1257290244102478 0.1574425995349884 -0.5505797863006592
0.13053016364574432 0.1593143194913864 -0.5760911703109741
0.12984606623649597 0.1590472161769867 -0.5725415945053101
0.1303856074810028 0.15926052629947662 -0.5753542184829712
0.12801086902618408 0.15833228826522827 -0.5628702044487
0.12721042335033417 0.15802355110645294 -0.5586106777191162
0.13022153079509735 0.1592002511024475 -0.5745103359222412
0.1315135657787323 0.15971191227436066 -0.581199049949646
0.13359813392162323 0.1605396270751953 -0.5918150544166565
0.13107627630233765 0.15953989326953888 -0.5789344310760498
0.13322938978672028 0.1603940725326538 -0.5899455547332764
0.13172845542430878 0.15980097651481628 -0.5823050737380981
0.12813197076320648 0.15839143097400665 -0.5635601878166199
0.12149684131145477 0.15585900843143463 -0.5270353555679321
0.12067896127700804 0.15555401146411896 -0.5223284959793091
0.11346545815467834 0.15299560129642487 -0.47822344303131104
0.11230924725532533 0.1526116281747818 -0.47062975168228144
0.10797162353992462 0.15127474069595337 -0.44040328264236445
0.10458084940910341 0.1503918319940567 -0.41425207257270813
0.09949597716331482 0.14956270158290863 -0.3685828149318695
0.0995497852563858 0.14958031475543976 -0.36911705136299133
0.09950119256973267 0.1495644450187683 -0.3685844838619232
0.10458564758300781 0.15039324760437012 -0.4142531156539917
0.10797545313835144 0.15127578377723694 -0.44040435552597046
0.11231289803981781 0.15261195600032806 -0.4706307351589203
0.1134682148694992 0.152995303273201 -0.4782249331474304
0.12068091332912445 0.1555536985397339 -0.5223293304443359
0.12149813771247865 0.15585806965827942 -0.5270368456840515
0.12813223898410797 0.15839044749736786 -0.5635612607002258
0.13172808289527893 0.1597995162010193 -0.5823062658309937
0.13322851061820984 0.16039243340492249 -0.5899468064308167
0.13107524812221527 0.15953819453716278 -0.5789362192153931
0.13359716534614563 0.16053834557533264 -0.5918164253234863
0.1315130740404129 0.15971066057682037 -0.581200122833252
0.1302213966846466 0.15919890999794006 -0.5745116472244263
0.12721006572246552 0.15802176296710968 -0.5586122870445251
0.12801040709018707 0.1583305448293686 -0.562872052192688
0.13038550317287445 0.15925946831703186 -0.5753551125526428
0.12984611093997955 0.1590462327003479 -0.572542667388916
0.1305301934480667 0.15931326150894165 -0.5760922431945801
0.1257288157939911 0.15744103491306305 -0.5505810976028442
0.12496694922447205 0.15714672207832336 -0.5464023947715759
0.12558697164058685 0.15738292038440704 -0.5497848987579346
0.12453359365463257 0.15697921812534332 -0.5440071821212769
0.12223094701766968 0.1561059057712555 -0.5311180353164673
0.12277376651763916 0.15630944073200226 -0.5341824889183044
0.1294187605381012 0.1588664948940277 -0.5702711343765259
0.1284407079219818 0.1584818810224533 -0.5651068687438965
0.1276935189962387 0.15818893909454346 -0.5611288547515869
0.1281767338514328 0.1583760529756546 -0.5636948347091675
0.1224910318851471 0.15619473159313202 -0.5325703620910645
0.12299181520938873 0.15638206899166107 -0.5353832244873047
0.12348476052284241 0.15656717121601105 -0.5381361842155457
0.11680819094181061 0.154108464717865 -0.4991426467895508
0.11723759770393372 0.15426024794578552 -0.5017576217651367
0.11766350269317627 0.15441182255744934 -0.5043349266052246
0.11808514595031738 0.15456275641918182 -0.5068731904029846
0.11850330233573915 0.15471336245536804 -0.5093728303909302
0.11891748011112215 0.1548629254102707 -0.5118332505226135
0.11676494777202608 0.15408802032470703 -0.4988344013690948
0.11720876395702362 0.1542455554008484 -0.5015466809272766
0.11549220979213715 0.1536388099193573 -0.49093449115753174
0.12487748265266418 0.15708234906196594 -0.5458332300186157
0.12524612247943878 0.15722358226776123 -0.5478558540344238
0.12561005353927612 0.15736322104930878 -0.5498443245887756
0.12597014009952545 0.15750108659267426 -0.5517991781234741
0.12632553279399872 0.15763726830482483 -0.5537205934524536
0.12667599320411682 0.15777218341827393 -0.5556091070175171
0.12176677584648131 0.15589718520641327 -0.5283768177032471
0.1261121779680252 0.1575561910867691 -0.5525684356689453
0.1392585039138794 0.1627562940120697 -0.6196369528770447
0.12611211836338043 0.1575571745634079 -0.5525675415992737
0.12176808714866638 0.1558990329504013 -0.5283756256103516
0.12667588889598846 0.15777309238910675 -0.5556085109710693
0.1263256072998047 0.15763816237449646 -0.5537198781967163
0.12597014009952545 0.1575019806623459 -0.551798403263092
0.12561018764972687 0.1573639065027237 -0.5498435497283936
0.12524616718292236 0.1572243571281433 -0.5478551387786865
0.12487730383872986 0.1570831537246704 -0.5458322763442993
0.11549142003059387 0.15364059805870056 -0.49093261361122137
0.11720739305019379 0.15424683690071106 -0.5015450119972229
0.11676362156867981 0.15408924221992493 -0.49883273243904114
0.11891664564609528 0.15486454963684082 -0.511831521987915
0.11850257217884062 0.1547147035598755 -0.5093712210655212
0.11808434128761292 0.15456442534923553 -0.5068716406822205
0.11766280233860016 0.15441317856311798 -0.50433349609375
0.11723686754703522 0.15426141023635864 -0.5017560720443726
0.11680744588375093 0.15410970151424408 -0.4991410374641419
0.12348547577857971 0.156568706035614 -0.5381345152854919
0.12299238145351411 0.1563837081193924 -0.5353816747665405
0.12249159812927246 0.15619659423828125 -0.5325688719749451
0.12817643582820892 0.15837706625461578 -0.5636937022209167
0.12769320607185364 0.15818966925144196 -0.5611281394958496
0.1284399926662445 0.15848252177238464 -0.5651060938835144
0.1294184774160385 0.15886715054512024 -0.5702703595161438
0.1227729469537735 0.15631042420864105 -0.5341809988021851
0.12223008275032042 0.15610714256763458 -0.5311166644096375
0.12453356385231018 0.15698060393333435 -0.5440058708190918
0.12558694183826447 0.15738436579704285 -0.5497834086418152
0.12496687471866608 0.15714839100837708 -0.5464012026786804
0.1257290244102478 0.1574425995349884 -0.5505797863006592
0.13053016364574432 0.1593143194913864 -0.5760911703109741
0.12984606623649597 0.1590472161769867 -0.5725415945053101
0.1303856074810028 0.15926052629947662 -0.5753542184829712
0.12801086902618408 0.15833228826522827 -0.5628702044487
0.12721042335033417 0.15802355110645294 -0.5586106777191162
0.13022153079509735 0.1592002511024475 -0.5745103359222412
0.1315135657787323 0.15971191227436066 -0.581199049949646
0.13359813392162323 0.1605396270751953 -0.5918150544166565
0.13107627630233765 0.15953989326953888 -0.5789344310760498
0.13322938978672028 0.1603940725326538 -0.5899455547332764
0.13172845542430878 0.15980097651481628 -0.5823050737380981
0.12813197076320648 0.15839143097400665 -0.5635601878166199
0.12149684131145477 0.15585900843143463 -0.5270353555679321
0.12067896127700804 0.15555401146411896 -0.5223284959793091
0.11346545815467834 0.15299560129642487 -0.47822344303131104
0.11230924725532533 0.1526116281747818 -0.47062975168228144
0.10797162353992462 0.15127474069595337 -0.44040328264236445
0.10458084940910341 0.1503918319940567 -0.41425207257270813
0.09949597716331482 0.14956270158290863 -0.3685828149318695
0.0995497852563858 0.14958031475543976 -0.36911705136299133

SCALARS Gamma float
LOOKUP_TABLE default
0.43455562407112236
0.6689688142219412
0.8616688501428155
1.0360510808600876
1.199667240942559
1.3560166251422725
1.5067743565146159
1.6523635086396893
1.7937951809067756
1.9311090841516898
2.0643645795811123
2.1936568813863326
2.3194155705532546
2.440870376271201
2.556942340635437
2.6678875362684886
2.7732960062314684
2.87199937898846
2.965355144142005
3.053392024321599
3.1350868164516044
3.2103360953472744
3.279449337890723
3.3426668108422666
3.400654883333244
3.4519715565197533
3.497224411322698
3.536285563769775
3.5706709664566376
3.6003805114763963
3.6246340526932426
3.6453314335664464
3.661086093355562
3.671290987946954
3.676468622036452
3.6767542887130547
3.6721896874395816
3.6627555705311723
3.648377516716322
3.628923747637821
3.6041588321754867
3.57309166221068
3.5384544265510565
3.4998853261543856
3.454955140575812
3.4043924778440795
3.348783251335795
3.2894479236194627
3.229375305436702
3.1752327156040776
3.1752327971839875
3.2293755850590773
3.289448338464837
3.3487837961596965
3.4043931457081325
3.454955910564256
3.499886214023294
3.538455442414012
3.573092793418935
3.604160120727069
3.628925143889367
3.648378990156937
3.6627570970470784
3.672191245731419
3.676755873122776
3.6764702095742123
3.671292570028548
3.6610876671906176
3.645332981383843
3.6246355712253546
3.600381955779599
3.570672371454435
3.536286945689351
3.4972258060619827
3.4519729381383333
3.4006562416614
3.3426681523881077
3.2794506453083008
3.21033737748484
3.135088066599101
3.0533932367525427
2.9653563304103234
2.8720005236857062
2.7732970999193327
2.667888583593862
2.5569433469193537
2.440871343112428
2.319416483141988
2.193657738527835
2.064365375215124
1.9311098230289867
1.7937958554914786
1.652364122491976
1.5067749156497137
1.3560171255904936
1.1996676918587958
1.0360514753843717
0.8616691830704702
0.6689690750104221
0.43455579604547623
0.43455562407112236
0.6689688142219412
0.8616688501428155
1.0360510808600876
1.199667240942559
1.3560166251422725
1.5067743565146159
1.6523635086396893
1.7937951809067756
1.9311090841516898
2.0643645795811123
2.1936568813863326
2.3194155705532546
2.440870376271201
2.556942340635437
2.6678875362684886
2.7732960062314684
2.87199937898846
2.965355144142005
3.053392024321599
3.1350868164516044
3.2103360953472744
3.279449337890723
3.3426668108422666
3.400654883333244
3.4519715565197533
3.497224411322698
3.536285563769775
3.5706709664566376
3.6003805114763963
3.6246340526932426
3.6453314335664464
3.661086093355562
3.671290987946954
3.676468622036452
3.6767542887130547
3.6721896874395816
3.6627555705311723
3.648377516716322
3.628923747637821
3.6041588321754867
3.57309166221068
3.5384544265510565
3.4998853261543856
3.454955140575812
3.4043924778440795
3.348783251335795
3.2894479236194627
3.229375305436702
3.1752327156040776
3.1752327971839875
3.2293755850590773
3.289448338464837
3.3487837961596965
3.4043931457081325
3.454955910564256
3.499886214023294
3.538455442414012
3.573092793418935
3.604160120727069
3.628925143889367
3.648378990156937
3.6627570970470784
3.672191245731419
3.676755873122776
3.6764702095742123
3.671292570028548
3.6610876671906176
3.645332981383843
3.6246355712253546
3.600381955779599
3.570672371454435
3.536286945689351
3.4972258060619827
3.4519729381383333
3.4006562416614
3.3426681523881077
3.2794506453083008
3.21033737748484
3.135088066599101
3.0533932367525427
2.9653563304103234
2.8720005236857062
2.7732970999193327
2.667888583593862
2.5569433469193537
2.440871343112428
2.319416483141988
2.193657738527835
2.064365375215124
1.9311098230289867
1.7937958554914786
1.652364122491976
1.5067749156497137
1.3560171255904936
1.1996676918587958
1.0360514753843717
0.8616691830704702
0.6689690750104221
0.43455579604547623

VECTORS Vvpm_ApA float
0.09955503046512604 0.14958253502845764 -0.3691185712814331
0.09950119256973267 0.1495644450187683 -0.3685844838619232
0.10458564758300781 0.15039324760437012 -0.4142531156539917
0.10797545313835144 0.15127578377723694 -0.44040435552597046
0.11231289803981781 0.15261195600032806 -0.4706307351589203
0.1134682148694992 0.152995303273201 -0.4782249331474304
0.12068091332912445 0.1555536985397339 -0.5223293304443359
0.12149813771247865 0.15585806965827942 -0.5270368456840515
0.12813223898410797 0.15839044749736786 -0.5635612607002258
0.13172808289527893 0.1597995162010193 -0.5823062658309937
0.13322851061820984 0.16039243340492249 -0.5899468064308167
0.13107524812221527 0.15953819453716278 -0.5789362192153931
0.13359716534614563 0.16053834557533264 -0.5918164253234863
0.1315130740404129 0.15971066057682037 -0.581200122833252
0.1302213966846466 0.15919890999794006 -0.5745116472244263
0.12721006572246552 0.15802176296710968 -0.5586122870445251
0.12801040709018707 0.1583305448293686 -0.562872052192688
0.13038550317287445 0.15925946831703186 -0.5753551125526428
0.12984611093997955 0.1590462327003479 -0.572542667388916
0.1305301934480667 0.15931326150894165 -0.5760922431945801
0.1257288157939911 0.15744103491306305 -0.5505810976028442
0.12496694922447205 0.15714672207832336 -0.5464023947715759
0.12558697164058685 0.15738292038440704 -0.5497848987579346
0.12453359365463257 0.15697921812534332 -0.5440071821212769
0.12223094701766968 0.1561059057712555 -0.5311180353164673
0.12277376651763916 0.15630944073200226 -0.5341824889183044
0.1294187605381012 0.1588664948940277 -0.5702711343765259
0.1284407079219818 0.1584818810224533 -0.5651068687438965
0.1276935189962387 0.15818893909454346 -0.5611288547515869
0.1281767338514328 0.1583760529756546 -0.5636948347091675
0.1224910318851471 0.15619473159313202 -0.5325703620910645
0.12299181520938873 0.15638206899166107 -0.5353832244873047
0.12348476052284241 0.15656717121601105 -0.5381361842155457
0.11680819094181061 0.154108464717865 -0.4991426467895508
0.11723759770393372 0.15426024794578552 -0.5017576217651367
0.11766350269317627 0.15441182255744934 -0.5043349266052246
0.11808514595031738 0.15456275641918182 -0.5068731904029846
0.11850330233573915 0.15471336245536804 -0.5093728303909302
0.11891748011112215 0.1548629254102707 -0.5118332505226135
0.11676494777202608 0.15408802032470703 -0.4988344013690948
0.11720876395702362 0.1542455554008484 -0.5015466809272766
0.11549220979213715 0.1536388099193573 -0.49093449115753174
0.12487748265266418 0.15708234906196594 -0.5458332300186157
0.12524612247943878 0.15722358226776123 -0.5478558540344238
0.12561005353927612 0.15736322104930878 -0.5498443245887756
0.12597014009952545 0.15750108659267426 -0.5517991781234741
0.12632553279399872 0.15763726830482483 -0.5537205934524536
0.12667599320411682 0.15777218341827393 -0.5556091070175171
0.12176677584648131 0.15589718520641327 -0.5283768177032471
0.1261121779680252 0.1575561910867691 -0.5525684356689453
0.1392585039138794 0.1627562940120697 -0.6196369528770447
0.12611211836338043 0.1575571745634079 -0.5525675415992737
0.12176808714866638 0.1558990329504013 -0.5283756256103516
0.12667588889598846 0.15777309238910675 -0.5556085109710693
0.1263256072998047 0.15763816237449646 -0.5537198781967163
0.12597014009952545 0.1575019806623459 -0.551798403263092
0.12561018764972687 0.1573639065027237 -0.5498435497283936
0.12524616718292236 0.1572243571281433 -0.5478551387786865
0.12487730383872986 0.1570831537246704 -0.5458322763442993
0.11549142003059387 0.15364059805870056 -0.49093261361122137
0.11720739305019379 0.15424683690071106 -0.5015450119972229
0.11676362156867981 0.15408924221992493 -0.49883273243904114
0.11891664564609528 0.15486454963684082 -0.511831521987915
0.11850257217884062 0.1547147035598755 -0.5093712210655212
0.11808434128761292 0.15456442534923553 -0.5068716406822205
0.11766280233860016 0.15441317856311798 -0.50433349609375
0.11723686754703522 0.15426141023635864 -0.5017560720443726
0.11680744588375093 0.15410970151424408 -0.4991410374641419
0.12348547577857971 0.156568706035614 -0.5381345152854919
0.12299238145351411 0.1563837081193924 -0.5353816747665405
0.12249159812927246 0.15619659423828125 -0.5325688719749451
0.12817643582820892 0.15837706625461578 -0.5636937022209167
0.12769320607185364 0.15818966925144196 -0.5611281394958496
0.1284399926662445 0.15848252177238464 -0.5651060938835144
0.1294184774160385 0.15886715054512024 -0.5702703595161438
0.1227729469537735 0.15631042420864105 -0.5341809988021851
0.12223008275032042 0.15610714256763458 -0.5311166644096375
0.12453356385231018 0.15698060393333435 -0.5440058708190918
0.12558694183826447 0.15738436579704285 -0.5497834086418152
0.12496687471866608 0.15714839100837708 -0.5464012026786804
0.1257290244102478 0.1574425995349884 -0.5505797863006592
0.13053016364574432 0.1593143194913864 -0.5760911703109741
0.12984606623649597 0.1590472161769867 -0.5725415945053101
0.1303856074810028 0.15926052629947662 -0.5753542184829712
0.12801086902618408 0.15833228826522827 -0.5628702044487
0.12721042335033417 0.15802355110645294 -0.5586106777191162
0.13022153079509735 0.1592002511024475 -0.5745103359222412
0.1315135657787323 0.15971191227436066 -0.581199049949646
0.13359813392162323 0.1605396270751953 -0.5918150544166565
0.13107627630233765 0.15953989326953888 -0.5789344310760498
0.13322938978672028 0.1603940725326538 -0.5899455547332764
0.13172845542430878 0.15980097651481628 -0.5823050737380981
0.12813197076320648 0.15839143097400665 -0.5635601878166199
0.12149684131145477 0.15585900843143463 -0.5270353555679321
0.12067896127700804 0.15555401146411896 -0.5223284959793091
0.11346545815467834 0.15299560129642487 -0.47822344303131104
0.11230924725532533 0.1526116281747818 -0.47062975168228144
0.10797162353992462 0.15127474069595337 -0.44040328264236445
0.1045808643102646 0.1503918319940567 -0.41425204277038574
0.09949590265750885 0.14956265687942505 -0.3685827851295471
0.09955503046512604 0.14958253502845764 -0.3691185712814331
0.09950119256973267 0.1495644450187683 -0.3685844838619232
0.10458564758300781 0.15039324760437012 -0.4142531156539917
0.10797545313835144 0.15127578377723694 -0.44040435552597046
0.11231289803981781 0.15261195600032806 -0.4706307351589203
0.1134682148694992 0.152995303273201 -0.4782249331474304
0.12068091332912445 0.1555536985397339 -0.5223293304443359
0.12149813771247865 0.15585806965827942 -0.5270368456840515
0.12813223898410797 0.15839044749736786 -0.5635612607002258
0.13172808289527893 0.1597995162010193 -0.5823062658309937
0.13322851061820984 0.16039243340492249 -0.5899468064308167
0.13107524812221527 0.15953819453716278 -0.5789362192153931
0.13359716534614563 0.16053834557533264 -0.5918164253234863
0.1315130740404129 0.15971066057682037 -0.581200122833252
0.1302213966846466 0.15919890999794006 -0.5745116472244263
0.12721006572246552 0.15802176296710968 -0.5586122870445251
0.12801040709018707 0.1583305448293686 -0.562872052192688
0.13038550317287445 0.15925946831703186 -0.5753551125526428
0.12984611093997955 0.1590462327003479 -0.572542667388916
0.1305301934480667 0.15931326150894165 -0.5760922431945801
0.1257288157939911 0.15744103491306305 -0.5505810976028442
0.12496694922447205 0.15714672207832336 -0.5464023947715759
0.12558697164058685 0.15738292038440704 -0.5497848987579346
0.12453359365463257 0.15697921812534332 -0.5440071821212769
0.12223094701766968 0.1561059057712555 -0.5311180353164673
0.12277376651763916 0.15630944073200226 -0.5341824889183044
0.1294187605381012 0.1588664948940277 -0.5702711343765259
0.1284407079219818 0.1584818810224533 -0.5651068687438965
0.1276935189962387 0.15818893909454346 -0.5611288547515869
0.1281767338514328 0.1583760529756546 -0.5636948347091675
0.1224910318851471 0.15619473159313202 -0.5325703620910645
0.12299181520938873 0.15638206899166107 -0.5353832244873047
0.12348476052284241 0.15656717121601105 -0.5381361842155457
0.11680819094181061 0.154108464717865 -0.4991426467895508
0.11723759770393372 0.15426024794578552 -0.5017576217651367
0.11766350269317627 0.15441182255744934 -0.5043349266052246
0.11808514595031738 0.15456275641918182 -0.5068731904029846
0.11850330233573915 0.15471336245536804 -0.5093728303909302
0.11891748011112215 0.1548629254102707 -0.5118332505226135
0.11676494777202608 0.15408802032470703 -0.4988344013690948
0.11720876395702362 0.1542455554008484 -0.5015466809272766
0.11549220979213715 0.1536388099193573 -0.49093449115753174
0.12487748265266418 0.15708234906196594 -0.5458332300186157
0.12524612247943878 0.15722358226776123 -0.5478558540344238
0.12561005353927612 0.15736322104930878 -0.5498443245887756
0.12597014009952545 0.15750108659267426 -0.5517991781234741
0.12632553279399872 0.15763726830482483 -0.5537205934524536
0.12667599320411682 0.15777218341827393 -0.5556091070175171
0.12176677584648131 0.15589718520641327 -0.5283768177032471
0.1261121779680252 0.1575561910867691 -0.5525684356689453
0.1392585039138794 0.1627562940120697 -0.6196369528770447
0.12611211836338043 0.1575571745634079 -0.5525675415992737
0.12176808714866638 0.1558990329504013 -0.5283756256103516
0.12667588889598846 0.15777309238910675 -0.5556085109710693
0.1263256072998047 0.15763816237449646 -0.5537198781967163
0.12597014009952545 0.1575019806623459 -0.551798403263092
0.12561018764972687 0.1573639065027237 -0.5498435497283936
0.12524616718292236 0.1572243571281433 -0.5478551387786865
0.12487730383872986 0.1570831537246704 -0.5458322763442993
0.11549142003059387 0.15364059805870056 -0.49093261361122137
0.11720739305019379 0.15424683690071106 -0.5015450119972229
0.11676362156867981 0.15408924221992493 -0.49883273243904114
0.11891664564609528 0.15486454963684082 -0.511831521987915
0.11850257217884062 0.1547147035598755 -0.5093712210655212
0.11808434128761292 0.15456442534923553 -0.5068716406822205
0.11766280233860016 0.15441317856311798 -0.50433349609375
0.11723686754703522 0.15426141023635864 -0.5017560720443726
0.11680744588375093 0.15410970151424408 -0.4991410374641419
0.12348547577857971 0.156568706035614 -0.5381345152854919
0.12299238145351411 0.1563837081193924 -0.5353816747665405
0.12249159812927246 0.15619659423828125 -0.5325688719749451
0.12817643582820892 0.15837706625461578 -0.5636937022209167
0.12769320607185364 0.15818966925144196 -0.5611281394958496
0.1284399926662445 0.15848252177238464 -0.5651060938835144
0.1294184774160385 0.15886715054512024 -0.5702703595161438
0.1227729469537735 0.15631042420864105 -0.5341809988021851
0.12223008275032042 0.15610714256763458 -0.5311166644096375
0.12453356385231018 0.15698060393333435 -0.5440058708190918
0.12558694183826447 0.15738436579704285 -0.5497834086418152
0.12496687471866608 0.15714839100837708 -0.5464012026786804
0.1257290244102478 0.1574425995349884 -0.5505797863006592
0.13053016364574432 0.1593143194913864 -0.5760911703109741
0.12984606623649597 0.1590472161769867 -0.5725415945053101
0.1303856074810028 0.15926052629947662 -0.5753542184829712
0.12801086902618408 0.15833228826522827 -0.5628702044487
0.12721042335033417 0.15802355110645294 -0.5586106777191162
0.13022153079509735 0.1592002511024475 -0.5745103359222412
0.1315135657787323 0.15971191227436066 -0.581199049949646
0.13359813392162323 0.1605396270751953 -0.5918150544166565
0.13107627630233765 0.15953989326953888 -0.5789344310760498
0.13322938978672028 0.1603940725326538 -0.5899455547332764
0.13172845542430878 0.15980097651481628 -0.5823050737380981
0.12813197076320648 0.15839143097400665 -0.5635601878166199
0.12149684131145477 0.15585900843143463 -0.5270353555679321
0.12067896127700804 0.15555401146411896 -0.5223284959793091
0.11346545815467834 0.15299560129642487 -0.47822344303131104
0.11230924725532533 0.1526116281747818 -0.47062975168228144
0.10797162353992462 0.15127474069595337 -0.44040328264236445
0.1045808643102646 0.1503918319940567 -0.41425204277038574
0.09949590265750885 0.14956265687942505 -0.3685827851295471

VECTORS Vkin float
-0.0 -0.0 -0.0
-0.0 -0.0 -0.0
-0.0 -0.0 -0.0
-0.0 -0.0 -0.0
-0.0 -0.0 -0.0
-0.0 -0.0 -0.0
-0.0 -0.0 -0.0
-0.0 -0.0 -0.0
-0.0 -0.0 -0.0
-0.0 -0.0 -0.0
-0.0 -0.0 -0.0
-0.0 -0.0 -0.0
-0.0 -0.0 -0.0
-0.0 -0.0 -0.0
-0.0 -0.0 -0.0
-0.0 -0.0 -0.0
-0.0 -0.0 -0.0
-0.0 -0.0 -0.0
-0.0 -0.0 -0.0
-0.0 -0.0 -0.0
-0.0 -0.0 -0.0
-0.0 -0.0 -0.0
-0.0 -0.0 -0.0
-0.0 -0.0 -0.0
-0.0 -0.0 -0.0
-0.0 -0.0 -0.0
-0.0 -0.0 -0.0
-0.0 -0.0 -0.0
-0.0 -0.0 -0.0
-0.0 -0.0 -0.0
-0.0 -0.0 -0.0
-0.0 -0.0 -0.0
-0.0 -0.0 -0.0
-0.0 -0.0 -0.0
-0.0 -0.0 -0.0
-0.0 -0.0 -0.0
-0.0 -0.0 -0.0
-0.0 -0.0 -0.0
-0.0 -0.0 -0.0
-0.0 -0.0 -0.0
-0.0 -0.0 -0.0
-0.0 -0.0 -0.0
-0.0 -0.0 -0.0
-0.0 -0.0 -0.0
-0.0 -0.0 -0.0
-0.0 -0.0 -0.0
-0.0 -0.0 -0.0
-0.0 -0.0 -0.0
-0.0 -0.0 -0.0
-0.0 -0.0 -0.0
-0.0 -0.0 -0.0
-0.0 -0.0 -0.0
-0.0 -0.0 -0.0
-0.0 -0.0 -0.0
-0.0 -0.0 -0.0
-0.0 -0.0 -0.0
-0.0 -0.0 -0.0
-0.0 -0.0 -0.0
-0.0 -0.0 -0.0
-0.0 -0.0 -0.0
-0.0 -0.0 -0.0
-0.0 -0.0 -0.0
-0.0 -0.0 -0.0
-0.0 -0.0 -0.0
-0.0 -0.0 -0.0
-0.0 -0.0 -0.0
-0.0 -0.0 -0.0
-0.0 -0.0 -0.0
-0.0 -0.0 -0.0
-0.0 -0.0 -0.0
-0.0 -0.0 -0.0
-0.0 -0.0 -0.0
-0.0 -0.0 -0.0
-0.0 -0.0 -0.0
-0.0 -0.0 -0.0
-0.0 -0.0 -0.0
-0.0 -0.0 -0.0
-0.0 -0.0 -0.0
-0.0 -0.0 -0.0
-0.0 -0.0 -0.0
-0.0 -0.0 -0.0
-0.0 -0.0 -0.0
-0.0 -0.0 -0.0
-0.0 -0.0 -0.0
-0.0 -0.0 -0.0
-0.0 -0.0 -0.0
-0.0 -0.0 -0.0
-0.0 -0.0 -0.0
-0.0 -0.0 -0.0
-0.0 -0.0 -0.0
-0.0 -0.0 -0.0
-0.0 -0.0 -0.0
-0.0 -0.0 -0.0
-0.0 -0.0 -0.0
-0.0 -0.0 -0.0
-0.0 -0.0 -0.0
-0.0 -0.0 -0.0
-0.0 -0.0 -0.0
-0.0 -0.0 -0.0
-0.0 -0.0 -0.0
-0.0 -0.0 -0.0
-0.0 -0.0 -0.0
-0.0 -0.0 -0.0
-0.0 -0.0 -0.0
-0.0 -0.0 -0.0
-0.0 -0.0 -0.0
-0.0 -0.0 -0.0
-0.0 -0.0 -0.0
-0.0 -0.0 -0.0
-0.0 -0.0 -0.0
-0.0 -0.0 -0.0
-0.0 -0.0 -0.0
-0.0 -0.0 -0.0
-0.0 -0.0 -0.0
-0.0 -0.0 -0.0
-0.0 -0.0 -0.0
-0.0 -0.0 -0.0
-0.0 -0.0 -0.0
-0.0 -0.0 -0.0
-0.0 -0.0 -0.0
-0.0 -0.0 -0.0
-0.0 -0.0 -0.0
-0.0 -0.0 -0.0
-0.0 -0.0 -0.0
-0.0 -0.0 -0.0
-0.0 -0.0 -0.0
-0.0 -0.0 -0.0
-0.0 -0.0 -0.0
-0.0 -0.0 -0.0
-0.0 -0.0 -0.0
-0.0 -0.0 -0.0
-0.0 -0.0 -0.0
-0.0 -0.0 -0.0
-0.0 -0.0 -0.0
-0.0 -0.0 -0.0
-0.0 -0.0 -0.0
-0.0 -0.0 -0.0
-0.0 -0.0 -0.0
-0.0 -0.0 -0.0
-0.0 -0.0 -0.0
-0.0 -0.0 -0.0
-0.0 -0.0 -0.0
-0.0 -0.0 -0.0
-0.0 -0.0 -0.0
-0.0 -0.0 -0.0
-0.0 -0.0 -0.0
-0.0 -0.0 -0.0
-0.0 -0.0 -0.0
-0.0 -0.0 -0.0
-0.0 -0.0 -0.0
-0.0 -0.0 -0.0
-0.0 -0.0 -0.0
-0.0 -0.0 -0.0
-0.0 -0.0 -0.0
-0.0 -0.0 -0.0
-0.0 -0.0 -0.0
-0.0 -0.0 -0.0
-0.0 -0.0 -0.0
-0.0 -0.0 -0.0
-0.0 -0.0 -0.0
-0.0 -0.0 -0.0
-0.0 -0.0 -0.0
-0.0 -0.0 -0.0
-0.0 -0.0 -0.0
-0.0 -0.0 -0.0
-0.0 -0.0 -0.0
-0.0 -0.0 -0.0
-0.0 -0.0 -0.0
-0.0 -0.0 -0.0
-0.0 -0.0 -0.0
-0.0 -0.0 -0.0
-0.0 -0.0 -0.0
-0.0 -0.0 -0.0
-0.0 -0.0 -0.0
-0.0 -0.0 -0.0
-0.0 -0.0 -0.0
-0.0 -0.0 -0.0
-0.0 -0.0 -0.0
-0.0 -0.0 -0.0
-0.0 -0.0 -0.0
-0.0 -0.0 -0.0
-0.0 -0.0 -0.0
-0.0 -0.0 -0.0
-0.0 -0.0 -0.0
-0.0 -0.0 -0.0
-0.0 -0.0 -0.0
-0.0 -0.0 -0.0
-0.0 -0.0 -0.0
-0.0 -0.0 -0.0
-0.0 -0.0 -0.0
-0.0 -0.0 -0.0
-0.0 -0.0 -0.0
-0.0 -0.0 -0.0
-0.0 -0.0 -0.0
-0.0 -0.0 -0.0
-0.0 -0.0 -0.0
-0.0 -0.0 -0.0
-0.0 -0.0 -0.0
-0.0 -0.0 -0.0
-0.0 -0.0 -0.0

VECTORS Vinf float
9.169221344945356 0.15078462660312653 3.799510158758313
9.16681930756323 0.15021587908267975 3.818728156547696
9.166890311596319 0.15023253858089447 3.8181439416219294
9.16412863468878 0.1497393101453781 3.8423498349000518
9.163946244475767 0.14971652626991272 3.844075746994168
9.163860100862905 0.14970633387565613 3.844897486429364
9.163106325623914 0.14962193369865417 3.8520707564164707
9.168144706246778 0.1505247950553894 3.80781502292648
9.170965242741033 0.15126881003379822 3.7862711922933165
9.17481579220049 0.15244412422180176 3.759232767086178
9.179680067655966 0.15409180521965027 3.7280710713674132
9.184986490366384 0.15602515637874603 3.6967195646573607
9.181918147561476 0.15489237010478973 3.7145538108159606
9.177052948234007 0.1531819850206375 3.7445527391244475
9.178171399590894 0.1535644233226776 3.7374334113408625
9.176823991892263 0.1531025618314743 3.746043123464734
9.173860612866804 0.15213336050510406 3.765755601387173
9.180016237852499 0.15420661866664886 3.725996472101361
9.180851358530447 0.15450194478034973 3.7209508197118346
9.176589373109266 0.1530206948518753 3.7475372330953185
9.175342190620825 0.15260647237300873 3.7557254807759826
9.176064420101568 0.15284283459186554 3.7509850041677066
9.176770332810804 0.15307696163654327 3.746416039924771
9.177457812783643 0.15330810844898224 3.742021598081738
9.172589514014646 0.15173257887363434 3.774624653320462
9.17312802707903 0.15189586579799652 3.7708649711419646
9.173654097673818 0.1520581692457199 3.7672366576005523
9.178212884423658 0.1535624861717224 3.7372668461610377
9.17877333199732 0.15375570952892303 3.7337672786523406
9.17721249496691 0.1532180905342102 3.7436401622106144
9.180736708996221 0.15445378422737122 3.7216221468259394
9.176466542837545 0.15296681225299835 3.7483573334027827
9.173755783197805 0.1520843505859375 3.7664482669641077
9.17421178853266 0.15222737193107605 3.7633496599008147
9.174660060164854 0.15236954391002655 3.7603310124684874
9.17510024046652 0.15251092612743378 3.7573932187367984
9.175531465170309 0.15265125036239624 3.75453669593826
9.175954404828474 0.15279006958007812 3.7517600433637206
9.17636849319689 0.15292701125144958 3.7490639166642725
9.176773611066267 0.15306231379508972 3.7464466469098627
9.177168536541387 0.15319573879241943 3.743909187774807
9.184293943998739 0.15574084222316742 3.700751044016034
9.184728581068441 0.1559024453163147 3.698263444166333
9.179988566396162 0.15417137742042542 3.726253308515698
9.180362570640966 0.15430346131324768 3.7239816562940184
9.180731001851484 0.1544344276189804 3.7217556612302363
9.181094098446295 0.15456384420394897 3.7195766942311828
9.181450906751081 0.15469197928905487 3.7174433843900268
9.18108693098776 0.1545621007680893 3.7196135895062987
9.18506457245104 0.15603205561637878 3.696293093423993
9.185064661858007 0.15603210031986237 3.696293153028638
9.181085887906477 0.15456312894821167 3.719614900808484
9.181449833867475 0.15469297766685486 3.717444397668988
9.181093070266172 0.1545647531747818 3.7195777671147887
9.180729973671362 0.15443557500839233 3.721756912927777
9.180361572263166 0.15430456399917603 3.723982609968335
9.179987702128813 0.1541721075773239 3.726254441003949
9.184729177114889 0.155904158949852 3.6982649938870966
9.184294391033575 0.15574271976947784 3.7007524149228637
9.177167880890295 0.15319858491420746 3.7439119295884673
9.176772880909368 0.15306556224822998 3.746449567537457
9.176367941853925 0.15292991697788239 3.74906686709419
9.175953689572736 0.15279321372509003 3.7517629639913146
9.175530749914572 0.15265437960624695 3.75453943775192
9.175099629518911 0.15251398086547852 3.757396139364392
9.174659404513761 0.1523725986480713 3.7603337244798247
9.174211088178083 0.15223027765750885 3.7633522527028624
9.173755291459486 0.1520872563123703 3.766451008777768
9.176466632244512 0.15296991169452667 3.748359866600186
9.180738035199568 0.15445704758167267 3.721624948244244
9.177213195321485 0.15321964025497437 3.7436415033151214
9.178773406503126 0.15375684201717377 3.733768530349881
9.178213078138754 0.15356364846229553 3.737267948846967
9.173653456923887 0.15206019580364227 3.7672389523793766
9.173127356526777 0.15189814567565918 3.770867236118466
9.172588858363554 0.15173444151878357 3.7746266798783847
9.177458408830091 0.15331079065799713 3.742023982267529
9.176770958659574 0.15307950973510742 3.746417977075726
9.176065045950338 0.15284541249275208 3.75098717973724
9.175342846271917 0.15260927379131317 3.755727626543194
9.176589343306944 0.1530226618051529 3.747539080839307
9.180851328728124 0.1545044481754303 3.72095326350227
9.180016222951338 0.15420904755592346 3.725998796682507
9.17386082148306 0.15213543176651 3.765757478933484
9.176824975368902 0.15310493111610413 3.746044911604077
9.178172830102369 0.1535668820142746 3.7374354080964625
9.177053752896711 0.1531849205493927 3.7445552723218505
9.181918937323019 0.15489499270915985 3.714556016187817
9.184988203999922 0.1560279279947281 3.696721770029217
9.179681766388342 0.15409430861473083 3.728072859506757
9.1748164031481 0.15244662761688232 3.759234793644101
9.170965019223615 0.15127034485340118 3.786272682409436
9.168143797275945 0.15052594244480133 3.8078162746240207
9.163104626891538 0.1496223509311676 3.852072335939557
9.163857701775953 0.14970606565475464 3.8448985891152923
9.163942757604048 0.14971642196178436 3.84407777355209
9.164124864694998 0.14973928034305573 3.842352040271909
9.16688557302706 0.15023273229599 3.818146474819333
9.16681468820326 0.15021580457687378 3.8187306599427764
9.169215965626165 0.15078473091125488 3.7995130495835845
9.169221344945356 0.15078462660312653 3.799510158758313
9.16681930756323 0.15021587908267975 3.818728156547696
9.166890311596319 0.15023253858089447 3.8181439416219294
9.16412863468878 0.1497393101453781 3.8423498349000518
9.163946244475767 0.14971652626991272 3.844075746994168
9.163860100862905 0.14970633387565613 3.844897486429364
9.163106325623914 0.14962193369865417 3.8520707564164707
9.168144706246778 0.1505247950553894 3.80781502292648
9.170965242741033 0.15126881003379822 3.7862711922933165
9.17481579220049 0.15244412422180176 3.759232767086178
9.179680067655966 0.15409180521965027 3.7280710713674132
9.184986490366384 0.15602515637874603 3.6967195646573607
9.181918147561476 0.15489237010478973 3.7145538108159606
9.177052948234007 0.1531819850206375 3.7445527391244475
9.178171399590894 0.1535644233226776 3.7374334113408625
9.176823991892263 0.1531025618314743 3.746043123464734
9.173860612866804 0.15213336050510406 3.765755601387173
9.180016237852499 0.15420661866664886 3.725996472101361
9.180851358530447 0.15450194478034973 3.7209508197118346
9.176589373109266 0.1530206948518753 3.7475372330953185
9.175342190620825 0.15260647237300873 3.7557254807759826
9.176064420101568 0.15284283459186554 3.7509850041677066
9.176770332810804 0.15307696163654327 3.746416039924771
9.177457812783643 0.15330810844898224 3.742021598081738
9.172589514014646 0.15173257887363434 3.774624653320462
9.17312802707903 0.15189586579799652 3.7708649711419646
9.173654097673818 0.1520581692457199 3.7672366576005523
9.178212884423658 0.1535624861717224 3.7372668461610377
9.17877333199732 0.15375570952892303 3.7337672786523406
9.17721249496691 0.1532180905342102 3.7436401622106144
9.180736708996221 0.15445378422737122 3.7216221468259394
9.176466542837545 0.15296681225299835 3.7483573334027827
9.173755783197805 0.1520843505859375 3.7664482669641077
9.17421178853266 0.15222737193107605 3.7633496599008147
9.174660060164854 0.15236954391002655 3.7603310124684874
9.17510024046652 0.15251092612743378 3.7573932187367984
9.175531465170309 0.15265125036239624 3.75453669593826
9.175954404828474 0.15279006958007812 3.7517600433637206
9.17636849319689 0.15292701125144958 3.7490639166642725
9.176773611066267 0.15306231379508972 3.7464466469098627
9.177168536541387 0.15319573879241943 3.743909187774807
9.184293943998739 0.15574084222316742 3.700751044016034
9.184728581068441 0.1559024453163147 3.698263444166333
9.179988566396162 0.15417137742042542 3.726253308515698
9.180362570640966 0.15430346131324768 3.7239816562940184
9.180731001851484 0.1544344276189804 3.7217556612302363
9.181094098446295 0.15456384420394897 3.7195766942311828
9.181450906751081 0.15469197928905487 3.7174433843900268
9.18108693098776 0.1545621007680893 3.7196135895062987
9.18506457245104 0.15603205561637878 3.696293093423993
9.185064661858007 0.15603210031986237 3.696293153028638
9.181085887906477 0.15456312894821167 3.719614900808484
9.181449833867475 0.15469297766685486 3.717444397668988
9.181093070266172 0.1545647531747818 3.7195777671147887
9.180729973671362 0.15443557500839233 3.721756912927777
9.180361572263166 0.15430456399917603 3.723982609968335
9.179987702128813 0.1541721075773239 3.726254441003949
9.184729177114889 0.155904158949852 3.6982649938870966
9.184294391033575 0.15574271976947784 3.7007524149228637
9.177167880890295 0.15319858491420746 3.7439119295884673
9.176772880909368 0.15306556224822998 3.746449567537457
9.176367941853925 0.15292991697788239 3.74906686709419
9.175953689572736 0.15279321372509003 3.7517629639913146
9.175530749914572 0.15265437960624695 3.75453943775192
9.175099629518911 0.15251398086547852 3.757396139364392
9.174659404513761 0.1523725986480713 3.7603337244798247
9.174211088178083 0.15223027765750885 3.7633522527028624
9.173755291459486 0.1520872563123703 3.766451008777768
9.176466632244512 0.15296991169452667 3.748359866600186
9.180738035199568 0.15445704758167267 3.721624948244244
9.177213195321485 0.15321964025497437 3.7436415033151214
9.178773406503126 0.15375684201717377 3.733768530349881
9.178213078138754 0.15356364846229553 3.737267948846967
9.173653456923887 0.15206019580364227 3.7672389523793766
9.173127356526777 0.15189814567565918 3.770867236118466
9.172588858363554 0.15173444151878357 3.7746266798783847
9.177458408830091 0.15331079065799713 3.742023982267529
9.176770958659574 0.15307950973510742 3.746417977075726
9.176065045950338 0.15284541249275208 3.75098717973724
9.175342846271917 0.15260927379131317 3.755727626543194
9.176589343306944 0.1530226618051529 3.747539080839307
9.180851328728124 0.1545044481754303 3.72095326350227
9.180016222951338 0.15420904755592346 3.725998796682507
9.17386082148306 0.15213543176651 3.765757478933484
9.176824975368902 0.15310493111610413 3.746044911604077
9.178172830102369 0.1535668820142746 3.7374354080964625
9.177053752896711 0.1531849205493927 3.7445552723218505
9.181918937323019 0.15489499270915985 3.714556016187817
9.184988203999922 0.1560279279947281 3.696721770029217
9.179681766388342 0.15409430861473083 3.728072859506757
9.1748164031481 0.15244662761688232 3.759234793644101
9.170965019223615 0.15127034485340118 3.786272682409436
9.168143797275945 0.15052594244480133 3.8078162746240207
9.163104626891538 0.1496223509311676 3.852072335939557
9.163857701775953 0.14970606565475464 3.8448985891152923
9.163942757604048 0.14971642196178436 3.84407777355209
9.164124864694998 0.14973928034305573 3.842352040271909
9.16688557302706 0.15023273229599 3.818146474819333
9.16681468820326 0.15021580457687378 3.8187306599427764
9.169215965626165 0.15078473091125488 3.7995130495835845

VECTORS Vvpm_AB float
0.16222524642944336 0.17227885127067566 -0.7237225770950317
0.16222679615020752 0.17227891087532043 -0.7237272262573242
0.1622285544872284 0.1722792685031891 -0.723734438419342
0.16221755743026733 0.17228059470653534 -0.7237094640731812
0.16221188008785248 0.17228196561336517 -0.723698616027832
0.16220630705356598 0.172282412648201 -0.7236865162849426
0.16220317780971527 0.1722833812236786 -0.723680853843689
0.16220194101333618 0.17228375375270844 -0.7236801385879517
0.1621847301721573 0.17228519916534424 -0.7236385941505432
0.16218753159046173 0.17228484153747559 -0.723646879196167
0.1621924191713333 0.1722840666770935 -0.7236596345901489
0.16219225525856018 0.1722823977470398 -0.7236570119857788
0.16219520568847656 0.17228125035762787 -0.7236620187759399
0.16219773888587952 0.1722802221775055 -0.7236658334732056
0.1622011363506317 0.17227865755558014 -0.7236700654029846
0.1622033715248108 0.17227794229984283 -0.7236750721931458
0.16220122575759888 0.17227552831172943 -0.7236651182174683
0.1622033417224884 0.1722750961780548 -0.7236700057983398
0.1622055023908615 0.17227476835250854 -0.7236748933792114
0.16220733523368835 0.1722732037305832 -0.7236759662628174
0.1622113436460495 0.17227216064929962 -0.723682165145874
0.16221272945404053 0.17227204144001007 -0.7236852645874023
0.162213534116745 0.17227180302143097 -0.7236878871917725
0.16221138834953308 0.1722690761089325 -0.7236791253089905
0.16221262514591217 0.17226731777191162 -0.7236778736114502
0.16221317648887634 0.17226703464984894 -0.7236800193786621
0.1622137576341629 0.1722671091556549 -0.7236824035644531
0.16221551597118378 0.17226667702198029 -0.723685622215271
0.1622169315814972 0.17226649820804596 -0.7236887216567993
0.16222155094146729 0.17226466536521912 -0.7236957550048828
0.1621970236301422 0.17226234078407288 -0.7236204147338867
0.16219887137413025 0.17226192355155945 -0.7236237525939941
0.1621999442577362 0.17225836217403412 -0.7236151695251465
0.16220039129257202 0.17225836217403412 -0.7236162424087524
0.1622006595134735 0.17225857079029083 -0.7236175537109375
0.16220110654830933 0.17225827276706696 -0.7236188650131226
0.16218984127044678 0.1722497195005417 -0.7235758304595947
0.16219119727611542 0.1722494214773178 -0.7235790491104126
0.1621924638748169 0.17224927246570587 -0.7235822677612305
0.1621938943862915 0.17224909365177155 -0.7235851287841797
0.16219349205493927 0.1722494214773178 -0.7235867977142334
0.16219279170036316 0.1722494512796402 -0.7235885858535767
0.1621936857700348 0.17224937677383423 -0.7235913276672363
0.1621946394443512 0.1722494512796402 -0.7235939502716064
0.16219566762447357 0.17224934697151184 -0.7235968112945557
0.16219648718833923 0.1722492277622223 -0.7235996723175049
0.16219842433929443 0.17224901914596558 -0.7236031293869019
0.16219937801361084 0.17224891483783722 -0.723605751991272
0.16219347715377808 0.17224988341331482 -0.723594069480896
0.16217206418514252 0.1722363829612732 -0.7235121130943298
0.1621713787317276 0.1722363382577896 -0.7235122323036194
0.16219161450862885 0.17224957048892975 -0.7235947847366333
0.1621975302696228 0.17224828898906708 -0.7236064672470093
0.162196546792984 0.17224843800067902 -0.7236036062240601
0.1621948778629303 0.17224861681461334 -0.7236000895500183
0.16219398379325867 0.17224858701229095 -0.7235972881317139
0.16219300031661987 0.1722487211227417 -0.7235945463180542
0.1621919870376587 0.1722489893436432 -0.7235918045043945
0.16219131648540497 0.17224889993667603 -0.7235891819000244
0.16219189763069153 0.1722489446401596 -0.7235875129699707
0.1621922254562378 0.17224884033203125 -0.723585844039917
0.16219088435173035 0.17224891483783722 -0.7235826253890991
0.16218969225883484 0.17224906384944916 -0.7235797047615051
0.16218829154968262 0.17224916815757751 -0.7235764265060425
0.16219863295555115 0.17225737869739532 -0.7236197590827942
0.16219818592071533 0.1722577065229416 -0.7236183881759644
0.16219782829284668 0.1722576916217804 -0.7236170172691345
0.16219764947891235 0.1722576916217804 -0.7236157655715942
0.16219744086265564 0.1722615510225296 -0.7236243486404419
0.16219574213027954 0.17226183414459229 -0.7236208915710449
0.16222064197063446 0.17226450145244598 -0.7236959934234619
0.16221565008163452 0.17226597666740417 -0.723689079284668
0.1622142195701599 0.17226630449295044 -0.7236860990524292
0.162212535738945 0.1722666472196579 -0.7236828207969666
0.16221201419830322 0.17226667702198029 -0.7236804962158203
0.16221144795417786 0.17226682603359222 -0.7236784100532532
0.162210613489151 0.17226892709732056 -0.7236793637275696
0.16221240162849426 0.17227129638195038 -0.7236881852149963
0.1622115820646286 0.17227157950401306 -0.7236855626106262
0.16221018135547638 0.17227201163768768 -0.7236827611923218
0.16220588982105255 0.17227306962013245 -0.7236763834953308
0.16220441460609436 0.17227444052696228 -0.7236752510070801
0.1622023582458496 0.17227478325366974 -0.7236704230308533
0.1622002124786377 0.1722753643989563 -0.7236654758453369
0.16220231354236603 0.1722777932882309 -0.7236754894256592
0.16219991445541382 0.1722782701253891 -0.7236701250076294
0.1621968299150467 0.17227981984615326 -0.7236660718917847
0.16219462454319 0.17228101193904877 -0.7236621975898743
0.16219204664230347 0.1722821444272995 -0.7236568927764893
0.16219183802604675 0.17228396236896515 -0.7236596941947937
0.16218647360801697 0.172284334897995 -0.7236471772193909
0.16218364238739014 0.1722845733165741 -0.7236390709877014
0.16220051050186157 0.17228327691555023 -0.7236806154251099
0.1622011512517929 0.17228257656097412 -0.7236815690994263
0.16220436990261078 0.17228199541568756 -0.7236870527267456
0.162209615111351 0.17228102684020996 -0.7236993908882141
0.16221532225608826 0.17228001356124878 -0.7237101197242737
0.16222624480724335 0.17227859795093536 -0.7237351536750793
0.1622244417667389 0.17227812111377716 -0.7237281203269958
0.16222244501113892 0.17227794229984283 -0.7237237095832825
0.16222524642944336 0.17227885127067566 -0.7237225770950317
0.16222679615020752 0.17227891087532043 -0.7237272262573242
0.1622285544872284 0.1722792685031891 -0.723734438419342
0.16221755743026733 0.17228059470653534 -0.7237094640731812
0.16221188008785248 0.17228196561336517 -0.723698616027832
0.16220630705356598 0.172282412648201 -0.7236865162849426
0.16220317780971527 0.1722833812236786 -0.723680853843689
0.16220194101333618 0.17228375375270844 -0.7236801385879517
0.1621847301721573 0.17228519916534424 -0.7236385941505432
0.16218753159046173 0.17228484153747559 -0.723646879196167
0.1621924191713333 0.1722840666770935 -0.7236596345901489
0.16219225525856018 0.1722823977470398 -0.7236570119857788
0.16219520568847656 0.17228125035762787 -0.7236620187759399
0.16219773888587952 0.1722802221775055 -0.7236658334732056
0.1622011363506317 0.17227865755558014 -0.7236700654029846
0.1622033715248108 0.17227794229984283 -0.7236750721931458
0.16220122575759888 0.17227552831172943 -0.7236651182174683
0.1622033417224884 0.1722750961780548 -0.7236700057983398
0.1622055023908615 0.17227476835250854 -0.7236748933792114
0.16220733523368835 0.1722732037305832 -0.7236759662628174
0.1622113436460495 0.17227216064929962 -0.723682165145874
0.16221272945404053 0.17227204144001007 -0.7236852645874023
0.162213534116745 0.17227180302143097 -0.7236878871917725
0.16221138834953308 0.1722690761089325 -0.7236791253089905
0.16221262514591217 0.17226731777191162 -0.7236778736114502
0.16221317648887634 0.17226703464984894 -0.7236800193786621
0.1622137576341629 0.1722671091556549 -0.7236824035644531
0.16221551597118378 0.17226667702198029 -0.723685622215271
0.1622169315814972 0.17226649820804596 -0.7236887216567993
0.16222155094146729 0.17226466536521912 -0.7236957550048828
0.1621970236301422 0.17226234078407288 -0.7236204147338867
0.16219887137413025 0.17226192355155945 -0.7236237525939941
0.1621999442577362 0.17225836217403412 -0.7236151695251465
0.16220039129257202 0.17225836217403412 -0.7236162424087524
0.1622006595134735 0.17225857079029083 -0.7236175537109375
0.16220110654830933 0.17225827276706696 -0.7236188650131226
0.16218984127044678 0.1722497195005417 -0.7235758304595947
0.16219119727611542 0.1722494214773178 -0.7235790491104126
0.1621924638748169 0.17224927246570587 -0.7235822677612305
0.1621938943862915 0.17224909365177155 -0.7235851287841797
0.16219349205493927 0.1722494214773178 -0.7235867977142334
0.16219279170036316 0.1722494512796402 -0.7235885858535767
0.1621936857700348 0.17224937677383423 -0.7235913276672363
0.1621946394443512 0.1722494512796402 -0.7235939502716064
0.16219566762447357 0.17224934697151184 -0.7235968112945557
0.16219648718833923 0.1722492277622223 -0.7235996723175049
0.16219842433929443 0.17224901914596558 -0.7236031293869019
0.16219937801361084 0.17224891483783722 -0.723605751991272
0.16219347715377808 0.17224988341331482 -0.723594069480896
0.16217206418514252 0.1722363829612732 -0.7235121130943298
0.1621713787317276 0.1722363382577896 -0.7235122323036194
0.16219161450862885 0.17224957048892975 -0.7235947847366333
0.1621975302696228 0.17224828898906708 -0.7236064672470093
0.162196546792984 0.17224843800067902 -0.7236036062240601
0.1621948778629303 0.17224861681461334 -0.7236000895500183
0.16219398379325867 0.17224858701229095 -0.7235972881317139
0.16219300031661987 0.1722487211227417 -0.7235945463180542
0.1621919870376587 0.1722489893436432 -0.7235918045043945
0.16219131648540497 0.17224889993667603 -0.7235891819000244
0.16219189763069153 0.1722489446401596 -0.7235875129699707
0.1621922254562378 0.17224884033203125 -0.723585844039917
0.16219088435173035 0.17224891483783722 -0.7235826253890991
0.16218969225883484 0.17224906384944916 -0.7235797047615051
0.16218829154968262 0.17224916815757751 -0.7235764265060425
0.16219863295555115 0.17225737869739532 -0.7236197590827942
0.16219818592071533 0.1722577065229416 -0.7236183881759644
0.16219782829284668 0.1722576916217804 -0.7236170172691345
0.16219764947891235 0.1722576916217804 -0.7236157655715942
0.16219744086265564 0.1722615510225296 -0.7236243486404419
0.16219574213027954 0.17226183414459229 -0.7236208915710449
0.16222064197063446 0.17226450145244598 -0.7236959934234619
0.16221565008163452 0.17226597666740417 -0.723689079284668
0.1622142195701599 0.17226630449295044 -0.7236860990524292
0.162212535738945 0.1722666472196579 -0.7236828207969666
0.16221201419830322 0.17226667702198029 -0.7236804962158203
0.16221144795417786 0.17226682603359222 -0.7236784100532532
0.162210613489151 0.17226892709732056 -0.7236793637275696
0.16221240162849426 0.17227129638195038 -0.7236881852149963
0.1622115820646286 0.17227157950401306 -0.7236855626106262
0.16221018135547638 0.17227201163768768 -0.7236827611923218
0.16220588982105255 0.17227306962013245 -0.7236763834953308
0.16220441460609436 0.17227444052696228 -0.7236752510070801
0.1622023582458496 0.17227478325366974 -0.7236704230308533
0.1622002124786377 0.1722753643989563 -0.7236654758453369
0.16220231354236603 0.1722777932882309 -0.7236754894256592
0.16219991445541382 0.1722782701253891 -0.7236701250076294
0.1621968299150467 0.17227981984615326 -0.7236660718917847
0.16219462454319 0.17228101193904877 -0.7236621975898743
0.16219204664230347 0.1722821444272995 -0.7236568927764893
0.16219183802604675 0.17228396236896515 -0.7236596941947937
0.16218647360801697 0.172284334897995 -0.7236471772193909
0.16218364238739014 0.1722845733165741 -0.7236390709877014
0.16220051050186157 0.17228327691555023 -0.7236806154251099
0.1622011512517929 0.17228257656097412 -0.7236815690994263
0.16220436990261078 0.17228199541568756 -0.7236870527267456
0.162209615111351 0.17228102684020996 -0.7236993908882141
0.16221532225608826 0.17228001356124878 -0.7237101197242737
0.16222624480724335 0.17227859795093536 -0.7237351536750793
0.1622244417667389 0.17227812111377716 -0.7237281203269958
0.16222244501113892 0.17227794229984283 -0.7237237095832825