# vtk DataFile Version 4.0
[MyVLM domain - lattices] 
ASCII
DATASET UNSTRUCTURED_GRID
POINTS 302 float
1.2444999999999997 -1.2445 0.0
1.2399745454545452 -1.2399745454545454 0.0
1.2346178849721705 -1.2346178849721707 0.0
1.2284300185528754 -1.2284300185528756 0.0
1.2214109461966602 -1.2214109461966605 0.0
1.2135606679035247 -1.213560667903525 0.0
1.2048791836734691 -1.2048791836734694 0.0
1.1953664935064932 -1.1953664935064934 0.0
1.1850225974025972 -1.1850225974025974 0.0
1.1738474953617808 -1.173847495361781 0.0
1.1618411873840442 -1.1618411873840444 0.0
1.1490036734693874 -1.1490036734693876 0.0
1.1353349536178106 -1.1353349536178108 0.0
1.1208350278293133 -1.1208350278293135 0.0
1.1055038961038959 -1.105503896103896 0.0
1.0893415584415582 -1.0893415584415584 0.0
1.0723480148423004 -1.0723480148423006 0.0
1.054523265306122 -1.0545232653061223 0.0
1.0358673098330238 -1.035867309833024 0.0
1.0163801484230053 -1.0163801484230055 0.0
0.9960617810760664 -0.9960617810760668 0.0
0.9749122077922076 -0.9749122077922077 0.0
0.9529314285714284 -0.9529314285714284 0.0
0.9301194434137288 -0.930119443413729 0.0
0.9064762523191091 -0.9064762523191096 0.0
0.8820018552875695 -0.8820018552875695 0.0
0.8566962523191093 -0.8566962523191094 0.0
0.8305594434137288 -0.8305594434137291 0.0
0.8035914285714284 -0.8035914285714285 0.0
0.7757922077922076 -0.7757922077922077 0.0
0.7471617810760666 -0.7471617810760667 0.0
0.7177001484230053 -0.7177001484230054 0.0
0.6874073098330239 -0.687407309833024 0.0
0.6562832653061222 -0.6562832653061225 0.0
0.6243280148423004 -0.6243280148423005 0.0
0.5915415584415582 -0.5915415584415583 0.0
0.5579238961038958 -0.5579238961038959 0.0
0.5234750278293133 -0.5234750278293134 0.0
0.48819495361781057 -0.48819495361781057 0.0
0.4520836734693877 -0.4520836734693877 0.0
0.4151411873840445 -0.4151411873840446 0.0
0.37736749536178105 -0.37736749536178116 0.0
0.3387625974025974 -0.3387625974025974 0.0
0.2993264935064933 -0.29932649350649343 0.0
0.25905918367346925 -0.25905918367346925 0.0
0.21796066790352486 -0.21796066790352486 0.0
0.17603094619666027 -0.1760309461966605 0.0
0.13327001855287546 -0.13327001855287568 0.0
0.08967788497217066 -0.08967788497217066 0.0
0.045254545454545436 -0.045254545454545436 0.0
0.0 0.0 0.0
0.04525454545454545 0.04525454545454546 0.0
0.08967788497217066 0.08967788497217068 0.0
0.13327001855287568 0.1332700185528757 0.0
0.17603094619666046 0.1760309461966605 0.0
0.21796066790352497 0.21796066790352508 0.0
0.2590591836734693 0.25905918367346936 0.0
0.29932649350649343 0.2993264935064935 0.0
0.3387625974025973 0.33876259740259734 0.0
0.37736749536178094 0.377367495361781 0.0
0.41514118738404443 0.4151411873840445 0.0
0.45208367346938766 0.4520836734693878 0.0
0.48819495361781057 0.4881949536178107 0.0
0.5234750278293133 0.5234750278293134 0.0
0.5579238961038959 0.557923896103896 0.0
0.5915415584415582 0.5915415584415583 0.0
0.6243280148423003 0.6243280148423004 0.0
0.6562832653061222 0.6562832653061225 0.0
0.687407309833024 0.6874073098330241 0.0
0.7177001484230054 0.7177001484230056 0.0
0.7471617810760667 0.7471617810760669 0.0
0.7757922077922076 0.7757922077922077 0.0
0.8035914285714284 0.8035914285714285 0.0
0.8305594434137288 0.830559443413729 0.0
0.8566962523191093 0.8566962523191094 0.0
0.8820018552875692 0.8820018552875695 0.0
0.9064762523191091 0.9064762523191093 0.0
0.9301194434137288 0.9301194434137292 0.0
0.9529314285714284 0.9529314285714284 0.0
0.9749122077922076 0.9749122077922077 0.0
0.9960617810760666 0.9960617810760668 0.0
1.0163801484230053 1.0163801484230055 0.0
1.0358673098330238 1.035867309833024 0.0
1.054523265306122 1.0545232653061223 0.0
1.0723480148423001 1.0723480148423004 0.0
1.0893415584415582 1.0893415584415584 0.0
1.1055038961038959 1.105503896103896 0.0
1.120835027829313 1.1208350278293133 0.0
1.1353349536178106 1.1353349536178106 0.0
1.1490036734693874 1.1490036734693876 0.0
1.1618411873840444 1.1618411873840446 0.0
1.1738474953617808 1.173847495361781 0.0
1.1850225974025972 1.1850225974025972 0.0
1.1953664935064932 1.1953664935064934 0.0
1.2048791836734691 1.2048791836734694 0.0
1.2135606679035245 1.2135606679035247 0.0
1.22141094619666 1.2214109461966602 0.0
1.2284300185528754 1.2284300185528756 0.0
1.2346178849721703 1.2346178849721705 0.0
1.2399745454545452 1.2399745454545454 0.0
1.2444999999999997 1.2445 0.0
1.7422999999999997 -1.2445 0.0
1.7377745454545452 -1.2399745454545454 0.0
1.7324178849721703 -1.2346178849721707 0.0
1.7262300185528754 -1.2284300185528756 0.0
1.7192109461966603 -1.2214109461966605 0.0
1.7113606679035245 -1.213560667903525 0.0
1.7026791836734692 -1.2048791836734694 0.0
1.6931664935064934 -1.1953664935064934 0.0
1.6828225974025972 -1.1850225974025974 0.0
1.6716474953617806 -1.173847495361781 0.0
1.6596411873840444 -1.1618411873840444 0.0
1.6468036734693878 -1.1490036734693876 0.0
1.6331349536178106 -1.1353349536178108 0.0
1.6186350278293133 -1.1208350278293135 0.0
1.603303896103896 -1.105503896103896 0.0
1.5871415584415582 -1.0893415584415584 0.0
1.5701480148423004 -1.0723480148423006 0.0
1.552323265306122 -1.0545232653061223 0.0
1.5336673098330238 -1.035867309833024 0.0
1.5141801484230053 -1.0163801484230055 0.0
1.4938617810760666 -0.9960617810760668 0.0
1.4727122077922075 -0.9749122077922077 0.0
1.4507314285714283 -0.9529314285714284 0.0
1.4279194434137288 -0.930119443413729 0.0
1.4042762523191092 -0.9064762523191096 0.0
1.3798018552875693 -0.8820018552875695 0.0
1.3544962523191093 -0.8566962523191094 0.0
1.328359443413729 -0.8305594434137291 0.0
1.3013914285714283 -0.8035914285714285 0.0
1.2735922077922077 -0.7757922077922077 0.0
1.2449617810760665 -0.7471617810760667 0.0
1.2155001484230055 -0.7177001484230054 0.0
1.1852073098330238 -0.687407309833024 0.0
1.1540832653061224 -0.6562832653061225 0.0
1.1221280148423003 -0.6243280148423005 0.0
1.0893415584415582 -0.5915415584415583 0.0
1.055723896103896 -0.5579238961038959 0.0
1.0212750278293132 -0.5234750278293134 0.0
0.9859949536178108 -0.48819495361781057 0.0
0.9498836734693876 -0.4520836734693877 0.0
0.9129411873840445 -0.4151411873840446 0.0
0.875167495361781 -0.37736749536178116 0.0
0.8365625974025973 -0.3387625974025974 0.0
0.7971264935064933 -0.29932649350649343 0.0
0.7568591836734693 -0.25905918367346925 0.0
0.7157606679035249 -0.21796066790352486 0.0
0.6738309461966603 -0.1760309461966605 0.0
0.6310700185528755 -0.13327001855287568 0.0
0.5874778849721707 -0.08967788497217066 0.0
0.5430545454545455 -0.045254545454545436 0.0
0.4978 0.0 0.0
0.5430545454545455 0.04525454545454546 0.0
0.5874778849721707 0.08967788497217068 0.0
0.6310700185528757 0.1332700185528757 0.0
0.6738309461966605 0.1760309461966605 0.0
0.715760667903525 0.21796066790352508 0.0
0.7568591836734693 0.25905918367346936 0.0
0.7971264935064934 0.2993264935064935 0.0
0.8365625974025973 0.33876259740259734 0.0
0.875167495361781 0.377367495361781 0.0
0.9129411873840445 0.4151411873840445 0.0
0.9498836734693876 0.4520836734693878 0.0
0.9859949536178105 0.4881949536178107 0.0
1.0212750278293132 0.5234750278293134 0.0
1.055723896103896 0.557923896103896 0.0
1.0893415584415582 0.5915415584415583 0.0
1.1221280148423003 0.6243280148423004 0.0
1.1540832653061224 0.6562832653061225 0.0
1.185207309833024 0.6874073098330241 0.0
1.2155001484230055 0.7177001484230056 0.0
1.2449617810760667 0.7471617810760669 0.0
1.2735922077922077 0.7757922077922077 0.0
1.3013914285714283 0.8035914285714285 0.0
1.3283594434137287 0.830559443413729 0.0
1.3544962523191093 0.8566962523191094 0.0
1.3798018552875693 0.8820018552875695 0.0
1.4042762523191092 0.9064762523191093 0.0
1.427919443413729 0.9301194434137292 0.0
1.4507314285714283 0.9529314285714284 0.0
1.4727122077922075 0.9749122077922077 0.0
1.4938617810760666 0.9960617810760668 0.0
1.5141801484230053 1.0163801484230055 0.0
1.5336673098330238 1.035867309833024 0.0
1.552323265306122 1.0545232653061223 0.0
1.5701480148423002 1.0723480148423004 0.0
1.5871415584415582 1.0893415584415584 0.0
1.603303896103896 1.105503896103896 0.0
1.6186350278293131 1.1208350278293133 0.0
1.6331349536178106 1.1353349536178106 0.0
1.6468036734693874 1.1490036734693876 0.0
1.6596411873840444 1.1618411873840446 0.0
1.6716474953617806 1.173847495361781 0.0
1.6828225974025972 1.1850225974025972 0.0
1.6931664935064934 1.1953664935064934 0.0
1.7026791836734692 1.2048791836734694 0.0
1.7113606679035245 1.2135606679035247 0.0
1.71921094619666 1.2214109461966602 0.0
1.7262300185528754 1.2284300185528756 0.0
1.7324178849721703 1.2346178849721705 0.0
1.7377745454545452 1.2399745454545454 0.0
1.7422999999999997 1.2445 0.0
1.6155872727272724 -1.2422372727272726 0.0
1.6106462152133578 -1.237296215213358 0.0
1.604873951762523 -1.2315239517625232 0.0
1.598270482374768 -1.224920482374768 0.0
1.5908358070500925 -1.2174858070500927 0.0
1.582569925788497 -1.2092199257884972 0.0
1.5734728385899812 -1.2001228385899814 0.0
1.5635445454545454 -1.1901945454545453 0.0
1.552785046382189 -1.1794350463821892 0.0
1.5411943413729126 -1.1678443413729127 0.0
1.5287724304267158 -1.155422430426716 0.0
1.5155193135435991 -1.142169313543599 0.0
1.501434990723562 -1.1280849907235622 0.0
1.4865194619666047 -1.1131694619666048 0.0
1.4707727272727271 -1.0974227272727273 0.0
1.4541947866419294 -1.0808447866419293 0.0
1.4367856400742112 -1.0634356400742113 0.0
1.418545287569573 -1.0451952875695731 0.0
1.3994737291280146 -1.0261237291280147 0.0
1.379570964749536 -1.0062209647495362 0.0
1.358836994434137 -0.9854869944341371 0.0
1.337271818181818 -0.9639218181818181 0.0
1.3148754359925787 -0.9415254359925787 0.0
1.291647847866419 -0.9182978478664192 0.0
1.2675890538033394 -0.8942390538033393 0.0
1.2426990538033393 -0.8693490538033395 0.0
1.2169778478664193 -0.8436278478664192 0.0
1.1904254359925788 -0.8170754359925788 0.0
1.163041818181818 -0.7896918181818181 0.0
1.1348269944341371 -0.7614769944341371 0.0
1.105780964749536 -0.7324309647495362 0.0
1.0759037291280147 -0.7025537291280148 0.0
1.0451952875695731 -0.6718452875695733 0.0
1.0136556400742114 -0.6403056400742114 0.0
0.9812847866419293 -0.6079347866419293 0.0
0.9480827272727271 -0.5747327272727272 0.0
0.9140494619666047 -0.5406994619666048 0.0
0.8791849907235622 -0.5058349907235622 0.0
0.8434893135435992 -0.47013931354359917 0.0
0.8069624304267162 -0.43361243042671627 0.0
0.7696043413729128 -0.3962543413729128 0.0
0.7314150463821893 -0.3580650463821894 0.0
0.6923945454545455 -0.3190445454545454 0.0
0.6525428385899814 -0.27919283858998134 0.0
0.6118599257884971 -0.23850992578849706 0.0
0.5703458070500929 -0.19699580705009279 0.0
0.5280004823747682 -0.15465048237476808 0.0
0.4848239517625232 -0.11147395176252317 0.0
0.4408162152133581 -0.06746621521335805 0.0
0.39597727272727273 -0.022627272727272718 0.0
0.39597727272727273 0.02262727272727273 0.0
0.4408162152133581 0.06746621521335806 0.0
0.4848239517625232 0.11147395176252319 0.0
0.528000482374768 0.15465048237476808 0.0
0.5703458070500929 0.19699580705009276 0.0
0.6118599257884971 0.23850992578849717 0.0
0.6525428385899814 0.2791928385899814 0.0
0.6923945454545455 0.3190445454545454 0.0
0.7314150463821891 0.3580650463821891 0.0
0.7696043413729128 0.39625434137291277 0.0
0.8069624304267162 0.43361243042671616 0.0
0.8434893135435992 0.4701393135435992 0.0
0.8791849907235619 0.5058349907235621 0.0
0.9140494619666046 0.5406994619666047 0.0
0.9480827272727271 0.5747327272727272 0.0
0.9812847866419294 0.6079347866419295 0.0
1.0136556400742114 0.6403056400742114 0.0
1.0451952875695731 0.6718452875695732 0.0
1.0759037291280147 0.7025537291280147 0.0
1.105780964749536 0.7324309647495362 0.0
1.1348269944341371 0.7614769944341373 0.0
1.163041818181818 0.789691818181818 0.0
1.1904254359925786 0.8170754359925786 0.0
1.216977847866419 0.843627847866419 0.0
1.2426990538033393 0.8693490538033394 0.0
1.2675890538033392 0.8942390538033393 0.0
1.291647847866419 0.9182978478664192 0.0
1.3148754359925787 0.9415254359925787 0.0
1.3372718181818182 0.9639218181818181 0.0
1.3588369944341372 0.9854869944341373 0.0
1.379570964749536 1.0062209647495362 0.0
1.3994737291280148 1.0261237291280147 0.0
1.418545287569573 1.0451952875695731 0.0
1.4367856400742112 1.0634356400742113 0.0
1.4541947866419291 1.0808447866419293 0.0
1.470772727272727 1.097422727272727 0.0
1.4865194619666047 1.1131694619666048 0.0
1.501434990723562 1.128084990723562 0.0
1.5155193135435991 1.1421693135435993 0.0
1.528772430426716 1.1554224304267162 0.0
1.5411943413729128 1.1678443413729127 0.0
1.5527850463821888 1.179435046382189 0.0
1.5635445454545451 1.1901945454545453 0.0
1.573472838589981 1.2001228385899811 0.0
1.5825699257884969 1.209219925788497 0.0
1.5908358070500925 1.2174858070500927 0.0
1.5982704823747678 1.224920482374768 0.0
1.604873951762523 1.2315239517625232 0.0
1.6106462152133578 1.237296215213358 0.0
1.6155872727272724 1.2422372727272726 0.0

CELLS 200 700
4 0 101 102 1
4 1 102 103 2
4 2 103 104 3
4 3 104 105 4
4 4 105 106 5
4 5 106 107 6
4 6 107 108 7
4 7 108 109 8
4 8 109 110 9
4 9 110 111 10
4 10 111 112 11
4 11 112 113 12
4 12 113 114 13
4 13 114 115 14
4 14 115 116 15
4 15 116 117 16
4 16 117 118 17
4 17 118 119 18
4 18 119 120 19
4 19 120 121 20
4 20 121 122 21
4 21 122 123 22
4 22 123 124 23
4 23 124 125 24
4 24 125 126 25
4 25 126 127 26
4 26 127 128 27
4 27 128 129 28
4 28 129 130 29
4 29 130 131 30
4 30 131 132 31
4 31 132 133 32
4 32 133 134 33
4 33 134 135 34
4 34 135 136 35
4 35 136 137 36
4 36 137 138 37
4 37 138 139 38
4 38 139 140 39
4 39 140 141 40
4 40 141 142 41
4 41 142 143 42
4 42 143 144 43
4 43 144 145 44
4 44 145 146 45
4 45 146 147 46
4 46 147 148 47
4 47 148 149 48
4 48 149 150 49
4 49 150 151 50
4 50 151 152 51
4 51 152 153 52
4 52 153 154 53
4 53 154 155 54
4 54 155 156 55
4 55 156 157 56
4 56 157 158 57
4 57 158 159 58
4 58 159 160 59
4 59 160 161 60
4 60 161 162 61
4 61 162 163 62
4 62 163 164 63
4 63 164 165 64
4 64 165 166 65
4 65 166 167 66
4 66 167 168 67
4 67 168 169 68
4 68 169 170 69
4 69 170 171 70
4 70 171 172 71
4 71 172 173 72
4 72 173 174 73
4 73 174 175 74
4 74 175 176 75
4 75 176 177 76
4 76 177 178 77
4 77 178 179 78
4 78 179 180 79
4 79 180 181 80
4 80 181 182 81
4 81 182 183 82
4 82 183 184 83
4 83 184 185 84
4 84 185 186 85
4 85 186 187 86
4 86 187 188 87
4 87 188 189 88
4 88 189 190 89
4 89 190 191 90
4 90 191 192 91
4 91 192 193 92
4 92 193 194 93
4 93 194 195 94
4 94 195 196 95
4 95 196 197 96
4 96 197 198 97
4 97 198 199 98
4 98 199 200 99
4 99 200 201 100
1 202
1 203
1 204
1 205
1 206
1 207
1 208
1 209
1 210
1 211
1 212
1 213
1 214
1 215
1 216
1 217
1 218
1 219
1 220
1 221
1 222
1 223
1 224
1 225
1 226
1 227
1 228
1 229
1 230
1 231
1 232
1 233
1 234
1 235
1 236
1 237
1 238
1 239
1 240
1 241
1 242
1 243
1 244
1 245
1 246
1 247
1 248
1 249
1 250
1 251
1 252
1 253
1 254
1 255
1 256
1 257
1 258
1 259
1 260
1 261
1 262
1 263
1 264
1 265
1 266
1 267
1 268
1 269
1 270
1 271
1 272
1 273
1 274
1 275
1 276
1 277
1 278
1 279
1 280
1 281
1 282
1 283
1 284
1 285
1 286
1 287
1 288
1 289
1 290
1 291
1 292
1 293
1 294
1 295
1 296
1 297
1 298
1 299
1 300
1 301

CELL_TYPES 200
9
9
9
9
9
9
9
9
9
9
9
9
9
9
9
9
9
9
9
9
9
9
9
9
9
9
9
9
9
9
9
9
9
9
9
9
9
9
9
9
9
9
9
9
9
9
9
9
9
9
9
9
9
9
9
9
9
9
9
9
9
9
9
9
9
9
9
9
9
9
9
9
9
9
9
9
9
9
9
9
9
9
9
9
9
9
9
9
9
9
9
9
9
9
9
9
9
9
9
9
1
1
1
1
1
1
1
1
1
1
1
1
1
1
1
1
1
1
1
1
1
1
1
1
1
1
1
1
1
1
1
1
1
1
1
1
1
1
1
1
1
1
1
1
1
1
1
1
1
1
1
1
1
1
1
1
1
1
1
1
1
1
1
1
1
1
1
1
1
1
1
1
1
1
1
1
1
1
1
1
1
1
1
1
1
1
1
1
1
1
1
1
1
1
1
1
1
1
1
1

CELL_DATA 200

VECTORS Vvpm float
-0.30239996314048767 0.6969470977783203 -0.26753944158554077
-0.2996867597103119 0.7067902684211731 -0.2563490569591522
-0.29976966977119446 0.706497848033905 -0.2566883862018585
-0.2961735427379608 0.7191335558891296 -0.24217005074024198
-0.2959003150463104 0.7200602889060974 -0.2411098927259445
-0.2916570007801056 0.7344730496406555 -0.2242887020111084
-0.29469576478004456 0.7242975831031799 -0.23618006706237793
-0.3013923466205597 0.7011480331420898 -0.2627122402191162
-0.30480918288230896 0.6888091564178467 -0.2766050100326538
-0.30793824791908264 0.6767572164535522 -0.29009535908699036
-0.3116697371006012 0.6616198420524597 -0.3068735599517822
-0.31510910391807556 0.646713376045227 -0.3232404589653015
-0.3131716549396515 0.6551620364189148 -0.3139803409576416
-0.3097139298915863 0.6695936918258667 -0.2980577051639557
-0.31057050824165344 0.6661431789398193 -0.30187171697616577
-0.30951598286628723 0.6703313589096069 -0.29724761843681335
-0.3130124509334564 0.655920147895813 -0.3131251335144043
-0.3118830621242523 0.6606260538101196 -0.307955265045166
-0.31242993474006653 0.6582176089286804 -0.31062036752700806
-0.30937084555625916 0.6710314750671387 -0.2964392304420471
-0.3083548843860626 0.6750379204750061 -0.2919965386390686
-0.3089202344417572 0.6727241277694702 -0.2945782244205475
-0.30945733189582825 0.6705021858215332 -0.29705363512039185
-0.30996695160865784 0.6683725118637085 -0.2994233965873718
-0.30587252974510193 0.68440181016922 -0.2815871238708496
-0.30634763836860657 0.6825396418571472 -0.28367823362350464
-0.30680111050605774 0.680747926235199 -0.2856874465942383
-0.3105085790157318 0.6660810708999634 -0.30196425318717957
-0.3109044134616852 0.6643959879875183 -0.3038334846496582
-0.31201156973838806 0.6602441072463989 -0.308336079120636
-0.3124094307422638 0.6584967970848083 -0.31026941537857056
-0.30926498770713806 0.6714029312133789 -0.29600828886032104
-0.3070075213909149 0.6802816987037659 -0.2861233949661255
-0.3073897659778595 0.6787554621696472 -0.28783339262008667
-0.3077590763568878 0.6772724986076355 -0.28949278593063354
-0.308115690946579 0.675833523273468 -0.29110127687454224
-0.3084602653980255 0.6744372248649597 -0.29265984892845154
-0.30879178643226624 0.6730830669403076 -0.2941703796386719
-0.3091109097003937 0.6717711687088013 -0.29563286900520325
-0.30942001938819885 0.6705016493797302 -0.29704469442367554
-0.3097172677516937 0.6692730784416199 -0.29841041564941406
-0.31463029980659485 0.6486093997955322 -0.3211435079574585
-0.31488242745399475 0.6474425196647644 -0.3224255442619324
-0.3151266872882843 0.6463044285774231 -0.3236757516860962
-0.31204935908317566 0.6596583127975464 -0.30901482701301575
-0.3122918903827667 0.6585957407951355 -0.3101896643638611
-0.3125268518924713 0.65755695104599 -0.3113381266593933
-0.31275656819343567 0.6565420031547546 -0.3124585747718811
-0.3125258982181549 0.6575770378112793 -0.3113153576850891
-0.31522074341773987 0.6464827656745911 -0.32341820001602173
-0.3152206838130951 0.6464828848838806 -0.3234182298183441
-0.3125251829624176 0.6575756669044495 -0.31131523847579956
-0.3127560317516327 0.6565409302711487 -0.31245848536491394
-0.31252625584602356 0.6575554609298706 -0.31133803725242615
-0.31229129433631897 0.6585943102836609 -0.3101896047592163
-0.3120488226413727 0.6596572399139404 -0.3090146780014038
-0.31512632966041565 0.6463078260421753 -0.32367202639579773
-0.3148820698261261 0.6474458575248718 -0.322422057390213
-0.31462982296943665 0.6486126780509949 -0.32113969326019287
-0.30971643328666687 0.6692748069763184 -0.298406720161438
-0.30941900610923767 0.6705034971237183 -0.29704102873802185
-0.3091098368167877 0.6717728972434998 -0.2956291735172272
-0.3087907135486603 0.6730847954750061 -0.2941668629646301
-0.30845919251441956 0.6744388937950134 -0.29265618324279785
-0.3081147372722626 0.6758350133895874 -0.29109784960746765
-0.30775806307792664 0.6772740483283997 -0.2894894480705261
-0.30738893151283264 0.6787570714950562 -0.2878299951553345
-0.3070066273212433 0.6802831292152405 -0.28612014651298523
-0.30926403403282166 0.6714065074920654 -0.29600369930267334
-0.31240877509117126 0.6585035920143127 -0.31026217341423035
-0.31201091408729553 0.6602508425712585 -0.3083289861679077
-0.3109041750431061 0.6643977165222168 -0.3038313388824463
-0.31050822138786316 0.6660827994346619 -0.30196207761764526
-0.30680015683174133 0.6807485222816467 -0.28568530082702637
-0.3063471019268036 0.6825403571128845 -0.2836759090423584
-0.3058719336986542 0.6844025254249573 -0.2815850079059601
-0.30996623635292053 0.6683768630027771 -0.29941827058792114
-0.30945703387260437 0.6705065965652466 -0.297048956155777
-0.3089195787906647 0.6727283596992493 -0.29457348585128784
-0.3083544075489044 0.6750421524047852 -0.29199206829071045
-0.3093700110912323 0.6710338592529297 -0.2964359223842621
-0.3124290406703949 0.6582202911376953 -0.31061655282974243
-0.3118824064731598 0.6606286764144897 -0.30795150995254517
-0.3130117356777191 0.6559248566627502 -0.31312015652656555
-0.30951550602912903 0.6703365445137024 -0.29724252223968506
-0.31057026982307434 0.6661494970321655 -0.3018656373023987
-0.3097132742404938 0.6695988774299622 -0.29805198311805725
-0.31317082047462463 0.6551673412322998 -0.3139747083187103
-0.31510844826698303 0.6467216610908508 -0.3232327401638031
-0.31166937947273254 0.6616276502609253 -0.30686673521995544
-0.3079374134540558 0.6767609119415283 -0.29009076952934265
-0.30480876564979553 0.6888112425804138 -0.2766019105911255
-0.30139169096946716 0.7011469602584839 -0.26271188259124756
-0.29469481110572815 0.7242938280105591 -0.2361810356378555
-0.29165610671043396 0.7344681620597839 -0.22429074347019196
-0.29589858651161194 0.7200522422790527 -0.24111387133598328
-0.29617151618003845 0.7191246151924133 -0.24217431247234347
-0.299767404794693 0.7064868807792664 -0.25669386982917786
-0.2996843755245209 0.706778347492218 -0.25635483860969543
-0.30239757895469666 0.696933925151825 -0.2675461769104004
-0.30239996314048767 0.6969470977783203 -0.26753944158554077
-0.2996867597103119 0.7067902684211731 -0.2563490569591522
-0.29976966977119446 0.706497848033905 -0.2566883862018585
-0.2961735427379608 0.7191335558891296 -0.24217005074024198
-0.2959003150463104 0.7200602889060974 -0.2411098927259445
-0.2916570007801056 0.7344730496406555 -0.2242887020111084
-0.29469576478004456 0.7242975831031799 -0.23618006706237793
-0.3013923466205597 0.7011480331420898 -0.2627122402191162
-0.30480918288230896 0.6888091564178467 -0.2766050100326538
-0.30793824791908264 0.6767572164535522 -0.29009535908699036
-0.3116697371006012 0.6616198420524597 -0.3068735599517822
-0.31510910391807556 0.646713376045227 -0.3232404589653015
-0.3131716549396515 0.6551620364189148 -0.3139803409576416
-0.3097139298915863 0.6695936918258667 -0.2980577051639557
-0.31057050824165344 0.6661431789398193 -0.30187171697616577
-0.30951598286628723 0.6703313589096069 -0.29724761843681335
-0.3130124509334564 0.655920147895813 -0.3131251335144043
-0.3118830621242523 0.6606260538101196 -0.307955265045166
-0.31242993474006653 0.6582176089286804 -0.31062036752700806
-0.30937084555625916 0.6710314750671387 -0.2964392304420471
-0.3083548843860626 0.6750379204750061 -0.2919965386390686
-0.3089202344417572 0.6727241277694702 -0.2945782244205475
-0.30945733189582825 0.6705021858215332 -0.29705363512039185
-0.30996695160865784 0.6683725118637085 -0.2994233965873718
-0.30587252974510193 0.68440181016922 -0.2815871238708496
-0.30634763836860657 0.6825396418571472 -0.28367823362350464
-0.30680111050605774 0.680747926235199 -0.2856874465942383
-0.3105085790157318 0.6660810708999634 -0.30196425318717957
-0.3109044134616852 0.6643959879875183 -0.3038334846496582
-0.31201156973838806 0.6602441072463989 -0.308336079120636
-0.3124094307422638 0.6584967970848083 -0.31026941537857056
-0.30926498770713806 0.6714029312133789 -0.29600828886032104
-0.3070075213909149 0.6802816987037659 -0.2861233949661255
-0.3073897659778595 0.6787554621696472 -0.28783339262008667
-0.3077590763568878 0.6772724986076355 -0.28949278593063354
-0.308115690946579 0.675833523273468 -0.29110127687454224
-0.3084602653980255 0.6744372248649597 -0.29265984892845154
-0.30879178643226624 0.6730830669403076 -0.2941703796386719
-0.3091109097003937 0.6717711687088013 -0.29563286900520325
-0.30942001938819885 0.6705016493797302 -0.29704469442367554
-0.3097172677516937 0.6692730784416199 -0.29841041564941406
-0.31463029980659485 0.6486093997955322 -0.3211435079574585
-0.31488242745399475 0.6474425196647644 -0.3224255442619324
-0.3151266872882843 0.6463044285774231 -0.3236757516860962
-0.31204935908317566 0.6596583127975464 -0.30901482701301575
-0.3122918903827667 0.6585957407951355 -0.3101896643638611
-0.3125268518924713 0.65755695104599 -0.3113381266593933
-0.31275656819343567 0.6565420031547546 -0.3124585747718811
-0.3125258982181549 0.6575770378112793 -0.3113153576850891
-0.31522074341773987 0.6464827656745911 -0.32341820001602173
-0.3152206838130951 0.6464828848838806 -0.3234182298183441
-0.3125251829624176 0.6575756669044495 -0.31131523847579956
-0.3127560317516327 0.6565409302711487 -0.31245848536491394
-0.31252625584602356 0.6575554609298706 -0.31133803725242615
-0.31229129433631897 0.6585943102836609 -0.3101896047592163
-0.3120488226413727 0.6596572399139404 -0.3090146780014038
-0.31512632966041565 0.6463078260421753 -0.32367202639579773
-0.3148820698261261 0.6474458575248718 -0.322422057390213
-0.31462982296943665 0.6486126780509949 -0.32113969326019287
-0.30971643328666687 0.6692748069763184 -0.298406720161438
-0.30941900610923767 0.6705034971237183 -0.29704102873802185
-0.3091098368167877 0.6717728972434998 -0.2956291735172272
-0.3087907135486603 0.6730847954750061 -0.2941668629646301
-0.30845919251441956 0.6744388937950134 -0.29265618324279785
-0.3081147372722626 0.6758350133895874 -0.29109784960746765
-0.30775806307792664 0.6772740483283997 -0.2894894480705261
-0.30738893151283264 0.6787570714950562 -0.2878299951553345
-0.3070066273212433 0.6802831292152405 -0.28612014651298523
-0.30926403403282166 0.6714065074920654 -0.29600369930267334
-0.31240877509117126 0.6585035920143127 -0.31026217341423035
-0.31201091408729553 0.6602508425712585 -0.3083289861679077
-0.3109041750431061 0.6643977165222168 -0.3038313388824463
-0.31050822138786316 0.6660827994346619 -0.30196207761764526
-0.30680015683174133 0.6807485222816467 -0.28568530082702637
-0.3063471019268036 0.6825403571128845 -0.2836759090423584
-0.3058719336986542 0.6844025254249573 -0.2815850079059601
-0.30996623635292053 0.6683768630027771 -0.29941827058792114
-0.30945703387260437 0.6705065965652466 -0.297048956155777
-0.3089195787906647 0.6727283596992493 -0.29457348585128784
-0.3083544075489044 0.6750421524047852 -0.29199206829071045
-0.3093700110912323 0.6710338592529297 -0.2964359223842621
-0.3124290406703949 0.6582202911376953 -0.31061655282974243
-0.3118824064731598 0.6606286764144897 -0.30795150995254517
-0.3130117356777191 0.6559248566627502 -0.31312015652656555
-0.30951550602912903 0.6703365445137024 -0.29724252223968506
-0.31057026982307434 0.6661494970321655 -0.3018656373023987
-0.3097132742404938 0.6695988774299622 -0.29805198311805725
-0.31317082047462463 0.6551673412322998 -0.3139747083187103
-0.31510844826698303 0.6467216610908508 -0.3232327401638031
-0.31166937947273254 0.6616276502609253 -0.30686673521995544
-0.3079374134540558 0.6767609119415283 -0.29009076952934265
-0.30480876564979553 0.6888112425804138 -0.2766019105911255
-0.30139169096946716 0.7011469602584839 -0.26271188259124756
-0.29469481110572815 0.7242938280105591 -0.2361810356378555
-0.29165610671043396 0.7344681620597839 -0.22429074347019196
-0.29589858651161194 0.7200522422790527 -0.24111387133598328
-0.29617151618003845 0.7191246151924133 -0.24217431247234347
-0.299767404794693 0.7064868807792664 -0.25669386982917786
-0.2996843755245209 0.706778347492218 -0.25635483860969543
-0.30239757895469666 0.696933925151825 -0.2675461769104004

VECTORS Vvpm_BBp float
-0.3007078468799591 0.703510046005249 -0.2600640654563904
-0.30449602007865906 0.6897286772727966 -0.2756309509277344
-0.30820468068122864 0.675700306892395 -0.2912787199020386
-0.31165042519569397 0.6617298126220703 -0.30674633383750916
-0.31376364827156067 0.6529582738876343 -0.31636664271354675
-0.3163353502750397 0.6413037180900574 -0.3291390836238861
-0.31756362318992615 0.6354324221611023 -0.3355565369129181
-0.3208347260951996 0.6189034581184387 -0.3535369634628296
-0.3221455514431 0.6115227341651917 -0.3615627586841583
-0.3228028118610382 0.607635498046875 -0.36578568816185
-0.32191047072410583 0.6126681566238403 -0.360329806804657
-0.3228621184825897 0.6074126362800598 -0.3660123348236084
-0.3224439322948456 0.6097491383552551 -0.3634812533855438
-0.32165148854255676 0.6141562461853027 -0.3586970865726471
-0.3209282457828522 0.618057906627655 -0.35446739196777344
-0.32122209668159485 0.6163657903671265 -0.35631150007247925
-0.32264015078544617 0.6086447238922119 -0.36466726660728455
-0.32247480750083923 0.6095548868179321 -0.36367926001548767
-0.3226883113384247 0.6082262396812439 -0.3651265501976013
-0.3219127357006073 0.6125736236572266 -0.3604106307029724
-0.3208005130290985 0.6186466813087463 -0.3538214862346649
-0.32102957367897034 0.6173378229141235 -0.35524794459342957
-0.32065561413764954 0.6193419098854065 -0.35306814312934875
-0.32087865471839905 0.6180803775787354 -0.3544433116912842
-0.3225133717060089 0.6095340251922607 -0.36366868019104004
-0.32267746329307556 0.6085180044174194 -0.3647751212120056
-0.32234081625938416 0.6104099750518799 -0.3627258837223053
-0.3220677673816681 0.6118724942207336 -0.36114293336868286
-0.32223936915397644 0.6108316779136658 -0.3622773289680481
-0.3212166726589203 0.6164965033531189 -0.35612958669662476
-0.32139143347740173 0.6154755353927612 -0.3572433590888977
-0.3207201063632965 0.6191428303718567 -0.3532513976097107
-0.31909874081611633 0.627568781375885 -0.3440774381160736
-0.3192884624004364 0.6265628933906555 -0.3451758623123169
-0.31947287917137146 0.6255788207054138 -0.3462502062320709
-0.31965288519859314 0.6246157288551331 -0.34730082750320435
-0.3198275864124298 0.6236733198165894 -0.3483286499977112
-0.3199969232082367 0.6227519512176514 -0.3493339419364929
-0.31914713978767395 0.627116858959198 -0.34458598494529724
-0.31934115290641785 0.6260990500450134 -0.3456954061985016
-0.3246101438999176 0.596998393535614 -0.3772183358669281
-0.3242499530315399 0.599189043045044 -0.3748416602611542
-0.32433560490608215 0.5986113548278809 -0.37547028064727783
-0.3244163691997528 0.5980440378189087 -0.37608930468559265
-0.3244953453540802 0.597489595413208 -0.3766945004463196
-0.3245716989040375 0.5969465374946594 -0.377287358045578
-0.3246464431285858 0.5964155197143555 -0.37786605954170227
-0.3235504925251007 0.603184163570404 -0.3705214560031891
-0.3245749771595001 0.5970311164855957 -0.37719613313674927
-0.3295874297618866 0.5601099729537964 -0.41719043254852295
-0.32457444071769714 0.5970323085784912 -0.3771944046020508
-0.32354989647865295 0.6031906008720398 -0.3705154061317444
-0.32464614510536194 0.5964168906211853 -0.3778645992279053
-0.3245711624622345 0.5969475507736206 -0.3772856891155243
-0.324494868516922 0.5974904894828796 -0.3766929507255554
-0.3244161307811737 0.5980453491210938 -0.37608766555786133
-0.3243353068828583 0.5986125469207764 -0.375468909740448
-0.3242494761943817 0.5991899371147156 -0.3748403489589691
-0.3246098458766937 0.5969968438148499 -0.3772188127040863
-0.31934019923210144 0.6260966062545776 -0.3456955850124359
-0.31914636492729187 0.627114474773407 -0.34458601474761963
-0.3199959695339203 0.6227514743804932 -0.3493328094482422
-0.3198266923427582 0.6236729025840759 -0.3483274579048157
-0.31965211033821106 0.6246152520179749 -0.34729957580566406
-0.3194720447063446 0.6255784630775452 -0.3462490141391754
-0.3192874491214752 0.6265629529953003 -0.34517449140548706
-0.3190981447696686 0.6275683641433716 -0.3440762758255005
-0.32071933150291443 0.619145929813385 -0.353247731924057
-0.32139095664024353 0.615479588508606 -0.35723888874053955
-0.32121601700782776 0.6165003776550293 -0.3561251759529114
-0.322238951921463 0.610832154750824 -0.3622758388519287
-0.3220670521259308 0.611873209476471 -0.3611413836479187
-0.3223402798175812 0.6104089617729187 -0.3627259135246277
-0.3226769268512726 0.6085184812545776 -0.3647739887237549
-0.3225127160549164 0.6095340251922607 -0.3636677861213684
-0.32087817788124084 0.6180819869041443 -0.35444051027297974
-0.32065489888191223 0.6193435788154602 -0.3530656695365906
-0.32102903723716736 0.6173405051231384 -0.35524481534957886
-0.3207997977733612 0.6186492443084717 -0.353818416595459
-0.3219121992588043 0.6125743389129639 -0.36040884256362915
-0.32268819212913513 0.6082280278205872 -0.3651244342327118
-0.3224744498729706 0.6095566153526306 -0.3636772036552429
-0.32263943552970886 0.6086465120315552 -0.3646647036075592
-0.32122138142585754 0.6163695454597473 -0.35630741715431213
-0.3209277093410492 0.6180614233016968 -0.35446351766586304
-0.321650892496109 0.6141585111618042 -0.3586944043636322
-0.32244381308555603 0.60975182056427 -0.3634779155254364
-0.3228617012500763 0.607417106628418 -0.36600786447525024
-0.32190999388694763 0.6126736402511597 -0.36032432317733765
-0.32280251383781433 0.6076396107673645 -0.36578160524368286
-0.32214513421058655 0.6115254759788513 -0.36155959963798523
-0.3208342492580414 0.6189044117927551 -0.3535352945327759
-0.31756284832954407 0.6354302167892456 -0.33555686473846436
-0.31633439660072327 0.6412988901138306 -0.32914167642593384
-0.31376269459724426 0.6529514193534851 -0.3163704574108124
-0.3116489350795746 0.6617202162742615 -0.30675220489501953
-0.3082033693790436 0.675689697265625 -0.29128527641296387
-0.304494172334671 0.6897156238555908 -0.27563875913619995
-0.30070605874061584 0.7034961581230164 -0.26007279753685
-0.29491397738456726 0.7235972285270691 -0.2370258867740631
-0.3007078468799591 0.703510046005249 -0.2600640654563904
-0.30449602007865906 0.6897286772727966 -0.2756309509277344
-0.30820468068122864 0.675700306892395 -0.2912787199020386
-0.31165042519569397 0.6617298126220703 -0.30674633383750916
-0.31376364827156067 0.6529582738876343 -0.31636664271354675
-0.3163353502750397 0.6413037180900574 -0.3291390836238861
-0.31756362318992615 0.6354324221611023 -0.3355565369129181
-0.3208347260951996 0.6189034581184387 -0.3535369634628296
-0.3221455514431 0.6115227341651917 -0.3615627586841583
-0.3228028118610382 0.607635498046875 -0.36578568816185
-0.32191047072410583 0.6126681566238403 -0.360329806804657
-0.3228621184825897 0.6074126362800598 -0.3660123348236084
-0.3224439322948456 0.6097491383552551 -0.3634812533855438
-0.32165148854255676 0.6141562461853027 -0.3586970865726471
-0.3209282457828522 0.618057906627655 -0.35446739196777344
-0.32122209668159485 0.6163657903671265 -0.35631150007247925
-0.32264015078544617 0.6086447238922119 -0.36466726660728455
-0.32247480750083923 0.6095548868179321 -0.36367926001548767
-0.3226883113384247 0.6082262396812439 -0.3651265501976013
-0.3219127357006073 0.6125736236572266 -0.3604106307029724
-0.3208005130290985 0.6186466813087463 -0.3538214862346649
-0.32102957367897034 0.6173378229141235 -0.35524794459342957
-0.32065561413764954 0.6193419098854065 -0.35306814312934875
-0.32087865471839905 0.6180803775787354 -0.3544433116912842
-0.3225133717060089 0.6095340251922607 -0.36366868019104004
-0.32267746329307556 0.6085180044174194 -0.3647751212120056
-0.32234081625938416 0.6104099750518799 -0.3627258837223053
-0.3220677673816681 0.6118724942207336 -0.36114293336868286
-0.32223936915397644 0.6108316779136658 -0.3622773289680481
-0.3212166726589203 0.6164965033531189 -0.35612958669662476
-0.32139143347740173 0.6154755353927612 -0.3572433590888977
-0.3207201063632965 0.6191428303718567 -0.3532513976097107
-0.31909874081611633 0.627568781375885 -0.3440774381160736
-0.3192884624004364 0.6265628933906555 -0.3451758623123169
-0.31947287917137146 0.6255788207054138 -0.3462502062320709
-0.31965288519859314 0.6246157288551331 -0.34730082750320435
-0.3198275864124298 0.6236733198165894 -0.3483286499977112
-0.3199969232082367 0.6227519512176514 -0.3493339419364929
-0.31914713978767395 0.627116858959198 -0.34458598494529724
-0.31934115290641785 0.6260990500450134 -0.3456954061985016
-0.3246101438999176 0.596998393535614 -0.3772183358669281
-0.3242499530315399 0.599189043045044 -0.3748416602611542
-0.32433560490608215 0.5986113548278809 -0.37547028064727783
-0.3244163691997528 0.5980440378189087 -0.37608930468559265
-0.3244953453540802 0.597489595413208 -0.3766945004463196
-0.3245716989040375 0.5969465374946594 -0.377287358045578
-0.3246464431285858 0.5964155197143555 -0.37786605954170227
-0.3235504925251007 0.603184163570404 -0.3705214560031891
-0.3245749771595001 0.5970311164855957 -0.37719613313674927
-0.3295874297618866 0.5601099729537964 -0.41719043254852295
-0.32457444071769714 0.5970323085784912 -0.3771944046020508
-0.32354989647865295 0.6031906008720398 -0.3705154061317444
-0.32464614510536194 0.5964168906211853 -0.3778645992279053
-0.3245711624622345 0.5969475507736206 -0.3772856891155243
-0.324494868516922 0.5974904894828796 -0.3766929507255554
-0.3244161307811737 0.5980453491210938 -0.37608766555786133
-0.3243353068828583 0.5986125469207764 -0.375468909740448
-0.3242494761943817 0.5991899371147156 -0.3748403489589691
-0.3246098458766937 0.5969968438148499 -0.3772188127040863
-0.31934019923210144 0.6260966062545776 -0.3456955850124359
-0.31914636492729187 0.627114474773407 -0.34458601474761963
-0.3199959695339203 0.6227514743804932 -0.3493328094482422
-0.3198266923427582 0.6236729025840759 -0.3483274579048157
-0.31965211033821106 0.6246152520179749 -0.34729957580566406
-0.3194720447063446 0.6255784630775452 -0.3462490141391754
-0.3192874491214752 0.6265629529953003 -0.34517449140548706
-0.3190981447696686 0.6275683641433716 -0.3440762758255005
-0.32071933150291443 0.619145929813385 -0.353247731924057
-0.32139095664024353 0.615479588508606 -0.35723888874053955
-0.32121601700782776 0.6165003776550293 -0.3561251759529114
-0.322238951921463 0.610832154750824 -0.3622758388519287
-0.3220670521259308 0.611873209476471 -0.3611413836479187
-0.3223402798175812 0.6104089617729187 -0.3627259135246277
-0.3226769268512726 0.6085184812545776 -0.3647739887237549
-0.3225127160549164 0.6095340251922607 -0.3636677861213684
-0.32087817788124084 0.6180819869041443 -0.35444051027297974
-0.32065489888191223 0.6193435788154602 -0.3530656695365906
-0.32102903723716736 0.6173405051231384 -0.35524481534957886
-0.3207997977733612 0.6186492443084717 -0.353818416595459
-0.3219121992588043 0.6125743389129639 -0.36040884256362915
-0.32268819212913513 0.6082280278205872 -0.3651244342327118
-0.3224744498729706 0.6095566153526306 -0.3636772036552429
-0.32263943552970886 0.6086465120315552 -0.3646647036075592
-0.32122138142585754 0.6163695454597473 -0.35630741715431213
-0.3209277093410492 0.6180614233016968 -0.35446351766586304
-0.321650892496109 0.6141585111618042 -0.3586944043636322
-0.32244381308555603 0.60975182056427 -0.3634779155254364
-0.3228617012500763 0.607417106628418 -0.36600786447525024
-0.32190999388694763 0.6126736402511597 -0.36032432317733765
-0.32280251383781433 0.6076396107673645 -0.36578160524368286
-0.32214513421058655 0.6115254759788513 -0.36155959963798523
-0.3208342492580414 0.6189044117927551 -0.3535352945327759
-0.31756284832954407 0.6354302167892456 -0.33555686473846436
-0.31633439660072327 0.6412988901138306 -0.32914167642593384
-0.31376269459724426 0.6529514193534851 -0.3163704574108124
-0.3116489350795746 0.6617202162742615 -0.30675220489501953
-0.3082033693790436 0.675689697265625 -0.29128527641296387
-0.304494172334671 0.6897156238555908 -0.27563875913619995
-0.30070605874061584 0.7034961581230164 -0.26007279753685
-0.29491397738456726 0.7235972285270691 -0.2370258867740631

SCALARS Gamma float
LOOKUP_TABLE default
0.44790236947082873
0.6894897524589627
0.8881316928611596
1.0678842019395653
1.236669099503525
1.398145367257414
1.5537254476700852
1.7043751334752653
1.8508021922077436
1.9931123786600977
2.1312643706107917
2.2652245422926565
2.395079911890188
2.520275370293894
2.640071541308342
2.754425408028491
2.8627655411107567
2.9654737364075765
3.062071258999421
3.1527468573576143
3.2369617389293497
3.31466614022973
3.386051974997131
3.4512886517121064
3.5107907413489046
3.5638304331340978
3.6108093067308293
3.6517292983012046
3.6874712218402435
3.7179731326859202
3.743550863519675
3.764612319084168
3.780610830680298
3.7912703149324023
3.79691152200269
3.797625217409917
3.7934330554698708
3.7843046971630647
3.7701602504736447
3.750868936522911
3.726225218028319
3.695608840899402
3.6603331651284963
3.619816050545355
3.5742423941274146
3.5225115536970355
3.4654789731354936
3.404531503174683
3.3427349756974554
3.2874061256095994
3.2874061893220565
3.342735183409613
3.4045318639490065
3.4654795049871137
3.5225122811976997
3.574243363443921
3.6198173853470093
3.6603347260427697
3.695610596202564
3.726227119389343
3.7508709573590187
3.7701623701114415
3.7843068931122823
3.7934353228191564
3.797627536417899
3.7969138912861116
3.791272738390319
3.780613310663431
3.7646148968574225
3.743553543678158
3.7179757846234502
3.6874736938741326
3.6517316978183025
3.6108116626084277
3.5638327690280702
3.510793072773295
3.4512910444146794
3.3860543546548283
3.3146684923505996
3.2369640424940798
3.1527490915958745
3.0620734505383482
2.9654758814557893
2.862767655014603
2.7544274687471493
2.640073545510228
2.5202772867188648
2.3950817316898316
2.265226272146085
2.131265953757654
1.9931137790524287
1.8508034067397425
1.7043761545915905
1.5537262975356005
1.398146062302717
1.2366696500390606
1.0678846335456407
0.888132015121182
0.6894899798451075
0.4479025024589253
0.44790236947082873
0.6894897524589627
0.8881316928611596
1.0678842019395653
1.236669099503525
1.398145367257414
1.5537254476700852
1.7043751334752653
1.8508021922077436
1.9931123786600977
2.1312643706107917
2.2652245422926565
2.395079911890188
2.520275370293894
2.640071541308342
2.754425408028491
2.8627655411107567
2.9654737364075765
3.062071258999421
3.1527468573576143
3.2369617389293497
3.31466614022973
3.386051974997131
3.4512886517121064
3.5107907413489046
3.5638304331340978
3.6108093067308293
3.6517292983012046
3.6874712218402435
3.7179731326859202
3.743550863519675
3.764612319084168
3.780610830680298
3.7912703149324023
3.79691152200269
3.797625217409917
3.7934330554698708
3.7843046971630647
3.7701602504736447
3.750868936522911
3.726225218028319
3.695608840899402
3.6603331651284963
3.619816050545355
3.5742423941274146
3.5225115536970355
3.4654789731354936
3.404531503174683
3.3427349756974554
3.2874061256095994
3.2874061893220565
3.342735183409613
3.4045318639490065
3.4654795049871137
3.5225122811976997
3.574243363443921
3.6198173853470093
3.6603347260427697
3.695610596202564
3.726227119389343
3.7508709573590187
3.7701623701114415
3.7843068931122823
3.7934353228191564
3.797627536417899
3.7969138912861116
3.791272738390319
3.780613310663431
3.7646148968574225
3.743553543678158
3.7179757846234502
3.6874736938741326
3.6517316978183025
3.6108116626084277
3.5638327690280702
3.510793072773295
3.4512910444146794
3.3860543546548283
3.3146684923505996
3.2369640424940798
3.1527490915958745
3.0620734505383482
2.9654758814557893
2.862767655014603
2.7544274687471493
2.640073545510228
2.5202772867188648
2.3950817316898316
2.265226272146085
2.131265953757654
1.9931137790524287
1.8508034067397425
1.7043761545915905
1.5537262975356005
1.398146062302717
1.2366696500390606
1.0678846335456407
0.888132015121182
0.6894899798451075
0.4479025024589253

VECTORS Vvpm_ApA float
-0.2949163615703583 0.7236124873161316 -0.23701682686805725
-0.3007078468799591 0.703510046005249 -0.2600640654563904
-0.30449602007865906 0.6897286772727966 -0.2756309509277344
-0.30820468068122864 0.675700306892395 -0.2912787199020386
-0.31165042519569397 0.6617298126220703 -0.30674633383750916
-0.31376364827156067 0.6529582738876343 -0.31636664271354675
-0.3163353502750397 0.6413037180900574 -0.3291390836238861
-0.31756362318992615 0.6354324221611023 -0.3355565369129181
-0.3208347260951996 0.6189034581184387 -0.3535369634628296
-0.3221455514431 0.6115227341651917 -0.3615627586841583
-0.3228028118610382 0.607635498046875 -0.36578568816185
-0.32191047072410583 0.6126681566238403 -0.360329806804657
-0.3228621184825897 0.6074126362800598 -0.3660123348236084
-0.3224439322948456 0.6097491383552551 -0.3634812533855438
-0.32165148854255676 0.6141562461853027 -0.3586970865726471
-0.3209282457828522 0.618057906627655 -0.35446739196777344
-0.32122209668159485 0.6163657903671265 -0.35631150007247925
-0.32264015078544617 0.6086447238922119 -0.36466726660728455
-0.32247480750083923 0.6095548868179321 -0.36367926001548767
-0.3226883113384247 0.6082262396812439 -0.3651265501976013
-0.3219127357006073 0.6125736236572266 -0.3604106307029724
-0.3208005130290985 0.6186466813087463 -0.3538214862346649
-0.32102957367897034 0.6173378229141235 -0.35524794459342957
-0.32065561413764954 0.6193419098854065 -0.35306814312934875
-0.32087865471839905 0.6180803775787354 -0.3544433116912842
-0.3225133717060089 0.6095340251922607 -0.36366868019104004
-0.32267746329307556 0.6085180044174194 -0.3647751212120056
-0.32234081625938416 0.6104099750518799 -0.3627258837223053
-0.3220677673816681 0.6118724942207336 -0.36114293336868286
-0.32223936915397644 0.6108316779136658 -0.3622773289680481
-0.3212166726589203 0.6164965033531189 -0.35612958669662476
-0.32139143347740173 0.6154755353927612 -0.3572433590888977
-0.3207201063632965 0.6191428303718567 -0.3532513976097107
-0.31909874081611633 0.627568781375885 -0.3440774381160736
-0.3192884624004364 0.6265628933906555 -0.3451758623123169
-0.31947287917137146 0.6255788207054138 -0.3462502062320709
-0.31965288519859314 0.6246157288551331 -0.34730082750320435
-0.3198275864124298 0.6236733198165894 -0.3483286499977112
-0.3199969232082367 0.6227519512176514 -0.3493339419364929
-0.31914713978767395 0.627116858959198 -0.34458598494529724
-0.31934115290641785 0.6260990500450134 -0.3456954061985016
-0.3246101438999176 0.596998393535614 -0.3772183060646057
-0.3242499530315399 0.599189043045044 -0.3748416602611542
-0.32433560490608215 0.5986113548278809 -0.37547028064727783
-0.3244163691997528 0.5980440378189087 -0.37608930468559265
-0.3244953453540802 0.597489595413208 -0.3766945004463196
-0.3245716989040375 0.5969465374946594 -0.377287358045578
-0.3246464431285858 0.5964155197143555 -0.37786605954170227
-0.3235504925251007 0.603184163570404 -0.3705214560031891
-0.3245749771595001 0.5970311164855957 -0.37719613313674927
-0.3295874297618866 0.5601099729537964 -0.41719043254852295
-0.32457444071769714 0.5970323085784912 -0.3771944046020508
-0.32354989647865295 0.6031906008720398 -0.3705154061317444
-0.32464614510536194 0.5964168906211853 -0.3778645992279053
-0.3245711624622345 0.5969475507736206 -0.3772856891155243
-0.324494868516922 0.5974904894828796 -0.3766929507255554
-0.3244161307811737 0.5980453491210938 -0.37608766555786133
-0.3243353068828583 0.5986125469207764 -0.375468909740448
-0.3242494761943817 0.5991899371147156 -0.3748403489589691
-0.3246098458766937 0.5969968438148499 -0.3772188127040863
-0.31934019923210144 0.6260966062545776 -0.3456955850124359
-0.31914636492729187 0.627114474773407 -0.34458601474761963
-0.3199959695339203 0.6227514743804932 -0.3493328094482422
-0.3198266923427582 0.6236729025840759 -0.3483274579048157
-0.31965211033821106 0.6246152520179749 -0.34729957580566406
-0.3194720447063446 0.6255784630775452 -0.3462490141391754
-0.3192874491214752 0.6265629529953003 -0.34517449140548706
-0.3190981447696686 0.6275683641433716 -0.3440762758255005
-0.32071933150291443 0.619145929813385 -0.353247731924057
-0.32139095664024353 0.615479588508606 -0.35723888874053955
-0.32121601700782776 0.6165003776550293 -0.3561251759529114
-0.322238951921463 0.610832154750824 -0.3622758388519287
-0.3220670521259308 0.611873209476471 -0.3611413836479187
-0.3223402798175812 0.6104089617729187 -0.3627259135246277
-0.3226769268512726 0.6085184812545776 -0.3647739887237549
-0.3225127160549164 0.6095340251922607 -0.3636677861213684
-0.32087817788124084 0.6180819869041443 -0.35444051027297974
-0.32065489888191223 0.6193435788154602 -0.3530656695365906
-0.32102903723716736 0.6173405051231384 -0.35524481534957886
-0.3207997977733612 0.6186492443084717 -0.353818416595459
-0.3219121992588043 0.6125743389129639 -0.36040884256362915
-0.32268819212913513 0.6082280278205872 -0.3651244342327118
-0.3224744498729706 0.6095566153526306 -0.3636772036552429
-0.32263943552970886 0.6086465120315552 -0.3646647036075592
-0.32122138142585754 0.6163695454597473 -0.35630741715431213
-0.3209277093410492 0.6180614233016968 -0.35446351766586304
-0.321650892496109 0.6141585111618042 -0.3586944043636322
-0.32244381308555603 0.60975182056427 -0.3634779155254364
-0.3228617012500763 0.607417106628418 -0.36600786447525024
-0.32190999388694763 0.6126736402511597 -0.36032432317733765
-0.32280251383781433 0.6076396107673645 -0.36578160524368286
-0.32214513421058655 0.6115254759788513 -0.36155959963798523
-0.3208342492580414 0.6189044117927551 -0.3535352945327759
-0.31756284832954407 0.6354302167892456 -0.33555686473846436
-0.31633439660072327 0.6412988901138306 -0.32914167642593384
-0.31376269459724426 0.6529514193534851 -0.3163704574108124
-0.3116489350795746 0.6617202162742615 -0.30675220489501953
-0.3082033693790436 0.675689697265625 -0.29128527641296387
-0.304494172334671 0.6897156834602356 -0.27563875913619995
-0.30070605874061584 0.7034960985183716 -0.26007279753685
-0.2949163615703583 0.7236124873161316 -0.23701682686805725
-0.3007078468799591 0.703510046005249 -0.2600640654563904
-0.30449602007865906 0.6897286772727966 -0.2756309509277344
-0.30820468068122864 0.675700306892395 -0.2912787199020386
-0.31165042519569397 0.6617298126220703 -0.30674633383750916
-0.31376364827156067 0.6529582738876343 -0.31636664271354675
-0.3163353502750397 0.6413037180900574 -0.3291390836238861
-0.31756362318992615 0.6354324221611023 -0.3355565369129181
-0.3208347260951996 0.6189034581184387 -0.3535369634628296
-0.3221455514431 0.6115227341651917 -0.3615627586841583
-0.3228028118610382 0.607635498046875 -0.36578568816185
-0.32191047072410583 0.6126681566238403 -0.360329806804657
-0.3228621184825897 0.6074126362800598 -0.3660123348236084
-0.3224439322948456 0.6097491383552551 -0.3634812533855438
-0.32165148854255676 0.6141562461853027 -0.3586970865726471
-0.3209282457828522 0.618057906627655 -0.35446739196777344
-0.32122209668159485 0.6163657903671265 -0.35631150007247925
-0.32264015078544617 0.6086447238922119 -0.36466726660728455
-0.32247480750083923 0.6095548868179321 -0.36367926001548767
-0.3226883113384247 0.6082262396812439 -0.3651265501976013
-0.3219127357006073 0.6125736236572266 -0.3604106307029724
-0.3208005130290985 0.6186466813087463 -0.3538214862346649
-0.32102957367897034 0.6173378229141235 -0.35524794459342957
-0.32065561413764954 0.6193419098854065 -0.35306814312934875
-0.32087865471839905 0.6180803775787354 -0.3544433116912842
-0.3225133717060089 0.6095340251922607 -0.36366868019104004
-0.32267746329307556 0.6085180044174194 -0.3647751212120056
-0.32234081625938416 0.6104099750518799 -0.3627258837223053
-0.3220677673816681 0.6118724942207336 -0.36114293336868286
-0.32223936915397644 0.6108316779136658 -0.3622773289680481
-0.3212166726589203 0.6164965033531189 -0.35612958669662476
-0.32139143347740173 0.6154755353927612 -0.3572433590888977
-0.3207201063632965 0.6191428303718567 -0.3532513976097107
-0.31909874081611633 0.627568781375885 -0.3440774381160736
-0.3192884624004364 0.6265628933906555 -0.3451758623123169
-0.31947287917137146 0.6255788207054138 -0.3462502062320709
-0.31965288519859314 0.6246157288551331 -0.34730082750320435
-0.3198275864124298 0.6236733198165894 -0.3483286499977112
-0.3199969232082367 0.6227519512176514 -0.3493339419364929
-0.31914713978767395 0.627116858959198 -0.34458598494529724
-0.31934115290641785 0.6260990500450134 -0.3456954061985016
-0.3246101438999176 0.596998393535614 -0.3772183060646057
-0.3242499530315399 0.599189043045044 -0.3748416602611542
-0.32433560490608215 0.5986113548278809 -0.37547028064727783
-0.3244163691997528 0.5980440378189087 -0.37608930468559265
-0.3244953453540802 0.597489595413208 -0.3766945004463196
-0.3245716989040375 0.5969465374946594 -0.377287358045578
-0.3246464431285858 0.5964155197143555 -0.37786605954170227
-0.3235504925251007 0.603184163570404 -0.3705214560031891
-0.3245749771595001 0.5970311164855957 -0.37719613313674927
-0.3295874297618866 0.5601099729537964 -0.41719043254852295
-0.32457444071769714 0.5970323085784912 -0.3771944046020508
-0.32354989647865295 0.6031906008720398 -0.3705154061317444
-0.32464614510536194 0.5964168906211853 -0.3778645992279053
-0.3245711624622345 0.5969475507736206 -0.3772856891155243
-0.324494868516922 0.5974904894828796 -0.3766929507255554
-0.3244161307811737 0.5980453491210938 -0.37608766555786133
-0.3243353068828583 0.5986125469207764 -0.375468909740448
-0.3242494761943817 0.5991899371147156 -0.3748403489589691
-0.3246098458766937 0.5969968438148499 -0.3772188127040863
-0.31934019923210144 0.6260966062545776 -0.3456955850124359
-0.31914636492729187 0.627114474773407 -0.34458601474761963
-0.3199959695339203 0.6227514743804932 -0.3493328094482422
-0.3198266923427582 0.6236729025840759 -0.3483274579048157
-0.31965211033821106 0.6246152520179749 -0.34729957580566406
-0.3194720447063446 0.6255784630775452 -0.3462490141391754
-0.3192874491214752 0.6265629529953003 -0.34517449140548706
-0.3190981447696686 0.6275683641433716 -0.3440762758255005
-0.32071933150291443 0.619145929813385 -0.353247731924057
-0.32139095664024353 0.615479588508606 -0.35723888874053955
-0.32121601700782776 0.6165003776550293 -0.3561251759529114
-0.322238951921463 0.610832154750824 -0.3622758388519287
-0.3220670521259308 0.611873209476471 -0.3611413836479187
-0.3223402798175812 0.6104089617729187 -0.3627259135246277
-0.3226769268512726 0.6085184812545776 -0.3647739887237549
-0.3225127160549164 0.6095340251922607 -0.3636677861213684
-0.32087817788124084 0.6180819869041443 -0.35444051027297974
-0.32065489888191223 0.6193435788154602 -0.3530656695365906
-0.32102903723716736 0.6173405051231384 -0.35524481534957886
-0.3207997977733612 0.6186492443084717 -0.353818416595459
-0.3219121992588043 0.6125743389129639 -0.36040884256362915
-0.32268819212913513 0.6082280278205872 -0.3651244342327118
-0.3224744498729706 0.6095566153526306 -0.3636772036552429
-0.32263943552970886 0.6086465120315552 -0.3646647036075592
-0.32122138142585754 0.6163695454597473 -0.35630741715431213
-0.3209277093410492 0.6180614233016968 -0.35446351766586304
-0.321650892496109 0.6141585111618042 -0.3586944043636322
-0.32244381308555603 0.60975182056427 -0.3634779155254364
-0.3228617012500763 0.607417106628418 -0.36600786447525024
-0.32190999388694763 0.6126736402511597 -0.36032432317733765
-0.32280251383781433 0.6076396107673645 -0.36578160524368286
-0.32214513421058655 0.6115254759788513 -0.36155959963798523
-0.3208342492580414 0.6189044117927551 -0.3535352945327759
-0.31756284832954407 0.6354302167892456 -0.33555686473846436
-0.31633439660072327 0.6412988901138306 -0.32914167642593384
-0.31376269459724426 0.6529514193534851 -0.3163704574108124
-0.3116489350795746 0.6617202162742615 -0.30675220489501953
-0.3082033693790436 0.675689697265625 -0.29128527641296387
-0.304494172334671 0.6897156834602356 -0.27563875913619995
-0.30070605874061584 0.7034960985183716 -0.26007279753685

VECTORS Vkin float
-0.0 -0.0 -0.0
-0.0 -0.0 -0.0
-0.0 -0.0 -0.0
-0.0 -0.0 -0.0
-0.0 -0.0 -0.0
-0.0 -0.0 -0.0
-0.0 -0.0 -0.0
-0.0 -0.0 -0.0
-0.0 -0.0 -0.0
-0.0 -0.0 -0.0
-0.0 -0.0 -0.0
-0.0 -0.0 -0.0
-0.0 -0.0 -0.0
-0.0 -0.0 -0.0
-0.0 -0.0 -0.0
-0.0 -0.0 -0.0
-0.0 -0.0 -0.0
-0.0 -0.0 -0.0
-0.0 -0.0 -0.0
-0.0 -0.0 -0.0
-0.0 -0.0 -0.0
-0.0 -0.0 -0.0
-0.0 -0.0 -0.0
-0.0 -0.0 -0.0
-0.0 -0.0 -0.0
-0.0 -0.0 -0.0
-0.0 -0.0 -0.0
-0.0 -0.0 -0.0
-0.0 -0.0 -0.0
-0.0 -0.0 -0.0
-0.0 -0.0 -0.0
-0.0 -0.0 -0.0
-0.0 -0.0 -0.0
-0.0 -0.0 -0.0
-0.0 -0.0 -0.0
-0.0 -0.0 -0.0
-0.0 -0.0 -0.0
-0.0 -0.0 -0.0
-0.0 -0.0 -0.0
-0.0 -0.0 -0.0
-0.0 -0.0 -0.0
-0.0 -0.0 -0.0
-0.0 -0.0 -0.0
-0.0 -0.0 -0.0
-0.0 -0.0 -0.0
-0.0 -0.0 -0.0
-0.0 -0.0 -0.0
-0.0 -0.0 -0.0
-0.0 -0.0 -0.0
-0.0 -0.0 -0.0
-0.0 -0.0 -0.0
-0.0 -0.0 -0.0
-0.0 -0.0 -0.0
-0.0 -0.0 -0.0
-0.0 -0.0 -0.0
-0.0 -0.0 -0.0
-0.0 -0.0 -0.0
-0.0 -0.0 -0.0
-0.0 -0.0 -0.0
-0.0 -0.0 -0.0
-0.0 -0.0 -0.0
-0.0 -0.0 -0.0
-0.0 -0.0 -0.0
-0.0 -0.0 -0.0
-0.0 -0.0 -0.0
-0.0 -0.0 -0.0
-0.0 -0.0 -0.0
-0.0 -0.0 -0.0
-0.0 -0.0 -0.0
-0.0 -0.0 -0.0
-0.0 -0.0 -0.0
-0.0 -0.0 -0.0
-0.0 -0.0 -0.0
-0.0 -0.0 -0.0
-0.0 -0.0 -0.0
-0.0 -0.0 -0.0
-0.0 -0.0 -0.0
-0.0 -0.0 -0.0
-0.0 -0.0 -0.0
-0.0 -0.0 -0.0
-0.0 -0.0 -0.0
-0.0 -0.0 -0.0
-0.0 -0.0 -0.0
-0.0 -0.0 -0.0
-0.0 -0.0 -0.0
-0.0 -0.0 -0.0
-0.0 -0.0 -0.0
-0.0 -0.0 -0.0
-0.0 -0.0 -0.0
-0.0 -0.0 -0.0
-0.0 -0.0 -0.0
-0.0 -0.0 -0.0
-0.0 -0.0 -0.0
-0.0 -0.0 -0.0
-0.0 -0.0 -0.0
-0.0 -0.0 -0.0
-0.0 -0.0 -0.0
-0.0 -0.0 -0.0
-0.0 -0.0 -0.0
-0.0 -0.0 -0.0
-0.0 -0.0 -0.0
-0.0 -0.0 -0.0
-0.0 -0.0 -0.0
-0.0 -0.0 -0.0
-0.0 -0.0 -0.0
-0.0 -0.0 -0.0
-0.0 -0.0 -0.0
-0.0 -0.0 -0.0
-0.0 -0.0 -0.0
-0.0 -0.0 -0.0
-0.0 -0.0 -0.0
-0.0 -0.0 -0.0
-0.0 -0.0 -0.0
-0.0 -0.0 -0.0
-0.0 -0.0 -0.0
-0.0 -0.0 -0.0
-0.0 -0.0 -0.0
-0.0 -0.0 -0.0
-0.0 -0.0 -0.0
-0.0 -0.0 -0.0
-0.0 -0.0 -0.0
-0.0 -0.0 -0.0
-0.0 -0.0 -0.0
-0.0 -0.0 -0.0
-0.0 -0.0 -0.0
-0.0 -0.0 -0.0
-0.0 -0.0 -0.0
-0.0 -0.0 -0.0
-0.0 -0.0 -0.0
-0.0 -0.0 -0.0
-0.0 -0.0 -0.0
-0.0 -0.0 -0.0
-0.0 -0.0 -0.0
-0.0 -0.0 -0.0
-0.0 -0.0 -0.0
-0.0 -0.0 -0.0
-0.0 -0.0 -0.0
-0.0 -0.0 -0.0
-0.0 -0.0 -0.0
-0.0 -0.0 -0.0
-0.0 -0.0 -0.0
-0.0 -0.0 -0.0
-0.0 -0.0 -0.0
-0.0 -0.0 -0.0
-0.0 -0.0 -0.0
-0.0 -0.0 -0.0
-0.0 -0.0 -0.0
-0.0 -0.0 -0.0
-0.0 -0.0 -0.0
-0.0 -0.0 -0.0
-0.0 -0.0 -0.0
-0.0 -0.0 -0.0
-0.0 -0.0 -0.0
-0.0 -0.0 -0.0
-0.0 -0.0 -0.0
-0.0 -0.0 -0.0
-0.0 -0.0 -0.0
-0.0 -0.0 -0.0
-0.0 -0.0 -0.0
-0.0 -0.0 -0.0
-0.0 -0.0 -0.0
-0.0 -0.0 -0.0
-0.0 -0.0 -0.0
-0.0 -0.0 -0.0
-0.0 -0.0 -0.0
-0.0 -0.0 -0.0
-0.0 -0.0 -0.0
-0.0 -0.0 -0.0
-0.0 -0.0 -0.0
-0.0 -0.0 -0.0
-0.0 -0.0 -0.0
-0.0 -0.0 -0.0
-0.0 -0.0 -0.0
-0.0 -0.0 -0.0
-0.0 -0.0 -0.0
-0.0 -0.0 -0.0
-0.0 -0.0 -0.0
-0.0 -0.0 -0.0
-0.0 -0.0 -0.0
-0.0 -0.0 -0.0
-0.0 -0.0 -0.0
-0.0 -0.0 -0.0
-0.0 -0.0 -0.0
-0.0 -0.0 -0.0
-0.0 -0.0 -0.0
-0.0 -0.0 -0.0
-0.0 -0.0 -0.0
-0.0 -0.0 -0.0
-0.0 -0.0 -0.0
-0.0 -0.0 -0.0
-0.0 -0.0 -0.0
-0.0 -0.0 -0.0
-0.0 -0.0 -0.0
-0.0 -0.0 -0.0
-0.0 -0.0 -0.0
-0.0 -0.0 -0.0
-0.0 -0.0 -0.0
-0.0 -0.0 -0.0
-0.0 -0.0 -0.0
-0.0 -0.0 -0.0

VECTORS Vinf float
8.760677907226011 0.6969470977783203 3.9586431758214533
8.763391110656187 0.7067902684211731 3.969833560447842
8.763308200595304 0.706497848033905 3.969494231205136
8.766904327628538 0.7191335558891296 3.9840125666667525
8.767177555320188 0.7200602889060974 3.9850727246810504
8.771420869586393 0.7344730496406555 4.001893915395886
8.768382105586454 0.7242975831031799 3.9900025503446166
8.761685523745939 0.7011480331420898 3.9634703771878788
8.75826868748419 0.6888091564178467 3.9495776073743407
8.755139622447416 0.6767572164535522 3.936087258320004
8.751408133265898 0.6616198420524597 3.9193090574552123
8.747968766448423 0.646713376045227 3.902942158441693
8.749906215426847 0.6551620364189148 3.9122022764493534
8.753363940474912 0.6695936918258667 3.928124912243039
8.752507362124845 0.6661431789398193 3.9243109004308288
8.753561887500211 0.6703313589096069 3.928934998970181
8.750065419433042 0.655920147895813 3.9130574838925907
8.751194808242246 0.6606260538101196 3.918227352361829
8.750647935626432 0.6582176089286804 3.9155622498799865
8.75370702481024 0.6710314750671387 3.9297433869649474
8.754722985980436 0.6750379204750061 3.934186078767926
8.754157635924741 0.6727241277694702 3.9316043929864475
8.75362053847067 0.6705021858215332 3.9291289822866027
8.75311091875784 0.6683725118637085 3.9267592208196227
8.757205340621397 0.68440181016922 3.9445954935361445
8.756730231997892 0.6825396418571472 3.9425043837834903
8.756276759860441 0.680747926235199 3.9404951708127567
8.752569291350767 0.6660810708999634 3.924218364219815
8.752173456904814 0.6643959879875183 3.9223491327573363
8.75106630062811 0.6602441072463989 3.917846538286358
8.750668439624235 0.6584967970848083 3.9159132020284235
8.75381288265936 0.6714029312133789 3.9301743285466735
8.756070348975584 0.6802816987037659 3.9400592224408686
8.75568810438864 0.6787554621696472 3.938349224786908
8.75531879400961 0.6772724986076355 3.9366898314763605
8.75496217941992 0.675833523273468 3.9350813405324523
8.754617604968473 0.6744372248649597 3.9335227684785425
8.754286083934232 0.6730830669403076 3.9320122377683226
8.753966960666105 0.6717711687088013 3.9305497484017913
8.7536578509783 0.6705016493797302 3.9291379229833194
8.753360602614805 0.6692730784416199 3.9277722017575805
8.748447570559904 0.6486093997955322 3.905039109449536
8.748195442912504 0.6474425196647644 3.9037570731450617
8.747951183078214 0.6463044285774231 3.9025068657208988
8.751028511283323 0.6596583127975464 3.9171677903939788
8.750785979983732 0.6585957407951355 3.9159929530431334
8.750551018474027 0.65755695104599 3.914844490747601
8.750321302173063 0.6565420031547546 3.9137240426351134
8.750551972148344 0.6575770378112793 3.914867259721905
8.747857126948759 0.6464827656745911 3.9027644173909732
8.747857186553404 0.6464828848838806 3.9027643875886504
8.750552687404081 0.6575756669044495 3.914867378931195
8.750321838614866 0.6565409302711487 3.913724132042081
8.750551614520475 0.6575554609298706 3.9148445801545684
8.75078657603018 0.6585943102836609 3.9159930126477778
8.751029047725126 0.6596572399139404 3.9171679394055907
8.747951540706083 0.6463078260421753 3.902510591011197
8.748195800540373 0.6474458575248718 3.9037605600167815
8.748448047397062 0.6486126780509949 3.9050429241468017
8.753361437079832 0.6692748069763184 3.927775897245557
8.753658864257261 0.6705034971237183 3.9291415886689727
8.753968033549711 0.6717728972434998 3.9305534438897674
8.754287156817838 0.6730847954750061 3.9320157544423644
8.75461867785208 0.6744388937950134 3.9335264341641967
8.754963133094236 0.6758350133895874 3.935084767799527
8.755319807288572 0.6772740483283997 3.936693169336469
8.755688938853666 0.6787570714950562 3.9383526222516605
8.756071243045255 0.6802831292152405 3.9400624708940093
8.753813836333677 0.6714065074920654 3.9301789181043207
8.750669095275327 0.6585035920143127 3.915920443992764
8.751066956279203 0.6602508425712585 3.917853631239087
8.752173695323393 0.6643977165222168 3.922351278524548
8.752569648978636 0.6660827994346619 3.9242205397893493
8.756277713534757 0.6807485222816467 3.940497316579968
8.756730768439695 0.6825403571128845 3.9425067083646366
8.757205936667845 0.6844025254249573 3.9445976095010344
8.753111634013578 0.6683768630027771 3.9267643468190734
8.753620836493894 0.6705065965652466 3.9291336612512175
8.754158291575834 0.6727283596992493 3.9316091315557062
8.754723462817594 0.6750421524047852 3.934190549116284
8.753707859275266 0.6710338592529297 3.929746695022733
8.750648829696104 0.6582202911376953 3.9155660645772525
8.751195463893339 0.6606286764144897 3.91823110745445
8.75006613468878 0.6559248566627502 3.9130624608804285
8.75356236433737 0.6703365445137024 3.9289400951673095
8.752507600543424 0.6661494970321655 3.924316980104596
8.753364596126005 0.6695988774299622 3.9281306342889377
8.749907049891874 0.6551673412322998 3.912207909088284
8.747969422099516 0.6467216610908508 3.902949877243192
8.751408490893766 0.6616276502609253 3.9193158821870395
8.755140456912443 0.6767609119415283 3.9360918478776523
8.758269104716703 0.6888112425804138 3.9495807068158686
8.761686179397032 0.7011469602584839 3.963470734815747
8.76838305926077 0.7242938280105591 3.990001581769139
8.771421763656065 0.7344681620597839 4.001891873936803
8.767179283854887 0.7200522422790527 3.9850687460710112
8.76690635418646 0.7191246151924133 3.9840083049346506
8.763310465571806 0.7064868807792664 3.9694887475778162
8.763393494841978 0.706778347492218 3.9698277787972995
8.760680291411802 0.696933925151825 3.9586364404965946
8.760677907226011 0.6969470977783203 3.9586431758214533
8.763391110656187 0.7067902684211731 3.969833560447842
8.763308200595304 0.706497848033905 3.969494231205136
8.766904327628538 0.7191335558891296 3.9840125666667525
8.767177555320188 0.7200602889060974 3.9850727246810504
8.771420869586393 0.7344730496406555 4.001893915395886
8.768382105586454 0.7242975831031799 3.9900025503446166
8.761685523745939 0.7011480331420898 3.9634703771878788
8.75826868748419 0.6888091564178467 3.9495776073743407
8.755139622447416 0.6767572164535522 3.936087258320004
8.751408133265898 0.6616198420524597 3.9193090574552123
8.747968766448423 0.646713376045227 3.902942158441693
8.749906215426847 0.6551620364189148 3.9122022764493534
8.753363940474912 0.6695936918258667 3.928124912243039
8.752507362124845 0.6661431789398193 3.9243109004308288
8.753561887500211 0.6703313589096069 3.928934998970181
8.750065419433042 0.655920147895813 3.9130574838925907
8.751194808242246 0.6606260538101196 3.918227352361829
8.750647935626432 0.6582176089286804 3.9155622498799865
8.75370702481024 0.6710314750671387 3.9297433869649474
8.754722985980436 0.6750379204750061 3.934186078767926
8.754157635924741 0.6727241277694702 3.9316043929864475
8.75362053847067 0.6705021858215332 3.9291289822866027
8.75311091875784 0.6683725118637085 3.9267592208196227
8.757205340621397 0.68440181016922 3.9445954935361445
8.756730231997892 0.6825396418571472 3.9425043837834903
8.756276759860441 0.680747926235199 3.9404951708127567
8.752569291350767 0.6660810708999634 3.924218364219815
8.752173456904814 0.6643959879875183 3.9223491327573363
8.75106630062811 0.6602441072463989 3.917846538286358
8.750668439624235 0.6584967970848083 3.9159132020284235
8.75381288265936 0.6714029312133789 3.9301743285466735
8.756070348975584 0.6802816987037659 3.9400592224408686
8.75568810438864 0.6787554621696472 3.938349224786908
8.75531879400961 0.6772724986076355 3.9366898314763605
8.75496217941992 0.675833523273468 3.9350813405324523
8.754617604968473 0.6744372248649597 3.9335227684785425
8.754286083934232 0.6730830669403076 3.9320122377683226
8.753966960666105 0.6717711687088013 3.9305497484017913
8.7536578509783 0.6705016493797302 3.9291379229833194
8.753360602614805 0.6692730784416199 3.9277722017575805
8.748447570559904 0.6486093997955322 3.905039109449536
8.748195442912504 0.6474425196647644 3.9037570731450617
8.747951183078214 0.6463044285774231 3.9025068657208988
8.751028511283323 0.6596583127975464 3.9171677903939788
8.750785979983732 0.6585957407951355 3.9159929530431334
8.750551018474027 0.65755695104599 3.914844490747601
8.750321302173063 0.6565420031547546 3.9137240426351134
8.750551972148344 0.6575770378112793 3.914867259721905
8.747857126948759 0.6464827656745911 3.9027644173909732
8.747857186553404 0.6464828848838806 3.9027643875886504
8.750552687404081 0.6575756669044495 3.914867378931195
8.750321838614866 0.6565409302711487 3.913724132042081
8.750551614520475 0.6575554609298706 3.9148445801545684
8.75078657603018 0.6585943102836609 3.9159930126477778
8.751029047725126 0.6596572399139404 3.9171679394055907
8.747951540706083 0.6463078260421753 3.902510591011197
8.748195800540373 0.6474458575248718 3.9037605600167815
8.748448047397062 0.6486126780509949 3.9050429241468017
8.753361437079832 0.6692748069763184 3.927775897245557
8.753658864257261 0.6705034971237183 3.9291415886689727
8.753968033549711 0.6717728972434998 3.9305534438897674
8.754287156817838 0.6730847954750061 3.9320157544423644
8.75461867785208 0.6744388937950134 3.9335264341641967
8.754963133094236 0.6758350133895874 3.935084767799527
8.755319807288572 0.6772740483283997 3.936693169336469
8.755688938853666 0.6787570714950562 3.9383526222516605
8.756071243045255 0.6802831292152405 3.9400624708940093
8.753813836333677 0.6714065074920654 3.9301789181043207
8.750669095275327 0.6585035920143127 3.915920443992764
8.751066956279203 0.6602508425712585 3.917853631239087
8.752173695323393 0.6643977165222168 3.922351278524548
8.752569648978636 0.6660827994346619 3.9242205397893493
8.756277713534757 0.6807485222816467 3.940497316579968
8.756730768439695 0.6825403571128845 3.9425067083646366
8.757205936667845 0.6844025254249573 3.9445976095010344
8.753111634013578 0.6683768630027771 3.9267643468190734
8.753620836493894 0.6705065965652466 3.9291336612512175
8.754158291575834 0.6727283596992493 3.9316091315557062
8.754723462817594 0.6750421524047852 3.934190549116284
8.753707859275266 0.6710338592529297 3.929746695022733
8.750648829696104 0.6582202911376953 3.9155660645772525
8.751195463893339 0.6606286764144897 3.91823110745445
8.75006613468878 0.6559248566627502 3.9130624608804285
8.75356236433737 0.6703365445137024 3.9289400951673095
8.752507600543424 0.6661494970321655 3.924316980104596
8.753364596126005 0.6695988774299622 3.9281306342889377
8.749907049891874 0.6551673412322998 3.912207909088284
8.747969422099516 0.6467216610908508 3.902949877243192
8.751408490893766 0.6616276502609253 3.9193158821870395
8.755140456912443 0.6767609119415283 3.9360918478776523
8.758269104716703 0.6888112425804138 3.9495807068158686
8.761686179397032 0.7011469602584839 3.963470734815747
8.76838305926077 0.7242938280105591 3.990001581769139
8.771421763656065 0.7344681620597839 4.001891873936803
8.767179283854887 0.7200522422790527 3.9850687460710112
8.76690635418646 0.7191246151924133 3.9840083049346506
8.763310465571806 0.7064868807792664 3.9694887475778162
8.763393494841978 0.706778347492218 3.9698277787972995
8.760680291411802 0.696933925151825 3.9586364404965946

VECTORS Vvpm_AB float
-0.3294636905193329 0.5600872039794922 -0.4173796474933624
-0.3294612467288971 0.5600852966308594 -0.41738450527191157
-0.3294684588909149 0.5600885152816772 -0.4173782467842102
-0.3294924795627594 0.5600921511650085 -0.41736662387847906
-0.32950952649116516 0.5600970983505249 -0.417354553937912
-0.32953163981437683 0.5600998401641846 -0.4173447787761688
-0.32958850264549255 0.5601115822792053 -0.4173103272914887
-0.3295954763889313 0.5601118206977844 -0.41730979084968567
-0.32960447669029236 0.5601136088371277 -0.4173022210597992
-0.32959070801734924 0.5601121783256531 -0.41730755567550665
-0.3295741379261017 0.5601078867912292 -0.41731908917427063
-0.32957032322883606 0.5601072311401367 -0.41731727123260504
-0.3295576274394989 0.560106098651886 -0.4173208177089691
-0.329547256231308 0.5601050853729248 -0.4173234701156616
-0.3295413553714752 0.5601024031639099 -0.41732946038246155
-0.3295312821865082 0.5601014494895935 -0.4173326790332795
-0.32953545451164246 0.5601018071174622 -0.41732573509216314
-0.3295258581638336 0.5601009726524353 -0.4173291325569153
-0.32951632142066956 0.5600996017456055 -0.41733273863792425
-0.32950887084007263 0.5600987672805786 -0.41733416914939886
-0.3295036256313324 0.5600947141647339 -0.41734269261360174
-0.32949820160865784 0.5600944757461548 -0.4173443615436554
-0.32949259877204895 0.5600942969322205 -0.41734537482261663
-0.32949432730674744 0.5600937604904175 -0.41733947396278376
-0.3294889032840729 0.5600938200950623 -0.4173384904861451
-0.3295787274837494 0.5601092576980591 -0.41728064417839045
-0.32957151532173157 0.5601086020469666 -0.4172833561897277
-0.3295641243457794 0.560107409954071 -0.4172863960266114
-0.3295568525791168 0.560106635093689 -0.4172892272472382
-0.32955649495124817 0.5601012706756592 -0.4172977507114411
-0.3295504152774811 0.5601003766059875 -0.4173007607460022
-0.32954445481300354 0.5600990056991577 -0.41730377078056335
-0.32954415678977966 0.5600987672805786 -0.41729906201362615
-0.32954123616218567 0.5600988864898682 -0.41729941964149475
-0.3295382559299469 0.560099184513092 -0.4172997772693634
-0.3295347988605499 0.560099184513092 -0.41730022430419916
-0.329560786485672 0.5601010918617249 -0.41727113723754883
-0.32955530285835266 0.5601004362106323 -0.41727364063262934
-0.3295499384403229 0.5600997805595398 -0.41727593541145325
-0.3295482099056244 0.5601017475128174 -0.41727301478385925
-0.32954564690589905 0.5601036548614502 -0.4172706305980682
-0.32954052090644836 0.5601027607917786 -0.41727277636528015
-0.3295358121395111 0.5601027607917786 -0.4172743260860443
-0.3295306861400604 0.5601020455360413 -0.4172760546207428
-0.3295260965824127 0.5601021647453308 -0.41727769374847407
-0.3295210301876068 0.5601014494895935 -0.4172795116901398
-0.329515665769577 0.560100793838501 -0.4172822535037995
-0.3295104205608368 0.560100257396698 -0.41728413105010986
-0.3295353353023529 0.5601048469543457 -0.4172723293304444
-0.32960936427116394 0.5601089000701904 -0.4172205924987793
-0.3296094834804535 0.5601065158843994 -0.4172227382659912
-0.3295353949069977 0.5600983500480652 -0.41727802157402044
-0.32951053977012634 0.5600937008857727 -0.41728973388671875
-0.3295154869556427 0.5600940585136414 -0.41728761792182917
-0.3295212686061859 0.5600952506065369 -0.41728472709655756
-0.32952603697776794 0.5600957274436951 -0.41728299856185913
-0.3295309841632843 0.560096025466919 -0.41728127002716064
-0.32953575253486633 0.5600963234901428 -0.41727957129478455
-0.3295406401157379 0.5600969791412354 -0.41727772355079645
-0.3295457661151886 0.5600975751876831 -0.41727563738822937
-0.3295481503009796 0.5600961446762085 -0.4172779023647309
-0.3295500576496124 0.5600937604904175 -0.4172807335853577
-0.32955554127693176 0.5600946545600891 -0.41727834939956665
-0.32956066727638245 0.5600956678390503 -0.41727566719055176
-0.3295348584651947 0.560089647769928 -0.41730818152427673
-0.3295382559299469 0.5600897073745728 -0.41730752587318426
-0.3295415937900543 0.5600901246070862 -0.41730695962905884
-0.329544335603714 0.5600901246070862 -0.417306512594223
-0.32954439520835876 0.5600935816764832 -0.4173082709312439
-0.3295506536960602 0.5600948333740234 -0.4173052906990051
-0.3295566141605377 0.560096263885498 -0.4173021614551544
-0.3295568525791168 0.5600998997688293 -0.41729494929313665
-0.32956400513648987 0.5601008534431458 -0.4172918796539306
-0.32957175374031067 0.5601019263267517 -0.41728875041007996
-0.32957884669303894 0.5601028203964233 -0.4172860980033874
-0.329489141702652 0.5600897669792175 -0.4173422753810882
-0.3294946253299713 0.5600916147232056 -0.4173413813114166
-0.3294928967952728 0.5600897073745728 -0.4173493683338165
-0.3294980823993683 0.5600898265838623 -0.41734826564788824
-0.32950398325920105 0.5600902438163757 -0.41734650731086725
-0.32950904965400696 0.5600934624671936 -0.41733890771865845
-0.32951661944389343 0.560096025466919 -0.4173361361026764
-0.32952597737312317 0.5600969791412354 -0.41733214259147644
-0.3295353353023529 0.5600982308387756 -0.41732874512672424
-0.3295315206050873 0.5600971579551697 -0.41733619570732117
-0.32954129576683044 0.5600982904434204 -0.4173328280448914
-0.32954731583595276 0.5601016879081726 -0.417326420545578
-0.3295576870441437 0.5601040124893188 -0.41732278466224665
-0.32957038283348083 0.5601062774658203 -0.417318195104599
-0.3295743763446808 0.5601060390472412 -0.41732057929039
-0.3295905888080597 0.5601083040237427 -0.41731059551239014
-0.32960471510887146 0.5601090788841248 -0.41730606555938726
-0.3295953571796417 0.5601049065589905 -0.41731542348861694
-0.32958874106407166 0.5601041316986084 -0.41731682419776917
-0.32953158020973206 0.5600928664207458 -0.4173504114151001
-0.3295096457004547 0.5600888133049011 -0.4173615872859955
-0.3294927775859833 0.5600839853286743 -0.41737347841262823
-0.32946857810020447 0.5600794553756714 -0.4173859357833862
-0.3294614851474762 0.5600764751434326 -0.41739195585250854
-0.3294638693332672 0.5600770115852356 -0.417388379573822
-0.3294636905193329 0.5600872039794922 -0.4173796474933624
-0.3294612467288971 0.5600852966308594 -0.41738450527191157
-0.3294684588909149 0.5600885152816772 -0.4173782467842102
-0.3294924795627594 0.5600921511650085 -0.41736662387847906
-0.32950952649116516 0.5600970983505249 -0.417354553937912
-0.32953163981437683 0.5600998401641846 -0.4173447787761688
-0.32958850264549255 0.5601115822792053 -0.4173103272914887
-0.3295954763889313 0.5601118206977844 -0.41730979084968567
-0.32960447669029236 0.5601136088371277 -0.4173022210597992
-0.32959070801734924 0.5601121783256531 -0.41730755567550665
-0.3295741379261017 0.5601078867912292 -0.41731908917427063
-0.32957032322883606 0.5601072311401367 -0.41731727123260504
-0.3295576274394989 0.560106098651886 -0.4173208177089691
-0.329547256231308 0.5601050853729248 -0.4173234701156616
-0.3295413553714752 0.5601024031639099 -0.41732946038246155
-0.3295312821865082 0.5601014494895935 -0.4173326790332795
-0.32953545451164246 0.5601018071174622 -0.41732573509216314
-0.3295258581638336 0.5601009726524353 -0.4173291325569153
-0.32951632142066956 0.5600996017456055 -0.41733273863792425
-0.32950887084007263 0.5600987672805786 -0.41733416914939886
-0.3295036256313324 0.5600947141647339 -0.41734269261360174
-0.32949820160865784 0.5600944757461548 -0.4173443615436554
-0.32949259877204895 0.5600942969322205 -0.41734537482261663
-0.32949432730674744 0.5600937604904175 -0.41733947396278376
-0.3294889032840729 0.5600938200950623 -0.4173384904861451
-0.3295787274837494 0.5601092576980591 -0.41728064417839045
-0.32957151532173157 0.5601086020469666 -0.4172833561897277
-0.3295641243457794 0.560107409954071 -0.4172863960266114
-0.3295568525791168 0.560106635093689 -0.4172892272472382
-0.32955649495124817 0.5601012706756592 -0.4172977507114411
-0.3295504152774811 0.5601003766059875 -0.4173007607460022
-0.32954445481300354 0.5600990056991577 -0.41730377078056335
-0.32954415678977966 0.5600987672805786 -0.41729906201362615
-0.32954123616218567 0.5600988864898682 -0.41729941964149475
-0.3295382559299469 0.560099184513092 -0.4172997772693634
-0.3295347988605499 0.560099184513092 -0.41730022430419916
-0.329560786485672 0.5601010918617249 -0.41727113723754883
-0.32955530285835266 0.5601004362106323 -0.41727364063262934
-0.3295499384403229 0.5600997805595398 -0.41727593541145325
-0.3295482099056244 0.5601017475128174 -0.41727301478385925
-0.32954564690589905 0.5601036548614502 -0.4172706305980682
-0.32954052090644836 0.5601027607917786 -0.41727277636528015
-0.3295358121395111 0.5601027607917786 -0.4172743260860443
-0.3295306861400604 0.5601020455360413 -0.4172760546207428
-0.3295260965824127 0.5601021647453308 -0.41727769374847407
-0.3295210301876068 0.5601014494895935 -0.4172795116901398
-0.329515665769577 0.560100793838501 -0.4172822535037995
-0.3295104205608368 0.560100257396698 -0.41728413105010986
-0.3295353353023529 0.5601048469543457 -0.4172723293304444
-0.32960936427116394 0.5601089000701904 -0.4172205924987793
-0.3296094834804535 0.5601065158843994 -0.4172227382659912
-0.3295353949069977 0.5600983500480652 -0.41727802157402044
-0.32951053977012634 0.5600937008857727 -0.41728973388671875
-0.3295154869556427 0.5600940585136414 -0.41728761792182917
-0.3295212686061859 0.5600952506065369 -0.41728472709655756
-0.32952603697776794 0.5600957274436951 -0.41728299856185913
-0.3295309841632843 0.560096025466919 -0.41728127002716064
-0.32953575253486633 0.5600963234901428 -0.41727957129478455
-0.3295406401157379 0.5600969791412354 -0.41727772355079645
-0.3295457661151886 0.5600975751876831 -0.41727563738822937
-0.3295481503009796 0.5600961446762085 -0.4172779023647309
-0.3295500576496124 0.5600937604904175 -0.4172807335853577
-0.32955554127693176 0.5600946545600891 -0.41727834939956665
-0.32956066727638245 0.5600956678390503 -0.41727566719055176
-0.3295348584651947 0.560089647769928 -0.41730818152427673
-0.3295382559299469 0.5600897073745728 -0.41730752587318426
-0.3295415937900543 0.5600901246070862 -0.41730695962905884
-0.329544335603714 0.5600901246070862 -0.417306512594223
-0.32954439520835876 0.5600935816764832 -0.4173082709312439
-0.3295506536960602 0.5600948333740234 -0.4173052906990051
-0.3295566141605377 0.560096263885498 -0.4173021614551544
-0.3295568525791168 0.5600998997688293 -0.41729494929313665
-0.32956400513648987 0.5601008534431458 -0.4172918796539306
-0.32957175374031067 0.5601019263267517 -0.41728875041007996
-0.32957884669303894 0.5601028203964233 -0.4172860980033874
-0.329489141702652 0.5600897669792175 -0.4173422753810882
-0.3294946253299713 0.5600916147232056 -0.4173413813114166
-0.3294928967952728 0.5600897073745728 -0.4173493683338165
-0.3294980823993683 0.5600898265838623 -0.41734826564788824
-0.32950398325920105 0.5600902438163757 -0.41734650731086725
-0.32950904965400696 0.5600934624671936 -0.41733890771865845
-0.32951661944389343 0.560096025466919 -0.4173361361026764
-0.32952597737312317 0.5600969791412354 -0.41733214259147644
-0.3295353353023529 0.5600982308387756 -0.41732874512672424
-0.3295315206050873 0.5600971579551697 -0.41733619570732117
-0.32954129576683044 0.5600982904434204 -0.4173328280448914
-0.32954731583595276 0.5601016879081726 -0.417326420545578
-0.3295576870441437 0.5601040124893188 -0.41732278466224665
-0.32957038283348083 0.5601062774658203 -0.417318195104599
-0.3295743763446808 0.5601060390472412 -0.41732057929039
-0.3295905888080597 0.5601083040237427 -0.41731059551239014
-0.32960471510887146 0.5601090788841248 -0.41730606555938726
-0.3295953571796417 0.5601049065589905 -0.41731542348861694
-0.32958874106407166 0.5601041316986084 -0.41731682419776917
-0.32953158020973206 0.5600928664207458 -0.4173504114151001
-0.3295096457004547 0.5600888133049011 -0.4173615872859955
-0.3294927775859833 0.5600839853286743 -0.41737347841262823
-0.32946857810020447 0.5600794553756714 -0.4173859357833862
-0.3294614851474762 0.5600764751434326 -0.41739195585250854
-0.3294638693332672 0.5600770115852356 -0.417388379573822